<?xml version="1.0" encoding="utf-8"?>
<svg xmlns="http://www.w3.org/2000/svg" xmlns:xlink="http://www.w3.org/1999/xlink" width="600" height="400" viewBox="0 0 2400 1600">
<defs>
  <clipPath id="clip640">
    <rect x="0" y="0" width="2400" height="1600"/>
  </clipPath>
</defs>
<path clip-path="url(#clip640)" d="M0 1600 L2400 1600 L2400 8.88178e-14 L0 8.88178e-14  Z" fill="#ffffff" fill-rule="evenodd" fill-opacity="1"/>
<defs>
  <clipPath id="clip641">
    <rect x="480" y="0" width="1681" height="1600"/>
  </clipPath>
</defs>
<path clip-path="url(#clip640)" d="M147.478 1486.45 L2352.76 1486.45 L2352.76 47.2441 L147.478 47.2441  Z" fill="#ffffff" fill-rule="evenodd" fill-opacity="1"/>
<defs>
  <clipPath id="clip642">
    <rect x="147" y="47" width="2206" height="1440"/>
  </clipPath>
</defs>
<polyline clip-path="url(#clip642)" style="stroke:#000000; stroke-linecap:round; stroke-linejoin:round; stroke-width:2; stroke-opacity:0.1; fill:none" points="209.891,1486.45 209.891,47.2441 "/>
<polyline clip-path="url(#clip642)" style="stroke:#000000; stroke-linecap:round; stroke-linejoin:round; stroke-width:2; stroke-opacity:0.1; fill:none" points="730.004,1486.45 730.004,47.2441 "/>
<polyline clip-path="url(#clip642)" style="stroke:#000000; stroke-linecap:round; stroke-linejoin:round; stroke-width:2; stroke-opacity:0.1; fill:none" points="1250.12,1486.45 1250.12,47.2441 "/>
<polyline clip-path="url(#clip642)" style="stroke:#000000; stroke-linecap:round; stroke-linejoin:round; stroke-width:2; stroke-opacity:0.1; fill:none" points="1770.23,1486.45 1770.23,47.2441 "/>
<polyline clip-path="url(#clip642)" style="stroke:#000000; stroke-linecap:round; stroke-linejoin:round; stroke-width:2; stroke-opacity:0.1; fill:none" points="2290.34,1486.45 2290.34,47.2441 "/>
<polyline clip-path="url(#clip642)" style="stroke:#000000; stroke-linecap:round; stroke-linejoin:round; stroke-width:2; stroke-opacity:0.1; fill:none" points="147.478,1266.33 2352.76,1266.33 "/>
<polyline clip-path="url(#clip642)" style="stroke:#000000; stroke-linecap:round; stroke-linejoin:round; stroke-width:2; stroke-opacity:0.1; fill:none" points="147.478,1016.59 2352.76,1016.59 "/>
<polyline clip-path="url(#clip642)" style="stroke:#000000; stroke-linecap:round; stroke-linejoin:round; stroke-width:2; stroke-opacity:0.1; fill:none" points="147.478,766.846 2352.76,766.846 "/>
<polyline clip-path="url(#clip642)" style="stroke:#000000; stroke-linecap:round; stroke-linejoin:round; stroke-width:2; stroke-opacity:0.1; fill:none" points="147.478,517.104 2352.76,517.104 "/>
<polyline clip-path="url(#clip642)" style="stroke:#000000; stroke-linecap:round; stroke-linejoin:round; stroke-width:2; stroke-opacity:0.1; fill:none" points="147.478,267.362 2352.76,267.362 "/>
<polyline clip-path="url(#clip640)" style="stroke:#000000; stroke-linecap:round; stroke-linejoin:round; stroke-width:4; stroke-opacity:1; fill:none" points="147.478,1486.45 2352.76,1486.45 "/>
<polyline clip-path="url(#clip640)" style="stroke:#000000; stroke-linecap:round; stroke-linejoin:round; stroke-width:4; stroke-opacity:1; fill:none" points="209.891,1486.45 209.891,1467.55 "/>
<polyline clip-path="url(#clip640)" style="stroke:#000000; stroke-linecap:round; stroke-linejoin:round; stroke-width:4; stroke-opacity:1; fill:none" points="730.004,1486.45 730.004,1467.55 "/>
<polyline clip-path="url(#clip640)" style="stroke:#000000; stroke-linecap:round; stroke-linejoin:round; stroke-width:4; stroke-opacity:1; fill:none" points="1250.12,1486.45 1250.12,1467.55 "/>
<polyline clip-path="url(#clip640)" style="stroke:#000000; stroke-linecap:round; stroke-linejoin:round; stroke-width:4; stroke-opacity:1; fill:none" points="1770.23,1486.45 1770.23,1467.55 "/>
<polyline clip-path="url(#clip640)" style="stroke:#000000; stroke-linecap:round; stroke-linejoin:round; stroke-width:4; stroke-opacity:1; fill:none" points="2290.34,1486.45 2290.34,1467.55 "/>
<path clip-path="url(#clip640)" d="M187.276 1517.37 Q183.665 1517.37 181.836 1520.93 Q180.03 1524.47 180.03 1531.6 Q180.03 1538.71 181.836 1542.27 Q183.665 1545.82 187.276 1545.82 Q190.91 1545.82 192.716 1542.27 Q194.544 1538.71 194.544 1531.6 Q194.544 1524.47 192.716 1520.93 Q190.91 1517.37 187.276 1517.37 M187.276 1513.66 Q193.086 1513.66 196.142 1518.27 Q199.22 1522.85 199.22 1531.6 Q199.22 1540.33 196.142 1544.94 Q193.086 1549.52 187.276 1549.52 Q181.466 1549.52 178.387 1544.94 Q175.331 1540.33 175.331 1531.6 Q175.331 1522.85 178.387 1518.27 Q181.466 1513.66 187.276 1513.66 Z" fill="#000000" fill-rule="nonzero" fill-opacity="1" /><path clip-path="url(#clip640)" d="M207.438 1542.97 L212.322 1542.97 L212.322 1548.85 L207.438 1548.85 L207.438 1542.97 Z" fill="#000000" fill-rule="nonzero" fill-opacity="1" /><path clip-path="url(#clip640)" d="M232.507 1517.37 Q228.896 1517.37 227.067 1520.93 Q225.262 1524.47 225.262 1531.6 Q225.262 1538.71 227.067 1542.27 Q228.896 1545.82 232.507 1545.82 Q236.141 1545.82 237.947 1542.27 Q239.776 1538.71 239.776 1531.6 Q239.776 1524.47 237.947 1520.93 Q236.141 1517.37 232.507 1517.37 M232.507 1513.66 Q238.317 1513.66 241.373 1518.27 Q244.451 1522.85 244.451 1531.6 Q244.451 1540.33 241.373 1544.94 Q238.317 1549.52 232.507 1549.52 Q226.697 1549.52 223.618 1544.94 Q220.563 1540.33 220.563 1531.6 Q220.563 1522.85 223.618 1518.27 Q226.697 1513.66 232.507 1513.66 Z" fill="#000000" fill-rule="nonzero" fill-opacity="1" /><path clip-path="url(#clip640)" d="M701.74 1544.91 L718.06 1544.91 L718.06 1548.85 L696.115 1548.85 L696.115 1544.91 Q698.777 1542.16 703.361 1537.53 Q707.967 1532.88 709.148 1531.53 Q711.393 1529.01 712.273 1527.27 Q713.176 1525.51 713.176 1523.82 Q713.176 1521.07 711.231 1519.33 Q709.31 1517.6 706.208 1517.6 Q704.009 1517.6 701.555 1518.36 Q699.125 1519.13 696.347 1520.68 L696.347 1515.95 Q699.171 1514.82 701.625 1514.24 Q704.078 1513.66 706.115 1513.66 Q711.486 1513.66 714.68 1516.35 Q717.875 1519.03 717.875 1523.52 Q717.875 1525.65 717.064 1527.57 Q716.277 1529.47 714.171 1532.07 Q713.592 1532.74 710.49 1535.95 Q707.389 1539.15 701.74 1544.91 Z" fill="#000000" fill-rule="nonzero" fill-opacity="1" /><path clip-path="url(#clip640)" d="M727.875 1542.97 L732.759 1542.97 L732.759 1548.85 L727.875 1548.85 L727.875 1542.97 Z" fill="#000000" fill-rule="nonzero" fill-opacity="1" /><path clip-path="url(#clip640)" d="M742.99 1514.29 L761.347 1514.29 L761.347 1518.22 L747.273 1518.22 L747.273 1526.7 Q748.291 1526.35 749.31 1526.19 Q750.328 1526 751.347 1526 Q757.134 1526 760.513 1529.17 Q763.893 1532.34 763.893 1537.76 Q763.893 1543.34 760.421 1546.44 Q756.948 1549.52 750.629 1549.52 Q748.453 1549.52 746.185 1549.15 Q743.939 1548.78 741.532 1548.04 L741.532 1543.34 Q743.615 1544.47 745.837 1545.03 Q748.06 1545.58 750.536 1545.58 Q754.541 1545.58 756.879 1543.48 Q759.217 1541.37 759.217 1537.76 Q759.217 1534.15 756.879 1532.04 Q754.541 1529.94 750.536 1529.94 Q748.661 1529.94 746.786 1530.35 Q744.935 1530.77 742.99 1531.65 L742.99 1514.29 Z" fill="#000000" fill-rule="nonzero" fill-opacity="1" /><path clip-path="url(#clip640)" d="M1217.28 1514.29 L1235.64 1514.29 L1235.64 1518.22 L1221.56 1518.22 L1221.56 1526.7 Q1222.58 1526.35 1223.6 1526.19 Q1224.62 1526 1225.64 1526 Q1231.42 1526 1234.8 1529.17 Q1238.18 1532.34 1238.18 1537.76 Q1238.18 1543.34 1234.71 1546.44 Q1231.24 1549.52 1224.92 1549.52 Q1222.74 1549.52 1220.48 1549.15 Q1218.23 1548.78 1215.82 1548.04 L1215.82 1543.34 Q1217.91 1544.47 1220.13 1545.03 Q1222.35 1545.58 1224.83 1545.58 Q1228.83 1545.58 1231.17 1543.48 Q1233.51 1541.37 1233.51 1537.76 Q1233.51 1534.15 1231.17 1532.04 Q1228.83 1529.94 1224.83 1529.94 Q1222.95 1529.94 1221.08 1530.35 Q1219.23 1530.77 1217.28 1531.65 L1217.28 1514.29 Z" fill="#000000" fill-rule="nonzero" fill-opacity="1" /><path clip-path="url(#clip640)" d="M1247.4 1542.97 L1252.28 1542.97 L1252.28 1548.85 L1247.4 1548.85 L1247.4 1542.97 Z" fill="#000000" fill-rule="nonzero" fill-opacity="1" /><path clip-path="url(#clip640)" d="M1272.47 1517.37 Q1268.86 1517.37 1267.03 1520.93 Q1265.22 1524.47 1265.22 1531.6 Q1265.22 1538.71 1267.03 1542.27 Q1268.86 1545.82 1272.47 1545.82 Q1276.1 1545.82 1277.91 1542.27 Q1279.73 1538.71 1279.73 1531.6 Q1279.73 1524.47 1277.91 1520.93 Q1276.1 1517.37 1272.47 1517.37 M1272.47 1513.66 Q1278.28 1513.66 1281.33 1518.27 Q1284.41 1522.85 1284.41 1531.6 Q1284.41 1540.33 1281.33 1544.94 Q1278.28 1549.52 1272.47 1549.52 Q1266.66 1549.52 1263.58 1544.94 Q1260.52 1540.33 1260.52 1531.6 Q1260.52 1522.85 1263.58 1518.27 Q1266.66 1513.66 1272.47 1513.66 Z" fill="#000000" fill-rule="nonzero" fill-opacity="1" /><path clip-path="url(#clip640)" d="M1736.55 1514.29 L1758.77 1514.29 L1758.77 1516.28 L1746.23 1548.85 L1741.34 1548.85 L1753.15 1518.22 L1736.55 1518.22 L1736.55 1514.29 Z" fill="#000000" fill-rule="nonzero" fill-opacity="1" /><path clip-path="url(#clip640)" d="M1767.89 1542.97 L1772.78 1542.97 L1772.78 1548.85 L1767.89 1548.85 L1767.89 1542.97 Z" fill="#000000" fill-rule="nonzero" fill-opacity="1" /><path clip-path="url(#clip640)" d="M1783.01 1514.29 L1801.36 1514.29 L1801.36 1518.22 L1787.29 1518.22 L1787.29 1526.7 Q1788.31 1526.35 1789.33 1526.19 Q1790.35 1526 1791.36 1526 Q1797.15 1526 1800.53 1529.17 Q1803.91 1532.34 1803.91 1537.76 Q1803.91 1543.34 1800.44 1546.44 Q1796.97 1549.52 1790.65 1549.52 Q1788.47 1549.52 1786.2 1549.15 Q1783.96 1548.78 1781.55 1548.04 L1781.55 1543.34 Q1783.63 1544.47 1785.85 1545.03 Q1788.08 1545.58 1790.55 1545.58 Q1794.56 1545.58 1796.9 1543.48 Q1799.23 1541.37 1799.23 1537.76 Q1799.23 1534.15 1796.9 1532.04 Q1794.56 1529.94 1790.55 1529.94 Q1788.68 1529.94 1786.8 1530.35 Q1784.95 1530.77 1783.01 1531.65 L1783.01 1514.29 Z" fill="#000000" fill-rule="nonzero" fill-opacity="1" /><path clip-path="url(#clip640)" d="M2242.41 1544.91 L2250.05 1544.91 L2250.05 1518.55 L2241.74 1520.21 L2241.74 1515.95 L2250.01 1514.29 L2254.68 1514.29 L2254.68 1544.91 L2262.32 1544.91 L2262.32 1548.85 L2242.41 1548.85 L2242.41 1544.91 Z" fill="#000000" fill-rule="nonzero" fill-opacity="1" /><path clip-path="url(#clip640)" d="M2281.77 1517.37 Q2278.15 1517.37 2276.33 1520.93 Q2274.52 1524.47 2274.52 1531.6 Q2274.52 1538.71 2276.33 1542.27 Q2278.15 1545.82 2281.77 1545.82 Q2285.4 1545.82 2287.21 1542.27 Q2289.03 1538.71 2289.03 1531.6 Q2289.03 1524.47 2287.21 1520.93 Q2285.4 1517.37 2281.77 1517.37 M2281.77 1513.66 Q2287.58 1513.66 2290.63 1518.27 Q2293.71 1522.85 2293.71 1531.6 Q2293.71 1540.33 2290.63 1544.94 Q2287.58 1549.52 2281.77 1549.52 Q2275.96 1549.52 2272.88 1544.94 Q2269.82 1540.33 2269.82 1531.6 Q2269.82 1522.85 2272.88 1518.27 Q2275.96 1513.66 2281.77 1513.66 Z" fill="#000000" fill-rule="nonzero" fill-opacity="1" /><path clip-path="url(#clip640)" d="M2301.93 1542.97 L2306.81 1542.97 L2306.81 1548.85 L2301.93 1548.85 L2301.93 1542.97 Z" fill="#000000" fill-rule="nonzero" fill-opacity="1" /><path clip-path="url(#clip640)" d="M2327 1517.37 Q2323.39 1517.37 2321.56 1520.93 Q2319.75 1524.47 2319.75 1531.6 Q2319.75 1538.71 2321.56 1542.27 Q2323.39 1545.82 2327 1545.82 Q2330.63 1545.82 2332.44 1542.27 Q2334.27 1538.71 2334.27 1531.6 Q2334.27 1524.47 2332.44 1520.93 Q2330.63 1517.37 2327 1517.37 M2327 1513.66 Q2332.81 1513.66 2335.86 1518.27 Q2338.94 1522.85 2338.94 1531.6 Q2338.94 1540.33 2335.86 1544.94 Q2332.81 1549.52 2327 1549.52 Q2321.19 1549.52 2318.11 1544.94 Q2315.05 1540.33 2315.05 1531.6 Q2315.05 1522.85 2318.11 1518.27 Q2321.19 1513.66 2327 1513.66 Z" fill="#000000" fill-rule="nonzero" fill-opacity="1" /><polyline clip-path="url(#clip640)" style="stroke:#000000; stroke-linecap:round; stroke-linejoin:round; stroke-width:4; stroke-opacity:1; fill:none" points="147.478,1486.45 147.478,47.2441 "/>
<polyline clip-path="url(#clip640)" style="stroke:#000000; stroke-linecap:round; stroke-linejoin:round; stroke-width:4; stroke-opacity:1; fill:none" points="147.478,1266.33 166.376,1266.33 "/>
<polyline clip-path="url(#clip640)" style="stroke:#000000; stroke-linecap:round; stroke-linejoin:round; stroke-width:4; stroke-opacity:1; fill:none" points="147.478,1016.59 166.376,1016.59 "/>
<polyline clip-path="url(#clip640)" style="stroke:#000000; stroke-linecap:round; stroke-linejoin:round; stroke-width:4; stroke-opacity:1; fill:none" points="147.478,766.846 166.376,766.846 "/>
<polyline clip-path="url(#clip640)" style="stroke:#000000; stroke-linecap:round; stroke-linejoin:round; stroke-width:4; stroke-opacity:1; fill:none" points="147.478,517.104 166.376,517.104 "/>
<polyline clip-path="url(#clip640)" style="stroke:#000000; stroke-linecap:round; stroke-linejoin:round; stroke-width:4; stroke-opacity:1; fill:none" points="147.478,267.362 166.376,267.362 "/>
<path clip-path="url(#clip640)" d="M51.3625 1266.78 L81.0383 1266.78 L81.0383 1270.72 L51.3625 1270.72 L51.3625 1266.78 Z" fill="#000000" fill-rule="nonzero" fill-opacity="1" /><path clip-path="url(#clip640)" d="M95.1586 1279.68 L111.478 1279.68 L111.478 1283.61 L89.5336 1283.61 L89.5336 1279.68 Q92.1956 1276.92 96.7789 1272.29 Q101.385 1267.64 102.566 1266.3 Q104.811 1263.77 105.691 1262.04 Q106.594 1260.28 106.594 1258.59 Q106.594 1255.83 104.649 1254.1 Q102.728 1252.36 99.6261 1252.36 Q97.4271 1252.36 94.9734 1253.13 Q92.5428 1253.89 89.7651 1255.44 L89.7651 1250.72 Q92.5891 1249.58 95.0428 1249 Q97.4965 1248.43 99.5335 1248.43 Q104.904 1248.43 108.098 1251.11 Q111.293 1253.8 111.293 1258.29 Q111.293 1260.42 110.483 1262.34 Q109.696 1264.24 107.589 1266.83 Q107.01 1267.5 103.909 1270.72 Q100.807 1273.91 95.1586 1279.68 Z" fill="#000000" fill-rule="nonzero" fill-opacity="1" /><path clip-path="url(#clip640)" d="M50.9921 1017.04 L80.6679 1017.04 L80.6679 1020.98 L50.9921 1020.98 L50.9921 1017.04 Z" fill="#000000" fill-rule="nonzero" fill-opacity="1" /><path clip-path="url(#clip640)" d="M91.5706 1029.93 L99.2095 1029.93 L99.2095 1003.57 L90.8993 1005.23 L90.8993 1000.98 L99.1632 999.309 L103.839 999.309 L103.839 1029.93 L111.478 1029.93 L111.478 1033.87 L91.5706 1033.87 L91.5706 1029.93 Z" fill="#000000" fill-rule="nonzero" fill-opacity="1" /><path clip-path="url(#clip640)" d="M99.5335 752.645 Q95.9224 752.645 94.0937 756.21 Q92.2882 759.752 92.2882 766.881 Q92.2882 773.988 94.0937 777.552 Q95.9224 781.094 99.5335 781.094 Q103.168 781.094 104.973 777.552 Q106.802 773.988 106.802 766.881 Q106.802 759.752 104.973 756.21 Q103.168 752.645 99.5335 752.645 M99.5335 748.941 Q105.344 748.941 108.399 753.548 Q111.478 758.131 111.478 766.881 Q111.478 775.608 108.399 780.214 Q105.344 784.798 99.5335 784.798 Q93.7234 784.798 90.6447 780.214 Q87.5892 775.608 87.5892 766.881 Q87.5892 758.131 90.6447 753.548 Q93.7234 748.941 99.5335 748.941 Z" fill="#000000" fill-rule="nonzero" fill-opacity="1" /><path clip-path="url(#clip640)" d="M91.5706 530.449 L99.2095 530.449 L99.2095 504.083 L90.8993 505.75 L90.8993 501.491 L99.1632 499.824 L103.839 499.824 L103.839 530.449 L111.478 530.449 L111.478 534.384 L91.5706 534.384 L91.5706 530.449 Z" fill="#000000" fill-rule="nonzero" fill-opacity="1" /><path clip-path="url(#clip640)" d="M95.1586 280.707 L111.478 280.707 L111.478 284.642 L89.5336 284.642 L89.5336 280.707 Q92.1956 277.952 96.7789 273.322 Q101.385 268.67 102.566 267.327 Q104.811 264.804 105.691 263.068 Q106.594 261.308 106.594 259.619 Q106.594 256.864 104.649 255.128 Q102.728 253.392 99.6261 253.392 Q97.4271 253.392 94.9734 254.156 Q92.5428 254.92 89.7651 256.471 L89.7651 251.748 Q92.5891 250.614 95.0428 250.035 Q97.4965 249.457 99.5335 249.457 Q104.904 249.457 108.098 252.142 Q111.293 254.827 111.293 259.318 Q111.293 261.447 110.483 263.369 Q109.696 265.267 107.589 267.859 Q107.01 268.531 103.909 271.748 Q100.807 274.943 95.1586 280.707 Z" fill="#000000" fill-rule="nonzero" fill-opacity="1" /><polyline clip-path="url(#clip642)" style="stroke:#009af9; stroke-linecap:round; stroke-linejoin:round; stroke-width:8; stroke-opacity:1; fill:none" points="209.891,87.9763 211.972,88.0102 214.052,88.112 216.133,88.2817 218.213,88.5193 220.294,88.8247 222.374,89.1979 224.455,89.6388 226.535,90.1475 228.615,90.7238 230.696,91.3678 232.776,92.0793 234.857,92.8583 236.937,93.7047 239.018,94.6183 241.098,95.5993 243.179,96.6473 245.259,97.7623 247.34,98.9443 249.42,100.193 251.5,101.508 253.581,102.89 255.661,104.339 257.742,105.853 259.822,107.434 261.903,109.081 263.983,110.793 266.064,112.571 268.144,114.415 270.225,116.323 272.305,118.297 274.385,120.336 276.466,122.439 278.546,124.607 280.627,126.838 282.707,129.134 284.788,131.494 286.868,133.917 288.949,136.404 291.029,138.953 293.109,141.566 295.19,144.24 297.27,146.978 299.351,149.777 301.431,152.638 303.512,155.56 305.592,158.543 307.673,161.587 309.753,164.692 311.834,167.857 313.914,171.082 315.994,174.366 318.075,177.71 320.155,181.112 322.236,184.574 324.316,188.093 326.397,191.67 328.477,195.305 330.558,198.997 332.638,202.746 334.718,206.551 336.799,210.412 338.879,214.329 340.96,218.301 343.04,222.328 345.121,226.409 347.201,230.544 349.282,234.733 351.362,238.976 353.443,243.271 355.523,247.618 357.603,252.017 359.684,256.468 361.764,260.97 363.845,265.522 365.925,270.125 368.006,274.777 370.086,279.478 372.167,284.228 374.247,289.027 376.328,293.873 378.408,298.767 380.488,303.707 382.569,308.693 384.649,313.726 386.73,318.804 388.81,323.926 390.891,329.093 392.971,334.304 395.052,339.557 397.132,344.854 399.212,350.193 401.293,355.573 403.373,360.995 405.454,366.457 407.534,371.959 409.615,377.501 411.695,383.081 413.776,388.7 415.856,394.357 417.937,400.051 420.017,405.782 422.097,411.549 424.178,417.351 426.258,423.189 428.339,429.06 430.419,434.966 432.5,440.904 434.58,446.876 436.661,452.879 438.741,458.914 440.821,464.979 442.902,471.075 444.982,477.2 447.063,483.354 449.143,489.536 451.224,495.747 453.304,501.984 455.385,508.248 457.465,514.538 459.546,520.853 461.626,527.192 463.706,533.556 465.787,539.942 467.867,546.352 469.948,552.783 472.028,559.236 474.109,565.71 476.189,572.204 478.27,578.717 480.35,585.249 482.431,591.8 484.511,598.368 486.591,604.952 488.672,611.553 490.752,618.169 492.833,624.801 494.913,631.446 496.994,638.105 499.074,644.777 501.155,651.461 503.235,658.156 505.315,664.863 507.396,671.579 509.476,678.306 511.557,685.041 513.637,691.784 515.718,698.535 517.798,705.292 519.879,712.056 521.959,718.825 524.04,725.599 526.12,732.377 528.2,739.159 530.281,745.943 532.361,752.729 534.442,759.517 536.522,766.306 538.603,773.094 540.683,779.882 542.764,786.669 544.844,793.454 546.924,800.236 549.005,807.015 551.085,813.789 553.166,820.559 555.246,827.324 557.327,834.082 559.407,840.834 561.488,847.579 563.568,854.315 565.649,861.043 567.729,867.761 569.809,874.469 571.89,881.166 573.97,887.852 576.051,894.526 578.131,901.187 580.212,907.835 582.292,914.468 584.373,921.087 586.453,927.69 588.534,934.278 590.614,940.848 592.694,947.401 594.775,953.936 596.855,960.453 598.936,966.95 601.016,973.427 603.097,979.883 605.177,986.318 607.258,992.731 609.338,999.122 611.418,1005.49 613.499,1011.83 615.579,1018.15 617.66,1024.44 619.74,1030.71 621.821,1036.95 623.901,1043.17 625.982,1049.36 628.062,1055.51 630.143,1061.64 632.223,1067.75 634.303,1073.82 636.384,1079.85 638.464,1085.86 640.545,1091.84 642.625,1097.78 644.706,1103.69 646.786,1109.57 648.867,1115.41 650.947,1121.22 653.027,1126.99 655.108,1132.73 657.188,1138.43 659.269,1144.09 661.349,1149.72 663.43,1155.31 665.51,1160.85 667.591,1166.36 669.671,1171.83 671.752,1177.26 673.832,1182.65 675.912,1187.99 677.993,1193.29 680.073,1198.56 682.154,1203.77 684.234,1208.95 686.315,1214.08 688.395,1219.16 690.476,1224.2 692.556,1229.19 694.637,1234.14 696.717,1239.04 698.797,1243.9 700.878,1248.7 702.958,1253.46 705.039,1258.17 707.119,1262.83 709.2,1267.44 711.28,1272 713.361,1276.51 715.441,1280.97 717.521,1285.38 719.602,1289.73 721.682,1294.04 723.763,1298.29 725.843,1302.48 727.924,1306.63 730.004,1310.72 732.085,1314.75 734.165,1318.74 736.246,1322.66 738.326,1326.53 740.406,1330.34 742.487,1334.1 744.567,1337.8 746.648,1341.45 748.728,1345.03 750.809,1348.56 752.889,1352.03 754.97,1355.44 757.05,1358.8 759.13,1362.09 761.211,1365.33 763.291,1368.5 765.372,1371.62 767.452,1374.67 769.533,1377.66 771.613,1380.59 773.694,1383.46 775.774,1386.27 777.855,1389.02 779.935,1391.71 782.015,1394.33 784.096,1396.89 786.176,1399.38 788.257,1401.82 790.337,1404.19 792.418,1406.49 794.498,1408.74 796.579,1410.91 798.659,1413.03 800.74,1415.08 802.82,1417.06 804.9,1418.98 806.981,1420.83 809.061,1422.62 811.142,1424.34 813.222,1426 815.303,1427.59 817.383,1429.12 819.464,1430.58 821.544,1431.97 823.624,1433.29 825.705,1434.55 827.785,1435.75 829.866,1436.87 831.946,1437.93 834.027,1438.92 836.107,1439.85 838.188,1440.7 840.268,1441.49 842.349,1442.22 844.429,1442.87 846.509,1443.46 848.59,1443.98 850.67,1444.43 852.751,1444.81 854.831,1445.13 856.912,1445.38 858.992,1445.56 861.073,1445.67 863.153,1445.72 865.233,1445.69 867.314,1445.6 869.394,1445.44 871.475,1445.22 873.555,1444.92 875.636,1444.56 877.716,1444.13 879.797,1443.63 881.877,1443.07 883.958,1442.43 886.038,1441.73 888.118,1440.96 890.199,1440.13 892.279,1439.22 894.36,1438.25 896.44,1437.22 898.521,1436.11 900.601,1434.94 902.682,1433.7 904.762,1432.4 906.843,1431.03 908.923,1429.59 911.003,1428.09 913.084,1426.51 915.164,1424.88 917.245,1423.18 919.325,1421.41 921.406,1419.58 923.486,1417.68 925.567,1415.71 927.647,1413.69 929.727,1411.59 931.808,1409.44 933.888,1407.21 935.969,1404.93 938.049,1402.58 940.13,1400.17 942.21,1397.69 944.291,1395.15 946.371,1392.55 948.452,1389.88 950.532,1387.16 952.612,1384.37 954.693,1381.52 956.773,1378.6 958.854,1375.63 960.934,1372.59 963.015,1369.5 965.095,1366.34 967.176,1363.13 969.256,1359.85 971.336,1356.52 973.417,1353.13 975.497,1349.67 977.578,1346.16 979.658,1342.6 981.739,1338.97 983.819,1335.29 985.9,1331.55 987.98,1327.75 990.061,1323.9 992.141,1319.99 994.221,1316.03 996.302,1312.01 998.382,1307.94 1000.46,1303.81 1002.54,1299.63 1004.62,1295.4 1006.7,1291.11 1008.78,1286.77 1010.87,1282.38 1012.95,1277.94 1015.03,1273.44 1017.11,1268.9 1019.19,1264.3 1021.27,1259.66 1023.35,1254.97 1025.43,1250.22 1027.51,1245.43 1029.59,1240.59 1031.67,1235.71 1033.75,1230.78 1035.83,1225.8 1037.91,1220.77 1039.99,1215.7 1042.07,1210.59 1044.15,1205.43 1046.23,1200.22 1048.31,1194.98 1050.39,1189.69 1052.47,1184.35 1054.55,1178.98 1056.63,1173.56 1058.72,1168.11 1060.8,1162.61 1062.88,1157.08 1064.96,1151.5 1067.04,1145.89 1069.12,1140.24 1071.2,1134.55 1073.28,1128.83 1075.36,1123.06 1077.44,1117.27 1079.52,1111.44 1081.6,1105.57 1083.68,1099.67 1085.76,1093.74 1087.84,1087.77 1089.92,1081.77 1092,1075.74 1094.08,1069.68 1096.16,1063.59 1098.24,1057.47 1100.32,1051.32 1102.4,1045.14 1104.49,1038.94 1106.57,1032.7 1108.65,1026.44 1110.73,1020.16 1112.81,1013.85 1114.89,1007.51 1116.97,1001.15 1119.05,994.769 1121.13,988.363 1123.21,981.935 1125.29,975.486 1127.37,969.015 1129.45,962.524 1131.53,956.014 1133.61,949.485 1135.69,942.938 1137.77,936.372 1139.85,929.79 1141.93,923.192 1144.01,916.578 1146.09,909.949 1148.17,903.306 1150.26,896.649 1152.34,889.98 1154.42,883.297 1156.5,876.604 1158.58,869.899 1160.66,863.184 1162.74,856.459 1164.82,849.725 1166.9,842.983 1168.98,836.234 1171.06,829.477 1173.14,822.715 1175.22,815.946 1177.3,809.173 1179.38,802.395 1181.46,795.614 1183.54,788.83 1185.62,782.044 1187.7,775.257 1189.78,768.468 1191.86,761.68 1193.94,754.891 1196.03,748.104 1198.11,741.319 1200.19,734.537 1202.27,727.758 1204.35,720.982 1206.43,714.211 1208.51,707.446 1210.59,700.686 1212.67,693.933 1214.75,687.188 1216.83,680.45 1218.91,673.721 1220.99,667.001 1223.07,660.291 1225.15,653.592 1227.23,646.905 1229.31,640.229 1231.39,633.566 1233.47,626.916 1235.55,620.28 1237.63,613.659 1239.71,607.053 1241.8,600.463 1243.88,593.89 1245.96,587.334 1248.04,580.796 1250.12,574.277 1252.2,567.777 1254.28,561.296 1256.36,554.837 1258.44,548.398 1260.52,541.982 1262.6,535.587 1264.68,529.216 1266.76,522.869 1268.84,516.546 1270.92,510.249 1273,503.976 1275.08,497.731 1277.16,491.512 1279.24,485.32 1281.32,479.157 1283.4,473.022 1285.48,466.917 1287.57,460.842 1289.65,454.798 1291.73,448.784 1293.81,442.803 1295.89,436.854 1297.97,430.938 1300.05,425.055 1302.13,419.207 1304.21,413.393 1306.29,407.615 1308.37,401.873 1310.45,396.167 1312.53,390.498 1314.61,384.867 1316.69,379.274 1318.77,373.72 1320.85,368.205 1322.93,362.73 1325.01,357.296 1327.09,351.902 1329.17,346.55 1331.25,341.24 1333.33,335.972 1335.42,330.748 1337.5,325.567 1339.58,320.43 1341.66,315.338 1343.74,310.291 1345.82,305.29 1347.9,300.335 1349.98,295.427 1352.06,290.565 1354.14,285.752 1356.22,280.986 1358.3,276.269 1360.38,271.601 1362.46,266.983 1364.54,262.414 1366.62,257.896 1368.7,253.429 1370.78,249.014 1372.86,244.65 1374.94,240.338 1377.02,236.079 1379.1,231.873 1381.19,227.72 1383.27,223.622 1385.35,219.577 1387.43,215.588 1389.51,211.653 1391.59,207.775 1393.67,203.952 1395.75,200.185 1397.83,196.475 1399.91,192.822 1401.99,189.226 1404.07,185.688 1406.15,182.209 1408.23,178.787 1410.31,175.425 1412.39,172.122 1414.47,168.878 1416.55,165.694 1418.63,162.57 1420.71,159.506 1422.79,156.503 1424.87,153.562 1426.96,150.681 1429.04,147.862 1431.12,145.106 1433.2,142.411 1435.28,139.779 1437.36,137.209 1439.44,134.702 1441.52,132.259 1443.6,129.879 1445.68,127.563 1447.76,125.31 1449.84,123.122 1451.92,120.999 1454,118.939 1456.08,116.945 1458.16,115.015 1460.24,113.151 1462.32,111.352 1464.4,109.619 1466.48,107.951 1468.56,106.35 1470.64,104.814 1472.73,103.345 1474.81,101.941 1476.89,100.605 1478.97,99.3348 1481.05,98.1316 1483.13,96.9952 1485.21,95.9258 1487.29,94.9235 1489.37,93.9884 1491.45,93.1206 1493.53,92.3201 1495.61,91.5871 1497.69,90.9216 1499.77,90.3237 1501.85,89.7935 1503.93,89.331 1506.01,88.9362 1508.09,88.6092 1510.17,88.3501 1512.25,88.1587 1514.33,88.0353 1516.41,87.9797 1518.5,87.992 1520.58,88.0722 1522.66,88.2203 1524.74,88.4363 1526.82,88.7201 1528.9,89.0716 1530.98,89.491 1533.06,89.9781 1535.14,90.5329 1537.22,91.1553 1539.3,91.8453 1541.38,92.6028 1543.46,93.4277 1545.54,94.32 1547.62,95.2795 1549.7,96.3062 1551.78,97.3999 1553.86,98.5606 1555.94,99.7881 1558.02,101.082 1560.1,102.443 1562.18,103.87 1564.27,105.364 1566.35,106.923 1568.43,108.549 1570.51,110.241 1572.59,111.998 1574.67,113.82 1576.75,115.708 1578.83,117.661 1580.91,119.679 1582.99,121.762 1585.07,123.909 1587.15,126.121 1589.23,128.396 1591.31,130.735 1593.39,133.138 1595.47,135.605 1597.55,138.134 1599.63,140.727 1601.71,143.382 1603.79,146.099 1605.87,148.878 1607.95,151.72 1610.03,154.622 1612.12,157.586 1614.2,160.611 1616.28,163.697 1618.36,166.842 1620.44,170.048 1622.52,173.314 1624.6,176.638 1626.68,180.022 1628.76,183.465 1630.84,186.966 1632.92,190.524 1635,194.141 1637.08,197.815 1639.16,201.545 1641.24,205.333 1643.32,209.176 1645.4,213.075 1647.48,217.029 1649.56,221.039 1651.64,225.103 1653.72,229.221 1655.8,233.393 1657.89,237.618 1659.97,241.897 1662.05,246.227 1664.13,250.61 1666.21,255.045 1668.29,259.53 1670.37,264.067 1672.45,268.653 1674.53,273.29 1676.61,277.975 1678.69,282.71 1680.77,287.493 1682.85,292.324 1684.93,297.203 1687.01,302.128 1689.09,307.1 1691.17,312.118 1693.25,317.181 1695.33,322.29 1697.41,327.442 1699.49,332.639 1701.57,337.879 1703.66,343.162 1705.74,348.488 1707.82,353.855 1709.9,359.263 1711.98,364.713 1714.06,370.202 1716.14,375.731 1718.22,381.3 1720.3,386.906 1722.38,392.551 1724.46,398.234 1726.54,403.953 1728.62,409.708 1730.7,415.499 1732.78,421.325 1734.86,427.186 1736.94,433.081 1739.02,439.009 1741.1,444.97 1743.18,450.963 1745.26,456.988 1747.34,463.044 1749.43,469.13 1751.51,475.246 1753.59,481.391 1755.67,487.564 1757.75,493.766 1759.83,499.994 1761.91,506.25 1763.99,512.531 1766.07,518.838 1768.15,525.17 1770.23,531.526 1772.31,537.906 1774.39,544.308 1776.47,550.732 1778.55,557.179 1780.63,563.646 1782.71,570.133 1784.79,576.641 1786.87,583.167 1788.95,589.711 1791.03,596.274 1793.11,602.853 1795.2,609.449 1797.28,616.06 1799.36,622.687 1801.44,629.328 1803.52,635.982 1805.6,642.65 1807.68,649.33 1809.76,656.022 1811.84,662.725 1813.92,669.439 1816,676.162 1818.08,682.894 1820.16,689.635 1822.24,696.384 1824.32,703.139 1826.4,709.901 1828.48,716.668 1830.56,723.441 1832.64,730.218 1834.72,736.998 1836.8,743.782 1838.88,750.568 1840.96,757.355 1843.05,764.143 1845.13,770.932 1847.21,777.72 1849.29,784.508 1851.37,791.293 1853.45,798.076 1855.53,804.856 1857.61,811.632 1859.69,818.403 1861.77,825.17 1863.85,831.93 1865.93,838.684 1868.01,845.431 1870.09,852.17 1872.17,858.901 1874.25,865.622 1876.33,872.333 1878.41,879.034 1880.49,885.724 1882.57,892.402 1884.65,899.067 1886.73,905.719 1888.82,912.357 1890.9,918.98 1892.98,925.589 1895.06,932.181 1897.14,938.757 1899.22,945.316 1901.3,951.857 1903.38,958.379 1905.46,964.882 1907.54,971.366 1909.62,977.829 1911.7,984.271 1913.78,990.691 1915.86,997.089 1917.94,1003.46 1920.02,1009.81 1922.1,1016.14 1924.18,1022.44 1926.26,1028.72 1928.34,1034.97 1930.42,1041.19 1932.5,1047.39 1934.59,1053.56 1936.67,1059.7 1938.75,1065.81 1940.83,1071.89 1942.91,1077.93 1944.99,1083.95 1947.07,1089.94 1949.15,1095.89 1951.23,1101.82 1953.31,1107.7 1955.39,1113.56 1957.47,1119.38 1959.55,1125.16 1961.63,1130.91 1963.71,1136.62 1965.79,1142.29 1967.87,1147.93 1969.95,1153.53 1972.03,1159.09 1974.11,1164.61 1976.19,1170.09 1978.27,1175.53 1980.36,1180.93 1982.44,1186.29 1984.52,1191.61 1986.6,1196.88 1988.68,1202.12 1990.76,1207.3 1992.84,1212.45 1994.92,1217.55 1997,1222.6 1999.08,1227.61 2001.16,1232.57 2003.24,1237.49 2005.32,1242.36 2007.4,1247.18 2009.48,1251.95 2011.56,1256.68 2013.64,1261.35 2015.72,1265.98 2017.8,1270.55 2019.88,1275.08 2021.96,1279.56 2024.04,1283.98 2026.13,1288.35 2028.21,1292.67 2030.29,1296.94 2032.37,1301.15 2034.45,1305.31 2036.53,1309.42 2038.61,1313.47 2040.69,1317.47 2042.77,1321.42 2044.85,1325.3 2046.93,1329.14 2049.01,1332.91 2051.09,1336.63 2053.17,1340.29 2055.25,1343.9 2057.33,1347.44 2059.41,1350.93 2061.49,1354.36 2063.57,1357.74 2065.65,1361.05 2067.73,1364.3 2069.81,1367.5 2071.9,1370.63 2073.98,1373.7 2076.06,1376.72 2078.14,1379.67 2080.22,1382.56 2082.3,1385.39 2084.38,1388.15 2086.46,1390.86 2088.54,1393.5 2090.62,1396.08 2092.7,1398.6 2094.78,1401.05 2096.86,1403.44 2098.94,1405.77 2101.02,1408.03 2103.1,1410.23 2105.18,1412.36 2107.26,1414.43 2109.34,1416.43 2111.42,1418.37 2113.5,1420.25 2115.58,1422.06 2117.66,1423.8 2119.75,1425.48 2121.83,1427.09 2123.91,1428.64 2125.99,1430.12 2128.07,1431.53 2130.15,1432.88 2132.23,1434.16 2134.31,1435.37 2136.39,1436.52 2138.47,1437.6 2140.55,1438.61 2142.63,1439.56 2144.71,1440.44 2146.79,1441.25 2148.87,1441.99 2150.95,1442.67 2153.03,1443.28 2155.11,1443.82 2157.19,1444.29 2159.27,1444.7 2161.35,1445.04 2163.43,1445.31 2165.52,1445.51 2167.6,1445.64 2169.68,1445.71 2171.76,1445.71 2173.84,1445.64 2175.92,1445.5 2178,1445.3 2180.08,1445.02 2182.16,1444.68 2184.24,1444.27 2186.32,1443.8 2188.4,1443.25 2190.48,1442.64 2192.56,1441.96 2194.64,1441.22 2196.72,1440.4 2198.8,1439.52 2200.88,1438.57 2202.96,1437.55 2205.04,1436.47 2207.12,1435.32 2209.2,1434.1 2211.29,1432.82 2213.37,1431.47 2215.45,1430.05 2217.53,1428.57 2219.61,1427.02 2221.69,1425.41 2223.77,1423.73 2225.85,1421.98 2227.93,1420.17 2230.01,1418.29 2232.09,1416.35 2234.17,1414.34 2236.25,1412.27 2238.33,1410.13 2240.41,1407.93 2242.49,1405.66 2244.57,1403.33 2246.65,1400.94 2248.73,1398.49 2250.81,1395.97 2252.89,1393.38 2254.97,1390.74 2257.06,1388.03 2259.14,1385.26 2261.22,1382.43 2263.3,1379.54 2265.38,1376.58 2267.46,1373.57 2269.54,1370.49 2271.62,1367.36 2273.7,1364.16 2275.78,1360.9 2277.86,1357.59 2279.94,1354.21 2282.02,1350.78 2284.1,1347.29 2286.18,1343.74 2288.26,1340.13 2290.34,1336.47 "/>
<polyline clip-path="url(#clip642)" style="stroke:#e26f46; stroke-linecap:round; stroke-linejoin:round; stroke-width:8; stroke-opacity:1; fill:none" points="209.891,766.846 211.972,760.058 214.052,753.27 216.133,746.483 218.213,739.699 220.294,732.917 222.374,726.139 224.455,719.364 226.535,712.595 228.615,705.831 230.696,699.072 232.776,692.321 234.857,685.577 236.937,678.842 239.018,672.115 241.098,665.397 243.179,658.69 245.259,651.994 247.34,645.309 249.42,638.636 251.5,631.976 253.581,625.329 255.661,618.697 257.742,612.079 259.822,605.477 261.903,598.891 263.983,592.322 266.064,585.77 268.144,579.237 270.225,572.722 272.305,566.227 274.385,559.751 276.466,553.297 278.546,546.863 280.627,540.452 282.707,534.063 284.788,527.698 286.868,521.356 288.949,515.04 291.029,508.748 293.109,502.482 295.19,496.242 297.27,490.03 299.351,483.845 301.431,477.689 303.512,471.561 305.592,465.463 307.673,459.395 309.753,453.358 311.834,447.353 313.914,441.379 315.994,435.437 318.075,429.529 320.155,423.655 322.236,417.815 324.316,412.01 326.397,406.24 328.477,400.506 330.558,394.809 332.638,389.15 334.718,383.528 336.799,377.944 338.879,372.399 340.96,366.894 343.04,361.428 345.121,356.003 347.201,350.62 349.282,345.278 351.362,339.978 353.443,334.72 355.523,329.506 357.603,324.336 359.684,319.21 361.764,314.129 363.845,309.092 365.925,304.102 368.006,299.158 370.086,294.261 372.167,289.411 374.247,284.609 376.328,279.855 378.408,275.149 380.488,270.493 382.569,265.887 384.649,261.33 386.73,256.825 388.81,252.37 390.891,247.966 392.971,243.615 395.052,239.316 397.132,235.069 399.212,230.876 401.293,226.736 403.373,222.651 405.454,218.619 407.534,214.643 409.615,210.722 411.695,206.856 413.776,203.047 415.856,199.293 417.937,195.597 420.017,191.958 422.097,188.376 424.178,184.852 426.258,181.386 428.339,177.979 430.419,174.63 432.5,171.341 434.58,168.112 436.661,164.942 438.741,161.832 440.821,158.783 442.902,155.795 444.982,152.868 447.063,150.002 449.143,147.198 451.224,144.456 453.304,141.776 455.385,139.159 457.465,136.604 459.546,134.113 461.626,131.685 463.706,129.32 465.787,127.019 467.867,124.782 469.948,122.609 472.028,120.501 474.109,118.457 476.189,116.478 478.27,114.564 480.35,112.716 482.431,110.932 484.511,109.215 486.591,107.563 488.672,105.977 490.752,104.457 492.833,103.003 494.913,101.616 496.994,100.295 499.074,99.0413 501.155,97.854 503.235,96.7336 505.315,95.6803 507.396,94.694 509.476,93.7749 511.557,92.9232 513.637,92.1389 515.718,91.422 517.798,90.7726 519.879,90.1909 521.959,89.6769 524.04,89.2305 526.12,88.8519 528.2,88.5411 530.281,88.2982 532.361,88.1231 534.442,88.0158 536.522,87.9765 538.603,88.005 540.683,88.1015 542.764,88.2657 544.844,88.4979 546.924,88.7979 549.005,89.1657 551.085,89.6012 553.166,90.1045 555.246,90.6755 557.327,91.314 559.407,92.0202 561.488,92.7938 563.568,93.6348 565.649,94.5431 567.729,95.5187 569.809,96.5614 571.89,97.6711 573.97,98.8477 576.051,100.091 578.131,101.401 580.212,102.778 582.292,104.221 584.373,105.73 586.453,107.306 588.534,108.947 590.614,110.654 592.694,112.427 594.775,114.265 596.855,116.169 598.936,118.137 601.016,120.171 603.097,122.269 605.177,124.432 607.258,126.658 609.338,128.949 611.418,131.304 613.499,133.722 615.579,136.203 617.66,138.748 619.74,141.355 621.821,144.025 623.901,146.757 625.982,149.552 628.062,152.407 630.143,155.325 632.223,158.303 634.303,161.343 636.384,164.443 638.464,167.603 640.545,170.823 642.625,174.103 644.706,177.441 646.786,180.839 648.867,184.296 650.947,187.811 653.027,191.383 655.108,195.013 657.188,198.701 659.269,202.445 661.349,206.246 663.43,210.102 665.51,214.015 667.591,217.982 669.671,222.005 671.752,226.082 673.832,230.213 675.912,234.398 677.993,238.636 680.073,242.927 682.154,247.27 684.234,251.665 686.315,256.112 688.395,260.609 690.476,265.158 692.556,269.756 694.637,274.405 696.717,279.102 698.797,283.848 700.878,288.643 702.958,293.485 705.039,298.375 707.119,303.312 709.2,308.295 711.28,313.323 713.361,318.398 715.441,323.517 717.521,328.68 719.602,333.887 721.682,339.137 723.763,344.431 725.843,349.766 727.924,355.143 730.004,360.562 732.085,366.02 734.165,371.52 736.246,377.058 738.326,382.636 740.406,388.252 742.487,393.905 744.567,399.597 746.648,405.324 748.728,411.088 750.809,416.888 752.889,422.722 754.97,428.591 757.05,434.494 759.13,440.43 761.211,446.399 763.291,452.4 765.372,458.432 767.452,464.495 769.533,470.588 771.613,476.711 773.694,482.863 775.774,489.043 777.855,495.251 779.935,501.486 782.015,507.748 784.096,514.036 786.176,520.349 788.257,526.686 790.337,533.048 792.418,539.433 794.498,545.841 796.579,552.271 798.659,558.722 800.74,565.194 802.82,571.686 804.9,578.198 806.981,584.729 809.061,591.277 811.142,597.844 813.222,604.427 815.303,611.027 817.383,617.642 819.464,624.272 821.544,630.916 823.624,637.574 825.705,644.245 827.785,650.928 829.866,657.623 831.946,664.328 834.027,671.044 836.107,677.77 838.188,684.504 840.268,691.247 842.349,697.997 844.429,704.754 846.509,711.517 848.59,718.286 850.67,725.059 852.751,731.837 854.831,738.619 856.912,745.403 858.992,752.189 861.073,758.977 863.153,765.765 865.233,772.554 867.314,779.342 869.394,786.129 871.475,792.914 873.555,799.696 875.636,806.475 877.716,813.25 879.797,820.02 881.877,826.785 883.958,833.544 886.038,840.297 888.118,847.042 890.199,853.779 892.279,860.507 894.36,867.226 896.44,873.935 898.521,880.633 900.601,887.32 902.682,893.995 904.762,900.657 906.843,907.306 908.923,913.941 911.003,920.561 913.084,927.165 915.164,933.754 917.245,940.326 919.325,946.88 921.406,953.417 923.486,959.935 925.567,966.433 927.647,972.912 929.727,979.37 931.808,985.806 933.888,992.221 935.969,998.614 938.049,1004.98 940.13,1011.33 942.21,1017.65 944.291,1023.94 946.371,1030.21 948.452,1036.46 950.532,1042.68 952.612,1048.86 954.693,1055.03 956.773,1061.16 958.854,1067.26 960.934,1073.33 963.015,1079.38 965.095,1085.39 967.176,1091.36 969.256,1097.31 971.336,1103.22 973.417,1109.1 975.497,1114.95 977.578,1120.76 979.658,1126.54 981.739,1132.28 983.819,1137.98 985.9,1143.64 987.98,1149.27 990.061,1154.86 992.141,1160.41 994.221,1165.93 996.302,1171.4 998.382,1176.83 1000.46,1182.22 1002.54,1187.57 1004.62,1192.87 1006.7,1198.14 1008.78,1203.36 1010.87,1208.54 1012.95,1213.67 1015.03,1218.76 1017.11,1223.8 1019.19,1228.8 1021.27,1233.75 1023.35,1238.66 1025.43,1243.51 1027.51,1248.32 1029.59,1253.08 1031.67,1257.8 1033.75,1262.46 1035.83,1267.08 1037.91,1271.64 1039.99,1276.15 1042.07,1280.62 1044.15,1285.03 1046.23,1289.39 1048.31,1293.7 1050.39,1297.95 1052.47,1302.15 1054.55,1306.3 1056.63,1310.4 1058.72,1314.44 1060.8,1318.42 1062.88,1322.35 1064.96,1326.22 1067.04,1330.04 1069.12,1333.81 1071.2,1337.51 1073.28,1341.16 1075.36,1344.75 1077.44,1348.28 1079.52,1351.76 1081.6,1355.18 1083.68,1358.53 1085.76,1361.83 1087.84,1365.07 1089.92,1368.25 1092,1371.37 1094.08,1374.43 1096.16,1377.43 1098.24,1380.36 1100.32,1383.24 1102.4,1386.05 1104.49,1388.8 1106.57,1391.49 1108.65,1394.12 1110.73,1396.69 1112.81,1399.19 1114.89,1401.63 1116.97,1404 1119.05,1406.31 1121.13,1408.56 1123.21,1410.74 1125.29,1412.86 1127.37,1414.91 1129.45,1416.9 1131.53,1418.83 1133.61,1420.69 1135.69,1422.48 1137.77,1424.21 1139.85,1425.87 1141.93,1427.47 1144.01,1429 1146.09,1430.46 1148.17,1431.86 1150.26,1433.19 1152.34,1434.46 1154.42,1435.65 1156.5,1436.79 1158.58,1437.85 1160.66,1438.85 1162.74,1439.78 1164.82,1440.64 1166.9,1441.43 1168.98,1442.16 1171.06,1442.82 1173.14,1443.41 1175.22,1443.94 1177.3,1444.4 1179.38,1444.79 1181.46,1445.11 1183.54,1445.36 1185.62,1445.55 1187.7,1445.66 1189.78,1445.71 1191.86,1445.7 1193.94,1445.61 1196.03,1445.46 1198.11,1445.24 1200.19,1444.95 1202.27,1444.59 1204.35,1444.17 1206.43,1443.67 1208.51,1443.11 1210.59,1442.49 1212.67,1441.79 1214.75,1441.03 1216.83,1440.2 1218.91,1439.3 1220.99,1438.33 1223.07,1437.3 1225.15,1436.2 1227.23,1435.04 1229.31,1433.8 1231.39,1432.5 1233.47,1431.14 1235.55,1429.71 1237.63,1428.21 1239.71,1426.64 1241.8,1425.01 1243.88,1423.31 1245.96,1421.55 1248.04,1419.72 1250.12,1417.83 1252.2,1415.87 1254.28,1413.85 1256.36,1411.76 1258.44,1409.61 1260.52,1407.39 1262.6,1405.11 1264.68,1402.77 1266.76,1400.36 1268.84,1397.89 1270.92,1395.35 1273,1392.76 1275.08,1390.1 1277.16,1387.37 1279.24,1384.59 1281.32,1381.74 1283.4,1378.84 1285.48,1375.87 1287.57,1372.84 1289.65,1369.75 1291.73,1366.6 1293.81,1363.39 1295.89,1360.12 1297.97,1356.79 1300.05,1353.4 1302.13,1349.95 1304.21,1346.45 1306.29,1342.88 1308.37,1339.26 1310.45,1335.58 1312.53,1331.85 1314.61,1328.06 1316.69,1324.21 1318.77,1320.3 1320.85,1316.35 1322.93,1312.33 1325.01,1308.26 1327.09,1304.14 1329.17,1299.97 1331.25,1295.74 1333.33,1291.45 1335.42,1287.12 1337.5,1282.73 1339.58,1278.29 1341.66,1273.8 1343.74,1269.26 1345.82,1264.67 1347.9,1260.03 1349.98,1255.34 1352.06,1250.6 1354.14,1245.82 1356.22,1240.98 1358.3,1236.1 1360.38,1231.17 1362.46,1226.19 1364.54,1221.17 1366.62,1216.11 1368.7,1210.99 1370.78,1205.84 1372.86,1200.64 1374.94,1195.39 1377.02,1190.11 1379.1,1184.78 1381.19,1179.41 1383.27,1174 1385.35,1168.54 1387.43,1163.05 1389.51,1157.52 1391.59,1151.95 1393.67,1146.34 1395.75,1140.69 1397.83,1135.01 1399.91,1129.28 1401.99,1123.52 1404.07,1117.73 1406.15,1111.9 1408.23,1106.04 1410.31,1100.14 1412.39,1094.21 1414.47,1088.25 1416.55,1082.25 1418.63,1076.22 1420.71,1070.17 1422.79,1064.08 1424.87,1057.96 1426.96,1051.81 1429.04,1045.64 1431.12,1039.43 1433.2,1033.2 1435.28,1026.94 1437.36,1020.66 1439.44,1014.35 1441.52,1008.02 1443.6,1001.66 1445.68,995.278 1447.76,988.874 1449.84,982.448 1451.92,976 1454,969.531 1456.08,963.042 1458.16,956.533 1460.24,950.006 1462.32,943.46 1464.4,936.896 1466.48,930.315 1468.56,923.718 1470.64,917.106 1472.73,910.478 1474.81,903.836 1476.89,897.18 1478.97,890.511 1481.05,883.83 1483.13,877.137 1485.21,870.433 1487.29,863.719 1489.37,856.995 1491.45,850.262 1493.53,843.521 1495.61,836.772 1497.69,830.016 1499.77,823.253 1501.85,816.485 1503.93,809.712 1506.01,802.935 1508.09,796.155 1510.17,789.371 1512.25,782.585 1514.33,775.797 1516.41,769.009 1518.5,762.22 1520.58,755.432 1522.66,748.645 1524.74,741.86 1526.82,735.077 1528.9,728.297 1530.98,721.522 1533.06,714.75 1535.14,707.985 1537.22,701.224 1539.3,694.471 1541.38,687.725 1543.46,680.986 1545.54,674.256 1547.62,667.536 1549.7,660.825 1551.78,654.125 1553.86,647.437 1555.94,640.76 1558.02,634.096 1560.1,627.445 1562.18,620.808 1564.27,614.186 1566.35,607.578 1568.43,600.987 1570.51,594.413 1572.59,587.855 1574.67,581.316 1576.75,574.795 1578.83,568.293 1580.91,561.812 1582.99,555.35 1585.07,548.91 1587.15,542.492 1589.23,536.096 1591.31,529.723 1593.39,523.374 1595.47,517.049 1597.55,510.749 1599.63,504.475 1601.71,498.227 1603.79,492.006 1605.87,485.812 1607.95,479.647 1610.03,473.51 1612.12,467.402 1614.2,461.325 1616.28,455.278 1618.36,449.262 1620.44,443.278 1622.52,437.326 1624.6,431.408 1626.68,425.522 1628.76,419.671 1630.84,413.855 1632.92,408.074 1635,402.329 1637.08,396.62 1639.16,390.948 1641.24,385.314 1643.32,379.718 1645.4,374.161 1647.48,368.643 1649.56,363.165 1651.64,357.727 1653.72,352.33 1655.8,346.975 1657.89,341.661 1659.97,336.39 1662.05,331.162 1664.13,325.978 1666.21,320.838 1668.29,315.742 1670.37,310.692 1672.45,305.687 1674.53,300.728 1676.61,295.816 1678.69,290.951 1680.77,286.133 1682.85,281.364 1684.93,276.643 1687.01,271.971 1689.09,267.349 1691.17,262.776 1693.25,258.254 1695.33,253.783 1697.41,249.363 1699.49,244.995 1701.57,240.679 1703.66,236.416 1705.74,232.206 1707.82,228.049 1709.9,223.946 1711.98,219.897 1714.06,215.904 1716.14,211.965 1718.22,208.081 1720.3,204.254 1722.38,200.483 1724.46,196.768 1726.54,193.111 1728.62,189.51 1730.7,185.968 1732.78,182.484 1734.86,179.058 1736.94,175.69 1739.02,172.382 1741.1,169.134 1743.18,165.945 1745.26,162.816 1747.34,159.748 1749.43,156.74 1751.51,153.794 1753.59,150.908 1755.67,148.085 1757.75,145.323 1759.83,142.623 1761.91,139.986 1763.99,137.411 1766.07,134.9 1768.15,132.451 1770.23,130.066 1772.31,127.745 1774.39,125.487 1776.47,123.294 1778.55,121.165 1780.63,119.101 1782.71,117.101 1784.79,115.167 1786.87,113.297 1788.95,111.493 1791.03,109.755 1793.11,108.082 1795.2,106.475 1797.28,104.934 1799.36,103.459 1801.44,102.051 1803.52,100.709 1805.6,99.4335 1807.68,98.225 1809.76,97.0832 1811.84,96.0085 1813.92,95.0009 1816,94.0604 1818.08,93.1872 1820.16,92.3814 1822.24,91.643 1824.32,90.9721 1826.4,90.3689 1828.48,89.8333 1830.56,89.3653 1832.64,88.9652 1834.72,88.6328 1836.8,88.3682 1838.88,88.1715 1840.96,88.0426 1843.05,87.9817 1845.13,87.9886 1847.21,88.0634 1849.29,88.206 1851.37,88.4166 1853.45,88.695 1855.53,89.0412 1857.61,89.4551 1859.69,89.9369 1861.77,90.4863 1863.85,91.1033 1865.93,91.7879 1868.01,92.54 1870.09,93.3596 1872.17,94.2465 1874.25,95.2006 1876.33,96.222 1878.41,97.3104 1880.49,98.4657 1882.57,99.6879 1884.65,100.977 1886.73,102.332 1888.82,103.754 1890.9,105.242 1892.98,106.797 1895.06,108.417 1897.14,110.103 1899.22,111.855 1901.3,113.673 1903.38,115.555 1905.46,117.503 1907.54,119.516 1909.62,121.594 1911.7,123.736 1913.78,125.942 1915.86,128.213 1917.94,130.547 1920.02,132.945 1922.1,135.406 1924.18,137.931 1926.26,140.518 1928.34,143.168 1930.42,145.88 1932.5,148.655 1934.59,151.491 1936.67,154.389 1938.75,157.348 1940.83,160.368 1942.91,163.449 1944.99,166.59 1947.07,169.791 1949.15,173.051 1951.23,176.371 1953.31,179.751 1955.39,183.189 1957.47,186.685 1959.55,190.239 1961.63,193.851 1963.71,197.52 1965.79,201.246 1967.87,205.029 1969.95,208.868 1972.03,212.762 1974.11,216.713 1976.19,220.718 1978.27,224.777 1980.36,228.891 1982.44,233.059 1984.52,237.28 1986.6,241.554 1988.68,245.881 1990.76,250.259 1992.84,254.69 1994.92,259.171 1997,263.704 1999.08,268.286 2001.16,272.919 2003.24,277.601 2005.32,282.331 2007.4,287.111 2009.48,291.938 2011.56,296.812 2013.64,301.734 2015.72,306.702 2017.8,311.717 2019.88,316.776 2021.96,321.881 2024.04,327.03 2026.13,332.224 2028.21,337.46 2030.29,342.74 2032.37,348.062 2034.45,353.426 2036.53,358.831 2038.61,364.277 2040.69,369.764 2042.77,375.29 2044.85,380.855 2046.93,386.459 2049.01,392.1 2051.09,397.78 2053.17,403.496 2055.25,409.248 2057.33,415.037 2059.41,420.86 2061.49,426.718 2063.57,432.61 2065.65,438.536 2067.73,444.494 2069.81,450.485 2071.9,456.507 2073.98,462.56 2076.06,468.644 2078.14,474.757 2080.22,480.9 2082.3,487.071 2084.38,493.271 2086.46,499.497 2088.54,505.751 2090.62,512.03 2092.7,518.335 2094.78,524.665 2096.86,531.019 2098.94,537.397 2101.02,543.797 2103.1,550.22 2105.18,556.665 2107.26,563.13 2109.34,569.616 2111.42,576.122 2113.5,582.646 2115.58,589.19 2117.66,595.75 2119.75,602.328 2121.83,608.923 2123.91,615.533 2125.99,622.158 2128.07,628.798 2130.15,635.452 2132.23,642.119 2134.31,648.798 2136.39,655.489 2138.47,662.191 2140.55,668.904 2142.63,675.626 2144.71,682.358 2146.79,689.098 2148.87,695.846 2150.95,702.601 2153.03,709.362 2155.11,716.129 2157.19,722.901 2159.27,729.678 2161.35,736.458 2163.43,743.241 2165.52,750.027 2167.6,756.814 2169.68,763.603 2171.76,770.391 2173.84,777.18 2175.92,783.967 2178,790.753 2180.08,797.536 2182.16,804.316 2184.24,811.092 2186.32,817.864 2188.4,824.631 2190.48,831.392 2192.56,838.147 2194.64,844.894 2196.72,851.634 2198.8,858.365 2200.88,865.087 2202.96,871.799 2205.04,878.501 2207.12,885.192 2209.2,891.87 2211.29,898.537 2213.37,905.19 2215.45,911.829 2217.53,918.454 2219.61,925.063 2221.69,931.657 2223.77,938.234 2225.85,944.794 2227.93,951.337 2230.01,957.86 2232.09,964.365 2234.17,970.85 2236.25,977.315 2238.33,983.758 2240.41,990.18 2242.49,996.58 2244.57,1002.96 2246.65,1009.31 2248.73,1015.64 2250.81,1021.94 2252.89,1028.22 2254.97,1034.47 2257.06,1040.7 2259.14,1046.9 2261.22,1053.07 2263.3,1059.21 2265.38,1065.32 2267.46,1071.4 2269.54,1077.45 2271.62,1083.47 2273.7,1089.46 2275.78,1095.42 2277.86,1101.34 2279.94,1107.24 2282.02,1113.09 2284.1,1118.91 2286.18,1124.7 2288.26,1130.45 2290.34,1136.17 "/>
<path clip-path="url(#clip640)" d="M220.987 1438.47 L787.138 1438.47 L787.138 1282.95 L220.987 1282.95  Z" fill="#ffffff" fill-rule="evenodd" fill-opacity="1"/>
<polyline clip-path="url(#clip640)" style="stroke:#000000; stroke-linecap:round; stroke-linejoin:round; stroke-width:4; stroke-opacity:1; fill:none" points="220.987,1438.47 787.138,1438.47 787.138,1282.95 220.987,1282.95 220.987,1438.47 "/>
<polyline clip-path="url(#clip640)" style="stroke:#009af9; stroke-linecap:round; stroke-linejoin:round; stroke-width:8; stroke-opacity:1; fill:none" points="245.49,1334.79 392.509,1334.79 "/>
<path clip-path="url(#clip640)" d="M433.401 1335.87 Q434.905 1336.38 436.317 1338.05 Q437.753 1339.71 439.188 1342.63 L443.933 1352.07 L438.91 1352.07 L434.489 1343.21 Q432.776 1339.74 431.155 1338.6 Q429.558 1337.47 426.78 1337.47 L421.688 1337.47 L421.688 1352.07 L417.012 1352.07 L417.012 1317.51 L427.567 1317.51 Q433.493 1317.51 436.41 1319.99 Q439.327 1322.47 439.327 1327.47 Q439.327 1330.73 437.799 1332.88 Q436.294 1335.04 433.401 1335.87 M421.688 1321.36 L421.688 1333.63 L427.567 1333.63 Q430.947 1333.63 432.66 1332.07 Q434.396 1330.5 434.396 1327.47 Q434.396 1324.44 432.66 1322.91 Q430.947 1321.36 427.567 1321.36 L421.688 1321.36 Z" fill="#000000" fill-rule="nonzero" fill-opacity="1" /><path clip-path="url(#clip640)" d="M469.813 1338.05 L469.813 1340.13 L450.229 1340.13 Q450.507 1344.53 452.868 1346.84 Q455.252 1349.13 459.489 1349.13 Q461.942 1349.13 464.234 1348.53 Q466.549 1347.93 468.817 1346.73 L468.817 1350.75 Q466.526 1351.73 464.118 1352.24 Q461.711 1352.75 459.234 1352.75 Q453.03 1352.75 449.396 1349.13 Q445.785 1345.52 445.785 1339.37 Q445.785 1333 449.211 1329.27 Q452.66 1325.52 458.493 1325.52 Q463.725 1325.52 466.757 1328.9 Q469.813 1332.26 469.813 1338.05 M465.553 1336.8 Q465.507 1333.3 463.586 1331.22 Q461.688 1329.13 458.539 1329.13 Q454.975 1329.13 452.822 1331.15 Q450.692 1333.16 450.368 1336.82 L465.553 1336.8 Z" fill="#000000" fill-rule="nonzero" fill-opacity="1" /><path clip-path="url(#clip640)" d="M488.586 1339.04 Q483.424 1339.04 481.433 1340.22 Q479.442 1341.4 479.442 1344.25 Q479.442 1346.52 480.924 1347.86 Q482.428 1349.18 484.998 1349.18 Q488.539 1349.18 490.669 1346.68 Q492.822 1344.16 492.822 1339.99 L492.822 1339.04 L488.586 1339.04 M497.081 1337.28 L497.081 1352.07 L492.822 1352.07 L492.822 1348.14 Q491.363 1350.5 489.187 1351.63 Q487.012 1352.75 483.863 1352.75 Q479.882 1352.75 477.521 1350.52 Q475.183 1348.28 475.183 1344.53 Q475.183 1340.15 478.1 1337.93 Q481.039 1335.71 486.849 1335.71 L492.822 1335.71 L492.822 1335.29 Q492.822 1332.35 490.877 1330.76 Q488.956 1329.13 485.461 1329.13 Q483.238 1329.13 481.132 1329.67 Q479.025 1330.2 477.081 1331.26 L477.081 1327.33 Q479.419 1326.43 481.618 1325.99 Q483.817 1325.52 485.9 1325.52 Q491.525 1325.52 494.303 1328.44 Q497.081 1331.36 497.081 1337.28 Z" fill="#000000" fill-rule="nonzero" fill-opacity="1" /><path clip-path="url(#clip640)" d="M505.854 1316.06 L510.113 1316.06 L510.113 1352.07 L505.854 1352.07 L505.854 1316.06 Z" fill="#000000" fill-rule="nonzero" fill-opacity="1" /><path clip-path="url(#clip640)" d="M538.215 1348.19 L538.215 1361.94 L533.933 1361.94 L533.933 1326.15 L538.215 1326.15 L538.215 1330.08 Q539.558 1327.77 541.595 1326.66 Q543.655 1325.52 546.502 1325.52 Q551.224 1325.52 554.164 1329.27 Q557.127 1333.02 557.127 1339.13 Q557.127 1345.25 554.164 1349 Q551.224 1352.75 546.502 1352.75 Q543.655 1352.75 541.595 1351.63 Q539.558 1350.5 538.215 1348.19 M552.706 1339.13 Q552.706 1334.44 550.761 1331.77 Q548.84 1329.09 545.46 1329.09 Q542.081 1329.09 540.136 1331.77 Q538.215 1334.44 538.215 1339.13 Q538.215 1343.83 540.136 1346.52 Q542.081 1349.18 545.46 1349.18 Q548.84 1349.18 550.761 1346.52 Q552.706 1343.83 552.706 1339.13 Z" fill="#000000" fill-rule="nonzero" fill-opacity="1" /><path clip-path="url(#clip640)" d="M575.969 1339.04 Q570.807 1339.04 568.817 1340.22 Q566.826 1341.4 566.826 1344.25 Q566.826 1346.52 568.307 1347.86 Q569.812 1349.18 572.381 1349.18 Q575.923 1349.18 578.053 1346.68 Q580.205 1344.16 580.205 1339.99 L580.205 1339.04 L575.969 1339.04 M584.465 1337.28 L584.465 1352.07 L580.205 1352.07 L580.205 1348.14 Q578.747 1350.5 576.571 1351.63 Q574.395 1352.75 571.247 1352.75 Q567.266 1352.75 564.905 1350.52 Q562.567 1348.28 562.567 1344.53 Q562.567 1340.15 565.483 1337.93 Q568.423 1335.71 574.233 1335.71 L580.205 1335.71 L580.205 1335.29 Q580.205 1332.35 578.261 1330.76 Q576.34 1329.13 572.844 1329.13 Q570.622 1329.13 568.516 1329.67 Q566.409 1330.2 564.465 1331.26 L564.465 1327.33 Q566.803 1326.43 569.002 1325.99 Q571.201 1325.52 573.284 1325.52 Q578.909 1325.52 581.687 1328.44 Q584.465 1331.36 584.465 1337.28 Z" fill="#000000" fill-rule="nonzero" fill-opacity="1" /><path clip-path="url(#clip640)" d="M608.261 1330.13 Q607.543 1329.71 606.687 1329.53 Q605.853 1329.32 604.835 1329.32 Q601.224 1329.32 599.279 1331.68 Q597.358 1334.02 597.358 1338.42 L597.358 1352.07 L593.076 1352.07 L593.076 1326.15 L597.358 1326.15 L597.358 1330.18 Q598.701 1327.82 600.853 1326.68 Q603.006 1325.52 606.085 1325.52 Q606.525 1325.52 607.057 1325.59 Q607.59 1325.64 608.238 1325.76 L608.261 1330.13 Z" fill="#000000" fill-rule="nonzero" fill-opacity="1" /><path clip-path="url(#clip640)" d="M616.941 1318.79 L616.941 1326.15 L625.714 1326.15 L625.714 1329.46 L616.941 1329.46 L616.941 1343.53 Q616.941 1346.7 617.798 1347.61 Q618.677 1348.51 621.339 1348.51 L625.714 1348.51 L625.714 1352.07 L621.339 1352.07 Q616.409 1352.07 614.534 1350.25 Q612.659 1348.39 612.659 1343.53 L612.659 1329.46 L609.534 1329.46 L609.534 1326.15 L612.659 1326.15 L612.659 1318.79 L616.941 1318.79 Z" fill="#000000" fill-rule="nonzero" fill-opacity="1" /><polyline clip-path="url(#clip640)" style="stroke:#e26f46; stroke-linecap:round; stroke-linejoin:round; stroke-width:8; stroke-opacity:1; fill:none" points="245.49,1386.63 392.509,1386.63 "/>
<path clip-path="url(#clip640)" d="M417.012 1369.35 L421.688 1369.35 L421.688 1403.91 L417.012 1403.91 L417.012 1369.35 Z" fill="#000000" fill-rule="nonzero" fill-opacity="1" /><path clip-path="url(#clip640)" d="M450.993 1382.97 Q452.59 1380.1 454.813 1378.73 Q457.035 1377.36 460.044 1377.36 Q464.095 1377.36 466.294 1380.21 Q468.493 1383.03 468.493 1388.27 L468.493 1403.91 L464.211 1403.91 L464.211 1388.41 Q464.211 1384.68 462.891 1382.87 Q461.572 1381.07 458.864 1381.07 Q455.553 1381.07 453.632 1383.27 Q451.711 1385.47 451.711 1389.26 L451.711 1403.91 L447.428 1403.91 L447.428 1388.41 Q447.428 1384.66 446.109 1382.87 Q444.79 1381.07 442.035 1381.07 Q438.771 1381.07 436.85 1383.29 Q434.928 1385.49 434.928 1389.26 L434.928 1403.91 L430.646 1403.91 L430.646 1377.99 L434.928 1377.99 L434.928 1382.02 Q436.387 1379.63 438.424 1378.5 Q440.461 1377.36 443.262 1377.36 Q446.086 1377.36 448.053 1378.8 Q450.044 1380.23 450.993 1382.97 Z" fill="#000000" fill-rule="nonzero" fill-opacity="1" /><path clip-path="url(#clip640)" d="M488.771 1390.88 Q483.609 1390.88 481.618 1392.06 Q479.627 1393.24 479.627 1396.09 Q479.627 1398.36 481.109 1399.7 Q482.613 1401.02 485.183 1401.02 Q488.724 1401.02 490.854 1398.52 Q493.007 1396 493.007 1391.83 L493.007 1390.88 L488.771 1390.88 M497.266 1389.12 L497.266 1403.91 L493.007 1403.91 L493.007 1399.98 Q491.549 1402.34 489.373 1403.47 Q487.197 1404.59 484.049 1404.59 Q480.067 1404.59 477.706 1402.36 Q475.368 1400.12 475.368 1396.37 Q475.368 1391.99 478.285 1389.77 Q481.225 1387.55 487.035 1387.55 L493.007 1387.55 L493.007 1387.13 Q493.007 1384.19 491.062 1382.6 Q489.141 1380.97 485.646 1380.97 Q483.424 1380.97 481.317 1381.51 Q479.211 1382.04 477.266 1383.1 L477.266 1379.17 Q479.604 1378.27 481.803 1377.83 Q484.002 1377.36 486.086 1377.36 Q491.711 1377.36 494.488 1380.28 Q497.266 1383.2 497.266 1389.12 Z" fill="#000000" fill-rule="nonzero" fill-opacity="1" /><path clip-path="url(#clip640)" d="M523.099 1390.65 Q523.099 1386.02 521.178 1383.47 Q519.28 1380.93 515.831 1380.93 Q512.405 1380.93 510.484 1383.47 Q508.585 1386.02 508.585 1390.65 Q508.585 1395.26 510.484 1397.8 Q512.405 1400.35 515.831 1400.35 Q519.28 1400.35 521.178 1397.8 Q523.099 1395.26 523.099 1390.65 M527.359 1400.7 Q527.359 1407.32 524.419 1410.53 Q521.479 1413.78 515.414 1413.78 Q513.169 1413.78 511.178 1413.43 Q509.187 1413.1 507.312 1412.41 L507.312 1408.27 Q509.187 1409.28 511.016 1409.77 Q512.845 1410.26 514.743 1410.26 Q518.933 1410.26 521.016 1408.06 Q523.099 1405.88 523.099 1401.46 L523.099 1399.35 Q521.78 1401.65 519.72 1402.78 Q517.659 1403.91 514.789 1403.91 Q510.021 1403.91 507.104 1400.28 Q504.187 1396.65 504.187 1390.65 Q504.187 1384.63 507.104 1381 Q510.021 1377.36 514.789 1377.36 Q517.659 1377.36 519.72 1378.5 Q521.78 1379.63 523.099 1381.92 L523.099 1377.99 L527.359 1377.99 L527.359 1400.7 Z" fill="#000000" fill-rule="nonzero" fill-opacity="1" /><path clip-path="url(#clip640)" d="M536.132 1377.99 L540.391 1377.99 L540.391 1403.91 L536.132 1403.91 L536.132 1377.99 M536.132 1367.9 L540.391 1367.9 L540.391 1373.29 L536.132 1373.29 L536.132 1367.9 Z" fill="#000000" fill-rule="nonzero" fill-opacity="1" /><path clip-path="url(#clip640)" d="M570.854 1388.27 L570.854 1403.91 L566.594 1403.91 L566.594 1388.41 Q566.594 1384.72 565.159 1382.9 Q563.724 1381.07 560.854 1381.07 Q557.405 1381.07 555.414 1383.27 Q553.423 1385.47 553.423 1389.26 L553.423 1403.91 L549.141 1403.91 L549.141 1377.99 L553.423 1377.99 L553.423 1382.02 Q554.951 1379.68 557.011 1378.52 Q559.094 1377.36 561.803 1377.36 Q566.27 1377.36 568.562 1380.14 Q570.854 1382.9 570.854 1388.27 Z" fill="#000000" fill-rule="nonzero" fill-opacity="1" /><path clip-path="url(#clip640)" d="M591.131 1390.88 Q585.969 1390.88 583.979 1392.06 Q581.988 1393.24 581.988 1396.09 Q581.988 1398.36 583.469 1399.7 Q584.974 1401.02 587.543 1401.02 Q591.085 1401.02 593.215 1398.52 Q595.367 1396 595.367 1391.83 L595.367 1390.88 L591.131 1390.88 M599.627 1389.12 L599.627 1403.91 L595.367 1403.91 L595.367 1399.98 Q593.909 1402.34 591.733 1403.47 Q589.557 1404.59 586.409 1404.59 Q582.428 1404.59 580.067 1402.36 Q577.729 1400.12 577.729 1396.37 Q577.729 1391.99 580.645 1389.77 Q583.585 1387.55 589.395 1387.55 L595.367 1387.55 L595.367 1387.13 Q595.367 1384.19 593.423 1382.6 Q591.502 1380.97 588.006 1380.97 Q585.784 1380.97 583.678 1381.51 Q581.571 1382.04 579.627 1383.1 L579.627 1379.17 Q581.965 1378.27 584.164 1377.83 Q586.363 1377.36 588.446 1377.36 Q594.071 1377.36 596.849 1380.28 Q599.627 1383.2 599.627 1389.12 Z" fill="#000000" fill-rule="nonzero" fill-opacity="1" /><path clip-path="url(#clip640)" d="M623.423 1381.97 Q622.705 1381.55 621.849 1381.37 Q621.015 1381.16 619.997 1381.16 Q616.386 1381.16 614.441 1383.52 Q612.52 1385.86 612.52 1390.26 L612.52 1403.91 L608.238 1403.91 L608.238 1377.99 L612.52 1377.99 L612.52 1382.02 Q613.863 1379.66 616.015 1378.52 Q618.168 1377.36 621.247 1377.36 Q621.687 1377.36 622.219 1377.43 Q622.752 1377.48 623.4 1377.6 L623.423 1381.97 Z" fill="#000000" fill-rule="nonzero" fill-opacity="1" /><path clip-path="url(#clip640)" d="M638.677 1406.32 Q636.872 1410.95 635.159 1412.36 Q633.446 1413.78 630.576 1413.78 L627.173 1413.78 L627.173 1410.21 L629.673 1410.21 Q631.432 1410.21 632.404 1409.38 Q633.376 1408.54 634.557 1405.44 L635.321 1403.5 L624.835 1377.99 L629.349 1377.99 L637.451 1398.27 L645.552 1377.99 L650.066 1377.99 L638.677 1406.32 Z" fill="#000000" fill-rule="nonzero" fill-opacity="1" /><path clip-path="url(#clip640)" d="M675.136 1400.03 L675.136 1413.78 L670.853 1413.78 L670.853 1377.99 L675.136 1377.99 L675.136 1381.92 Q676.478 1379.61 678.515 1378.5 Q680.575 1377.36 683.422 1377.36 Q688.145 1377.36 691.084 1381.11 Q694.047 1384.86 694.047 1390.97 Q694.047 1397.09 691.084 1400.84 Q688.145 1404.59 683.422 1404.59 Q680.575 1404.59 678.515 1403.47 Q676.478 1402.34 675.136 1400.03 M689.626 1390.97 Q689.626 1386.28 687.682 1383.61 Q685.76 1380.93 682.381 1380.93 Q679.001 1380.93 677.057 1383.61 Q675.136 1386.28 675.136 1390.97 Q675.136 1395.67 677.057 1398.36 Q679.001 1401.02 682.381 1401.02 Q685.76 1401.02 687.682 1398.36 Q689.626 1395.67 689.626 1390.97 Z" fill="#000000" fill-rule="nonzero" fill-opacity="1" /><path clip-path="url(#clip640)" d="M712.89 1390.88 Q707.728 1390.88 705.737 1392.06 Q703.746 1393.24 703.746 1396.09 Q703.746 1398.36 705.228 1399.7 Q706.733 1401.02 709.302 1401.02 Q712.844 1401.02 714.973 1398.52 Q717.126 1396 717.126 1391.83 L717.126 1390.88 L712.89 1390.88 M721.385 1389.12 L721.385 1403.91 L717.126 1403.91 L717.126 1399.98 Q715.668 1402.34 713.492 1403.47 Q711.316 1404.59 708.168 1404.59 Q704.186 1404.59 701.825 1402.36 Q699.487 1400.12 699.487 1396.37 Q699.487 1391.99 702.404 1389.77 Q705.344 1387.55 711.154 1387.55 L717.126 1387.55 L717.126 1387.13 Q717.126 1384.19 715.182 1382.6 Q713.26 1380.97 709.765 1380.97 Q707.543 1380.97 705.436 1381.51 Q703.33 1382.04 701.385 1383.1 L701.385 1379.17 Q703.723 1378.27 705.922 1377.83 Q708.121 1377.36 710.205 1377.36 Q715.83 1377.36 718.607 1380.28 Q721.385 1383.2 721.385 1389.12 Z" fill="#000000" fill-rule="nonzero" fill-opacity="1" /><path clip-path="url(#clip640)" d="M745.181 1381.97 Q744.464 1381.55 743.607 1381.37 Q742.774 1381.16 741.756 1381.16 Q738.144 1381.16 736.2 1383.52 Q734.279 1385.86 734.279 1390.26 L734.279 1403.91 L729.996 1403.91 L729.996 1377.99 L734.279 1377.99 L734.279 1382.02 Q735.621 1379.66 737.774 1378.52 Q739.927 1377.36 743.006 1377.36 Q743.445 1377.36 743.978 1377.43 Q744.51 1377.48 745.158 1377.6 L745.181 1381.97 Z" fill="#000000" fill-rule="nonzero" fill-opacity="1" /><path clip-path="url(#clip640)" d="M753.862 1370.63 L753.862 1377.99 L762.635 1377.99 L762.635 1381.3 L753.862 1381.3 L753.862 1395.37 Q753.862 1398.54 754.718 1399.45 Q755.598 1400.35 758.26 1400.35 L762.635 1400.35 L762.635 1403.91 L758.26 1403.91 Q753.33 1403.91 751.455 1402.09 Q749.58 1400.23 749.58 1395.37 L749.58 1381.3 L746.455 1381.3 L746.455 1377.99 L749.58 1377.99 L749.58 1370.63 L753.862 1370.63 Z" fill="#000000" fill-rule="nonzero" fill-opacity="1" /></svg>