<?xml version="1.0" encoding="utf-8"?>
<svg xmlns="http://www.w3.org/2000/svg" xmlns:xlink="http://www.w3.org/1999/xlink" width="600" height="400" viewBox="0 0 2400 1600">
<defs>
  <clipPath id="clip470">
    <rect x="0" y="0" width="2400" height="1600"/>
  </clipPath>
</defs>
<path clip-path="url(#clip470)" d="M0 1600 L2400 1600 L2400 8.88178e-14 L0 8.88178e-14  Z" fill="#ffffff" fill-rule="evenodd" fill-opacity="1"/>
<defs>
  <clipPath id="clip471">
    <rect x="480" y="0" width="1681" height="1600"/>
  </clipPath>
</defs>
<path clip-path="url(#clip470)" d="M553.744 1486.45 L1992.95 1486.45 L1992.95 47.2441 L553.744 47.2441  Z" fill="#ffffff" fill-rule="evenodd" fill-opacity="1"/>
<defs>
  <clipPath id="clip472">
    <rect x="553" y="47" width="1440" height="1440"/>
  </clipPath>
</defs>
<polyline clip-path="url(#clip472)" style="stroke:#000000; stroke-linecap:round; stroke-linejoin:round; stroke-width:2; stroke-opacity:0.1; fill:none" points="673.678,1486.45 673.678,47.2441 "/>
<polyline clip-path="url(#clip472)" style="stroke:#000000; stroke-linecap:round; stroke-linejoin:round; stroke-width:2; stroke-opacity:0.1; fill:none" points="973.512,1486.45 973.512,47.2441 "/>
<polyline clip-path="url(#clip472)" style="stroke:#000000; stroke-linecap:round; stroke-linejoin:round; stroke-width:2; stroke-opacity:0.1; fill:none" points="1273.35,1486.45 1273.35,47.2441 "/>
<polyline clip-path="url(#clip472)" style="stroke:#000000; stroke-linecap:round; stroke-linejoin:round; stroke-width:2; stroke-opacity:0.1; fill:none" points="1573.18,1486.45 1573.18,47.2441 "/>
<polyline clip-path="url(#clip472)" style="stroke:#000000; stroke-linecap:round; stroke-linejoin:round; stroke-width:2; stroke-opacity:0.1; fill:none" points="1873.01,1486.45 1873.01,47.2441 "/>
<polyline clip-path="url(#clip472)" style="stroke:#000000; stroke-linecap:round; stroke-linejoin:round; stroke-width:2; stroke-opacity:0.1; fill:none" points="553.744,1366.51 1992.95,1366.51 "/>
<polyline clip-path="url(#clip472)" style="stroke:#000000; stroke-linecap:round; stroke-linejoin:round; stroke-width:2; stroke-opacity:0.1; fill:none" points="553.744,1066.68 1992.95,1066.68 "/>
<polyline clip-path="url(#clip472)" style="stroke:#000000; stroke-linecap:round; stroke-linejoin:round; stroke-width:2; stroke-opacity:0.1; fill:none" points="553.744,766.846 1992.95,766.846 "/>
<polyline clip-path="url(#clip472)" style="stroke:#000000; stroke-linecap:round; stroke-linejoin:round; stroke-width:2; stroke-opacity:0.1; fill:none" points="553.744,467.012 1992.95,467.012 "/>
<polyline clip-path="url(#clip472)" style="stroke:#000000; stroke-linecap:round; stroke-linejoin:round; stroke-width:2; stroke-opacity:0.1; fill:none" points="553.744,167.178 1992.95,167.178 "/>
<polyline clip-path="url(#clip470)" style="stroke:#000000; stroke-linecap:round; stroke-linejoin:round; stroke-width:4; stroke-opacity:1; fill:none" points="553.744,1486.45 1992.95,1486.45 "/>
<polyline clip-path="url(#clip470)" style="stroke:#000000; stroke-linecap:round; stroke-linejoin:round; stroke-width:4; stroke-opacity:1; fill:none" points="673.678,1486.45 673.678,1467.55 "/>
<polyline clip-path="url(#clip470)" style="stroke:#000000; stroke-linecap:round; stroke-linejoin:round; stroke-width:4; stroke-opacity:1; fill:none" points="973.512,1486.45 973.512,1467.55 "/>
<polyline clip-path="url(#clip470)" style="stroke:#000000; stroke-linecap:round; stroke-linejoin:round; stroke-width:4; stroke-opacity:1; fill:none" points="1273.35,1486.45 1273.35,1467.55 "/>
<polyline clip-path="url(#clip470)" style="stroke:#000000; stroke-linecap:round; stroke-linejoin:round; stroke-width:4; stroke-opacity:1; fill:none" points="1573.18,1486.45 1573.18,1467.55 "/>
<polyline clip-path="url(#clip470)" style="stroke:#000000; stroke-linecap:round; stroke-linejoin:round; stroke-width:4; stroke-opacity:1; fill:none" points="1873.01,1486.45 1873.01,1467.55 "/>
<path clip-path="url(#clip470)" d="M620.206 1532.02 L649.882 1532.02 L649.882 1535.95 L620.206 1535.95 L620.206 1532.02 Z" fill="#000000" fill-rule="nonzero" fill-opacity="1" /><path clip-path="url(#clip470)" d="M660.784 1544.91 L668.423 1544.91 L668.423 1518.55 L660.113 1520.21 L660.113 1515.95 L668.377 1514.29 L673.053 1514.29 L673.053 1544.91 L680.692 1544.91 L680.692 1548.85 L660.784 1548.85 L660.784 1544.91 Z" fill="#000000" fill-rule="nonzero" fill-opacity="1" /><path clip-path="url(#clip470)" d="M690.136 1542.97 L695.02 1542.97 L695.02 1548.85 L690.136 1548.85 L690.136 1542.97 Z" fill="#000000" fill-rule="nonzero" fill-opacity="1" /><path clip-path="url(#clip470)" d="M715.205 1517.37 Q711.594 1517.37 709.765 1520.93 Q707.96 1524.47 707.96 1531.6 Q707.96 1538.71 709.765 1542.27 Q711.594 1545.82 715.205 1545.82 Q718.84 1545.82 720.645 1542.27 Q722.474 1538.71 722.474 1531.6 Q722.474 1524.47 720.645 1520.93 Q718.84 1517.37 715.205 1517.37 M715.205 1513.66 Q721.015 1513.66 724.071 1518.27 Q727.15 1522.85 727.15 1531.6 Q727.15 1540.33 724.071 1544.94 Q721.015 1549.52 715.205 1549.52 Q709.395 1549.52 706.316 1544.94 Q703.261 1540.33 703.261 1531.6 Q703.261 1522.85 706.316 1518.27 Q709.395 1513.66 715.205 1513.66 Z" fill="#000000" fill-rule="nonzero" fill-opacity="1" /><path clip-path="url(#clip470)" d="M920.538 1532.02 L950.213 1532.02 L950.213 1535.95 L920.538 1535.95 L920.538 1532.02 Z" fill="#000000" fill-rule="nonzero" fill-opacity="1" /><path clip-path="url(#clip470)" d="M970.306 1517.37 Q966.695 1517.37 964.866 1520.93 Q963.06 1524.47 963.06 1531.6 Q963.06 1538.71 964.866 1542.27 Q966.695 1545.82 970.306 1545.82 Q973.94 1545.82 975.746 1542.27 Q977.574 1538.71 977.574 1531.6 Q977.574 1524.47 975.746 1520.93 Q973.94 1517.37 970.306 1517.37 M970.306 1513.66 Q976.116 1513.66 979.172 1518.27 Q982.25 1522.85 982.25 1531.6 Q982.25 1540.33 979.172 1544.94 Q976.116 1549.52 970.306 1549.52 Q964.496 1549.52 961.417 1544.94 Q958.361 1540.33 958.361 1531.6 Q958.361 1522.85 961.417 1518.27 Q964.496 1513.66 970.306 1513.66 Z" fill="#000000" fill-rule="nonzero" fill-opacity="1" /><path clip-path="url(#clip470)" d="M990.468 1542.97 L995.352 1542.97 L995.352 1548.85 L990.468 1548.85 L990.468 1542.97 Z" fill="#000000" fill-rule="nonzero" fill-opacity="1" /><path clip-path="url(#clip470)" d="M1005.58 1514.29 L1023.94 1514.29 L1023.94 1518.22 L1009.87 1518.22 L1009.87 1526.7 Q1010.88 1526.35 1011.9 1526.19 Q1012.92 1526 1013.94 1526 Q1019.73 1526 1023.11 1529.17 Q1026.49 1532.34 1026.49 1537.76 Q1026.49 1543.34 1023.01 1546.44 Q1019.54 1549.52 1013.22 1549.52 Q1011.05 1549.52 1008.78 1549.15 Q1006.53 1548.78 1004.13 1548.04 L1004.13 1543.34 Q1006.21 1544.47 1008.43 1545.03 Q1010.65 1545.58 1013.13 1545.58 Q1017.13 1545.58 1019.47 1543.48 Q1021.81 1541.37 1021.81 1537.76 Q1021.81 1534.15 1019.47 1532.04 Q1017.13 1529.94 1013.13 1529.94 Q1011.25 1529.94 1009.38 1530.35 Q1007.53 1530.77 1005.58 1531.65 L1005.58 1514.29 Z" fill="#000000" fill-rule="nonzero" fill-opacity="1" /><path clip-path="url(#clip470)" d="M1250.73 1517.37 Q1247.12 1517.37 1245.29 1520.93 Q1243.49 1524.47 1243.49 1531.6 Q1243.49 1538.71 1245.29 1542.27 Q1247.12 1545.82 1250.73 1545.82 Q1254.36 1545.82 1256.17 1542.27 Q1258 1538.71 1258 1531.6 Q1258 1524.47 1256.17 1520.93 Q1254.36 1517.37 1250.73 1517.37 M1250.73 1513.66 Q1256.54 1513.66 1259.6 1518.27 Q1262.67 1522.85 1262.67 1531.6 Q1262.67 1540.33 1259.6 1544.94 Q1256.54 1549.52 1250.73 1549.52 Q1244.92 1549.52 1241.84 1544.94 Q1238.79 1540.33 1238.79 1531.6 Q1238.79 1522.85 1241.84 1518.27 Q1244.92 1513.66 1250.73 1513.66 Z" fill="#000000" fill-rule="nonzero" fill-opacity="1" /><path clip-path="url(#clip470)" d="M1270.89 1542.97 L1275.78 1542.97 L1275.78 1548.85 L1270.89 1548.85 L1270.89 1542.97 Z" fill="#000000" fill-rule="nonzero" fill-opacity="1" /><path clip-path="url(#clip470)" d="M1295.96 1517.37 Q1292.35 1517.37 1290.52 1520.93 Q1288.72 1524.47 1288.72 1531.6 Q1288.72 1538.71 1290.52 1542.27 Q1292.35 1545.82 1295.96 1545.82 Q1299.6 1545.82 1301.4 1542.27 Q1303.23 1538.71 1303.23 1531.6 Q1303.23 1524.47 1301.4 1520.93 Q1299.6 1517.37 1295.96 1517.37 M1295.96 1513.66 Q1301.77 1513.66 1304.83 1518.27 Q1307.91 1522.85 1307.91 1531.6 Q1307.91 1540.33 1304.83 1544.94 Q1301.77 1549.52 1295.96 1549.52 Q1290.15 1549.52 1287.07 1544.94 Q1284.02 1540.33 1284.02 1531.6 Q1284.02 1522.85 1287.07 1518.27 Q1290.15 1513.66 1295.96 1513.66 Z" fill="#000000" fill-rule="nonzero" fill-opacity="1" /><path clip-path="url(#clip470)" d="M1551.06 1517.37 Q1547.45 1517.37 1545.62 1520.93 Q1543.82 1524.47 1543.82 1531.6 Q1543.82 1538.71 1545.62 1542.27 Q1547.45 1545.82 1551.06 1545.82 Q1554.7 1545.82 1556.5 1542.27 Q1558.33 1538.71 1558.33 1531.6 Q1558.33 1524.47 1556.5 1520.93 Q1554.7 1517.37 1551.06 1517.37 M1551.06 1513.66 Q1556.87 1513.66 1559.93 1518.27 Q1563.01 1522.85 1563.01 1531.6 Q1563.01 1540.33 1559.93 1544.94 Q1556.87 1549.52 1551.06 1549.52 Q1545.25 1549.52 1542.17 1544.94 Q1539.12 1540.33 1539.12 1531.6 Q1539.12 1522.85 1542.17 1518.27 Q1545.25 1513.66 1551.06 1513.66 Z" fill="#000000" fill-rule="nonzero" fill-opacity="1" /><path clip-path="url(#clip470)" d="M1571.22 1542.97 L1576.11 1542.97 L1576.11 1548.85 L1571.22 1548.85 L1571.22 1542.97 Z" fill="#000000" fill-rule="nonzero" fill-opacity="1" /><path clip-path="url(#clip470)" d="M1586.34 1514.29 L1604.7 1514.29 L1604.7 1518.22 L1590.62 1518.22 L1590.62 1526.7 Q1591.64 1526.35 1592.66 1526.19 Q1593.68 1526 1594.7 1526 Q1600.48 1526 1603.86 1529.17 Q1607.24 1532.34 1607.24 1537.76 Q1607.24 1543.34 1603.77 1546.44 Q1600.3 1549.52 1593.98 1549.52 Q1591.8 1549.52 1589.53 1549.15 Q1587.29 1548.78 1584.88 1548.04 L1584.88 1543.34 Q1586.96 1544.47 1589.19 1545.03 Q1591.41 1545.58 1593.89 1545.58 Q1597.89 1545.58 1600.23 1543.48 Q1602.57 1541.37 1602.57 1537.76 Q1602.57 1534.15 1600.23 1532.04 Q1597.89 1529.94 1593.89 1529.94 Q1592.01 1529.94 1590.14 1530.35 Q1588.28 1530.77 1586.34 1531.65 L1586.34 1514.29 Z" fill="#000000" fill-rule="nonzero" fill-opacity="1" /><path clip-path="url(#clip470)" d="M1840.17 1544.91 L1847.81 1544.91 L1847.81 1518.55 L1839.5 1520.21 L1839.5 1515.95 L1847.76 1514.29 L1852.44 1514.29 L1852.44 1544.91 L1860.07 1544.91 L1860.07 1548.85 L1840.17 1548.85 L1840.17 1544.91 Z" fill="#000000" fill-rule="nonzero" fill-opacity="1" /><path clip-path="url(#clip470)" d="M1869.52 1542.97 L1874.4 1542.97 L1874.4 1548.85 L1869.52 1548.85 L1869.52 1542.97 Z" fill="#000000" fill-rule="nonzero" fill-opacity="1" /><path clip-path="url(#clip470)" d="M1894.59 1517.37 Q1890.98 1517.37 1889.15 1520.93 Q1887.34 1524.47 1887.34 1531.6 Q1887.34 1538.71 1889.15 1542.27 Q1890.98 1545.82 1894.59 1545.82 Q1898.22 1545.82 1900.03 1542.27 Q1901.86 1538.71 1901.86 1531.6 Q1901.86 1524.47 1900.03 1520.93 Q1898.22 1517.37 1894.59 1517.37 M1894.59 1513.66 Q1900.4 1513.66 1903.45 1518.27 Q1906.53 1522.85 1906.53 1531.6 Q1906.53 1540.33 1903.45 1544.94 Q1900.4 1549.52 1894.59 1549.52 Q1888.78 1549.52 1885.7 1544.94 Q1882.64 1540.33 1882.64 1531.6 Q1882.64 1522.85 1885.7 1518.27 Q1888.78 1513.66 1894.59 1513.66 Z" fill="#000000" fill-rule="nonzero" fill-opacity="1" /><polyline clip-path="url(#clip470)" style="stroke:#000000; stroke-linecap:round; stroke-linejoin:round; stroke-width:4; stroke-opacity:1; fill:none" points="553.744,1486.45 553.744,47.2441 "/>
<polyline clip-path="url(#clip470)" style="stroke:#000000; stroke-linecap:round; stroke-linejoin:round; stroke-width:4; stroke-opacity:1; fill:none" points="553.744,1366.51 566.342,1366.51 "/>
<polyline clip-path="url(#clip470)" style="stroke:#000000; stroke-linecap:round; stroke-linejoin:round; stroke-width:4; stroke-opacity:1; fill:none" points="553.744,1066.68 566.342,1066.68 "/>
<polyline clip-path="url(#clip470)" style="stroke:#000000; stroke-linecap:round; stroke-linejoin:round; stroke-width:4; stroke-opacity:1; fill:none" points="553.744,766.846 566.342,766.846 "/>
<polyline clip-path="url(#clip470)" style="stroke:#000000; stroke-linecap:round; stroke-linejoin:round; stroke-width:4; stroke-opacity:1; fill:none" points="553.744,467.012 566.342,467.012 "/>
<polyline clip-path="url(#clip470)" style="stroke:#000000; stroke-linecap:round; stroke-linejoin:round; stroke-width:4; stroke-opacity:1; fill:none" points="553.744,167.178 566.342,167.178 "/>
<path clip-path="url(#clip470)" d="M410.8 1366.97 L440.476 1366.97 L440.476 1370.9 L410.8 1370.9 L410.8 1366.97 Z" fill="#000000" fill-rule="nonzero" fill-opacity="1" /><path clip-path="url(#clip470)" d="M451.379 1379.86 L459.018 1379.86 L459.018 1353.49 L450.707 1355.16 L450.707 1350.9 L458.971 1349.23 L463.647 1349.23 L463.647 1379.86 L471.286 1379.86 L471.286 1383.79 L451.379 1383.79 L451.379 1379.86 Z" fill="#000000" fill-rule="nonzero" fill-opacity="1" /><path clip-path="url(#clip470)" d="M480.73 1377.91 L485.615 1377.91 L485.615 1383.79 L480.73 1383.79 L480.73 1377.91 Z" fill="#000000" fill-rule="nonzero" fill-opacity="1" /><path clip-path="url(#clip470)" d="M505.8 1352.31 Q502.189 1352.31 500.36 1355.88 Q498.554 1359.42 498.554 1366.55 Q498.554 1373.66 500.36 1377.22 Q502.189 1380.76 505.8 1380.76 Q509.434 1380.76 511.239 1377.22 Q513.068 1373.66 513.068 1366.55 Q513.068 1359.42 511.239 1355.88 Q509.434 1352.31 505.8 1352.31 M505.8 1348.61 Q511.61 1348.61 514.665 1353.22 Q517.744 1357.8 517.744 1366.55 Q517.744 1375.28 514.665 1379.88 Q511.61 1384.47 505.8 1384.47 Q499.99 1384.47 496.911 1379.88 Q493.855 1375.28 493.855 1366.55 Q493.855 1357.8 496.911 1353.22 Q499.99 1348.61 505.8 1348.61 Z" fill="#000000" fill-rule="nonzero" fill-opacity="1" /><path clip-path="url(#clip470)" d="M411.796 1067.13 L441.471 1067.13 L441.471 1071.07 L411.796 1071.07 L411.796 1067.13 Z" fill="#000000" fill-rule="nonzero" fill-opacity="1" /><path clip-path="url(#clip470)" d="M461.564 1052.48 Q457.953 1052.48 456.124 1056.04 Q454.318 1059.59 454.318 1066.71 Q454.318 1073.82 456.124 1077.39 Q457.953 1080.93 461.564 1080.93 Q465.198 1080.93 467.004 1077.39 Q468.832 1073.82 468.832 1066.71 Q468.832 1059.59 467.004 1056.04 Q465.198 1052.48 461.564 1052.48 M461.564 1048.78 Q467.374 1048.78 470.43 1053.38 Q473.508 1057.96 473.508 1066.71 Q473.508 1075.44 470.43 1080.05 Q467.374 1084.63 461.564 1084.63 Q455.754 1084.63 452.675 1080.05 Q449.619 1075.44 449.619 1066.71 Q449.619 1057.96 452.675 1053.38 Q455.754 1048.78 461.564 1048.78 Z" fill="#000000" fill-rule="nonzero" fill-opacity="1" /><path clip-path="url(#clip470)" d="M481.726 1078.08 L486.61 1078.08 L486.61 1083.96 L481.726 1083.96 L481.726 1078.08 Z" fill="#000000" fill-rule="nonzero" fill-opacity="1" /><path clip-path="url(#clip470)" d="M496.841 1049.4 L515.198 1049.4 L515.198 1053.34 L501.124 1053.34 L501.124 1061.81 Q502.142 1061.46 503.161 1061.3 Q504.179 1061.11 505.198 1061.11 Q510.985 1061.11 514.364 1064.28 Q517.744 1067.46 517.744 1072.87 Q517.744 1078.45 514.272 1081.55 Q510.8 1084.63 504.48 1084.63 Q502.304 1084.63 500.036 1084.26 Q497.79 1083.89 495.383 1083.15 L495.383 1078.45 Q497.466 1079.59 499.689 1080.14 Q501.911 1080.7 504.388 1080.7 Q508.392 1080.7 510.73 1078.59 Q513.068 1076.48 513.068 1072.87 Q513.068 1069.26 510.73 1067.15 Q508.392 1065.05 504.388 1065.05 Q502.513 1065.05 500.638 1065.46 Q498.786 1065.88 496.841 1066.76 L496.841 1049.4 Z" fill="#000000" fill-rule="nonzero" fill-opacity="1" /><path clip-path="url(#clip470)" d="M460.568 752.645 Q456.957 752.645 455.129 756.209 Q453.323 759.751 453.323 766.881 Q453.323 773.987 455.129 777.552 Q456.957 781.094 460.568 781.094 Q464.203 781.094 466.008 777.552 Q467.837 773.987 467.837 766.881 Q467.837 759.751 466.008 756.209 Q464.203 752.645 460.568 752.645 M460.568 748.941 Q466.379 748.941 469.434 753.547 Q472.513 758.131 472.513 766.881 Q472.513 775.608 469.434 780.214 Q466.379 784.797 460.568 784.797 Q454.758 784.797 451.68 780.214 Q448.624 775.608 448.624 766.881 Q448.624 758.131 451.68 753.547 Q454.758 748.941 460.568 748.941 Z" fill="#000000" fill-rule="nonzero" fill-opacity="1" /><path clip-path="url(#clip470)" d="M480.73 778.246 L485.615 778.246 L485.615 784.126 L480.73 784.126 L480.73 778.246 Z" fill="#000000" fill-rule="nonzero" fill-opacity="1" /><path clip-path="url(#clip470)" d="M505.8 752.645 Q502.189 752.645 500.36 756.209 Q498.554 759.751 498.554 766.881 Q498.554 773.987 500.36 777.552 Q502.189 781.094 505.8 781.094 Q509.434 781.094 511.239 777.552 Q513.068 773.987 513.068 766.881 Q513.068 759.751 511.239 756.209 Q509.434 752.645 505.8 752.645 M505.8 748.941 Q511.61 748.941 514.665 753.547 Q517.744 758.131 517.744 766.881 Q517.744 775.608 514.665 780.214 Q511.61 784.797 505.8 784.797 Q499.99 784.797 496.911 780.214 Q493.855 775.608 493.855 766.881 Q493.855 758.131 496.911 753.547 Q499.99 748.941 505.8 748.941 Z" fill="#000000" fill-rule="nonzero" fill-opacity="1" /><path clip-path="url(#clip470)" d="M461.564 452.811 Q457.953 452.811 456.124 456.375 Q454.318 459.917 454.318 467.047 Q454.318 474.153 456.124 477.718 Q457.953 481.259 461.564 481.259 Q465.198 481.259 467.004 477.718 Q468.832 474.153 468.832 467.047 Q468.832 459.917 467.004 456.375 Q465.198 452.811 461.564 452.811 M461.564 449.107 Q467.374 449.107 470.43 453.713 Q473.508 458.297 473.508 467.047 Q473.508 475.773 470.43 480.38 Q467.374 484.963 461.564 484.963 Q455.754 484.963 452.675 480.38 Q449.619 475.773 449.619 467.047 Q449.619 458.297 452.675 453.713 Q455.754 449.107 461.564 449.107 Z" fill="#000000" fill-rule="nonzero" fill-opacity="1" /><path clip-path="url(#clip470)" d="M481.726 478.412 L486.61 478.412 L486.61 484.292 L481.726 484.292 L481.726 478.412 Z" fill="#000000" fill-rule="nonzero" fill-opacity="1" /><path clip-path="url(#clip470)" d="M496.841 449.732 L515.198 449.732 L515.198 453.667 L501.124 453.667 L501.124 462.139 Q502.142 461.792 503.161 461.63 Q504.179 461.445 505.198 461.445 Q510.985 461.445 514.364 464.616 Q517.744 467.787 517.744 473.204 Q517.744 478.783 514.272 481.884 Q510.8 484.963 504.48 484.963 Q502.304 484.963 500.036 484.593 Q497.79 484.222 495.383 483.482 L495.383 478.783 Q497.466 479.917 499.689 480.472 Q501.911 481.028 504.388 481.028 Q508.392 481.028 510.73 478.922 Q513.068 476.815 513.068 473.204 Q513.068 469.593 510.73 467.486 Q508.392 465.38 504.388 465.38 Q502.513 465.38 500.638 465.797 Q498.786 466.213 496.841 467.093 L496.841 449.732 Z" fill="#000000" fill-rule="nonzero" fill-opacity="1" /><path clip-path="url(#clip470)" d="M451.379 180.523 L459.018 180.523 L459.018 154.157 L450.707 155.824 L450.707 151.564 L458.971 149.898 L463.647 149.898 L463.647 180.523 L471.286 180.523 L471.286 184.458 L451.379 184.458 L451.379 180.523 Z" fill="#000000" fill-rule="nonzero" fill-opacity="1" /><path clip-path="url(#clip470)" d="M480.73 178.578 L485.615 178.578 L485.615 184.458 L480.73 184.458 L480.73 178.578 Z" fill="#000000" fill-rule="nonzero" fill-opacity="1" /><path clip-path="url(#clip470)" d="M505.8 152.976 Q502.189 152.976 500.36 156.541 Q498.554 160.083 498.554 167.212 Q498.554 174.319 500.36 177.884 Q502.189 181.425 505.8 181.425 Q509.434 181.425 511.239 177.884 Q513.068 174.319 513.068 167.212 Q513.068 160.083 511.239 156.541 Q509.434 152.976 505.8 152.976 M505.8 149.273 Q511.61 149.273 514.665 153.879 Q517.744 158.463 517.744 167.212 Q517.744 175.939 514.665 180.546 Q511.61 185.129 505.8 185.129 Q499.99 185.129 496.911 180.546 Q493.855 175.939 493.855 167.212 Q493.855 158.463 496.911 153.879 Q499.99 149.273 505.8 149.273 Z" fill="#000000" fill-rule="nonzero" fill-opacity="1" /><polyline clip-path="url(#clip472)" style="stroke:#009af9; stroke-linecap:round; stroke-linejoin:round; stroke-width:8; stroke-opacity:1; fill:none" points="1873.01,766.846 1872.98,760.849 1872.89,754.853 1872.74,748.859 1872.53,742.866 1872.26,736.875 1871.94,730.887 1871.55,724.903 1871.1,718.924 1870.59,712.949 1870.02,706.979 1869.39,701.015 1868.7,695.058 1867.95,689.109 1867.15,683.166 1866.28,677.233 1865.35,671.308 1864.37,665.393 1863.33,659.488 1862.22,653.593 1861.06,647.71 1859.84,641.839 1858.56,635.981 1857.22,630.135 1855.83,624.303 1854.37,618.486 1852.86,612.683 1851.29,606.896 1849.66,601.124 1847.97,595.37 1846.23,589.632 1844.43,583.912 1842.57,578.21 1840.66,572.528 1838.69,566.864 1836.66,561.221 1834.57,555.598 1832.43,549.997 1830.24,544.417 1827.98,538.859 1825.68,533.324 1823.31,527.813 1820.9,522.325 1818.42,516.862 1815.9,511.424 1813.32,506.011 1810.68,500.624 1807.99,495.264 1805.25,489.932 1802.45,484.627 1799.6,479.35 1796.7,474.102 1793.75,468.883 1790.74,463.694 1787.69,458.535 1784.58,453.407 1781.42,448.31 1778.21,443.246 1774.95,438.213 1771.63,433.214 1768.27,428.248 1764.86,423.316 1761.4,418.418 1757.89,413.555 1754.34,408.727 1750.73,403.935 1747.08,399.179 1743.38,394.46 1739.63,389.779 1735.84,385.135 1732,380.529 1728.11,375.962 1724.18,371.434 1720.2,366.945 1716.18,362.497 1712.12,358.089 1708.01,353.722 1703.85,349.396 1699.66,345.112 1695.42,340.87 1691.14,336.67 1686.82,332.514 1682.45,328.401 1678.05,324.332 1673.6,320.307 1669.12,316.327 1664.59,312.392 1660.03,308.502 1655.43,304.658 1650.78,300.861 1646.11,297.11 1641.39,293.406 1636.64,289.749 1631.85,286.14 1627.02,282.579 1622.16,279.067 1617.27,275.603 1612.34,272.188 1607.37,268.823 1602.38,265.508 1597.35,262.243 1592.29,259.028 1587.19,255.864 1582.07,252.751 1576.91,249.69 1571.72,246.68 1566.51,243.722 1561.26,240.817 1555.99,237.964 1550.68,235.164 1545.35,232.417 1540,229.724 1534.61,227.084 1529.2,224.499 1523.76,221.967 1518.3,219.49 1512.82,217.068 1507.31,214.701 1501.77,212.389 1496.22,210.133 1490.64,207.932 1485.04,205.787 1479.42,203.698 1473.78,201.665 1468.12,199.689 1462.43,197.77 1456.73,195.908 1451.02,194.102 1445.28,192.354 1439.53,190.664 1433.76,189.031 1427.97,187.456 1422.17,185.938 1416.35,184.479 1410.52,183.078 1404.68,181.736 1398.82,180.452 1392.95,179.226 1387.07,178.06 1381.17,176.952 1375.27,175.903 1369.36,174.913 1363.43,173.983 1357.5,173.112 1351.56,172.3 1345.61,171.548 1339.65,170.855 1333.69,170.221 1327.72,169.648 1321.74,169.134 1315.76,168.68 1309.78,168.286 1303.79,167.951 1297.8,167.677 1291.81,167.462 1285.82,167.307 1279.82,167.213 1273.82,167.178 1267.83,167.203 1261.83,167.288 1255.84,167.433 1249.84,167.639 1243.85,167.903 1237.86,168.228 1231.88,168.613 1225.9,169.058 1219.92,169.562 1213.95,170.126 1207.99,170.75 1202.03,171.433 1196.08,172.176 1190.14,172.978 1184.2,173.84 1178.28,174.761 1172.36,175.741 1166.46,176.781 1160.56,177.879 1154.68,179.036 1148.81,180.253 1142.95,181.527 1137.1,182.86 1131.27,184.252 1125.45,185.702 1119.64,187.21 1113.86,188.776 1108.08,190.4 1102.33,192.081 1096.59,193.82 1090.87,195.616 1085.16,197.47 1079.48,199.38 1073.81,201.347 1068.17,203.37 1062.55,205.45 1056.94,207.586 1051.36,209.778 1045.8,212.026 1040.26,214.329 1034.75,216.688 1029.26,219.101 1023.8,221.569 1018.36,224.092 1012.94,226.669 1007.55,229.3 1002.19,231.985 996.855,234.723 991.548,237.514 986.269,240.359 981.018,243.256 975.797,246.205 970.606,249.207 965.445,252.26 960.314,255.365 955.215,258.521 950.148,261.727 945.113,264.984 940.111,268.292 935.142,271.649 930.207,275.056 925.306,278.512 920.441,282.016 915.61,285.57 910.815,289.171 906.057,292.82 901.335,296.517 896.65,300.26 892.003,304.05 887.394,307.887 882.824,311.769 878.293,315.697 873.801,319.67 869.35,323.688 864.938,327.75 860.568,331.856 856.239,336.005 851.951,340.198 847.706,344.433 843.503,348.711 839.343,353.03 835.227,357.391 831.154,361.792 827.126,366.234 823.142,370.716 819.204,375.238 815.31,379.799 811.463,384.399 807.661,389.037 803.907,393.712 800.199,398.425 796.538,403.175 792.926,407.961 789.361,412.783 785.844,417.641 782.377,422.533 778.958,427.46 775.589,432.421 772.27,437.415 769.001,442.442 765.782,447.502 762.614,452.593 759.497,457.716 756.431,462.87 753.418,468.054 750.456,473.268 747.546,478.512 744.689,483.784 741.885,489.085 739.134,494.413 736.436,499.769 733.793,505.151 731.203,510.56 728.667,515.994 726.186,521.453 723.759,526.937 721.388,532.445 719.071,537.976 716.81,543.53 714.605,549.107 712.456,554.705 710.362,560.324 708.325,565.964 706.345,571.624 704.421,577.304 702.554,583.003 700.744,588.72 698.991,594.455 697.296,600.207 695.659,605.975 694.079,611.76 692.557,617.561 691.093,623.376 689.688,629.205 688.34,635.049 687.052,640.905 685.822,646.774 684.65,652.656 683.538,658.548 682.484,664.452 681.49,670.365 680.555,676.288 679.679,682.221 678.862,688.162 678.105,694.11 677.408,700.066 676.77,706.029 676.191,711.998 675.673,717.972 675.214,723.951 674.815,729.934 674.476,735.921 674.196,741.911 673.977,747.904 673.818,753.899 673.718,759.894 673.678,765.891 673.699,771.888 673.779,777.884 673.92,783.879 674.12,789.872 674.38,795.863 674.7,801.851 675.08,807.836 675.52,813.816 676.02,819.792 676.579,825.763 677.198,831.727 677.877,837.685 678.615,843.636 679.412,849.58 680.269,855.515 681.186,861.441 682.161,867.358 683.196,873.265 684.29,879.161 685.442,885.045 686.654,890.919 687.924,896.779 689.252,902.627 690.639,908.461 692.084,914.281 693.588,920.086 695.149,925.876 696.768,931.65 698.445,937.407 700.179,943.147 701.971,948.87 703.82,954.575 705.726,960.261 707.688,965.927 709.707,971.573 711.783,977.2 713.914,982.805 716.102,988.388 718.345,993.949 720.644,999.488 722.998,1005 725.407,1010.49 727.871,1015.96 730.389,1021.4 732.962,1026.82 735.588,1032.21 738.269,1037.58 741.003,1042.91 743.79,1048.22 746.63,1053.5 749.523,1058.76 752.468,1063.98 755.466,1069.17 758.515,1074.34 761.616,1079.47 764.767,1084.57 767.97,1089.64 771.223,1094.68 774.526,1099.68 777.88,1104.66 781.283,1109.59 784.735,1114.5 788.235,1119.37 791.785,1124.2 795.382,1129 799.028,1133.76 802.721,1138.48 806.46,1143.17 810.247,1147.82 814.08,1152.43 817.958,1157.01 821.883,1161.54 825.852,1166.03 829.866,1170.49 833.925,1174.9 838.027,1179.28 842.173,1183.61 846.363,1187.9 850.594,1192.15 854.868,1196.36 859.184,1200.52 863.542,1204.64 867.94,1208.71 872.379,1212.75 876.858,1216.73 881.377,1220.68 885.934,1224.57 890.531,1228.42 895.166,1232.23 899.839,1235.99 904.549,1239.7 909.295,1243.36 914.079,1246.98 918.898,1250.55 923.753,1254.07 928.642,1257.54 933.566,1260.96 938.524,1264.34 943.516,1267.66 948.541,1270.93 953.598,1274.16 958.687,1277.33 963.807,1280.45 968.958,1283.52 974.14,1286.54 979.352,1289.5 984.593,1292.42 989.863,1295.28 995.162,1298.09 1000.49,1300.84 1005.84,1303.54 1011.22,1306.19 1016.63,1308.79 1022.06,1311.33 1027.52,1313.81 1033,1316.24 1038.51,1318.62 1044.03,1320.94 1049.59,1323.2 1055.16,1325.41 1060.76,1327.57 1066.38,1329.67 1072.01,1331.71 1077.67,1333.69 1083.35,1335.62 1089.05,1337.49 1094.76,1339.31 1100.5,1341.06 1106.25,1342.76 1112.02,1344.41 1117.8,1345.99 1123.6,1347.52 1129.41,1348.98 1135.24,1350.39 1141.08,1351.75 1146.94,1353.04 1152.81,1354.27 1158.69,1355.45 1164.58,1356.57 1170.48,1357.63 1176.39,1358.62 1182.32,1359.56 1188.25,1360.45 1194.19,1361.27 1200.14,1362.03 1206.09,1362.73 1212.05,1363.37 1218.02,1363.96 1224,1364.48 1229.97,1364.94 1235.96,1365.35 1241.94,1365.69 1247.93,1365.98 1253.93,1366.2 1259.92,1366.36 1265.92,1366.47 1271.91,1366.51 1277.91,1366.5 1283.91,1366.42 1289.9,1366.29 1295.89,1366.09 1301.89,1365.83 1307.87,1365.52 1313.86,1365.14 1319.84,1364.71 1325.82,1364.21 1331.79,1363.66 1337.75,1363.05 1343.71,1362.37 1349.66,1361.64 1355.61,1360.85 1361.54,1359.99 1367.47,1359.08 1373.39,1358.11 1379.29,1357.08 1385.19,1355.99 1391.08,1354.84 1396.95,1353.64 1402.81,1352.37 1408.66,1351.05 1414.5,1349.67 1420.32,1348.22 1426.12,1346.73 1431.92,1345.17 1437.69,1343.55 1443.45,1341.88 1449.19,1340.15 1454.92,1338.37 1460.62,1336.52 1466.31,1334.62 1471.98,1332.66 1477.62,1330.65 1483.25,1328.58 1488.86,1326.45 1494.44,1324.27 1500.01,1322.03 1505.55,1319.73 1511.06,1317.38 1516.56,1314.98 1522.03,1312.52 1527.47,1310.01 1532.89,1307.44 1538.28,1304.81 1543.65,1302.14 1548.99,1299.41 1554.3,1296.63 1559.58,1293.79 1564.84,1290.9 1570.07,1287.96 1575.26,1284.97 1580.43,1281.92 1585.56,1278.83 1590.67,1275.68 1595.74,1272.48 1600.78,1269.23 1605.79,1265.93 1610.76,1262.58 1615.7,1259.18 1620.61,1255.73 1625.48,1252.24 1630.31,1248.69 1635.12,1245.1 1639.88,1241.46 1644.61,1237.77 1649.3,1234.03 1653.95,1230.25 1658.57,1226.42 1663.14,1222.54 1667.68,1218.62 1672.18,1214.66 1676.64,1210.65 1681.05,1206.59 1685.43,1202.49 1689.77,1198.35 1694.06,1194.16 1698.31,1189.94 1702.52,1185.67 1706.69,1181.35 1710.81,1177 1714.89,1172.6 1718.93,1168.17 1722.92,1163.69 1726.86,1159.18 1730.76,1154.62 1734.62,1150.03 1738.43,1145.4 1742.19,1140.73 1745.91,1136.02 1749.57,1131.28 1753.19,1126.5 1756.77,1121.68 1760.29,1116.83 1763.77,1111.94 1767.19,1107.02 1770.57,1102.06 1773.9,1097.07 1777.17,1092.05 1780.4,1087 1783.58,1081.91 1786.7,1076.79 1789.78,1071.64 1792.8,1066.47 1795.77,1061.26 1798.69,1056.02 1801.55,1050.75 1804.36,1045.45 1807.12,1040.13 1809.83,1034.78 1812.48,1029.4 1815.08,1024 1817.62,1018.57 1820.11,1013.11 1822.55,1007.63 1824.93,1002.13 1827.26,996.598 1829.53,991.048 1831.74,985.475 1833.9,979.88 1836,974.264 1838.05,968.627 1840.04,962.97 1841.97,957.294 1843.84,951.598 1845.66,945.884 1847.43,940.152 1849.13,934.403 1850.78,928.636 1852.37,922.854 1853.9,917.056 1855.37,911.243 1856.78,905.416 1858.14,899.575 1859.44,893.72 1860.68,887.853 1861.86,881.974 1862.98,876.083 1864.04,870.181 1865.05,864.269 1865.99,858.348 1866.88,852.417 1867.7,846.477 1868.47,840.53 1869.18,834.575 1869.82,828.613 1870.41,822.645 1870.94,816.672 1871.41,810.694 1871.82,804.711 1872.17,798.724 1872.46,792.735 1872.68,786.743 1872.85,780.748 1872.96,774.753 1873.01,768.756 "/>
<polyline clip-path="url(#clip472)" style="stroke:#000000; stroke-linecap:round; stroke-linejoin:round; stroke-width:4; stroke-opacity:1; fill:none" points="1273.35,1486.45 1273.35,47.2441 "/>
<polyline clip-path="url(#clip472)" style="stroke:#000000; stroke-linecap:round; stroke-linejoin:round; stroke-width:4; stroke-opacity:1; fill:none" points="553.744,766.846 1992.95,766.846 "/>
<circle clip-path="url(#clip472)" cx="1697.38" cy="342.817" r="14.4" fill="#ff00ff" fill-rule="evenodd" fill-opacity="1" stroke="#000000" stroke-opacity="1" stroke-width="3.2"/>
<polyline clip-path="url(#clip472)" style="stroke:#000000; stroke-linecap:round; stroke-linejoin:round; stroke-width:4; stroke-opacity:1; fill:none" stroke-dasharray="16, 10" points="1697.38,766.846 1697.38,342.817 "/>
<polyline clip-path="url(#clip472)" style="stroke:#000000; stroke-linecap:round; stroke-linejoin:round; stroke-width:4; stroke-opacity:1; fill:none" stroke-dasharray="16, 10" points="1273.35,342.817 1697.38,342.817 "/>
<path clip-path="url(#clip470)" d="M1763.19 326.02 L1763.19 342.252 L1770.54 342.252 Q1774.62 342.252 1776.84 340.14 Q1779.07 338.028 1779.07 334.122 Q1779.07 330.244 1776.84 328.132 Q1774.62 326.02 1770.54 326.02 L1763.19 326.02 M1757.34 321.217 L1770.54 321.217 Q1777.8 321.217 1781.5 324.515 Q1785.24 327.785 1785.24 334.122 Q1785.24 340.516 1781.5 343.786 Q1777.8 347.055 1770.54 347.055 L1763.19 347.055 L1763.19 364.417 L1757.34 364.417 L1757.34 321.217 Z" fill="#808080" fill-rule="nonzero" fill-opacity="1" /><path clip-path="url(#clip470)" d="M1824.47 319.451 Q1820.59 326.107 1818.71 332.617 Q1816.83 339.127 1816.83 345.811 Q1816.83 352.495 1818.71 359.064 Q1820.62 365.603 1824.47 372.229 L1819.84 372.229 Q1815.5 365.429 1813.33 358.861 Q1811.19 352.293 1811.19 345.811 Q1811.19 339.359 1813.33 332.819 Q1815.47 326.28 1819.84 319.451 L1824.47 319.451 Z" fill="#808080" fill-rule="nonzero" fill-opacity="1" /><path clip-path="url(#clip470)" d="M1858.12 333.253 L1858.12 338.23 Q1855.87 336.986 1853.58 336.378 Q1851.32 335.742 1849.01 335.742 Q1843.83 335.742 1840.96 339.04 Q1838.1 342.31 1838.1 348.242 Q1838.1 354.174 1840.96 357.472 Q1843.83 360.742 1849.01 360.742 Q1851.32 360.742 1853.58 360.134 Q1855.87 359.498 1858.12 358.253 L1858.12 363.172 Q1855.89 364.214 1853.49 364.735 Q1851.12 365.256 1848.43 365.256 Q1841.11 365.256 1836.8 360.655 Q1832.49 356.054 1832.49 348.242 Q1832.49 340.314 1836.83 335.771 Q1841.2 331.228 1848.78 331.228 Q1851.24 331.228 1853.58 331.749 Q1855.92 332.241 1858.12 333.253 Z" fill="#808080" fill-rule="nonzero" fill-opacity="1" /><path clip-path="url(#clip470)" d="M1879.94 335.742 Q1875.66 335.742 1873.17 339.098 Q1870.68 342.426 1870.68 348.242 Q1870.68 354.058 1873.14 357.414 Q1875.63 360.742 1879.94 360.742 Q1884.19 360.742 1886.68 357.385 Q1889.17 354.029 1889.17 348.242 Q1889.17 342.484 1886.68 339.127 Q1884.19 335.742 1879.94 335.742 M1879.94 331.228 Q1886.88 331.228 1890.85 335.742 Q1894.81 340.256 1894.81 348.242 Q1894.81 356.199 1890.85 360.742 Q1886.88 365.256 1879.94 365.256 Q1872.97 365.256 1869 360.742 Q1865.07 356.199 1865.07 348.242 Q1865.07 340.256 1869 335.742 Q1872.97 331.228 1879.94 331.228 Z" fill="#808080" fill-rule="nonzero" fill-opacity="1" /><path clip-path="url(#clip470)" d="M1924.3 332.964 L1924.3 337.999 Q1922.04 336.841 1919.61 336.263 Q1917.18 335.684 1914.58 335.684 Q1910.61 335.684 1908.61 336.899 Q1906.65 338.115 1906.65 340.545 Q1906.65 342.397 1908.06 343.468 Q1909.48 344.509 1913.77 345.464 L1915.59 345.869 Q1921.26 347.084 1923.63 349.312 Q1926.03 351.511 1926.03 355.476 Q1926.03 359.989 1922.45 362.623 Q1918.89 365.256 1912.64 365.256 Q1910.03 365.256 1907.2 364.735 Q1904.39 364.243 1901.27 363.23 L1901.27 357.733 Q1904.22 359.266 1907.08 360.047 Q1909.95 360.8 1912.75 360.8 Q1916.51 360.8 1918.54 359.526 Q1920.56 358.224 1920.56 355.881 Q1920.56 353.711 1919.09 352.553 Q1917.64 351.396 1912.69 350.325 L1910.84 349.891 Q1905.89 348.849 1903.7 346.708 Q1901.5 344.538 1901.5 340.777 Q1901.5 336.205 1904.74 333.716 Q1907.98 331.228 1913.94 331.228 Q1916.89 331.228 1919.49 331.662 Q1922.1 332.096 1924.3 332.964 Z" fill="#808080" fill-rule="nonzero" fill-opacity="1" /><path clip-path="url(#clip470)" d="M1947.3 319.451 Q1943.42 326.107 1941.54 332.617 Q1939.66 339.127 1939.66 345.811 Q1939.66 352.495 1941.54 359.064 Q1943.45 365.603 1947.3 372.229 L1942.67 372.229 Q1938.33 365.429 1936.16 358.861 Q1934.02 352.293 1934.02 345.811 Q1934.02 339.359 1936.16 332.819 Q1938.3 326.28 1942.67 319.451 L1947.3 319.451 Z" fill="#808080" fill-rule="nonzero" fill-opacity="1" /><path clip-path="url(#clip470)" d="M1984.57 332.009 L1972.85 347.779 L1985.18 364.417 L1978.9 364.417 L1969.46 351.685 L1960.03 364.417 L1953.75 364.417 L1966.34 347.461 L1954.82 332.009 L1961.1 332.009 L1969.7 343.554 L1978.29 332.009 L1984.57 332.009 Z" fill="#808080" fill-rule="nonzero" fill-opacity="1" /><path clip-path="url(#clip470)" d="M1991.86 319.451 L1996.49 319.451 Q2000.83 326.28 2002.97 332.819 Q2005.14 339.359 2005.14 345.811 Q2005.14 352.293 2002.97 358.861 Q2000.83 365.429 1996.49 372.229 L1991.86 372.229 Q1995.71 365.603 1997.59 359.064 Q1999.5 352.495 1999.5 345.811 Q1999.5 339.127 1997.59 332.617 Q1995.71 326.107 1991.86 319.451 Z" fill="#808080" fill-rule="nonzero" fill-opacity="1" /><path clip-path="url(#clip470)" d="M2017.18 357.067 L2023.28 357.067 L2023.28 362.044 L2018.54 371.303 L2014.81 371.303 L2017.18 362.044 L2017.18 357.067 Z" fill="#808080" fill-rule="nonzero" fill-opacity="1" /><path clip-path="url(#clip470)" d="M2074.15 332.964 L2074.15 337.999 Q2071.89 336.841 2069.46 336.263 Q2067.03 335.684 2064.43 335.684 Q2060.47 335.684 2058.47 336.899 Q2056.5 338.115 2056.5 340.545 Q2056.5 342.397 2057.92 343.468 Q2059.34 344.509 2063.62 345.464 L2065.44 345.869 Q2071.11 347.084 2073.49 349.312 Q2075.89 351.511 2075.89 355.476 Q2075.89 359.989 2072.3 362.623 Q2068.74 365.256 2062.49 365.256 Q2059.89 365.256 2057.05 364.735 Q2054.24 364.243 2051.12 363.23 L2051.12 357.733 Q2054.07 359.266 2056.94 360.047 Q2059.8 360.8 2062.61 360.8 Q2066.37 360.8 2068.39 359.526 Q2070.42 358.224 2070.42 355.881 Q2070.42 353.711 2068.94 352.553 Q2067.5 351.396 2062.55 350.325 L2060.7 349.891 Q2055.75 348.849 2053.55 346.708 Q2051.35 344.538 2051.35 340.777 Q2051.35 336.205 2054.59 333.716 Q2057.83 331.228 2063.79 331.228 Q2066.74 331.228 2069.35 331.662 Q2071.95 332.096 2074.15 332.964 Z" fill="#808080" fill-rule="nonzero" fill-opacity="1" /><path clip-path="url(#clip470)" d="M2084.37 332.009 L2089.69 332.009 L2089.69 364.417 L2084.37 364.417 L2084.37 332.009 M2084.37 319.394 L2089.69 319.394 L2089.69 326.135 L2084.37 326.135 L2084.37 319.394 Z" fill="#808080" fill-rule="nonzero" fill-opacity="1" /><path clip-path="url(#clip470)" d="M2127.77 344.856 L2127.77 364.417 L2122.44 364.417 L2122.44 345.03 Q2122.44 340.429 2120.65 338.143 Q2118.86 335.858 2115.27 335.858 Q2110.96 335.858 2108.47 338.606 Q2105.98 341.355 2105.98 346.101 L2105.98 364.417 L2100.63 364.417 L2100.63 332.009 L2105.98 332.009 L2105.98 337.044 Q2107.89 334.122 2110.47 332.675 Q2113.07 331.228 2116.45 331.228 Q2122.04 331.228 2124.9 334.7 Q2127.77 338.143 2127.77 344.856 Z" fill="#808080" fill-rule="nonzero" fill-opacity="1" /><path clip-path="url(#clip470)" d="M2151.18 319.451 Q2147.3 326.107 2145.42 332.617 Q2143.54 339.127 2143.54 345.811 Q2143.54 352.495 2145.42 359.064 Q2147.33 365.603 2151.18 372.229 L2146.55 372.229 Q2142.21 365.429 2140.04 358.861 Q2137.9 352.293 2137.9 345.811 Q2137.9 339.359 2140.04 332.819 Q2142.18 326.28 2146.55 319.451 L2151.18 319.451 Z" fill="#808080" fill-rule="nonzero" fill-opacity="1" /><path clip-path="url(#clip470)" d="M2188.45 332.009 L2176.73 347.779 L2189.05 364.417 L2182.77 364.417 L2173.34 351.685 L2163.91 364.417 L2157.63 364.417 L2170.22 347.461 L2158.7 332.009 L2164.98 332.009 L2173.57 343.554 L2182.17 332.009 L2188.45 332.009 Z" fill="#808080" fill-rule="nonzero" fill-opacity="1" /><path clip-path="url(#clip470)" d="M2195.74 319.451 L2200.37 319.451 Q2204.71 326.28 2206.85 332.819 Q2209.02 339.359 2209.02 345.811 Q2209.02 352.293 2206.85 358.861 Q2204.71 365.429 2200.37 372.229 L2195.74 372.229 Q2199.59 365.603 2201.47 359.064 Q2203.38 352.495 2203.38 345.811 Q2203.38 339.127 2201.47 332.617 Q2199.59 326.107 2195.74 319.451 Z" fill="#808080" fill-rule="nonzero" fill-opacity="1" /><path clip-path="url(#clip470)" d="M2218.86 319.451 L2223.49 319.451 Q2227.83 326.28 2229.97 332.819 Q2232.14 339.359 2232.14 345.811 Q2232.14 352.293 2229.97 358.861 Q2227.83 365.429 2223.49 372.229 L2218.86 372.229 Q2222.7 365.603 2224.59 359.064 Q2226.49 352.495 2226.49 345.811 Q2226.49 339.127 2224.59 332.617 Q2222.7 326.107 2218.86 319.451 Z" fill="#808080" fill-rule="nonzero" fill-opacity="1" /><path clip-path="url(#clip470)" d="M1356.35 544.979 L1356.35 550.014 Q1354.09 548.856 1351.66 548.277 Q1349.23 547.699 1346.62 547.699 Q1342.66 547.699 1340.66 548.914 Q1338.69 550.129 1338.69 552.56 Q1338.69 554.412 1340.11 555.482 Q1341.53 556.524 1345.81 557.479 L1347.64 557.884 Q1353.31 559.099 1355.68 561.327 Q1358.08 563.526 1358.08 567.49 Q1358.08 572.004 1354.49 574.637 Q1350.93 577.27 1344.68 577.27 Q1342.08 577.27 1339.24 576.75 Q1336.44 576.258 1333.31 575.245 L1333.31 569.747 Q1336.26 571.281 1339.13 572.062 Q1341.99 572.814 1344.8 572.814 Q1348.56 572.814 1350.59 571.541 Q1352.61 570.239 1352.61 567.895 Q1352.61 565.725 1351.14 564.568 Q1349.69 563.41 1344.74 562.34 L1342.89 561.906 Q1337.94 560.864 1335.74 558.723 Q1333.54 556.553 1333.54 552.791 Q1333.54 548.22 1336.78 545.731 Q1340.03 543.243 1345.99 543.243 Q1348.94 543.243 1351.54 543.677 Q1354.15 544.111 1356.35 544.979 Z" fill="#000000" fill-rule="nonzero" fill-opacity="1" /><path clip-path="url(#clip470)" d="M1366.56 544.024 L1371.88 544.024 L1371.88 576.431 L1366.56 576.431 L1366.56 544.024 M1366.56 531.408 L1371.88 531.408 L1371.88 538.15 L1366.56 538.15 L1366.56 531.408 Z" fill="#000000" fill-rule="nonzero" fill-opacity="1" /><path clip-path="url(#clip470)" d="M1409.96 556.871 L1409.96 576.431 L1404.64 576.431 L1404.64 557.045 Q1404.64 552.444 1402.84 550.158 Q1401.05 547.872 1397.46 547.872 Q1393.15 547.872 1390.66 550.621 Q1388.17 553.37 1388.17 558.115 L1388.17 576.431 L1382.82 576.431 L1382.82 544.024 L1388.17 544.024 L1388.17 549.059 Q1390.08 546.136 1392.66 544.69 Q1395.26 543.243 1398.65 543.243 Q1404.23 543.243 1407.1 546.715 Q1409.96 550.158 1409.96 556.871 Z" fill="#000000" fill-rule="nonzero" fill-opacity="1" /><path clip-path="url(#clip470)" d="M1433.37 531.466 Q1429.49 538.121 1427.61 544.632 Q1425.73 551.142 1425.73 557.826 Q1425.73 564.51 1427.61 571.078 Q1429.52 577.618 1433.37 584.244 L1428.74 584.244 Q1424.4 577.444 1422.23 570.876 Q1420.09 564.307 1420.09 557.826 Q1420.09 551.374 1422.23 544.834 Q1424.37 538.295 1428.74 531.466 L1433.37 531.466 Z" fill="#000000" fill-rule="nonzero" fill-opacity="1" /><path clip-path="url(#clip470)" d="M1470.64 544.024 L1458.92 559.794 L1471.25 576.431 L1464.97 576.431 L1455.53 563.7 L1446.1 576.431 L1439.82 576.431 L1452.41 559.475 L1440.89 544.024 L1447.17 544.024 L1455.77 555.569 L1464.36 544.024 L1470.64 544.024 Z" fill="#000000" fill-rule="nonzero" fill-opacity="1" /><path clip-path="url(#clip470)" d="M1477.93 531.466 L1482.56 531.466 Q1486.9 538.295 1489.04 544.834 Q1491.21 551.374 1491.21 557.826 Q1491.21 564.307 1489.04 570.876 Q1486.9 577.444 1482.56 584.244 L1477.93 584.244 Q1481.78 577.618 1483.66 571.078 Q1485.57 564.51 1485.57 557.826 Q1485.57 551.142 1483.66 544.632 Q1481.78 538.121 1477.93 531.466 Z" fill="#000000" fill-rule="nonzero" fill-opacity="1" /><path clip-path="url(#clip470)" d="M1424.67 817.25 L1424.67 822.227 Q1422.41 820.982 1420.13 820.375 Q1417.87 819.738 1415.55 819.738 Q1410.38 819.738 1407.51 823.037 Q1404.65 826.306 1404.65 832.238 Q1404.65 838.17 1407.51 841.468 Q1410.38 844.738 1415.55 844.738 Q1417.87 844.738 1420.13 844.13 Q1422.41 843.494 1424.67 842.25 L1424.67 847.169 Q1422.44 848.21 1420.04 848.731 Q1417.67 849.252 1414.98 849.252 Q1407.66 849.252 1403.34 844.651 Q1399.03 840.051 1399.03 832.238 Q1399.03 824.31 1403.37 819.767 Q1407.74 815.224 1415.32 815.224 Q1417.78 815.224 1420.13 815.745 Q1422.47 816.237 1424.67 817.25 Z" fill="#000000" fill-rule="nonzero" fill-opacity="1" /><path clip-path="url(#clip470)" d="M1446.49 819.738 Q1442.2 819.738 1439.72 823.095 Q1437.23 826.422 1437.23 832.238 Q1437.23 838.054 1439.69 841.411 Q1442.18 844.738 1446.49 844.738 Q1450.74 844.738 1453.23 841.382 Q1455.72 838.025 1455.72 832.238 Q1455.72 826.48 1453.23 823.124 Q1450.74 819.738 1446.49 819.738 M1446.49 815.224 Q1453.43 815.224 1457.39 819.738 Q1461.36 824.252 1461.36 832.238 Q1461.36 840.195 1457.39 844.738 Q1453.43 849.252 1446.49 849.252 Q1439.51 849.252 1435.55 844.738 Q1431.61 840.195 1431.61 832.238 Q1431.61 824.252 1435.55 819.738 Q1439.51 815.224 1446.49 815.224 Z" fill="#000000" fill-rule="nonzero" fill-opacity="1" /><path clip-path="url(#clip470)" d="M1490.84 816.96 L1490.84 821.995 Q1488.59 820.838 1486.16 820.259 Q1483.73 819.68 1481.12 819.68 Q1477.16 819.68 1475.16 820.896 Q1473.19 822.111 1473.19 824.541 Q1473.19 826.393 1474.61 827.464 Q1476.03 828.506 1480.31 829.46 L1482.13 829.865 Q1487.81 831.081 1490.18 833.309 Q1492.58 835.508 1492.58 839.472 Q1492.58 843.986 1488.99 846.619 Q1485.43 849.252 1479.18 849.252 Q1476.58 849.252 1473.74 848.731 Q1470.94 848.239 1467.81 847.226 L1467.81 841.729 Q1470.76 843.262 1473.63 844.044 Q1476.49 844.796 1479.3 844.796 Q1483.06 844.796 1485.09 843.523 Q1487.11 842.221 1487.11 839.877 Q1487.11 837.707 1485.64 836.549 Q1484.19 835.392 1479.24 834.321 L1477.39 833.887 Q1472.44 832.846 1470.24 830.705 Q1468.04 828.534 1468.04 824.773 Q1468.04 820.201 1471.28 817.713 Q1474.52 815.224 1480.49 815.224 Q1483.44 815.224 1486.04 815.658 Q1488.64 816.092 1490.84 816.96 Z" fill="#000000" fill-rule="nonzero" fill-opacity="1" /><path clip-path="url(#clip470)" d="M1513.85 803.448 Q1509.97 810.103 1508.09 816.613 Q1506.21 823.124 1506.21 829.808 Q1506.21 836.492 1508.09 843.06 Q1510 849.599 1513.85 856.225 L1509.22 856.225 Q1504.88 849.426 1502.71 842.857 Q1500.57 836.289 1500.57 829.808 Q1500.57 823.355 1502.71 816.816 Q1504.85 810.276 1509.22 803.448 L1513.85 803.448 Z" fill="#000000" fill-rule="nonzero" fill-opacity="1" /><path clip-path="url(#clip470)" d="M1551.12 816.006 L1539.4 831.775 L1551.72 848.413 L1545.44 848.413 L1536.01 835.681 L1526.58 848.413 L1520.3 848.413 L1532.89 831.457 L1521.37 816.006 L1527.65 816.006 L1536.24 827.551 L1544.84 816.006 L1551.12 816.006 Z" fill="#000000" fill-rule="nonzero" fill-opacity="1" /><path clip-path="url(#clip470)" d="M1558.41 803.448 L1563.04 803.448 Q1567.38 810.276 1569.52 816.816 Q1571.69 823.355 1571.69 829.808 Q1571.69 836.289 1569.52 842.857 Q1567.38 849.426 1563.04 856.225 L1558.41 856.225 Q1562.26 849.599 1564.14 843.06 Q1566.05 836.492 1566.05 829.808 Q1566.05 823.124 1564.14 816.613 Q1562.26 810.103 1558.41 803.448 Z" fill="#000000" fill-rule="nonzero" fill-opacity="1" /><path clip-path="url(#clip470)" d="M1920.96 783.527 L1930.51 783.527 L1930.51 750.57 L1920.12 752.653 L1920.12 747.329 L1930.45 745.246 L1936.29 745.246 L1936.29 783.527 L1945.84 783.527 L1945.84 788.446 L1920.96 788.446 L1920.96 783.527 Z" fill="#000000" fill-rule="nonzero" fill-opacity="1" /><path clip-path="url(#clip470)" d="M588.349 769.841 L603.945 769.841 L603.945 774.586 L588.349 774.586 L588.349 769.841 Z" fill="#000000" fill-rule="nonzero" fill-opacity="1" /><path clip-path="url(#clip470)" d="M614.188 783.527 L623.737 783.527 L623.737 750.57 L613.349 752.653 L613.349 747.329 L623.679 745.246 L629.524 745.246 L629.524 783.527 L639.072 783.527 L639.072 788.446 L614.188 788.446 L614.188 783.527 Z" fill="#000000" fill-rule="nonzero" fill-opacity="1" /><path clip-path="url(#clip470)" d="M1261.32 123.892 L1270.87 123.892 L1270.87 90.935 L1260.48 93.0183 L1260.48 87.6942 L1270.81 85.6109 L1276.66 85.6109 L1276.66 123.892 L1286.21 123.892 L1286.21 128.811 L1261.32 128.811 L1261.32 123.892 Z" fill="#000000" fill-rule="nonzero" fill-opacity="1" /><path clip-path="url(#clip470)" d="M1247.98 1429.48 L1263.58 1429.48 L1263.58 1434.22 L1247.98 1434.22 L1247.98 1429.48 Z" fill="#000000" fill-rule="nonzero" fill-opacity="1" /><path clip-path="url(#clip470)" d="M1273.82 1443.16 L1283.37 1443.16 L1283.37 1410.21 L1272.98 1412.29 L1272.98 1406.96 L1283.31 1404.88 L1289.16 1404.88 L1289.16 1443.16 L1298.71 1443.16 L1298.71 1448.08 L1273.82 1448.08 L1273.82 1443.16 Z" fill="#000000" fill-rule="nonzero" fill-opacity="1" /><path clip-path="url(#clip470)" d="M1333.31 809.061 Q1328.8 809.061 1326.51 813.517 Q1324.26 817.944 1324.26 826.856 Q1324.26 835.739 1326.51 840.195 Q1328.8 844.622 1333.31 844.622 Q1337.86 844.622 1340.11 840.195 Q1342.4 835.739 1342.4 826.856 Q1342.4 817.944 1340.11 813.517 Q1337.86 809.061 1333.31 809.061 M1333.31 804.432 Q1340.58 804.432 1344.39 810.19 Q1348.24 815.919 1348.24 826.856 Q1348.24 837.765 1344.39 843.523 Q1340.58 849.252 1333.31 849.252 Q1326.05 849.252 1322.2 843.523 Q1318.38 837.765 1318.38 826.856 Q1318.38 815.919 1322.2 810.19 Q1326.05 804.432 1333.31 804.432 Z" fill="#000000" fill-rule="nonzero" fill-opacity="1" /></svg>