<?xml version="1.0" encoding="utf-8"?>
<svg xmlns="http://www.w3.org/2000/svg" xmlns:xlink="http://www.w3.org/1999/xlink" width="600" height="400" viewBox="0 0 2400 1600">
<defs>
  <clipPath id="clip300">
    <rect x="0" y="0" width="2400" height="1600"/>
  </clipPath>
</defs>
<path clip-path="url(#clip300)" d="M0 1600 L2400 1600 L2400 8.88178e-14 L0 8.88178e-14  Z" fill="#ffffff" fill-rule="evenodd" fill-opacity="1"/>
<defs>
  <clipPath id="clip301">
    <rect x="480" y="0" width="1681" height="1600"/>
  </clipPath>
</defs>
<path clip-path="url(#clip300)" d="M192.339 1486.45 L2352.76 1486.45 L2352.76 47.2441 L192.339 47.2441  Z" fill="#ffffff" fill-rule="evenodd" fill-opacity="1"/>
<defs>
  <clipPath id="clip302">
    <rect x="192" y="47" width="2161" height="1440"/>
  </clipPath>
</defs>
<polyline clip-path="url(#clip302)" style="stroke:#000000; stroke-linecap:round; stroke-linejoin:round; stroke-width:2; stroke-opacity:0.1; fill:none" points="253.483,1486.45 253.483,47.2441 "/>
<polyline clip-path="url(#clip302)" style="stroke:#000000; stroke-linecap:round; stroke-linejoin:round; stroke-width:2; stroke-opacity:0.1; fill:none" points="763.015,1486.45 763.015,47.2441 "/>
<polyline clip-path="url(#clip302)" style="stroke:#000000; stroke-linecap:round; stroke-linejoin:round; stroke-width:2; stroke-opacity:0.1; fill:none" points="1272.55,1486.45 1272.55,47.2441 "/>
<polyline clip-path="url(#clip302)" style="stroke:#000000; stroke-linecap:round; stroke-linejoin:round; stroke-width:2; stroke-opacity:0.1; fill:none" points="1782.08,1486.45 1782.08,47.2441 "/>
<polyline clip-path="url(#clip302)" style="stroke:#000000; stroke-linecap:round; stroke-linejoin:round; stroke-width:2; stroke-opacity:0.1; fill:none" points="2291.61,1486.45 2291.61,47.2441 "/>
<polyline clip-path="url(#clip302)" style="stroke:#000000; stroke-linecap:round; stroke-linejoin:round; stroke-width:2; stroke-opacity:0.1; fill:none" points="192.339,1320.05 2352.76,1320.05 "/>
<polyline clip-path="url(#clip302)" style="stroke:#000000; stroke-linecap:round; stroke-linejoin:round; stroke-width:2; stroke-opacity:0.1; fill:none" points="192.339,1114.71 2352.76,1114.71 "/>
<polyline clip-path="url(#clip302)" style="stroke:#000000; stroke-linecap:round; stroke-linejoin:round; stroke-width:2; stroke-opacity:0.1; fill:none" points="192.339,909.361 2352.76,909.361 "/>
<polyline clip-path="url(#clip302)" style="stroke:#000000; stroke-linecap:round; stroke-linejoin:round; stroke-width:2; stroke-opacity:0.1; fill:none" points="192.339,704.015 2352.76,704.015 "/>
<polyline clip-path="url(#clip302)" style="stroke:#000000; stroke-linecap:round; stroke-linejoin:round; stroke-width:2; stroke-opacity:0.1; fill:none" points="192.339,498.669 2352.76,498.669 "/>
<polyline clip-path="url(#clip302)" style="stroke:#000000; stroke-linecap:round; stroke-linejoin:round; stroke-width:2; stroke-opacity:0.1; fill:none" points="192.339,293.323 2352.76,293.323 "/>
<polyline clip-path="url(#clip302)" style="stroke:#000000; stroke-linecap:round; stroke-linejoin:round; stroke-width:2; stroke-opacity:0.1; fill:none" points="192.339,87.9763 2352.76,87.9763 "/>
<polyline clip-path="url(#clip300)" style="stroke:#000000; stroke-linecap:round; stroke-linejoin:round; stroke-width:4; stroke-opacity:1; fill:none" points="192.339,1486.45 2352.76,1486.45 "/>
<polyline clip-path="url(#clip300)" style="stroke:#000000; stroke-linecap:round; stroke-linejoin:round; stroke-width:4; stroke-opacity:1; fill:none" points="253.483,1486.45 253.483,1467.55 "/>
<polyline clip-path="url(#clip300)" style="stroke:#000000; stroke-linecap:round; stroke-linejoin:round; stroke-width:4; stroke-opacity:1; fill:none" points="763.015,1486.45 763.015,1467.55 "/>
<polyline clip-path="url(#clip300)" style="stroke:#000000; stroke-linecap:round; stroke-linejoin:round; stroke-width:4; stroke-opacity:1; fill:none" points="1272.55,1486.45 1272.55,1467.55 "/>
<polyline clip-path="url(#clip300)" style="stroke:#000000; stroke-linecap:round; stroke-linejoin:round; stroke-width:4; stroke-opacity:1; fill:none" points="1782.08,1486.45 1782.08,1467.55 "/>
<polyline clip-path="url(#clip300)" style="stroke:#000000; stroke-linecap:round; stroke-linejoin:round; stroke-width:4; stroke-opacity:1; fill:none" points="2291.61,1486.45 2291.61,1467.55 "/>
<path clip-path="url(#clip300)" d="M230.867 1517.37 Q227.256 1517.37 225.427 1520.93 Q223.622 1524.47 223.622 1531.6 Q223.622 1538.71 225.427 1542.27 Q227.256 1545.82 230.867 1545.82 Q234.501 1545.82 236.307 1542.27 Q238.136 1538.71 238.136 1531.6 Q238.136 1524.47 236.307 1520.93 Q234.501 1517.37 230.867 1517.37 M230.867 1513.66 Q236.677 1513.66 239.733 1518.27 Q242.811 1522.85 242.811 1531.6 Q242.811 1540.33 239.733 1544.94 Q236.677 1549.52 230.867 1549.52 Q225.057 1549.52 221.978 1544.94 Q218.923 1540.33 218.923 1531.6 Q218.923 1522.85 221.978 1518.27 Q225.057 1513.66 230.867 1513.66 Z" fill="#000000" fill-rule="nonzero" fill-opacity="1" /><path clip-path="url(#clip300)" d="M251.029 1542.97 L255.913 1542.97 L255.913 1548.85 L251.029 1548.85 L251.029 1542.97 Z" fill="#000000" fill-rule="nonzero" fill-opacity="1" /><path clip-path="url(#clip300)" d="M276.098 1517.37 Q272.487 1517.37 270.658 1520.93 Q268.853 1524.47 268.853 1531.6 Q268.853 1538.71 270.658 1542.27 Q272.487 1545.82 276.098 1545.82 Q279.733 1545.82 281.538 1542.27 Q283.367 1538.71 283.367 1531.6 Q283.367 1524.47 281.538 1520.93 Q279.733 1517.37 276.098 1517.37 M276.098 1513.66 Q281.908 1513.66 284.964 1518.27 Q288.043 1522.85 288.043 1531.6 Q288.043 1540.33 284.964 1544.94 Q281.908 1549.52 276.098 1549.52 Q270.288 1549.52 267.209 1544.94 Q264.154 1540.33 264.154 1531.6 Q264.154 1522.85 267.209 1518.27 Q270.288 1513.66 276.098 1513.66 Z" fill="#000000" fill-rule="nonzero" fill-opacity="1" /><path clip-path="url(#clip300)" d="M734.751 1544.91 L751.071 1544.91 L751.071 1548.85 L729.126 1548.85 L729.126 1544.91 Q731.788 1542.16 736.372 1537.53 Q740.978 1532.88 742.159 1531.53 Q744.404 1529.01 745.284 1527.27 Q746.186 1525.51 746.186 1523.82 Q746.186 1521.07 744.242 1519.33 Q742.321 1517.6 739.219 1517.6 Q737.02 1517.6 734.566 1518.36 Q732.136 1519.13 729.358 1520.68 L729.358 1515.95 Q732.182 1514.82 734.636 1514.24 Q737.089 1513.66 739.126 1513.66 Q744.497 1513.66 747.691 1516.35 Q750.885 1519.03 750.885 1523.52 Q750.885 1525.65 750.075 1527.57 Q749.288 1529.47 747.182 1532.07 Q746.603 1532.74 743.501 1535.95 Q740.399 1539.15 734.751 1544.91 Z" fill="#000000" fill-rule="nonzero" fill-opacity="1" /><path clip-path="url(#clip300)" d="M760.885 1542.97 L765.77 1542.97 L765.77 1548.85 L760.885 1548.85 L760.885 1542.97 Z" fill="#000000" fill-rule="nonzero" fill-opacity="1" /><path clip-path="url(#clip300)" d="M776.001 1514.29 L794.357 1514.29 L794.357 1518.22 L780.283 1518.22 L780.283 1526.7 Q781.302 1526.35 782.32 1526.19 Q783.339 1526 784.357 1526 Q790.144 1526 793.524 1529.17 Q796.904 1532.34 796.904 1537.76 Q796.904 1543.34 793.432 1546.44 Q789.959 1549.52 783.64 1549.52 Q781.464 1549.52 779.195 1549.15 Q776.95 1548.78 774.543 1548.04 L774.543 1543.34 Q776.626 1544.47 778.848 1545.03 Q781.07 1545.58 783.547 1545.58 Q787.552 1545.58 789.89 1543.48 Q792.228 1541.37 792.228 1537.76 Q792.228 1534.15 789.89 1532.04 Q787.552 1529.94 783.547 1529.94 Q781.672 1529.94 779.797 1530.35 Q777.945 1530.77 776.001 1531.65 L776.001 1514.29 Z" fill="#000000" fill-rule="nonzero" fill-opacity="1" /><path clip-path="url(#clip300)" d="M1239.71 1514.29 L1258.07 1514.29 L1258.07 1518.22 L1243.99 1518.22 L1243.99 1526.7 Q1245.01 1526.35 1246.03 1526.19 Q1247.05 1526 1248.07 1526 Q1253.86 1526 1257.23 1529.17 Q1260.61 1532.34 1260.61 1537.76 Q1260.61 1543.34 1257.14 1546.44 Q1253.67 1549.52 1247.35 1549.52 Q1245.17 1549.52 1242.91 1549.15 Q1240.66 1548.78 1238.25 1548.04 L1238.25 1543.34 Q1240.34 1544.47 1242.56 1545.03 Q1244.78 1545.58 1247.26 1545.58 Q1251.26 1545.58 1253.6 1543.48 Q1255.94 1541.37 1255.94 1537.76 Q1255.94 1534.15 1253.6 1532.04 Q1251.26 1529.94 1247.26 1529.94 Q1245.38 1529.94 1243.51 1530.35 Q1241.66 1530.77 1239.71 1531.65 L1239.71 1514.29 Z" fill="#000000" fill-rule="nonzero" fill-opacity="1" /><path clip-path="url(#clip300)" d="M1269.83 1542.97 L1274.71 1542.97 L1274.71 1548.85 L1269.83 1548.85 L1269.83 1542.97 Z" fill="#000000" fill-rule="nonzero" fill-opacity="1" /><path clip-path="url(#clip300)" d="M1294.9 1517.37 Q1291.29 1517.37 1289.46 1520.93 Q1287.65 1524.47 1287.65 1531.6 Q1287.65 1538.71 1289.46 1542.27 Q1291.29 1545.82 1294.9 1545.82 Q1298.53 1545.82 1300.34 1542.27 Q1302.17 1538.71 1302.17 1531.6 Q1302.17 1524.47 1300.34 1520.93 Q1298.53 1517.37 1294.9 1517.37 M1294.9 1513.66 Q1300.71 1513.66 1303.76 1518.27 Q1306.84 1522.85 1306.84 1531.6 Q1306.84 1540.33 1303.76 1544.94 Q1300.71 1549.52 1294.9 1549.52 Q1289.09 1549.52 1286.01 1544.94 Q1282.95 1540.33 1282.95 1531.6 Q1282.95 1522.85 1286.01 1518.27 Q1289.09 1513.66 1294.9 1513.66 Z" fill="#000000" fill-rule="nonzero" fill-opacity="1" /><path clip-path="url(#clip300)" d="M1748.4 1514.29 L1770.62 1514.29 L1770.62 1516.28 L1758.08 1548.85 L1753.19 1548.85 L1765 1518.22 L1748.4 1518.22 L1748.4 1514.29 Z" fill="#000000" fill-rule="nonzero" fill-opacity="1" /><path clip-path="url(#clip300)" d="M1779.74 1542.97 L1784.63 1542.97 L1784.63 1548.85 L1779.74 1548.85 L1779.74 1542.97 Z" fill="#000000" fill-rule="nonzero" fill-opacity="1" /><path clip-path="url(#clip300)" d="M1794.86 1514.29 L1813.21 1514.29 L1813.21 1518.22 L1799.14 1518.22 L1799.14 1526.7 Q1800.16 1526.35 1801.18 1526.19 Q1802.2 1526 1803.21 1526 Q1809 1526 1812.38 1529.17 Q1815.76 1532.34 1815.76 1537.76 Q1815.76 1543.34 1812.29 1546.44 Q1808.82 1549.52 1802.5 1549.52 Q1800.32 1549.52 1798.05 1549.15 Q1795.81 1548.78 1793.4 1548.04 L1793.4 1543.34 Q1795.48 1544.47 1797.7 1545.03 Q1799.93 1545.58 1802.4 1545.58 Q1806.41 1545.58 1808.75 1543.48 Q1811.08 1541.37 1811.08 1537.76 Q1811.08 1534.15 1808.75 1532.04 Q1806.41 1529.94 1802.4 1529.94 Q1800.53 1529.94 1798.65 1530.35 Q1796.8 1530.77 1794.86 1531.65 L1794.86 1514.29 Z" fill="#000000" fill-rule="nonzero" fill-opacity="1" /><path clip-path="url(#clip300)" d="M2243.68 1544.91 L2251.32 1544.91 L2251.32 1518.55 L2243.01 1520.21 L2243.01 1515.95 L2251.28 1514.29 L2255.95 1514.29 L2255.95 1544.91 L2263.59 1544.91 L2263.59 1548.85 L2243.68 1548.85 L2243.68 1544.91 Z" fill="#000000" fill-rule="nonzero" fill-opacity="1" /><path clip-path="url(#clip300)" d="M2283.04 1517.37 Q2279.42 1517.37 2277.6 1520.93 Q2275.79 1524.47 2275.79 1531.6 Q2275.79 1538.71 2277.6 1542.27 Q2279.42 1545.82 2283.04 1545.82 Q2286.67 1545.82 2288.48 1542.27 Q2290.3 1538.71 2290.3 1531.6 Q2290.3 1524.47 2288.48 1520.93 Q2286.67 1517.37 2283.04 1517.37 M2283.04 1513.66 Q2288.85 1513.66 2291.9 1518.27 Q2294.98 1522.85 2294.98 1531.6 Q2294.98 1540.33 2291.9 1544.94 Q2288.85 1549.52 2283.04 1549.52 Q2277.23 1549.52 2274.15 1544.94 Q2271.09 1540.33 2271.09 1531.6 Q2271.09 1522.85 2274.15 1518.27 Q2277.23 1513.66 2283.04 1513.66 Z" fill="#000000" fill-rule="nonzero" fill-opacity="1" /><path clip-path="url(#clip300)" d="M2303.2 1542.97 L2308.08 1542.97 L2308.08 1548.85 L2303.2 1548.85 L2303.2 1542.97 Z" fill="#000000" fill-rule="nonzero" fill-opacity="1" /><path clip-path="url(#clip300)" d="M2328.27 1517.37 Q2324.66 1517.37 2322.83 1520.93 Q2321.02 1524.47 2321.02 1531.6 Q2321.02 1538.71 2322.83 1542.27 Q2324.66 1545.82 2328.27 1545.82 Q2331.9 1545.82 2333.71 1542.27 Q2335.54 1538.71 2335.54 1531.6 Q2335.54 1524.47 2333.71 1520.93 Q2331.9 1517.37 2328.27 1517.37 M2328.27 1513.66 Q2334.08 1513.66 2337.13 1518.27 Q2340.21 1522.85 2340.21 1531.6 Q2340.21 1540.33 2337.13 1544.94 Q2334.08 1549.52 2328.27 1549.52 Q2322.46 1549.52 2319.38 1544.94 Q2316.32 1540.33 2316.32 1531.6 Q2316.32 1522.85 2319.38 1518.27 Q2322.46 1513.66 2328.27 1513.66 Z" fill="#000000" fill-rule="nonzero" fill-opacity="1" /><polyline clip-path="url(#clip300)" style="stroke:#000000; stroke-linecap:round; stroke-linejoin:round; stroke-width:4; stroke-opacity:1; fill:none" points="192.339,1486.45 192.339,47.2441 "/>
<polyline clip-path="url(#clip300)" style="stroke:#000000; stroke-linecap:round; stroke-linejoin:round; stroke-width:4; stroke-opacity:1; fill:none" points="192.339,1320.05 211.236,1320.05 "/>
<polyline clip-path="url(#clip300)" style="stroke:#000000; stroke-linecap:round; stroke-linejoin:round; stroke-width:4; stroke-opacity:1; fill:none" points="192.339,1114.71 211.236,1114.71 "/>
<polyline clip-path="url(#clip300)" style="stroke:#000000; stroke-linecap:round; stroke-linejoin:round; stroke-width:4; stroke-opacity:1; fill:none" points="192.339,909.361 211.236,909.361 "/>
<polyline clip-path="url(#clip300)" style="stroke:#000000; stroke-linecap:round; stroke-linejoin:round; stroke-width:4; stroke-opacity:1; fill:none" points="192.339,704.015 211.236,704.015 "/>
<polyline clip-path="url(#clip300)" style="stroke:#000000; stroke-linecap:round; stroke-linejoin:round; stroke-width:4; stroke-opacity:1; fill:none" points="192.339,498.669 211.236,498.669 "/>
<polyline clip-path="url(#clip300)" style="stroke:#000000; stroke-linecap:round; stroke-linejoin:round; stroke-width:4; stroke-opacity:1; fill:none" points="192.339,293.323 211.236,293.323 "/>
<polyline clip-path="url(#clip300)" style="stroke:#000000; stroke-linecap:round; stroke-linejoin:round; stroke-width:4; stroke-opacity:1; fill:none" points="192.339,87.9763 211.236,87.9763 "/>
<path clip-path="url(#clip300)" d="M50.9921 1320.51 L80.6679 1320.51 L80.6679 1324.44 L50.9921 1324.44 L50.9921 1320.51 Z" fill="#000000" fill-rule="nonzero" fill-opacity="1" /><path clip-path="url(#clip300)" d="M100.76 1305.85 Q97.1493 1305.85 95.3206 1309.42 Q93.515 1312.96 93.515 1320.09 Q93.515 1327.2 95.3206 1330.76 Q97.1493 1334.3 100.76 1334.3 Q104.395 1334.3 106.2 1330.76 Q108.029 1327.2 108.029 1320.09 Q108.029 1312.96 106.2 1309.42 Q104.395 1305.85 100.76 1305.85 M100.76 1302.15 Q106.571 1302.15 109.626 1306.76 Q112.705 1311.34 112.705 1320.09 Q112.705 1328.82 109.626 1333.42 Q106.571 1338.01 100.76 1338.01 Q94.9502 1338.01 91.8715 1333.42 Q88.816 1328.82 88.816 1320.09 Q88.816 1311.34 91.8715 1306.76 Q94.9502 1302.15 100.76 1302.15 Z" fill="#000000" fill-rule="nonzero" fill-opacity="1" /><path clip-path="url(#clip300)" d="M120.922 1331.45 L125.807 1331.45 L125.807 1337.33 L120.922 1337.33 L120.922 1331.45 Z" fill="#000000" fill-rule="nonzero" fill-opacity="1" /><path clip-path="url(#clip300)" d="M140.019 1333.4 L156.339 1333.4 L156.339 1337.33 L134.394 1337.33 L134.394 1333.4 Q137.056 1330.64 141.64 1326.01 Q146.246 1321.36 147.427 1320.02 Q149.672 1317.5 150.552 1315.76 Q151.455 1314 151.455 1312.31 Q151.455 1309.56 149.51 1307.82 Q147.589 1306.08 144.487 1306.08 Q142.288 1306.08 139.834 1306.85 Q137.404 1307.61 134.626 1309.16 L134.626 1304.44 Q137.45 1303.31 139.904 1302.73 Q142.357 1302.15 144.394 1302.15 Q149.765 1302.15 152.959 1304.83 Q156.154 1307.52 156.154 1312.01 Q156.154 1314.14 155.343 1316.06 Q154.556 1317.96 152.45 1320.55 Q151.871 1321.22 148.769 1324.44 Q145.668 1327.63 140.019 1333.4 Z" fill="#000000" fill-rule="nonzero" fill-opacity="1" /><path clip-path="url(#clip300)" d="M99.1632 1100.51 Q95.5521 1100.51 93.7234 1104.07 Q91.9178 1107.61 91.9178 1114.74 Q91.9178 1121.85 93.7234 1125.41 Q95.5521 1128.96 99.1632 1128.96 Q102.797 1128.96 104.603 1125.41 Q106.432 1121.85 106.432 1114.74 Q106.432 1107.61 104.603 1104.07 Q102.797 1100.51 99.1632 1100.51 M99.1632 1096.8 Q104.973 1096.8 108.029 1101.41 Q111.108 1105.99 111.108 1114.74 Q111.108 1123.47 108.029 1128.08 Q104.973 1132.66 99.1632 1132.66 Q93.353 1132.66 90.2743 1128.08 Q87.2188 1123.47 87.2188 1114.74 Q87.2188 1105.99 90.2743 1101.41 Q93.353 1096.8 99.1632 1096.8 Z" fill="#000000" fill-rule="nonzero" fill-opacity="1" /><path clip-path="url(#clip300)" d="M119.325 1126.11 L124.209 1126.11 L124.209 1131.99 L119.325 1131.99 L119.325 1126.11 Z" fill="#000000" fill-rule="nonzero" fill-opacity="1" /><path clip-path="url(#clip300)" d="M144.394 1100.51 Q140.783 1100.51 138.955 1104.07 Q137.149 1107.61 137.149 1114.74 Q137.149 1121.85 138.955 1125.41 Q140.783 1128.96 144.394 1128.96 Q148.029 1128.96 149.834 1125.41 Q151.663 1121.85 151.663 1114.74 Q151.663 1107.61 149.834 1104.07 Q148.029 1100.51 144.394 1100.51 M144.394 1096.8 Q150.205 1096.8 153.26 1101.41 Q156.339 1105.99 156.339 1114.74 Q156.339 1123.47 153.26 1128.08 Q150.205 1132.66 144.394 1132.66 Q138.584 1132.66 135.506 1128.08 Q132.45 1123.47 132.45 1114.74 Q132.45 1105.99 135.506 1101.41 Q138.584 1096.8 144.394 1096.8 Z" fill="#000000" fill-rule="nonzero" fill-opacity="1" /><path clip-path="url(#clip300)" d="M100.76 895.16 Q97.1493 895.16 95.3206 898.725 Q93.515 902.266 93.515 909.396 Q93.515 916.503 95.3206 920.067 Q97.1493 923.609 100.76 923.609 Q104.395 923.609 106.2 920.067 Q108.029 916.503 108.029 909.396 Q108.029 902.266 106.2 898.725 Q104.395 895.16 100.76 895.16 M100.76 891.456 Q106.571 891.456 109.626 896.063 Q112.705 900.646 112.705 909.396 Q112.705 918.123 109.626 922.729 Q106.571 927.313 100.76 927.313 Q94.9502 927.313 91.8715 922.729 Q88.816 918.123 88.816 909.396 Q88.816 900.646 91.8715 896.063 Q94.9502 891.456 100.76 891.456 Z" fill="#000000" fill-rule="nonzero" fill-opacity="1" /><path clip-path="url(#clip300)" d="M120.922 920.762 L125.807 920.762 L125.807 926.641 L120.922 926.641 L120.922 920.762 Z" fill="#000000" fill-rule="nonzero" fill-opacity="1" /><path clip-path="url(#clip300)" d="M140.019 922.706 L156.339 922.706 L156.339 926.641 L134.394 926.641 L134.394 922.706 Q137.056 919.952 141.64 915.322 Q146.246 910.669 147.427 909.327 Q149.672 906.804 150.552 905.067 Q151.455 903.308 151.455 901.618 Q151.455 898.864 149.51 897.128 Q147.589 895.392 144.487 895.392 Q142.288 895.392 139.834 896.155 Q137.404 896.919 134.626 898.47 L134.626 893.748 Q137.45 892.614 139.904 892.035 Q142.357 891.456 144.394 891.456 Q149.765 891.456 152.959 894.142 Q156.154 896.827 156.154 901.317 Q156.154 903.447 155.343 905.368 Q154.556 907.266 152.45 909.859 Q151.871 910.53 148.769 913.748 Q145.668 916.942 140.019 922.706 Z" fill="#000000" fill-rule="nonzero" fill-opacity="1" /><path clip-path="url(#clip300)" d="M98.6771 689.814 Q95.066 689.814 93.2373 693.379 Q91.4317 696.92 91.4317 704.05 Q91.4317 711.156 93.2373 714.721 Q95.066 718.263 98.6771 718.263 Q102.311 718.263 104.117 714.721 Q105.946 711.156 105.946 704.05 Q105.946 696.92 104.117 693.379 Q102.311 689.814 98.6771 689.814 M98.6771 686.11 Q104.487 686.11 107.543 690.717 Q110.621 695.3 110.621 704.05 Q110.621 712.777 107.543 717.383 Q104.487 721.966 98.6771 721.966 Q92.8669 721.966 89.7882 717.383 Q86.7327 712.777 86.7327 704.05 Q86.7327 695.3 89.7882 690.717 Q92.8669 686.11 98.6771 686.11 Z" fill="#000000" fill-rule="nonzero" fill-opacity="1" /><path clip-path="url(#clip300)" d="M118.839 715.415 L123.723 715.415 L123.723 721.295 L118.839 721.295 L118.839 715.415 Z" fill="#000000" fill-rule="nonzero" fill-opacity="1" /><path clip-path="url(#clip300)" d="M146.756 690.809 L134.95 709.258 L146.756 709.258 L146.756 690.809 M145.529 686.735 L151.408 686.735 L151.408 709.258 L156.339 709.258 L156.339 713.147 L151.408 713.147 L151.408 721.295 L146.756 721.295 L146.756 713.147 L131.154 713.147 L131.154 708.633 L145.529 686.735 Z" fill="#000000" fill-rule="nonzero" fill-opacity="1" /><path clip-path="url(#clip300)" d="M99.0011 484.468 Q95.39 484.468 93.5613 488.032 Q91.7558 491.574 91.7558 498.704 Q91.7558 505.81 93.5613 509.375 Q95.39 512.916 99.0011 512.916 Q102.635 512.916 104.441 509.375 Q106.27 505.81 106.27 498.704 Q106.27 491.574 104.441 488.032 Q102.635 484.468 99.0011 484.468 M99.0011 480.764 Q104.811 480.764 107.867 485.37 Q110.946 489.954 110.946 498.704 Q110.946 507.43 107.867 512.037 Q104.811 516.62 99.0011 516.62 Q93.191 516.62 90.1123 512.037 Q87.0567 507.43 87.0567 498.704 Q87.0567 489.954 90.1123 485.37 Q93.191 480.764 99.0011 480.764 Z" fill="#000000" fill-rule="nonzero" fill-opacity="1" /><path clip-path="url(#clip300)" d="M119.163 510.069 L124.047 510.069 L124.047 515.949 L119.163 515.949 L119.163 510.069 Z" fill="#000000" fill-rule="nonzero" fill-opacity="1" /><path clip-path="url(#clip300)" d="M144.811 496.805 Q141.663 496.805 139.811 498.958 Q137.982 501.111 137.982 504.861 Q137.982 508.588 139.811 510.764 Q141.663 512.916 144.811 512.916 Q147.959 512.916 149.788 510.764 Q151.64 508.588 151.64 504.861 Q151.64 501.111 149.788 498.958 Q147.959 496.805 144.811 496.805 M154.093 482.153 L154.093 486.412 Q152.334 485.579 150.529 485.139 Q148.746 484.699 146.987 484.699 Q142.357 484.699 139.904 487.824 Q137.473 490.949 137.126 497.268 Q138.492 495.254 140.552 494.19 Q142.612 493.102 145.089 493.102 Q150.297 493.102 153.306 496.273 Q156.339 499.421 156.339 504.861 Q156.339 510.185 153.191 513.403 Q150.043 516.62 144.811 516.62 Q138.816 516.62 135.644 512.037 Q132.473 507.43 132.473 498.704 Q132.473 490.509 136.362 485.648 Q140.251 480.764 146.802 480.764 Q148.561 480.764 150.343 481.111 Q152.149 481.458 154.093 482.153 Z" fill="#000000" fill-rule="nonzero" fill-opacity="1" /><path clip-path="url(#clip300)" d="M99.2558 279.121 Q95.6447 279.121 93.816 282.686 Q92.0104 286.228 92.0104 293.357 Q92.0104 300.464 93.816 304.029 Q95.6447 307.57 99.2558 307.57 Q102.89 307.57 104.696 304.029 Q106.524 300.464 106.524 293.357 Q106.524 286.228 104.696 282.686 Q102.89 279.121 99.2558 279.121 M99.2558 275.418 Q105.066 275.418 108.121 280.024 Q111.2 284.607 111.2 293.357 Q111.2 302.084 108.121 306.691 Q105.066 311.274 99.2558 311.274 Q93.4456 311.274 90.3669 306.691 Q87.3114 302.084 87.3114 293.357 Q87.3114 284.607 90.3669 280.024 Q93.4456 275.418 99.2558 275.418 Z" fill="#000000" fill-rule="nonzero" fill-opacity="1" /><path clip-path="url(#clip300)" d="M119.418 304.723 L124.302 304.723 L124.302 310.603 L119.418 310.603 L119.418 304.723 Z" fill="#000000" fill-rule="nonzero" fill-opacity="1" /><path clip-path="url(#clip300)" d="M144.487 294.191 Q141.154 294.191 139.232 295.973 Q137.334 297.755 137.334 300.88 Q137.334 304.005 139.232 305.788 Q141.154 307.57 144.487 307.57 Q147.82 307.57 149.742 305.788 Q151.663 303.982 151.663 300.88 Q151.663 297.755 149.742 295.973 Q147.843 294.191 144.487 294.191 M139.811 292.2 Q136.802 291.459 135.112 289.399 Q133.445 287.339 133.445 284.376 Q133.445 280.232 136.385 277.825 Q139.348 275.418 144.487 275.418 Q149.649 275.418 152.589 277.825 Q155.529 280.232 155.529 284.376 Q155.529 287.339 153.839 289.399 Q152.172 291.459 149.186 292.2 Q152.566 292.987 154.441 295.279 Q156.339 297.57 156.339 300.88 Q156.339 305.903 153.26 308.589 Q150.205 311.274 144.487 311.274 Q138.769 311.274 135.691 308.589 Q132.635 305.903 132.635 300.88 Q132.635 297.57 134.533 295.279 Q136.431 292.987 139.811 292.2 M138.098 284.816 Q138.098 287.501 139.765 289.005 Q141.455 290.51 144.487 290.51 Q147.496 290.51 149.186 289.005 Q150.899 287.501 150.899 284.816 Q150.899 282.13 149.186 280.626 Q147.496 279.121 144.487 279.121 Q141.455 279.121 139.765 280.626 Q138.098 282.13 138.098 284.816 Z" fill="#000000" fill-rule="nonzero" fill-opacity="1" /><path clip-path="url(#clip300)" d="M89.9734 101.321 L97.6122 101.321 L97.6122 74.9555 L89.3021 76.6222 L89.3021 72.3629 L97.566 70.6963 L102.242 70.6963 L102.242 101.321 L109.881 101.321 L109.881 105.256 L89.9734 105.256 L89.9734 101.321 Z" fill="#000000" fill-rule="nonzero" fill-opacity="1" /><path clip-path="url(#clip300)" d="M119.325 99.3767 L124.209 99.3767 L124.209 105.256 L119.325 105.256 L119.325 99.3767 Z" fill="#000000" fill-rule="nonzero" fill-opacity="1" /><path clip-path="url(#clip300)" d="M144.394 73.775 Q140.783 73.775 138.955 77.3398 Q137.149 80.8814 137.149 88.011 Q137.149 95.1174 138.955 98.6822 Q140.783 102.224 144.394 102.224 Q148.029 102.224 149.834 98.6822 Q151.663 95.1174 151.663 88.011 Q151.663 80.8814 149.834 77.3398 Q148.029 73.775 144.394 73.775 M144.394 70.0713 Q150.205 70.0713 153.26 74.6777 Q156.339 79.261 156.339 88.011 Q156.339 96.7378 153.26 101.344 Q150.205 105.928 144.394 105.928 Q138.584 105.928 135.506 101.344 Q132.45 96.7378 132.45 88.011 Q132.45 79.261 135.506 74.6777 Q138.584 70.0713 144.394 70.0713 Z" fill="#000000" fill-rule="nonzero" fill-opacity="1" /><polyline clip-path="url(#clip302)" style="stroke:#009af9; stroke-linecap:round; stroke-linejoin:round; stroke-width:8; stroke-opacity:1; fill:none" points="253.483,87.9763 255.521,98.2432 257.559,108.508 259.597,118.769 261.635,129.024 263.673,139.271 265.711,149.508 267.75,159.734 269.788,169.946 271.826,180.144 273.864,190.324 275.902,200.486 277.94,210.627 279.978,220.747 282.016,230.843 284.055,240.915 286.093,250.96 288.131,260.977 290.169,270.965 292.207,280.922 294.245,290.847 296.283,300.739 298.322,310.596 300.36,320.417 302.398,330.201 304.436,339.947 306.474,349.653 308.512,359.318 310.55,368.941 312.588,378.522 314.627,388.058 316.665,397.55 318.703,406.996 320.741,416.394 322.779,425.745 324.817,435.048 326.855,444.3 328.893,453.502 330.932,462.653 332.97,471.752 335.008,480.798 337.046,489.79 339.084,498.728 341.122,507.611 343.16,516.438 345.198,525.209 347.237,533.923 349.275,542.58 351.313,551.178 353.351,559.718 355.389,568.198 357.427,576.619 359.465,584.98 361.504,593.28 363.542,601.518 365.58,609.696 367.618,617.811 369.656,625.864 371.694,633.854 373.732,641.782 375.77,649.646 377.809,657.446 379.847,665.183 381.885,672.855 383.923,680.463 385.961,688.006 387.999,695.484 390.037,702.898 392.075,710.246 394.114,717.528 396.152,724.745 398.19,731.897 400.228,738.982 402.266,746.002 404.304,752.956 406.342,759.843 408.38,766.665 410.419,773.42 412.457,780.109 414.495,786.732 416.533,793.289 418.571,799.779 420.609,806.204 422.647,812.562 424.686,818.854 426.724,825.08 428.762,831.241 430.8,837.335 432.838,843.364 434.876,849.327 436.914,855.224 438.952,861.056 440.991,866.823 443.029,872.525 445.067,878.161 447.105,883.733 449.143,889.241 451.181,894.684 453.219,900.063 455.257,905.377 457.296,910.628 459.334,915.816 461.372,920.94 463.41,926.001 465.448,930.999 467.486,935.934 469.524,940.807 471.563,945.619 473.601,950.368 475.639,955.056 477.677,959.682 479.715,964.248 481.753,968.753 483.791,973.198 485.829,977.583 487.868,981.908 489.906,986.174 491.944,990.381 493.982,994.529 496.02,998.618 498.058,1002.65 500.096,1006.62 502.134,1010.54 504.173,1014.4 506.211,1018.2 508.249,1021.95 510.287,1025.64 512.325,1029.28 514.363,1032.86 516.401,1036.39 518.439,1039.86 520.478,1043.27 522.516,1046.64 524.554,1049.95 526.592,1053.21 528.63,1056.41 530.668,1059.57 532.706,1062.67 534.745,1065.72 536.783,1068.72 538.821,1071.67 540.859,1074.57 542.897,1077.43 544.935,1080.23 546.973,1082.98 549.011,1085.69 551.05,1088.34 553.088,1090.95 555.126,1093.52 557.164,1096.03 559.202,1098.5 561.24,1100.93 563.278,1103.31 565.316,1105.64 567.355,1107.93 569.393,1110.18 571.431,1112.38 573.469,1114.54 575.507,1116.65 577.545,1118.73 579.583,1120.76 581.621,1122.75 583.66,1124.7 585.698,1126.61 587.736,1128.48 589.774,1130.31 591.812,1132.1 593.85,1133.85 595.888,1135.56 597.927,1137.24 599.965,1138.87 602.003,1140.47 604.041,1142.04 606.079,1143.56 608.117,1145.05 610.155,1146.51 612.193,1147.93 614.232,1149.32 616.27,1150.67 618.308,1151.98 620.346,1153.27 622.384,1154.52 624.422,1155.74 626.46,1156.92 628.498,1158.08 630.537,1159.2 632.575,1160.29 634.613,1161.35 636.651,1162.38 638.689,1163.38 640.727,1164.35 642.765,1165.3 644.804,1166.21 646.842,1167.1 648.88,1167.95 650.918,1168.78 652.956,1169.59 654.994,1170.36 657.032,1171.11 659.07,1171.83 661.109,1172.53 663.147,1173.21 665.185,1173.85 667.223,1174.48 669.261,1175.08 671.299,1175.65 673.337,1176.2 675.375,1176.73 677.414,1177.24 679.452,1177.72 681.49,1178.18 683.528,1178.62 685.566,1179.04 687.604,1179.44 689.642,1179.81 691.68,1180.17 693.719,1180.51 695.757,1180.82 697.795,1181.12 699.833,1181.4 701.871,1181.66 703.909,1181.9 705.947,1182.12 707.986,1182.33 710.024,1182.52 712.062,1182.69 714.1,1182.84 716.138,1182.98 718.176,1183.1 720.214,1183.2 722.252,1183.29 724.291,1183.37 726.329,1183.43 728.367,1183.47 730.405,1183.5 732.443,1183.52 734.481,1183.52 736.519,1183.51 738.557,1183.48 740.596,1183.44 742.634,1183.39 744.672,1183.33 746.71,1183.25 748.748,1183.16 750.786,1183.06 752.824,1182.95 754.862,1182.83 756.901,1182.69 758.939,1182.55 760.977,1182.39 763.015,1182.23 765.053,1182.05 767.091,1181.87 769.129,1181.67 771.168,1181.47 773.206,1181.25 775.244,1181.03 777.282,1180.8 779.32,1180.56 781.358,1180.31 783.396,1180.05 785.434,1179.79 787.473,1179.52 789.511,1179.24 791.549,1178.95 793.587,1178.66 795.625,1178.36 797.663,1178.05 799.701,1177.74 801.739,1177.42 803.778,1177.09 805.816,1176.76 807.854,1176.42 809.892,1176.08 811.93,1175.73 813.968,1175.38 816.006,1175.02 818.044,1174.65 820.083,1174.29 822.121,1173.91 824.159,1173.54 826.197,1173.15 828.235,1172.77 830.273,1172.38 832.311,1171.99 834.35,1171.59 836.388,1171.19 838.426,1170.79 840.464,1170.38 842.502,1169.97 844.54,1169.56 846.578,1169.15 848.616,1168.73 850.655,1168.31 852.693,1167.89 854.731,1167.46 856.769,1167.04 858.807,1166.61 860.845,1166.18 862.883,1165.75 864.921,1165.31 866.96,1164.88 868.998,1164.44 871.036,1164.01 873.074,1163.57 875.112,1163.13 877.15,1162.69 879.188,1162.25 881.227,1161.81 883.265,1161.36 885.303,1160.92 887.341,1160.48 889.379,1160.03 891.417,1159.59 893.455,1159.15 895.493,1158.7 897.532,1158.26 899.57,1157.82 901.608,1157.37 903.646,1156.93 905.684,1156.49 907.722,1156.05 909.76,1155.6 911.798,1155.16 913.837,1154.72 915.875,1154.28 917.913,1153.85 919.951,1153.41 921.989,1152.97 924.027,1152.54 926.065,1152.1 928.103,1151.67 930.142,1151.24 932.18,1150.81 934.218,1150.38 936.256,1149.95 938.294,1149.52 940.332,1149.1 942.37,1148.68 944.409,1148.26 946.447,1147.84 948.485,1147.42 950.523,1147 952.561,1146.59 954.599,1146.17 956.637,1145.76 958.675,1145.36 960.714,1144.95 962.752,1144.54 964.79,1144.14 966.828,1143.74 968.866,1143.34 970.904,1142.95 972.942,1142.55 974.98,1142.16 977.019,1141.77 979.057,1141.39 981.095,1141 983.133,1140.62 985.171,1140.24 987.209,1139.87 989.247,1139.49 991.285,1139.12 993.324,1138.75 995.362,1138.38 997.4,1138.02 999.438,1137.66 1001.48,1137.3 1003.51,1136.94 1005.55,1136.59 1007.59,1136.24 1009.63,1135.89 1011.67,1135.54 1013.7,1135.2 1015.74,1134.86 1017.78,1134.52 1019.82,1134.19 1021.86,1133.85 1023.9,1133.53 1025.93,1133.2 1027.97,1132.88 1030.01,1132.55 1032.05,1132.24 1034.09,1131.92 1036.12,1131.61 1038.16,1131.3 1040.2,1130.99 1042.24,1130.69 1044.28,1130.39 1046.31,1130.09 1048.35,1129.79 1050.39,1129.5 1052.43,1129.21 1054.47,1128.93 1056.51,1128.64 1058.54,1128.36 1060.58,1128.08 1062.62,1127.81 1064.66,1127.54 1066.7,1127.27 1068.73,1127 1070.77,1126.74 1072.81,1126.47 1074.85,1126.22 1076.89,1125.96 1078.93,1125.71 1080.96,1125.46 1083,1125.21 1085.04,1124.97 1087.08,1124.73 1089.12,1124.49 1091.15,1124.25 1093.19,1124.02 1095.23,1123.79 1097.27,1123.56 1099.31,1123.34 1101.34,1123.12 1103.38,1122.9 1105.42,1122.68 1107.46,1122.47 1109.5,1122.26 1111.54,1122.05 1113.57,1121.84 1115.61,1121.64 1117.65,1121.44 1119.69,1121.24 1121.73,1121.05 1123.76,1120.85 1125.8,1120.66 1127.84,1120.48 1129.88,1120.29 1131.92,1120.11 1133.95,1119.93 1135.99,1119.75 1138.03,1119.58 1140.07,1119.41 1142.11,1119.24 1144.15,1119.07 1146.18,1118.9 1148.22,1118.74 1150.26,1118.58 1152.3,1118.42 1154.34,1118.27 1156.37,1118.12 1158.41,1117.97 1160.45,1117.82 1162.49,1117.67 1164.53,1117.53 1166.56,1117.39 1168.6,1117.25 1170.64,1117.11 1172.68,1116.98 1174.72,1116.85 1176.76,1116.72 1178.79,1116.59 1180.83,1116.46 1182.87,1116.34 1184.91,1116.22 1186.95,1116.1 1188.98,1115.98 1191.02,1115.87 1193.06,1115.75 1195.1,1115.64 1197.14,1115.53 1199.17,1115.42 1201.21,1115.32 1203.25,1115.22 1205.29,1115.12 1207.33,1115.02 1209.37,1114.92 1211.4,1114.82 1213.44,1114.73 1215.48,1114.64 1217.52,1114.55 1219.56,1114.46 1221.59,1114.37 1223.63,1114.29 1225.67,1114.21 1227.71,1114.13 1229.75,1114.05 1231.78,1113.97 1233.82,1113.89 1235.86,1113.82 1237.9,1113.75 1239.94,1113.67 1241.98,1113.61 1244.01,1113.54 1246.05,1113.47 1248.09,1113.41 1250.13,1113.34 1252.17,1113.28 1254.2,1113.22 1256.24,1113.16 1258.28,1113.11 1260.32,1113.05 1262.36,1113 1264.39,1112.94 1266.43,1112.89 1268.47,1112.84 1270.51,1112.79 1272.55,1112.75 1274.59,1112.7 1276.62,1112.65 1278.66,1112.61 1280.7,1112.57 1282.74,1112.53 1284.78,1112.49 1286.81,1112.45 1288.85,1112.41 1290.89,1112.38 1292.93,1112.34 1294.97,1112.31 1297,1112.28 1299.04,1112.24 1301.08,1112.21 1303.12,1112.18 1305.16,1112.16 1307.2,1112.13 1309.23,1112.1 1311.27,1112.08 1313.31,1112.05 1315.35,1112.03 1317.39,1112.01 1319.42,1111.99 1321.46,1111.97 1323.5,1111.95 1325.54,1111.93 1327.58,1111.91 1329.61,1111.9 1331.65,1111.88 1333.69,1111.87 1335.73,1111.85 1337.77,1111.84 1339.81,1111.83 1341.84,1111.82 1343.88,1111.81 1345.92,1111.8 1347.96,1111.79 1350,1111.78 1352.03,1111.77 1354.07,1111.76 1356.11,1111.76 1358.15,1111.75 1360.19,1111.75 1362.23,1111.74 1364.26,1111.74 1366.3,1111.74 1368.34,1111.74 1370.38,1111.73 1372.42,1111.73 1374.45,1111.73 1376.49,1111.73 1378.53,1111.74 1380.57,1111.74 1382.61,1111.74 1384.64,1111.74 1386.68,1111.75 1388.72,1111.75 1390.76,1111.75 1392.8,1111.76 1394.84,1111.76 1396.87,1111.77 1398.91,1111.77 1400.95,1111.78 1402.99,1111.79 1405.03,1111.8 1407.06,1111.8 1409.1,1111.81 1411.14,1111.82 1413.18,1111.83 1415.22,1111.84 1417.25,1111.85 1419.29,1111.86 1421.33,1111.87 1423.37,1111.88 1425.41,1111.89 1427.45,1111.91 1429.48,1111.92 1431.52,1111.93 1433.56,1111.94 1435.6,1111.96 1437.64,1111.97 1439.67,1111.98 1441.71,1112 1443.75,1112.01 1445.79,1112.02 1447.83,1112.04 1449.86,1112.05 1451.9,1112.07 1453.94,1112.08 1455.98,1112.1 1458.02,1112.11 1460.06,1112.13 1462.09,1112.15 1464.13,1112.16 1466.17,1112.18 1468.21,1112.2 1470.25,1112.21 1472.28,1112.23 1474.32,1112.25 1476.36,1112.26 1478.4,1112.28 1480.44,1112.3 1482.47,1112.32 1484.51,1112.33 1486.55,1112.35 1488.59,1112.37 1490.63,1112.39 1492.67,1112.41 1494.7,1112.42 1496.74,1112.44 1498.78,1112.46 1500.82,1112.48 1502.86,1112.5 1504.89,1112.52 1506.93,1112.54 1508.97,1112.56 1511.01,1112.57 1513.05,1112.59 1515.08,1112.61 1517.12,1112.63 1519.16,1112.65 1521.2,1112.67 1523.24,1112.69 1525.28,1112.71 1527.31,1112.73 1529.35,1112.75 1531.39,1112.76 1533.43,1112.78 1535.47,1112.8 1537.5,1112.82 1539.54,1112.84 1541.58,1112.86 1543.62,1112.88 1545.66,1112.9 1547.69,1112.92 1549.73,1112.94 1551.77,1112.96 1553.81,1112.98 1555.85,1112.99 1557.89,1113.01 1559.92,1113.03 1561.96,1113.05 1564,1113.07 1566.04,1113.09 1568.08,1113.11 1570.11,1113.13 1572.15,1113.14 1574.19,1113.16 1576.23,1113.18 1578.27,1113.2 1580.3,1113.22 1582.34,1113.24 1584.38,1113.26 1586.42,1113.27 1588.46,1113.29 1590.5,1113.31 1592.53,1113.33 1594.57,1113.34 1596.61,1113.36 1598.65,1113.38 1600.69,1113.4 1602.72,1113.42 1604.76,1113.43 1606.8,1113.45 1608.84,1113.47 1610.88,1113.48 1612.91,1113.5 1614.95,1113.52 1616.99,1113.54 1619.03,1113.55 1621.07,1113.57 1623.11,1113.59 1625.14,1113.6 1627.18,1113.62 1629.22,1113.63 1631.26,1113.65 1633.3,1113.67 1635.33,1113.68 1637.37,1113.7 1639.41,1113.71 1641.45,1113.73 1643.49,1113.74 1645.53,1113.76 1647.56,1113.77 1649.6,1113.79 1651.64,1113.8 1653.68,1113.82 1655.72,1113.83 1657.75,1113.85 1659.79,1113.86 1661.83,1113.88 1663.87,1113.89 1665.91,1113.91 1667.94,1113.92 1669.98,1113.93 1672.02,1113.95 1674.06,1113.96 1676.1,1113.98 1678.14,1113.99 1680.17,1114 1682.21,1114.01 1684.25,1114.03 1686.29,1114.04 1688.33,1114.05 1690.36,1114.07 1692.4,1114.08 1694.44,1114.09 1696.48,1114.1 1698.52,1114.12 1700.55,1114.13 1702.59,1114.14 1704.63,1114.15 1706.67,1114.16 1708.71,1114.17 1710.75,1114.19 1712.78,1114.2 1714.82,1114.21 1716.86,1114.22 1718.9,1114.23 1720.94,1114.24 1722.97,1114.25 1725.01,1114.26 1727.05,1114.27 1729.09,1114.28 1731.13,1114.29 1733.16,1114.3 1735.2,1114.31 1737.24,1114.32 1739.28,1114.33 1741.32,1114.34 1743.36,1114.35 1745.39,1114.36 1747.43,1114.37 1749.47,1114.38 1751.51,1114.39 1753.55,1114.4 1755.58,1114.41 1757.62,1114.42 1759.66,1114.42 1761.7,1114.43 1763.74,1114.44 1765.77,1114.45 1767.81,1114.46 1769.85,1114.47 1771.89,1114.47 1773.93,1114.48 1775.97,1114.49 1778,1114.5 1780.04,1114.5 1782.08,1114.51 1784.12,1114.52 1786.16,1114.53 1788.19,1114.53 1790.23,1114.54 1792.27,1114.55 1794.31,1114.55 1796.35,1114.56 1798.38,1114.57 1800.42,1114.57 1802.46,1114.58 1804.5,1114.58 1806.54,1114.59 1808.58,1114.6 1810.61,1114.6 1812.65,1114.61 1814.69,1114.61 1816.73,1114.62 1818.77,1114.63 1820.8,1114.63 1822.84,1114.64 1824.88,1114.64 1826.92,1114.65 1828.96,1114.65 1830.99,1114.66 1833.03,1114.66 1835.07,1114.67 1837.11,1114.67 1839.15,1114.68 1841.19,1114.68 1843.22,1114.68 1845.26,1114.69 1847.3,1114.69 1849.34,1114.7 1851.38,1114.7 1853.41,1114.71 1855.45,1114.71 1857.49,1114.71 1859.53,1114.72 1861.57,1114.72 1863.6,1114.73 1865.64,1114.73 1867.68,1114.73 1869.72,1114.74 1871.76,1114.74 1873.8,1114.74 1875.83,1114.75 1877.87,1114.75 1879.91,1114.75 1881.95,1114.75 1883.99,1114.76 1886.02,1114.76 1888.06,1114.76 1890.1,1114.77 1892.14,1114.77 1894.18,1114.77 1896.21,1114.77 1898.25,1114.78 1900.29,1114.78 1902.33,1114.78 1904.37,1114.78 1906.41,1114.79 1908.44,1114.79 1910.48,1114.79 1912.52,1114.79 1914.56,1114.79 1916.6,1114.8 1918.63,1114.8 1920.67,1114.8 1922.71,1114.8 1924.75,1114.8 1926.79,1114.8 1928.82,1114.81 1930.86,1114.81 1932.9,1114.81 1934.94,1114.81 1936.98,1114.81 1939.02,1114.81 1941.05,1114.82 1943.09,1114.82 1945.13,1114.82 1947.17,1114.82 1949.21,1114.82 1951.24,1114.82 1953.28,1114.82 1955.32,1114.82 1957.36,1114.82 1959.4,1114.83 1961.44,1114.83 1963.47,1114.83 1965.51,1114.83 1967.55,1114.83 1969.59,1114.83 1971.63,1114.83 1973.66,1114.83 1975.7,1114.83 1977.74,1114.83 1979.78,1114.83 1981.82,1114.83 1983.85,1114.83 1985.89,1114.83 1987.93,1114.83 1989.97,1114.83 1992.01,1114.83 1994.05,1114.83 1996.08,1114.84 1998.12,1114.84 2000.16,1114.84 2002.2,1114.84 2004.24,1114.84 2006.27,1114.84 2008.31,1114.84 2010.35,1114.84 2012.39,1114.84 2014.43,1114.84 2016.46,1114.84 2018.5,1114.84 2020.54,1114.84 2022.58,1114.84 2024.62,1114.84 2026.66,1114.84 2028.69,1114.84 2030.73,1114.84 2032.77,1114.84 2034.81,1114.83 2036.85,1114.83 2038.88,1114.83 2040.92,1114.83 2042.96,1114.83 2045,1114.83 2047.04,1114.83 2049.07,1114.83 2051.11,1114.83 2053.15,1114.83 2055.19,1114.83 2057.23,1114.83 2059.27,1114.83 2061.3,1114.83 2063.34,1114.83 2065.38,1114.83 2067.42,1114.83 2069.46,1114.83 2071.49,1114.83 2073.53,1114.83 2075.57,1114.83 2077.61,1114.83 2079.65,1114.83 2081.68,1114.82 2083.72,1114.82 2085.76,1114.82 2087.8,1114.82 2089.84,1114.82 2091.88,1114.82 2093.91,1114.82 2095.95,1114.82 2097.99,1114.82 2100.03,1114.82 2102.07,1114.82 2104.1,1114.82 2106.14,1114.82 2108.18,1114.82 2110.22,1114.82 2112.26,1114.81 2114.29,1114.81 2116.33,1114.81 2118.37,1114.81 2120.41,1114.81 2122.45,1114.81 2124.49,1114.81 2126.52,1114.81 2128.56,1114.81 2130.6,1114.81 2132.64,1114.81 2134.68,1114.81 2136.71,1114.81 2138.75,1114.8 2140.79,1114.8 2142.83,1114.8 2144.87,1114.8 2146.9,1114.8 2148.94,1114.8 2150.98,1114.8 2153.02,1114.8 2155.06,1114.8 2157.1,1114.8 2159.13,1114.8 2161.17,1114.8 2163.21,1114.8 2165.25,1114.79 2167.29,1114.79 2169.32,1114.79 2171.36,1114.79 2173.4,1114.79 2175.44,1114.79 2177.48,1114.79 2179.51,1114.79 2181.55,1114.79 2183.59,1114.79 2185.63,1114.79 2187.67,1114.79 2189.71,1114.78 2191.74,1114.78 2193.78,1114.78 2195.82,1114.78 2197.86,1114.78 2199.9,1114.78 2201.93,1114.78 2203.97,1114.78 2206.01,1114.78 2208.05,1114.78 2210.09,1114.78 2212.12,1114.78 2214.16,1114.77 2216.2,1114.77 2218.24,1114.77 2220.28,1114.77 2222.32,1114.77 2224.35,1114.77 2226.39,1114.77 2228.43,1114.77 2230.47,1114.77 2232.51,1114.77 2234.54,1114.77 2236.58,1114.77 2238.62,1114.77 2240.66,1114.76 2242.7,1114.76 2244.74,1114.76 2246.77,1114.76 2248.81,1114.76 2250.85,1114.76 2252.89,1114.76 2254.93,1114.76 2256.96,1114.76 2259,1114.76 2261.04,1114.76 2263.08,1114.76 2265.12,1114.76 2267.15,1114.75 2269.19,1114.75 2271.23,1114.75 2273.27,1114.75 2275.31,1114.75 2277.35,1114.75 2279.38,1114.75 2281.42,1114.75 2283.46,1114.75 2285.5,1114.75 2287.54,1114.75 2289.57,1114.75 2291.61,1114.75 "/>
<polyline clip-path="url(#clip302)" style="stroke:#e26f46; stroke-linecap:round; stroke-linejoin:round; stroke-width:8; stroke-opacity:1; fill:none" points="253.483,1114.71 255.521,1124.87 257.559,1134.83 259.597,1144.59 261.635,1154.16 263.673,1163.52 265.711,1172.69 267.75,1181.67 269.788,1190.45 271.826,1199.05 273.864,1207.46 275.902,1215.68 277.94,1223.72 279.978,1231.58 282.016,1239.26 284.055,1246.77 286.093,1254.1 288.131,1261.26 290.169,1268.24 292.207,1275.06 294.245,1281.71 296.283,1288.2 298.322,1294.52 300.36,1300.69 302.398,1306.69 304.436,1312.54 306.474,1318.23 308.512,1323.77 310.55,1329.16 312.588,1334.39 314.627,1339.49 316.665,1344.43 318.703,1349.24 320.741,1353.9 322.779,1358.42 324.817,1362.8 326.855,1367.05 328.893,1371.16 330.932,1375.15 332.97,1379 335.008,1382.72 337.046,1386.32 339.084,1389.79 341.122,1393.13 343.16,1396.36 345.198,1399.47 347.237,1402.46 349.275,1405.33 351.313,1408.09 353.351,1410.73 355.389,1413.27 357.427,1415.69 359.465,1418.01 361.504,1420.22 363.542,1422.33 365.58,1424.33 367.618,1426.24 369.656,1428.04 371.694,1429.75 373.732,1431.36 375.77,1432.87 377.809,1434.3 379.847,1435.63 381.885,1436.87 383.923,1438.02 385.961,1439.09 387.999,1440.07 390.037,1440.97 392.075,1441.78 394.114,1442.51 396.152,1443.17 398.19,1443.74 400.228,1444.24 402.266,1444.67 404.304,1445.02 406.342,1445.3 408.38,1445.51 410.419,1445.64 412.457,1445.71 414.495,1445.72 416.533,1445.65 418.571,1445.53 420.609,1445.34 422.647,1445.08 424.686,1444.77 426.724,1444.4 428.762,1443.97 430.8,1443.48 432.838,1442.94 434.876,1442.35 436.914,1441.7 438.952,1441 440.991,1440.25 443.029,1439.44 445.067,1438.59 447.105,1437.7 449.143,1436.75 451.181,1435.77 453.219,1434.73 455.257,1433.66 457.296,1432.54 459.334,1431.38 461.372,1430.19 463.41,1428.95 465.448,1427.68 467.486,1426.37 469.524,1425.02 471.563,1423.64 473.601,1422.22 475.639,1420.77 477.677,1419.29 479.715,1417.78 481.753,1416.24 483.791,1414.67 485.829,1413.07 487.868,1411.45 489.906,1409.8 491.944,1408.12 493.982,1406.41 496.02,1404.69 498.058,1402.94 500.096,1401.16 502.134,1399.37 504.173,1397.55 506.211,1395.72 508.249,1393.86 510.287,1391.99 512.325,1390.1 514.363,1388.19 516.401,1386.27 518.439,1384.33 520.478,1382.37 522.516,1380.4 524.554,1378.42 526.592,1376.42 528.63,1374.42 530.668,1372.4 532.706,1370.37 534.745,1368.32 536.783,1366.27 538.821,1364.21 540.859,1362.14 542.897,1360.07 544.935,1357.98 546.973,1355.89 549.011,1353.79 551.05,1351.69 553.088,1349.58 555.126,1347.47 557.164,1345.35 559.202,1343.23 561.24,1341.1 563.278,1338.98 565.316,1336.85 567.355,1334.72 569.393,1332.58 571.431,1330.45 573.469,1328.31 575.507,1326.18 577.545,1324.05 579.583,1321.91 581.621,1319.78 583.66,1317.65 585.698,1315.52 587.736,1313.4 589.774,1311.27 591.812,1309.15 593.85,1307.04 595.888,1304.92 597.927,1302.82 599.965,1300.71 602.003,1298.61 604.041,1296.52 606.079,1294.43 608.117,1292.35 610.155,1290.27 612.193,1288.2 614.232,1286.14 616.27,1284.08 618.308,1282.03 620.346,1279.99 622.384,1277.95 624.422,1275.93 626.46,1273.91 628.498,1271.9 630.537,1269.9 632.575,1267.9 634.613,1265.92 636.651,1263.95 638.689,1261.98 640.727,1260.03 642.765,1258.08 644.804,1256.15 646.842,1254.22 648.88,1252.31 650.918,1250.41 652.956,1248.52 654.994,1246.63 657.032,1244.76 659.07,1242.9 661.109,1241.06 663.147,1239.22 665.185,1237.4 667.223,1235.58 669.261,1233.78 671.299,1232 673.337,1230.22 675.375,1228.46 677.414,1226.7 679.452,1224.97 681.49,1223.24 683.528,1221.53 685.566,1219.82 687.604,1218.14 689.642,1216.46 691.68,1214.8 693.719,1213.15 695.757,1211.51 697.795,1209.89 699.833,1208.28 701.871,1206.69 703.909,1205.1 705.947,1203.53 707.986,1201.98 710.024,1200.44 712.062,1198.91 714.1,1197.39 716.138,1195.89 718.176,1194.4 720.214,1192.93 722.252,1191.47 724.291,1190.02 726.329,1188.59 728.367,1187.17 730.405,1185.77 732.443,1184.37 734.481,1183 736.519,1181.63 738.557,1180.28 740.596,1178.95 742.634,1177.62 744.672,1176.31 746.71,1175.02 748.748,1173.74 750.786,1172.47 752.824,1171.21 754.862,1169.97 756.901,1168.75 758.939,1167.53 760.977,1166.33 763.015,1165.15 765.053,1163.97 767.091,1162.81 769.129,1161.67 771.168,1160.54 773.206,1159.42 775.244,1158.31 777.282,1157.22 779.32,1156.14 781.358,1155.07 783.396,1154.02 785.434,1152.98 787.473,1151.95 789.511,1150.94 791.549,1149.94 793.587,1148.95 795.625,1147.97 797.663,1147.01 799.701,1146.06 801.739,1145.12 803.778,1144.2 805.816,1143.29 807.854,1142.39 809.892,1141.5 811.93,1140.62 813.968,1139.76 816.006,1138.91 818.044,1138.07 820.083,1137.24 822.121,1136.43 824.159,1135.62 826.197,1134.83 828.235,1134.05 830.273,1133.28 832.311,1132.53 834.35,1131.78 836.388,1131.05 838.426,1130.32 840.464,1129.61 842.502,1128.91 844.54,1128.22 846.578,1127.55 848.616,1126.88 850.655,1126.22 852.693,1125.58 854.731,1124.94 856.769,1124.32 858.807,1123.7 860.845,1123.1 862.883,1122.5 864.921,1121.92 866.96,1121.35 868.998,1120.79 871.036,1120.23 873.074,1119.69 875.112,1119.16 877.15,1118.63 879.188,1118.12 881.227,1117.61 883.265,1117.12 885.303,1116.63 887.341,1116.15 889.379,1115.69 891.417,1115.23 893.455,1114.78 895.493,1114.34 897.532,1113.91 899.57,1113.48 901.608,1113.07 903.646,1112.66 905.684,1112.26 907.722,1111.88 909.76,1111.49 911.798,1111.12 913.837,1110.76 915.875,1110.4 917.913,1110.05 919.951,1109.71 921.989,1109.38 924.027,1109.05 926.065,1108.73 928.103,1108.42 930.142,1108.12 932.18,1107.82 934.218,1107.54 936.256,1107.25 938.294,1106.98 940.332,1106.71 942.37,1106.45 944.409,1106.2 946.447,1105.95 948.485,1105.71 950.523,1105.48 952.561,1105.25 954.599,1105.03 956.637,1104.81 958.675,1104.61 960.714,1104.4 962.752,1104.21 964.79,1104.02 966.828,1103.83 968.866,1103.65 970.904,1103.48 972.942,1103.31 974.98,1103.15 977.019,1102.99 979.057,1102.84 981.095,1102.7 983.133,1102.56 985.171,1102.42 987.209,1102.29 989.247,1102.17 991.285,1102.05 993.324,1101.93 995.362,1101.82 997.4,1101.72 999.438,1101.62 1001.48,1101.52 1003.51,1101.43 1005.55,1101.34 1007.59,1101.26 1009.63,1101.18 1011.67,1101.1 1013.7,1101.03 1015.74,1100.97 1017.78,1100.91 1019.82,1100.85 1021.86,1100.79 1023.9,1100.74 1025.93,1100.7 1027.97,1100.65 1030.01,1100.61 1032.05,1100.58 1034.09,1100.55 1036.12,1100.52 1038.16,1100.49 1040.2,1100.47 1042.24,1100.45 1044.28,1100.44 1046.31,1100.42 1048.35,1100.41 1050.39,1100.41 1052.43,1100.4 1054.47,1100.4 1056.51,1100.41 1058.54,1100.41 1060.58,1100.42 1062.62,1100.43 1064.66,1100.44 1066.7,1100.46 1068.73,1100.48 1070.77,1100.5 1072.81,1100.52 1074.85,1100.54 1076.89,1100.57 1078.93,1100.6 1080.96,1100.63 1083,1100.67 1085.04,1100.71 1087.08,1100.74 1089.12,1100.78 1091.15,1100.83 1093.19,1100.87 1095.23,1100.92 1097.27,1100.96 1099.31,1101.01 1101.34,1101.07 1103.38,1101.12 1105.42,1101.17 1107.46,1101.23 1109.5,1101.29 1111.54,1101.35 1113.57,1101.41 1115.61,1101.47 1117.65,1101.53 1119.69,1101.6 1121.73,1101.67 1123.76,1101.73 1125.8,1101.8 1127.84,1101.87 1129.88,1101.94 1131.92,1102.02 1133.95,1102.09 1135.99,1102.16 1138.03,1102.24 1140.07,1102.32 1142.11,1102.39 1144.15,1102.47 1146.18,1102.55 1148.22,1102.63 1150.26,1102.71 1152.3,1102.79 1154.34,1102.88 1156.37,1102.96 1158.41,1103.04 1160.45,1103.13 1162.49,1103.21 1164.53,1103.3 1166.56,1103.38 1168.6,1103.47 1170.64,1103.56 1172.68,1103.65 1174.72,1103.73 1176.76,1103.82 1178.79,1103.91 1180.83,1104 1182.87,1104.09 1184.91,1104.18 1186.95,1104.27 1188.98,1104.36 1191.02,1104.45 1193.06,1104.54 1195.1,1104.63 1197.14,1104.73 1199.17,1104.82 1201.21,1104.91 1203.25,1105 1205.29,1105.09 1207.33,1105.19 1209.37,1105.28 1211.4,1105.37 1213.44,1105.46 1215.48,1105.55 1217.52,1105.65 1219.56,1105.74 1221.59,1105.83 1223.63,1105.92 1225.67,1106.02 1227.71,1106.11 1229.75,1106.2 1231.78,1106.29 1233.82,1106.38 1235.86,1106.47 1237.9,1106.56 1239.94,1106.66 1241.98,1106.75 1244.01,1106.84 1246.05,1106.93 1248.09,1107.02 1250.13,1107.11 1252.17,1107.2 1254.2,1107.29 1256.24,1107.37 1258.28,1107.46 1260.32,1107.55 1262.36,1107.64 1264.39,1107.73 1266.43,1107.81 1268.47,1107.9 1270.51,1107.99 1272.55,1108.07 1274.59,1108.16 1276.62,1108.24 1278.66,1108.33 1280.7,1108.41 1282.74,1108.5 1284.78,1108.58 1286.81,1108.67 1288.85,1108.75 1290.89,1108.83 1292.93,1108.91 1294.97,1108.99 1297,1109.07 1299.04,1109.15 1301.08,1109.23 1303.12,1109.31 1305.16,1109.39 1307.2,1109.47 1309.23,1109.55 1311.27,1109.63 1313.31,1109.7 1315.35,1109.78 1317.39,1109.86 1319.42,1109.93 1321.46,1110.01 1323.5,1110.08 1325.54,1110.15 1327.58,1110.23 1329.61,1110.3 1331.65,1110.37 1333.69,1110.44 1335.73,1110.51 1337.77,1110.58 1339.81,1110.65 1341.84,1110.72 1343.88,1110.79 1345.92,1110.86 1347.96,1110.93 1350,1110.99 1352.03,1111.06 1354.07,1111.12 1356.11,1111.19 1358.15,1111.25 1360.19,1111.32 1362.23,1111.38 1364.26,1111.44 1366.3,1111.51 1368.34,1111.57 1370.38,1111.63 1372.42,1111.69 1374.45,1111.75 1376.49,1111.81 1378.53,1111.86 1380.57,1111.92 1382.61,1111.98 1384.64,1112.04 1386.68,1112.09 1388.72,1112.15 1390.76,1112.2 1392.8,1112.26 1394.84,1112.31 1396.87,1112.36 1398.91,1112.42 1400.95,1112.47 1402.99,1112.52 1405.03,1112.57 1407.06,1112.62 1409.1,1112.67 1411.14,1112.72 1413.18,1112.77 1415.22,1112.82 1417.25,1112.86 1419.29,1112.91 1421.33,1112.96 1423.37,1113 1425.41,1113.05 1427.45,1113.09 1429.48,1113.14 1431.52,1113.18 1433.56,1113.22 1435.6,1113.26 1437.64,1113.31 1439.67,1113.35 1441.71,1113.39 1443.75,1113.43 1445.79,1113.47 1447.83,1113.51 1449.86,1113.54 1451.9,1113.58 1453.94,1113.62 1455.98,1113.66 1458.02,1113.69 1460.06,1113.73 1462.09,1113.76 1464.13,1113.8 1466.17,1113.83 1468.21,1113.87 1470.25,1113.9 1472.28,1113.93 1474.32,1113.96 1476.36,1114 1478.4,1114.03 1480.44,1114.06 1482.47,1114.09 1484.51,1114.12 1486.55,1114.15 1488.59,1114.18 1490.63,1114.21 1492.67,1114.23 1494.7,1114.26 1496.74,1114.29 1498.78,1114.31 1500.82,1114.34 1502.86,1114.37 1504.89,1114.39 1506.93,1114.42 1508.97,1114.44 1511.01,1114.47 1513.05,1114.49 1515.08,1114.51 1517.12,1114.53 1519.16,1114.56 1521.2,1114.58 1523.24,1114.6 1525.28,1114.62 1527.31,1114.64 1529.35,1114.66 1531.39,1114.68 1533.43,1114.7 1535.47,1114.72 1537.5,1114.74 1539.54,1114.76 1541.58,1114.78 1543.62,1114.79 1545.66,1114.81 1547.69,1114.83 1549.73,1114.84 1551.77,1114.86 1553.81,1114.88 1555.85,1114.89 1557.89,1114.91 1559.92,1114.92 1561.96,1114.94 1564,1114.95 1566.04,1114.96 1568.08,1114.98 1570.11,1114.99 1572.15,1115 1574.19,1115.02 1576.23,1115.03 1578.27,1115.04 1580.3,1115.05 1582.34,1115.06 1584.38,1115.07 1586.42,1115.08 1588.46,1115.09 1590.5,1115.1 1592.53,1115.11 1594.57,1115.12 1596.61,1115.13 1598.65,1115.14 1600.69,1115.15 1602.72,1115.16 1604.76,1115.17 1606.8,1115.18 1608.84,1115.18 1610.88,1115.19 1612.91,1115.2 1614.95,1115.21 1616.99,1115.21 1619.03,1115.22 1621.07,1115.23 1623.11,1115.23 1625.14,1115.24 1627.18,1115.24 1629.22,1115.25 1631.26,1115.25 1633.3,1115.26 1635.33,1115.26 1637.37,1115.27 1639.41,1115.27 1641.45,1115.28 1643.49,1115.28 1645.53,1115.28 1647.56,1115.29 1649.6,1115.29 1651.64,1115.29 1653.68,1115.3 1655.72,1115.3 1657.75,1115.3 1659.79,1115.31 1661.83,1115.31 1663.87,1115.31 1665.91,1115.31 1667.94,1115.31 1669.98,1115.32 1672.02,1115.32 1674.06,1115.32 1676.1,1115.32 1678.14,1115.32 1680.17,1115.32 1682.21,1115.32 1684.25,1115.32 1686.29,1115.32 1688.33,1115.33 1690.36,1115.33 1692.4,1115.33 1694.44,1115.33 1696.48,1115.33 1698.52,1115.33 1700.55,1115.33 1702.59,1115.32 1704.63,1115.32 1706.67,1115.32 1708.71,1115.32 1710.75,1115.32 1712.78,1115.32 1714.82,1115.32 1716.86,1115.32 1718.9,1115.32 1720.94,1115.32 1722.97,1115.31 1725.01,1115.31 1727.05,1115.31 1729.09,1115.31 1731.13,1115.31 1733.16,1115.31 1735.2,1115.3 1737.24,1115.3 1739.28,1115.3 1741.32,1115.3 1743.36,1115.3 1745.39,1115.29 1747.43,1115.29 1749.47,1115.29 1751.51,1115.29 1753.55,1115.28 1755.58,1115.28 1757.62,1115.28 1759.66,1115.27 1761.7,1115.27 1763.74,1115.27 1765.77,1115.27 1767.81,1115.26 1769.85,1115.26 1771.89,1115.26 1773.93,1115.25 1775.97,1115.25 1778,1115.25 1780.04,1115.24 1782.08,1115.24 1784.12,1115.24 1786.16,1115.23 1788.19,1115.23 1790.23,1115.23 1792.27,1115.22 1794.31,1115.22 1796.35,1115.22 1798.38,1115.21 1800.42,1115.21 1802.46,1115.2 1804.5,1115.2 1806.54,1115.2 1808.58,1115.19 1810.61,1115.19 1812.65,1115.19 1814.69,1115.18 1816.73,1115.18 1818.77,1115.17 1820.8,1115.17 1822.84,1115.17 1824.88,1115.16 1826.92,1115.16 1828.96,1115.16 1830.99,1115.15 1833.03,1115.15 1835.07,1115.14 1837.11,1115.14 1839.15,1115.14 1841.19,1115.13 1843.22,1115.13 1845.26,1115.12 1847.3,1115.12 1849.34,1115.12 1851.38,1115.11 1853.41,1115.11 1855.45,1115.1 1857.49,1115.1 1859.53,1115.1 1861.57,1115.09 1863.6,1115.09 1865.64,1115.08 1867.68,1115.08 1869.72,1115.08 1871.76,1115.07 1873.8,1115.07 1875.83,1115.06 1877.87,1115.06 1879.91,1115.06 1881.95,1115.05 1883.99,1115.05 1886.02,1115.04 1888.06,1115.04 1890.1,1115.04 1892.14,1115.03 1894.18,1115.03 1896.21,1115.03 1898.25,1115.02 1900.29,1115.02 1902.33,1115.01 1904.37,1115.01 1906.41,1115.01 1908.44,1115 1910.48,1115 1912.52,1114.99 1914.56,1114.99 1916.6,1114.99 1918.63,1114.98 1920.67,1114.98 1922.71,1114.98 1924.75,1114.97 1926.79,1114.97 1928.82,1114.97 1930.86,1114.96 1932.9,1114.96 1934.94,1114.96 1936.98,1114.95 1939.02,1114.95 1941.05,1114.94 1943.09,1114.94 1945.13,1114.94 1947.17,1114.93 1949.21,1114.93 1951.24,1114.93 1953.28,1114.92 1955.32,1114.92 1957.36,1114.92 1959.4,1114.91 1961.44,1114.91 1963.47,1114.91 1965.51,1114.9 1967.55,1114.9 1969.59,1114.9 1971.63,1114.9 1973.66,1114.89 1975.7,1114.89 1977.74,1114.89 1979.78,1114.88 1981.82,1114.88 1983.85,1114.88 1985.89,1114.87 1987.93,1114.87 1989.97,1114.87 1992.01,1114.87 1994.05,1114.86 1996.08,1114.86 1998.12,1114.86 2000.16,1114.85 2002.2,1114.85 2004.24,1114.85 2006.27,1114.85 2008.31,1114.84 2010.35,1114.84 2012.39,1114.84 2014.43,1114.84 2016.46,1114.83 2018.5,1114.83 2020.54,1114.83 2022.58,1114.83 2024.62,1114.82 2026.66,1114.82 2028.69,1114.82 2030.73,1114.82 2032.77,1114.81 2034.81,1114.81 2036.85,1114.81 2038.88,1114.81 2040.92,1114.8 2042.96,1114.8 2045,1114.8 2047.04,1114.8 2049.07,1114.8 2051.11,1114.79 2053.15,1114.79 2055.19,1114.79 2057.23,1114.79 2059.27,1114.79 2061.3,1114.78 2063.34,1114.78 2065.38,1114.78 2067.42,1114.78 2069.46,1114.78 2071.49,1114.77 2073.53,1114.77 2075.57,1114.77 2077.61,1114.77 2079.65,1114.77 2081.68,1114.76 2083.72,1114.76 2085.76,1114.76 2087.8,1114.76 2089.84,1114.76 2091.88,1114.76 2093.91,1114.75 2095.95,1114.75 2097.99,1114.75 2100.03,1114.75 2102.07,1114.75 2104.1,1114.75 2106.14,1114.75 2108.18,1114.74 2110.22,1114.74 2112.26,1114.74 2114.29,1114.74 2116.33,1114.74 2118.37,1114.74 2120.41,1114.74 2122.45,1114.73 2124.49,1114.73 2126.52,1114.73 2128.56,1114.73 2130.6,1114.73 2132.64,1114.73 2134.68,1114.73 2136.71,1114.73 2138.75,1114.72 2140.79,1114.72 2142.83,1114.72 2144.87,1114.72 2146.9,1114.72 2148.94,1114.72 2150.98,1114.72 2153.02,1114.72 2155.06,1114.72 2157.1,1114.72 2159.13,1114.71 2161.17,1114.71 2163.21,1114.71 2165.25,1114.71 2167.29,1114.71 2169.32,1114.71 2171.36,1114.71 2173.4,1114.71 2175.44,1114.71 2177.48,1114.71 2179.51,1114.71 2181.55,1114.7 2183.59,1114.7 2185.63,1114.7 2187.67,1114.7 2189.71,1114.7 2191.74,1114.7 2193.78,1114.7 2195.82,1114.7 2197.86,1114.7 2199.9,1114.7 2201.93,1114.7 2203.97,1114.7 2206.01,1114.7 2208.05,1114.7 2210.09,1114.7 2212.12,1114.69 2214.16,1114.69 2216.2,1114.69 2218.24,1114.69 2220.28,1114.69 2222.32,1114.69 2224.35,1114.69 2226.39,1114.69 2228.43,1114.69 2230.47,1114.69 2232.51,1114.69 2234.54,1114.69 2236.58,1114.69 2238.62,1114.69 2240.66,1114.69 2242.7,1114.69 2244.74,1114.69 2246.77,1114.69 2248.81,1114.69 2250.85,1114.69 2252.89,1114.69 2254.93,1114.69 2256.96,1114.69 2259,1114.69 2261.04,1114.69 2263.08,1114.69 2265.12,1114.68 2267.15,1114.68 2269.19,1114.68 2271.23,1114.68 2273.27,1114.68 2275.31,1114.68 2277.35,1114.68 2279.38,1114.68 2281.42,1114.68 2283.46,1114.68 2285.5,1114.68 2287.54,1114.68 2289.57,1114.68 2291.61,1114.68 "/>
<path clip-path="url(#clip300)" d="M1719.08 250.738 L2280.74 250.738 L2280.74 95.2176 L1719.08 95.2176  Z" fill="#ffffff" fill-rule="evenodd" fill-opacity="1"/>
<polyline clip-path="url(#clip300)" style="stroke:#000000; stroke-linecap:round; stroke-linejoin:round; stroke-width:4; stroke-opacity:1; fill:none" points="1719.08,250.738 2280.74,250.738 2280.74,95.2176 1719.08,95.2176 1719.08,250.738 "/>
<polyline clip-path="url(#clip300)" style="stroke:#009af9; stroke-linecap:round; stroke-linejoin:round; stroke-width:8; stroke-opacity:1; fill:none" points="1743.08,147.058 1887.11,147.058 "/>
<path clip-path="url(#clip300)" d="M1927.5 148.134 Q1929.01 148.643 1930.42 150.31 Q1931.85 151.977 1933.29 154.893 L1938.04 164.338 L1933.01 164.338 L1928.59 155.472 Q1926.88 152 1925.26 150.865 Q1923.66 149.731 1920.88 149.731 L1915.79 149.731 L1915.79 164.338 L1911.11 164.338 L1911.11 129.778 L1921.67 129.778 Q1927.6 129.778 1930.51 132.254 Q1933.43 134.731 1933.43 139.731 Q1933.43 142.995 1931.9 145.148 Q1930.4 147.301 1927.5 148.134 M1915.79 133.62 L1915.79 145.889 L1921.67 145.889 Q1925.05 145.889 1926.76 144.338 Q1928.5 142.764 1928.5 139.731 Q1928.5 136.699 1926.76 135.171 Q1925.05 133.62 1921.67 133.62 L1915.79 133.62 Z" fill="#000000" fill-rule="nonzero" fill-opacity="1" /><path clip-path="url(#clip300)" d="M1963.91 150.31 L1963.91 152.393 L1944.33 152.393 Q1944.61 156.791 1946.97 159.106 Q1949.35 161.398 1953.59 161.398 Q1956.04 161.398 1958.34 160.796 Q1960.65 160.194 1962.92 158.99 L1962.92 163.018 Q1960.63 163.99 1958.22 164.5 Q1955.81 165.009 1953.34 165.009 Q1947.13 165.009 1943.5 161.398 Q1939.89 157.787 1939.89 151.629 Q1939.89 145.264 1943.31 141.537 Q1946.76 137.787 1952.6 137.787 Q1957.83 137.787 1960.86 141.166 Q1963.91 144.523 1963.91 150.31 M1959.66 149.06 Q1959.61 145.565 1957.69 143.481 Q1955.79 141.398 1952.64 141.398 Q1949.08 141.398 1946.92 143.412 Q1944.79 145.426 1944.47 149.083 L1959.66 149.06 Z" fill="#000000" fill-rule="nonzero" fill-opacity="1" /><path clip-path="url(#clip300)" d="M1982.69 151.305 Q1977.53 151.305 1975.54 152.486 Q1973.54 153.666 1973.54 156.514 Q1973.54 158.782 1975.03 160.125 Q1976.53 161.444 1979.1 161.444 Q1982.64 161.444 1984.77 158.944 Q1986.92 156.421 1986.92 152.254 L1986.92 151.305 L1982.69 151.305 M1991.18 149.546 L1991.18 164.338 L1986.92 164.338 L1986.92 160.402 Q1985.47 162.763 1983.29 163.898 Q1981.11 165.009 1977.97 165.009 Q1973.98 165.009 1971.62 162.787 Q1969.29 160.541 1969.29 156.791 Q1969.29 152.416 1972.2 150.194 Q1975.14 147.972 1980.95 147.972 L1986.92 147.972 L1986.92 147.555 Q1986.92 144.615 1984.98 143.018 Q1983.06 141.398 1979.56 141.398 Q1977.34 141.398 1975.23 141.93 Q1973.13 142.463 1971.18 143.527 L1971.18 139.592 Q1973.52 138.69 1975.72 138.25 Q1977.92 137.787 1980 137.787 Q1985.63 137.787 1988.41 140.703 Q1991.18 143.62 1991.18 149.546 Z" fill="#000000" fill-rule="nonzero" fill-opacity="1" /><path clip-path="url(#clip300)" d="M1999.96 128.319 L2004.22 128.319 L2004.22 164.338 L1999.96 164.338 L1999.96 128.319 Z" fill="#000000" fill-rule="nonzero" fill-opacity="1" /><path clip-path="url(#clip300)" d="M2032.32 160.449 L2032.32 174.199 L2028.03 174.199 L2028.03 138.412 L2032.32 138.412 L2032.32 142.347 Q2033.66 140.032 2035.7 138.921 Q2037.76 137.787 2040.6 137.787 Q2045.33 137.787 2048.27 141.537 Q2051.23 145.287 2051.23 151.398 Q2051.23 157.509 2048.27 161.259 Q2045.33 165.009 2040.6 165.009 Q2037.76 165.009 2035.7 163.898 Q2033.66 162.763 2032.32 160.449 M2046.81 151.398 Q2046.81 146.699 2044.86 144.037 Q2042.94 141.352 2039.56 141.352 Q2036.18 141.352 2034.24 144.037 Q2032.32 146.699 2032.32 151.398 Q2032.32 156.097 2034.24 158.782 Q2036.18 161.444 2039.56 161.444 Q2042.94 161.444 2044.86 158.782 Q2046.81 156.097 2046.81 151.398 Z" fill="#000000" fill-rule="nonzero" fill-opacity="1" /><path clip-path="url(#clip300)" d="M2070.07 151.305 Q2064.91 151.305 2062.92 152.486 Q2060.93 153.666 2060.93 156.514 Q2060.93 158.782 2062.41 160.125 Q2063.91 161.444 2066.48 161.444 Q2070.03 161.444 2072.16 158.944 Q2074.31 156.421 2074.31 152.254 L2074.31 151.305 L2070.07 151.305 M2078.57 149.546 L2078.57 164.338 L2074.31 164.338 L2074.31 160.402 Q2072.85 162.763 2070.67 163.898 Q2068.5 165.009 2065.35 165.009 Q2061.37 165.009 2059.01 162.787 Q2056.67 160.541 2056.67 156.791 Q2056.67 152.416 2059.59 150.194 Q2062.53 147.972 2068.34 147.972 L2074.31 147.972 L2074.31 147.555 Q2074.31 144.615 2072.36 143.018 Q2070.44 141.398 2066.95 141.398 Q2064.72 141.398 2062.62 141.93 Q2060.51 142.463 2058.57 143.527 L2058.57 139.592 Q2060.91 138.69 2063.1 138.25 Q2065.3 137.787 2067.39 137.787 Q2073.01 137.787 2075.79 140.703 Q2078.57 143.62 2078.57 149.546 Z" fill="#000000" fill-rule="nonzero" fill-opacity="1" /><path clip-path="url(#clip300)" d="M2102.36 142.393 Q2101.65 141.977 2100.79 141.791 Q2099.96 141.583 2098.94 141.583 Q2095.33 141.583 2093.38 143.944 Q2091.46 146.282 2091.46 150.68 L2091.46 164.338 L2087.18 164.338 L2087.18 138.412 L2091.46 138.412 L2091.46 142.44 Q2092.8 140.078 2094.96 138.944 Q2097.11 137.787 2100.19 137.787 Q2100.63 137.787 2101.16 137.856 Q2101.69 137.903 2102.34 138.018 L2102.36 142.393 Z" fill="#000000" fill-rule="nonzero" fill-opacity="1" /><path clip-path="url(#clip300)" d="M2111.04 131.051 L2111.04 138.412 L2119.82 138.412 L2119.82 141.722 L2111.04 141.722 L2111.04 155.796 Q2111.04 158.967 2111.9 159.87 Q2112.78 160.773 2115.44 160.773 L2119.82 160.773 L2119.82 164.338 L2115.44 164.338 Q2110.51 164.338 2108.64 162.509 Q2106.76 160.657 2106.76 155.796 L2106.76 141.722 L2103.64 141.722 L2103.64 138.412 L2106.76 138.412 L2106.76 131.051 L2111.04 131.051 Z" fill="#000000" fill-rule="nonzero" fill-opacity="1" /><polyline clip-path="url(#clip300)" style="stroke:#e26f46; stroke-linecap:round; stroke-linejoin:round; stroke-width:8; stroke-opacity:1; fill:none" points="1743.08,198.898 1887.11,198.898 "/>
<path clip-path="url(#clip300)" d="M1911.11 181.618 L1915.79 181.618 L1915.79 216.178 L1911.11 216.178 L1911.11 181.618 Z" fill="#000000" fill-rule="nonzero" fill-opacity="1" /><path clip-path="url(#clip300)" d="M1945.1 195.229 Q1946.69 192.358 1948.91 190.993 Q1951.14 189.627 1954.15 189.627 Q1958.2 189.627 1960.4 192.474 Q1962.6 195.298 1962.6 200.529 L1962.6 216.178 L1958.31 216.178 L1958.31 200.668 Q1958.31 196.942 1956.99 195.136 Q1955.67 193.33 1952.97 193.33 Q1949.66 193.33 1947.73 195.53 Q1945.81 197.729 1945.81 201.525 L1945.81 216.178 L1941.53 216.178 L1941.53 200.668 Q1941.53 196.918 1940.21 195.136 Q1938.89 193.33 1936.14 193.33 Q1932.87 193.33 1930.95 195.553 Q1929.03 197.752 1929.03 201.525 L1929.03 216.178 L1924.75 216.178 L1924.75 190.252 L1929.03 190.252 L1929.03 194.28 Q1930.49 191.895 1932.53 190.761 Q1934.56 189.627 1937.36 189.627 Q1940.19 189.627 1942.16 191.062 Q1944.15 192.497 1945.1 195.229 Z" fill="#000000" fill-rule="nonzero" fill-opacity="1" /><path clip-path="url(#clip300)" d="M1982.87 203.145 Q1977.71 203.145 1975.72 204.326 Q1973.73 205.506 1973.73 208.354 Q1973.73 210.622 1975.21 211.965 Q1976.72 213.284 1979.29 213.284 Q1982.83 213.284 1984.96 210.784 Q1987.11 208.261 1987.11 204.094 L1987.11 203.145 L1982.87 203.145 M1991.37 201.386 L1991.37 216.178 L1987.11 216.178 L1987.11 212.242 Q1985.65 214.603 1983.47 215.738 Q1981.3 216.849 1978.15 216.849 Q1974.17 216.849 1971.81 214.627 Q1969.47 212.381 1969.47 208.631 Q1969.47 204.256 1972.39 202.034 Q1975.33 199.812 1981.14 199.812 L1987.11 199.812 L1987.11 199.395 Q1987.11 196.455 1985.16 194.858 Q1983.24 193.238 1979.75 193.238 Q1977.53 193.238 1975.42 193.77 Q1973.31 194.303 1971.37 195.367 L1971.37 191.432 Q1973.71 190.53 1975.91 190.09 Q1978.1 189.627 1980.19 189.627 Q1985.81 189.627 1988.59 192.543 Q1991.37 195.46 1991.37 201.386 Z" fill="#000000" fill-rule="nonzero" fill-opacity="1" /><path clip-path="url(#clip300)" d="M2017.2 202.914 Q2017.2 198.284 2015.28 195.738 Q2013.38 193.192 2009.93 193.192 Q2006.51 193.192 2004.59 195.738 Q2002.69 198.284 2002.69 202.914 Q2002.69 207.52 2004.59 210.066 Q2006.51 212.613 2009.93 212.613 Q2013.38 212.613 2015.28 210.066 Q2017.2 207.52 2017.2 202.914 M2021.46 212.96 Q2021.46 219.58 2018.52 222.798 Q2015.58 226.039 2009.52 226.039 Q2007.27 226.039 2005.28 225.691 Q2003.29 225.367 2001.41 224.673 L2001.41 220.529 Q2003.29 221.548 2005.12 222.034 Q2006.95 222.52 2008.85 222.52 Q2013.03 222.52 2015.12 220.321 Q2017.2 218.145 2017.2 213.724 L2017.2 211.617 Q2015.88 213.909 2013.82 215.043 Q2011.76 216.178 2008.89 216.178 Q2004.12 216.178 2001.21 212.543 Q1998.29 208.909 1998.29 202.914 Q1998.29 196.895 2001.21 193.261 Q2004.12 189.627 2008.89 189.627 Q2011.76 189.627 2013.82 190.761 Q2015.88 191.895 2017.2 194.187 L2017.2 190.252 L2021.46 190.252 L2021.46 212.96 Z" fill="#000000" fill-rule="nonzero" fill-opacity="1" /><path clip-path="url(#clip300)" d="M2030.23 190.252 L2034.49 190.252 L2034.49 216.178 L2030.23 216.178 L2030.23 190.252 M2030.23 180.159 L2034.49 180.159 L2034.49 185.553 L2030.23 185.553 L2030.23 180.159 Z" fill="#000000" fill-rule="nonzero" fill-opacity="1" /><path clip-path="url(#clip300)" d="M2064.96 200.529 L2064.96 216.178 L2060.7 216.178 L2060.7 200.668 Q2060.7 196.988 2059.26 195.159 Q2057.83 193.33 2054.96 193.33 Q2051.51 193.33 2049.52 195.53 Q2047.53 197.729 2047.53 201.525 L2047.53 216.178 L2043.24 216.178 L2043.24 190.252 L2047.53 190.252 L2047.53 194.28 Q2049.05 191.942 2051.11 190.784 Q2053.2 189.627 2055.91 189.627 Q2060.37 189.627 2062.66 192.405 Q2064.96 195.159 2064.96 200.529 Z" fill="#000000" fill-rule="nonzero" fill-opacity="1" /><path clip-path="url(#clip300)" d="M2085.23 203.145 Q2080.07 203.145 2078.08 204.326 Q2076.09 205.506 2076.09 208.354 Q2076.09 210.622 2077.57 211.965 Q2079.08 213.284 2081.65 213.284 Q2085.19 213.284 2087.32 210.784 Q2089.47 208.261 2089.47 204.094 L2089.47 203.145 L2085.23 203.145 M2093.73 201.386 L2093.73 216.178 L2089.47 216.178 L2089.47 212.242 Q2088.01 214.603 2085.84 215.738 Q2083.66 216.849 2080.51 216.849 Q2076.53 216.849 2074.17 214.627 Q2071.83 212.381 2071.83 208.631 Q2071.83 204.256 2074.75 202.034 Q2077.69 199.812 2083.5 199.812 L2089.47 199.812 L2089.47 199.395 Q2089.47 196.455 2087.53 194.858 Q2085.6 193.238 2082.11 193.238 Q2079.89 193.238 2077.78 193.77 Q2075.67 194.303 2073.73 195.367 L2073.73 191.432 Q2076.07 190.53 2078.27 190.09 Q2080.47 189.627 2082.55 189.627 Q2088.17 189.627 2090.95 192.543 Q2093.73 195.46 2093.73 201.386 Z" fill="#000000" fill-rule="nonzero" fill-opacity="1" /><path clip-path="url(#clip300)" d="M2117.53 194.233 Q2116.81 193.817 2115.95 193.631 Q2115.12 193.423 2114.1 193.423 Q2110.49 193.423 2108.54 195.784 Q2106.62 198.122 2106.62 202.52 L2106.62 216.178 L2102.34 216.178 L2102.34 190.252 L2106.62 190.252 L2106.62 194.28 Q2107.97 191.918 2110.12 190.784 Q2112.27 189.627 2115.35 189.627 Q2115.79 189.627 2116.32 189.696 Q2116.85 189.743 2117.5 189.858 L2117.53 194.233 Z" fill="#000000" fill-rule="nonzero" fill-opacity="1" /><path clip-path="url(#clip300)" d="M2132.78 218.585 Q2130.97 223.215 2129.26 224.627 Q2127.55 226.039 2124.68 226.039 L2121.28 226.039 L2121.28 222.474 L2123.78 222.474 Q2125.53 222.474 2126.51 221.64 Q2127.48 220.807 2128.66 217.705 L2129.42 215.761 L2118.94 190.252 L2123.45 190.252 L2131.55 210.529 L2139.65 190.252 L2144.17 190.252 L2132.78 218.585 Z" fill="#000000" fill-rule="nonzero" fill-opacity="1" /><path clip-path="url(#clip300)" d="M2169.24 212.289 L2169.24 226.039 L2164.96 226.039 L2164.96 190.252 L2169.24 190.252 L2169.24 194.187 Q2170.58 191.872 2172.62 190.761 Q2174.68 189.627 2177.52 189.627 Q2182.25 189.627 2185.19 193.377 Q2188.15 197.127 2188.15 203.238 Q2188.15 209.349 2185.19 213.099 Q2182.25 216.849 2177.52 216.849 Q2174.68 216.849 2172.62 215.738 Q2170.58 214.603 2169.24 212.289 M2183.73 203.238 Q2183.73 198.539 2181.78 195.877 Q2179.86 193.192 2176.48 193.192 Q2173.1 193.192 2171.16 195.877 Q2169.24 198.539 2169.24 203.238 Q2169.24 207.937 2171.16 210.622 Q2173.1 213.284 2176.48 213.284 Q2179.86 213.284 2181.78 210.622 Q2183.73 207.937 2183.73 203.238 Z" fill="#000000" fill-rule="nonzero" fill-opacity="1" /><path clip-path="url(#clip300)" d="M2206.99 203.145 Q2201.83 203.145 2199.84 204.326 Q2197.85 205.506 2197.85 208.354 Q2197.85 210.622 2199.33 211.965 Q2200.83 213.284 2203.4 213.284 Q2206.95 213.284 2209.08 210.784 Q2211.23 208.261 2211.23 204.094 L2211.23 203.145 L2206.99 203.145 M2215.49 201.386 L2215.49 216.178 L2211.23 216.178 L2211.23 212.242 Q2209.77 214.603 2207.59 215.738 Q2205.42 216.849 2202.27 216.849 Q2198.29 216.849 2195.93 214.627 Q2193.59 212.381 2193.59 208.631 Q2193.59 204.256 2196.51 202.034 Q2199.45 199.812 2205.26 199.812 L2211.23 199.812 L2211.23 199.395 Q2211.23 196.455 2209.28 194.858 Q2207.36 193.238 2203.87 193.238 Q2201.65 193.238 2199.54 193.77 Q2197.43 194.303 2195.49 195.367 L2195.49 191.432 Q2197.83 190.53 2200.02 190.09 Q2202.22 189.627 2204.31 189.627 Q2209.93 189.627 2212.71 192.543 Q2215.49 195.46 2215.49 201.386 Z" fill="#000000" fill-rule="nonzero" fill-opacity="1" /><path clip-path="url(#clip300)" d="M2239.28 194.233 Q2238.57 193.817 2237.71 193.631 Q2236.88 193.423 2235.86 193.423 Q2232.25 193.423 2230.3 195.784 Q2228.38 198.122 2228.38 202.52 L2228.38 216.178 L2224.1 216.178 L2224.1 190.252 L2228.38 190.252 L2228.38 194.28 Q2229.72 191.918 2231.88 190.784 Q2234.03 189.627 2237.11 189.627 Q2237.55 189.627 2238.08 189.696 Q2238.61 189.743 2239.26 189.858 L2239.28 194.233 Z" fill="#000000" fill-rule="nonzero" fill-opacity="1" /><path clip-path="url(#clip300)" d="M2247.96 182.891 L2247.96 190.252 L2256.74 190.252 L2256.74 193.562 L2247.96 193.562 L2247.96 207.636 Q2247.96 210.807 2248.82 211.71 Q2249.7 212.613 2252.36 212.613 L2256.74 212.613 L2256.74 216.178 L2252.36 216.178 Q2247.43 216.178 2245.56 214.349 Q2243.68 212.497 2243.68 207.636 L2243.68 193.562 L2240.56 193.562 L2240.56 190.252 L2243.68 190.252 L2243.68 182.891 L2247.96 182.891 Z" fill="#000000" fill-rule="nonzero" fill-opacity="1" /></svg>