<?xml version="1.0" encoding="utf-8"?>
<svg xmlns="http://www.w3.org/2000/svg" xmlns:xlink="http://www.w3.org/1999/xlink" width="600" height="400" viewBox="0 0 2400 1600">
<defs>
  <clipPath id="clip660">
    <rect x="0" y="0" width="2400" height="1600"/>
  </clipPath>
</defs>
<path clip-path="url(#clip660)" d="M0 1600 L2400 1600 L2400 8.88178e-14 L0 8.88178e-14  Z" fill="#ffffff" fill-rule="evenodd" fill-opacity="1"/>
<defs>
  <clipPath id="clip661">
    <rect x="480" y="0" width="1681" height="1600"/>
  </clipPath>
</defs>
<path clip-path="url(#clip660)" d="M193.936 1486.45 L2352.76 1486.45 L2352.76 47.2441 L193.936 47.2441  Z" fill="#ffffff" fill-rule="evenodd" fill-opacity="1"/>
<defs>
  <clipPath id="clip662">
    <rect x="193" y="47" width="2160" height="1440"/>
  </clipPath>
</defs>
<polyline clip-path="url(#clip662)" style="stroke:#000000; stroke-linecap:round; stroke-linejoin:round; stroke-width:2; stroke-opacity:0.1; fill:none" points="255.035,1486.45 255.035,47.2441 "/>
<polyline clip-path="url(#clip662)" style="stroke:#000000; stroke-linecap:round; stroke-linejoin:round; stroke-width:2; stroke-opacity:0.1; fill:none" points="764.19,1486.45 764.19,47.2441 "/>
<polyline clip-path="url(#clip662)" style="stroke:#000000; stroke-linecap:round; stroke-linejoin:round; stroke-width:2; stroke-opacity:0.1; fill:none" points="1273.35,1486.45 1273.35,47.2441 "/>
<polyline clip-path="url(#clip662)" style="stroke:#000000; stroke-linecap:round; stroke-linejoin:round; stroke-width:2; stroke-opacity:0.1; fill:none" points="1782.5,1486.45 1782.5,47.2441 "/>
<polyline clip-path="url(#clip662)" style="stroke:#000000; stroke-linecap:round; stroke-linejoin:round; stroke-width:2; stroke-opacity:0.1; fill:none" points="2291.66,1486.45 2291.66,47.2441 "/>
<polyline clip-path="url(#clip662)" style="stroke:#000000; stroke-linecap:round; stroke-linejoin:round; stroke-width:2; stroke-opacity:0.1; fill:none" points="193.936,1445.72 2352.76,1445.72 "/>
<polyline clip-path="url(#clip662)" style="stroke:#000000; stroke-linecap:round; stroke-linejoin:round; stroke-width:2; stroke-opacity:0.1; fill:none" points="193.936,1106.28 2352.76,1106.28 "/>
<polyline clip-path="url(#clip662)" style="stroke:#000000; stroke-linecap:round; stroke-linejoin:round; stroke-width:2; stroke-opacity:0.1; fill:none" points="193.936,766.846 2352.76,766.846 "/>
<polyline clip-path="url(#clip662)" style="stroke:#000000; stroke-linecap:round; stroke-linejoin:round; stroke-width:2; stroke-opacity:0.1; fill:none" points="193.936,427.411 2352.76,427.411 "/>
<polyline clip-path="url(#clip662)" style="stroke:#000000; stroke-linecap:round; stroke-linejoin:round; stroke-width:2; stroke-opacity:0.1; fill:none" points="193.936,87.9763 2352.76,87.9763 "/>
<polyline clip-path="url(#clip660)" style="stroke:#000000; stroke-linecap:round; stroke-linejoin:round; stroke-width:4; stroke-opacity:1; fill:none" points="193.936,1486.45 2352.76,1486.45 "/>
<polyline clip-path="url(#clip660)" style="stroke:#000000; stroke-linecap:round; stroke-linejoin:round; stroke-width:4; stroke-opacity:1; fill:none" points="255.035,1486.45 255.035,1467.55 "/>
<polyline clip-path="url(#clip660)" style="stroke:#000000; stroke-linecap:round; stroke-linejoin:round; stroke-width:4; stroke-opacity:1; fill:none" points="764.19,1486.45 764.19,1467.55 "/>
<polyline clip-path="url(#clip660)" style="stroke:#000000; stroke-linecap:round; stroke-linejoin:round; stroke-width:4; stroke-opacity:1; fill:none" points="1273.35,1486.45 1273.35,1467.55 "/>
<polyline clip-path="url(#clip660)" style="stroke:#000000; stroke-linecap:round; stroke-linejoin:round; stroke-width:4; stroke-opacity:1; fill:none" points="1782.5,1486.45 1782.5,1467.55 "/>
<polyline clip-path="url(#clip660)" style="stroke:#000000; stroke-linecap:round; stroke-linejoin:round; stroke-width:4; stroke-opacity:1; fill:none" points="2291.66,1486.45 2291.66,1467.55 "/>
<path clip-path="url(#clip660)" d="M232.419 1517.37 Q228.808 1517.37 226.979 1520.93 Q225.174 1524.47 225.174 1531.6 Q225.174 1538.71 226.979 1542.27 Q228.808 1545.82 232.419 1545.82 Q236.053 1545.82 237.859 1542.27 Q239.688 1538.71 239.688 1531.6 Q239.688 1524.47 237.859 1520.93 Q236.053 1517.37 232.419 1517.37 M232.419 1513.66 Q238.229 1513.66 241.285 1518.27 Q244.363 1522.85 244.363 1531.6 Q244.363 1540.33 241.285 1544.94 Q238.229 1549.52 232.419 1549.52 Q226.609 1549.52 223.53 1544.94 Q220.475 1540.33 220.475 1531.6 Q220.475 1522.85 223.53 1518.27 Q226.609 1513.66 232.419 1513.66 Z" fill="#000000" fill-rule="nonzero" fill-opacity="1" /><path clip-path="url(#clip660)" d="M252.581 1542.97 L257.465 1542.97 L257.465 1548.85 L252.581 1548.85 L252.581 1542.97 Z" fill="#000000" fill-rule="nonzero" fill-opacity="1" /><path clip-path="url(#clip660)" d="M277.65 1517.37 Q274.039 1517.37 272.211 1520.93 Q270.405 1524.47 270.405 1531.6 Q270.405 1538.71 272.211 1542.27 Q274.039 1545.82 277.65 1545.82 Q281.285 1545.82 283.09 1542.27 Q284.919 1538.71 284.919 1531.6 Q284.919 1524.47 283.09 1520.93 Q281.285 1517.37 277.65 1517.37 M277.65 1513.66 Q283.46 1513.66 286.516 1518.27 Q289.595 1522.85 289.595 1531.6 Q289.595 1540.33 286.516 1544.94 Q283.46 1549.52 277.65 1549.52 Q271.84 1549.52 268.761 1544.94 Q265.706 1540.33 265.706 1531.6 Q265.706 1522.85 268.761 1518.27 Q271.84 1513.66 277.65 1513.66 Z" fill="#000000" fill-rule="nonzero" fill-opacity="1" /><path clip-path="url(#clip660)" d="M735.927 1544.91 L752.246 1544.91 L752.246 1548.85 L730.302 1548.85 L730.302 1544.91 Q732.964 1542.16 737.547 1537.53 Q742.153 1532.88 743.334 1531.53 Q745.579 1529.01 746.459 1527.27 Q747.362 1525.51 747.362 1523.82 Q747.362 1521.07 745.417 1519.33 Q743.496 1517.6 740.394 1517.6 Q738.195 1517.6 735.741 1518.36 Q733.311 1519.13 730.533 1520.68 L730.533 1515.95 Q733.357 1514.82 735.811 1514.24 Q738.265 1513.66 740.302 1513.66 Q745.672 1513.66 748.866 1516.35 Q752.061 1519.03 752.061 1523.52 Q752.061 1525.65 751.251 1527.57 Q750.464 1529.47 748.357 1532.07 Q747.778 1532.74 744.677 1535.95 Q741.575 1539.15 735.927 1544.91 Z" fill="#000000" fill-rule="nonzero" fill-opacity="1" /><path clip-path="url(#clip660)" d="M762.061 1542.97 L766.945 1542.97 L766.945 1548.85 L762.061 1548.85 L762.061 1542.97 Z" fill="#000000" fill-rule="nonzero" fill-opacity="1" /><path clip-path="url(#clip660)" d="M777.176 1514.29 L795.533 1514.29 L795.533 1518.22 L781.459 1518.22 L781.459 1526.7 Q782.477 1526.35 783.496 1526.19 Q784.514 1526 785.533 1526 Q791.32 1526 794.699 1529.17 Q798.079 1532.34 798.079 1537.76 Q798.079 1543.34 794.607 1546.44 Q791.135 1549.52 784.815 1549.52 Q782.639 1549.52 780.371 1549.15 Q778.125 1548.78 775.718 1548.04 L775.718 1543.34 Q777.801 1544.47 780.024 1545.03 Q782.246 1545.58 784.723 1545.58 Q788.727 1545.58 791.065 1543.48 Q793.403 1541.37 793.403 1537.76 Q793.403 1534.15 791.065 1532.04 Q788.727 1529.94 784.723 1529.94 Q782.848 1529.94 780.973 1530.35 Q779.121 1530.77 777.176 1531.65 L777.176 1514.29 Z" fill="#000000" fill-rule="nonzero" fill-opacity="1" /><path clip-path="url(#clip660)" d="M1240.51 1514.29 L1258.87 1514.29 L1258.87 1518.22 L1244.79 1518.22 L1244.79 1526.7 Q1245.81 1526.35 1246.83 1526.19 Q1247.85 1526 1248.87 1526 Q1254.65 1526 1258.03 1529.17 Q1261.41 1532.34 1261.41 1537.76 Q1261.41 1543.34 1257.94 1546.44 Q1254.47 1549.52 1248.15 1549.52 Q1245.97 1549.52 1243.7 1549.15 Q1241.46 1548.78 1239.05 1548.04 L1239.05 1543.34 Q1241.14 1544.47 1243.36 1545.03 Q1245.58 1545.58 1248.06 1545.58 Q1252.06 1545.58 1254.4 1543.48 Q1256.74 1541.37 1256.74 1537.76 Q1256.74 1534.15 1254.4 1532.04 Q1252.06 1529.94 1248.06 1529.94 Q1246.18 1529.94 1244.31 1530.35 Q1242.45 1530.77 1240.51 1531.65 L1240.51 1514.29 Z" fill="#000000" fill-rule="nonzero" fill-opacity="1" /><path clip-path="url(#clip660)" d="M1270.63 1542.97 L1275.51 1542.97 L1275.51 1548.85 L1270.63 1548.85 L1270.63 1542.97 Z" fill="#000000" fill-rule="nonzero" fill-opacity="1" /><path clip-path="url(#clip660)" d="M1295.7 1517.37 Q1292.08 1517.37 1290.26 1520.93 Q1288.45 1524.47 1288.45 1531.6 Q1288.45 1538.71 1290.26 1542.27 Q1292.08 1545.82 1295.7 1545.82 Q1299.33 1545.82 1301.14 1542.27 Q1302.96 1538.71 1302.96 1531.6 Q1302.96 1524.47 1301.14 1520.93 Q1299.33 1517.37 1295.7 1517.37 M1295.7 1513.66 Q1301.51 1513.66 1304.56 1518.27 Q1307.64 1522.85 1307.64 1531.6 Q1307.64 1540.33 1304.56 1544.94 Q1301.51 1549.52 1295.7 1549.52 Q1289.89 1549.52 1286.81 1544.94 Q1283.75 1540.33 1283.75 1531.6 Q1283.75 1522.85 1286.81 1518.27 Q1289.89 1513.66 1295.7 1513.66 Z" fill="#000000" fill-rule="nonzero" fill-opacity="1" /><path clip-path="url(#clip660)" d="M1748.82 1514.29 L1771.04 1514.29 L1771.04 1516.28 L1758.5 1548.85 L1753.61 1548.85 L1765.42 1518.22 L1748.82 1518.22 L1748.82 1514.29 Z" fill="#000000" fill-rule="nonzero" fill-opacity="1" /><path clip-path="url(#clip660)" d="M1780.16 1542.97 L1785.05 1542.97 L1785.05 1548.85 L1780.16 1548.85 L1780.16 1542.97 Z" fill="#000000" fill-rule="nonzero" fill-opacity="1" /><path clip-path="url(#clip660)" d="M1795.28 1514.29 L1813.64 1514.29 L1813.64 1518.22 L1799.56 1518.22 L1799.56 1526.7 Q1800.58 1526.35 1801.6 1526.19 Q1802.62 1526 1803.64 1526 Q1809.42 1526 1812.8 1529.17 Q1816.18 1532.34 1816.18 1537.76 Q1816.18 1543.34 1812.71 1546.44 Q1809.24 1549.52 1802.92 1549.52 Q1800.74 1549.52 1798.47 1549.15 Q1796.23 1548.78 1793.82 1548.04 L1793.82 1543.34 Q1795.9 1544.47 1798.13 1545.03 Q1800.35 1545.58 1802.83 1545.58 Q1806.83 1545.58 1809.17 1543.48 Q1811.51 1541.37 1811.51 1537.76 Q1811.51 1534.15 1809.17 1532.04 Q1806.83 1529.94 1802.83 1529.94 Q1800.95 1529.94 1799.08 1530.35 Q1797.22 1530.77 1795.28 1531.65 L1795.28 1514.29 Z" fill="#000000" fill-rule="nonzero" fill-opacity="1" /><path clip-path="url(#clip660)" d="M2243.73 1544.91 L2251.37 1544.91 L2251.37 1518.55 L2243.06 1520.21 L2243.06 1515.95 L2251.32 1514.29 L2256 1514.29 L2256 1544.91 L2263.64 1544.91 L2263.64 1548.85 L2243.73 1548.85 L2243.73 1544.91 Z" fill="#000000" fill-rule="nonzero" fill-opacity="1" /><path clip-path="url(#clip660)" d="M2283.08 1517.37 Q2279.47 1517.37 2277.64 1520.93 Q2275.84 1524.47 2275.84 1531.6 Q2275.84 1538.71 2277.64 1542.27 Q2279.47 1545.82 2283.08 1545.82 Q2286.72 1545.82 2288.52 1542.27 Q2290.35 1538.71 2290.35 1531.6 Q2290.35 1524.47 2288.52 1520.93 Q2286.72 1517.37 2283.08 1517.37 M2283.08 1513.66 Q2288.89 1513.66 2291.95 1518.27 Q2295.03 1522.85 2295.03 1531.6 Q2295.03 1540.33 2291.95 1544.94 Q2288.89 1549.52 2283.08 1549.52 Q2277.27 1549.52 2274.19 1544.94 Q2271.14 1540.33 2271.14 1531.6 Q2271.14 1522.85 2274.19 1518.27 Q2277.27 1513.66 2283.08 1513.66 Z" fill="#000000" fill-rule="nonzero" fill-opacity="1" /><path clip-path="url(#clip660)" d="M2303.24 1542.97 L2308.13 1542.97 L2308.13 1548.85 L2303.24 1548.85 L2303.24 1542.97 Z" fill="#000000" fill-rule="nonzero" fill-opacity="1" /><path clip-path="url(#clip660)" d="M2328.31 1517.37 Q2324.7 1517.37 2322.87 1520.93 Q2321.07 1524.47 2321.07 1531.6 Q2321.07 1538.71 2322.87 1542.27 Q2324.7 1545.82 2328.31 1545.82 Q2331.95 1545.82 2333.75 1542.27 Q2335.58 1538.71 2335.58 1531.6 Q2335.58 1524.47 2333.75 1520.93 Q2331.95 1517.37 2328.31 1517.37 M2328.31 1513.66 Q2334.12 1513.66 2337.18 1518.27 Q2340.26 1522.85 2340.26 1531.6 Q2340.26 1540.33 2337.18 1544.94 Q2334.12 1549.52 2328.31 1549.52 Q2322.5 1549.52 2319.42 1544.94 Q2316.37 1540.33 2316.37 1531.6 Q2316.37 1522.85 2319.42 1518.27 Q2322.5 1513.66 2328.31 1513.66 Z" fill="#000000" fill-rule="nonzero" fill-opacity="1" /><polyline clip-path="url(#clip660)" style="stroke:#000000; stroke-linecap:round; stroke-linejoin:round; stroke-width:4; stroke-opacity:1; fill:none" points="193.936,1486.45 193.936,47.2441 "/>
<polyline clip-path="url(#clip660)" style="stroke:#000000; stroke-linecap:round; stroke-linejoin:round; stroke-width:4; stroke-opacity:1; fill:none" points="193.936,1445.72 212.834,1445.72 "/>
<polyline clip-path="url(#clip660)" style="stroke:#000000; stroke-linecap:round; stroke-linejoin:round; stroke-width:4; stroke-opacity:1; fill:none" points="193.936,1106.28 212.834,1106.28 "/>
<polyline clip-path="url(#clip660)" style="stroke:#000000; stroke-linecap:round; stroke-linejoin:round; stroke-width:4; stroke-opacity:1; fill:none" points="193.936,766.846 212.834,766.846 "/>
<polyline clip-path="url(#clip660)" style="stroke:#000000; stroke-linecap:round; stroke-linejoin:round; stroke-width:4; stroke-opacity:1; fill:none" points="193.936,427.411 212.834,427.411 "/>
<polyline clip-path="url(#clip660)" style="stroke:#000000; stroke-linecap:round; stroke-linejoin:round; stroke-width:4; stroke-opacity:1; fill:none" points="193.936,87.9763 212.834,87.9763 "/>
<path clip-path="url(#clip660)" d="M50.9921 1446.17 L80.6679 1446.17 L80.6679 1450.1 L50.9921 1450.1 L50.9921 1446.17 Z" fill="#000000" fill-rule="nonzero" fill-opacity="1" /><path clip-path="url(#clip660)" d="M91.5706 1459.06 L99.2095 1459.06 L99.2095 1432.7 L90.8993 1434.36 L90.8993 1430.1 L99.1632 1428.44 L103.839 1428.44 L103.839 1459.06 L111.478 1459.06 L111.478 1463 L91.5706 1463 L91.5706 1459.06 Z" fill="#000000" fill-rule="nonzero" fill-opacity="1" /><path clip-path="url(#clip660)" d="M120.922 1457.12 L125.807 1457.12 L125.807 1463 L120.922 1463 L120.922 1457.12 Z" fill="#000000" fill-rule="nonzero" fill-opacity="1" /><path clip-path="url(#clip660)" d="M145.992 1431.52 Q142.381 1431.52 140.552 1435.08 Q138.746 1438.62 138.746 1445.75 Q138.746 1452.86 140.552 1456.42 Q142.381 1459.96 145.992 1459.96 Q149.626 1459.96 151.431 1456.42 Q153.26 1452.86 153.26 1445.75 Q153.26 1438.62 151.431 1435.08 Q149.626 1431.52 145.992 1431.52 M145.992 1427.81 Q151.802 1427.81 154.857 1432.42 Q157.936 1437 157.936 1445.75 Q157.936 1454.48 154.857 1459.08 Q151.802 1463.67 145.992 1463.67 Q140.181 1463.67 137.103 1459.08 Q134.047 1454.48 134.047 1445.75 Q134.047 1437 137.103 1432.42 Q140.181 1427.81 145.992 1427.81 Z" fill="#000000" fill-rule="nonzero" fill-opacity="1" /><path clip-path="url(#clip660)" d="M51.9875 1106.73 L81.6633 1106.73 L81.6633 1110.67 L51.9875 1110.67 L51.9875 1106.73 Z" fill="#000000" fill-rule="nonzero" fill-opacity="1" /><path clip-path="url(#clip660)" d="M101.756 1092.08 Q98.1447 1092.08 96.316 1095.64 Q94.5104 1099.19 94.5104 1106.32 Q94.5104 1113.42 96.316 1116.99 Q98.1447 1120.53 101.756 1120.53 Q105.39 1120.53 107.196 1116.99 Q109.024 1113.42 109.024 1106.32 Q109.024 1099.19 107.196 1095.64 Q105.39 1092.08 101.756 1092.08 M101.756 1088.38 Q107.566 1088.38 110.621 1092.98 Q113.7 1097.57 113.7 1106.32 Q113.7 1115.04 110.621 1119.65 Q107.566 1124.23 101.756 1124.23 Q95.9456 1124.23 92.8669 1119.65 Q89.8114 1115.04 89.8114 1106.32 Q89.8114 1097.57 92.8669 1092.98 Q95.9456 1088.38 101.756 1088.38 Z" fill="#000000" fill-rule="nonzero" fill-opacity="1" /><path clip-path="url(#clip660)" d="M121.918 1117.68 L126.802 1117.68 L126.802 1123.56 L121.918 1123.56 L121.918 1117.68 Z" fill="#000000" fill-rule="nonzero" fill-opacity="1" /><path clip-path="url(#clip660)" d="M137.033 1089 L155.39 1089 L155.39 1092.94 L141.316 1092.94 L141.316 1101.41 Q142.334 1101.06 143.353 1100.9 Q144.371 1100.71 145.39 1100.71 Q151.177 1100.71 154.556 1103.89 Q157.936 1107.06 157.936 1112.47 Q157.936 1118.05 154.464 1121.15 Q150.992 1124.23 144.672 1124.23 Q142.496 1124.23 140.228 1123.86 Q137.982 1123.49 135.575 1122.75 L135.575 1118.05 Q137.658 1119.19 139.881 1119.74 Q142.103 1120.3 144.58 1120.3 Q148.584 1120.3 150.922 1118.19 Q153.26 1116.08 153.26 1112.47 Q153.26 1108.86 150.922 1106.76 Q148.584 1104.65 144.58 1104.65 Q142.705 1104.65 140.83 1105.07 Q138.978 1105.48 137.033 1106.36 L137.033 1089 Z" fill="#000000" fill-rule="nonzero" fill-opacity="1" /><path clip-path="url(#clip660)" d="M100.76 752.645 Q97.1493 752.645 95.3206 756.21 Q93.515 759.752 93.515 766.881 Q93.515 773.988 95.3206 777.552 Q97.1493 781.094 100.76 781.094 Q104.395 781.094 106.2 777.552 Q108.029 773.988 108.029 766.881 Q108.029 759.752 106.2 756.21 Q104.395 752.645 100.76 752.645 M100.76 748.941 Q106.571 748.941 109.626 753.548 Q112.705 758.131 112.705 766.881 Q112.705 775.608 109.626 780.214 Q106.571 784.798 100.76 784.798 Q94.9502 784.798 91.8715 780.214 Q88.816 775.608 88.816 766.881 Q88.816 758.131 91.8715 753.548 Q94.9502 748.941 100.76 748.941 Z" fill="#000000" fill-rule="nonzero" fill-opacity="1" /><path clip-path="url(#clip660)" d="M120.922 778.247 L125.807 778.247 L125.807 784.126 L120.922 784.126 L120.922 778.247 Z" fill="#000000" fill-rule="nonzero" fill-opacity="1" /><path clip-path="url(#clip660)" d="M145.992 752.645 Q142.381 752.645 140.552 756.21 Q138.746 759.752 138.746 766.881 Q138.746 773.988 140.552 777.552 Q142.381 781.094 145.992 781.094 Q149.626 781.094 151.431 777.552 Q153.26 773.988 153.26 766.881 Q153.26 759.752 151.431 756.21 Q149.626 752.645 145.992 752.645 M145.992 748.941 Q151.802 748.941 154.857 753.548 Q157.936 758.131 157.936 766.881 Q157.936 775.608 154.857 780.214 Q151.802 784.798 145.992 784.798 Q140.181 784.798 137.103 780.214 Q134.047 775.608 134.047 766.881 Q134.047 758.131 137.103 753.548 Q140.181 748.941 145.992 748.941 Z" fill="#000000" fill-rule="nonzero" fill-opacity="1" /><path clip-path="url(#clip660)" d="M101.756 413.21 Q98.1447 413.21 96.316 416.775 Q94.5104 420.316 94.5104 427.446 Q94.5104 434.553 96.316 438.117 Q98.1447 441.659 101.756 441.659 Q105.39 441.659 107.196 438.117 Q109.024 434.553 109.024 427.446 Q109.024 420.316 107.196 416.775 Q105.39 413.21 101.756 413.21 M101.756 409.506 Q107.566 409.506 110.621 414.113 Q113.7 418.696 113.7 427.446 Q113.7 436.173 110.621 440.779 Q107.566 445.363 101.756 445.363 Q95.9456 445.363 92.8669 440.779 Q89.8114 436.173 89.8114 427.446 Q89.8114 418.696 92.8669 414.113 Q95.9456 409.506 101.756 409.506 Z" fill="#000000" fill-rule="nonzero" fill-opacity="1" /><path clip-path="url(#clip660)" d="M121.918 438.812 L126.802 438.812 L126.802 444.691 L121.918 444.691 L121.918 438.812 Z" fill="#000000" fill-rule="nonzero" fill-opacity="1" /><path clip-path="url(#clip660)" d="M137.033 410.131 L155.39 410.131 L155.39 414.067 L141.316 414.067 L141.316 422.539 Q142.334 422.191 143.353 422.029 Q144.371 421.844 145.39 421.844 Q151.177 421.844 154.556 425.016 Q157.936 428.187 157.936 433.603 Q157.936 439.182 154.464 442.284 Q150.992 445.363 144.672 445.363 Q142.496 445.363 140.228 444.992 Q137.982 444.622 135.575 443.881 L135.575 439.182 Q137.658 440.316 139.881 440.872 Q142.103 441.427 144.58 441.427 Q148.584 441.427 150.922 439.321 Q153.26 437.215 153.26 433.603 Q153.26 429.992 150.922 427.886 Q148.584 425.779 144.58 425.779 Q142.705 425.779 140.83 426.196 Q138.978 426.613 137.033 427.492 L137.033 410.131 Z" fill="#000000" fill-rule="nonzero" fill-opacity="1" /><path clip-path="url(#clip660)" d="M91.5706 101.321 L99.2095 101.321 L99.2095 74.9555 L90.8993 76.6222 L90.8993 72.3629 L99.1632 70.6963 L103.839 70.6963 L103.839 101.321 L111.478 101.321 L111.478 105.256 L91.5706 105.256 L91.5706 101.321 Z" fill="#000000" fill-rule="nonzero" fill-opacity="1" /><path clip-path="url(#clip660)" d="M120.922 99.3767 L125.807 99.3767 L125.807 105.256 L120.922 105.256 L120.922 99.3767 Z" fill="#000000" fill-rule="nonzero" fill-opacity="1" /><path clip-path="url(#clip660)" d="M145.992 73.775 Q142.381 73.775 140.552 77.3398 Q138.746 80.8814 138.746 88.011 Q138.746 95.1174 140.552 98.6822 Q142.381 102.224 145.992 102.224 Q149.626 102.224 151.431 98.6822 Q153.26 95.1174 153.26 88.011 Q153.26 80.8814 151.431 77.3398 Q149.626 73.775 145.992 73.775 M145.992 70.0713 Q151.802 70.0713 154.857 74.6777 Q157.936 79.261 157.936 88.011 Q157.936 96.7378 154.857 101.344 Q151.802 105.928 145.992 105.928 Q140.181 105.928 137.103 101.344 Q134.047 96.7378 134.047 88.011 Q134.047 79.261 137.103 74.6777 Q140.181 70.0713 145.992 70.0713 Z" fill="#000000" fill-rule="nonzero" fill-opacity="1" /><polyline clip-path="url(#clip662)" style="stroke:#009af9; stroke-linecap:round; stroke-linejoin:round; stroke-width:8; stroke-opacity:1; fill:none" points="255.035,87.9763 257.071,88.0102 259.108,88.112 261.145,88.2817 263.181,88.5193 265.218,88.8247 267.254,89.1979 269.291,89.6388 271.328,90.1475 273.364,90.7238 275.401,91.3678 277.438,92.0793 279.474,92.8583 281.511,93.7047 283.547,94.6183 285.584,95.5993 287.621,96.6473 289.657,97.7623 291.694,98.9443 293.731,100.193 295.767,101.508 297.804,102.89 299.84,104.339 301.877,105.853 303.914,107.434 305.95,109.081 307.987,110.793 310.023,112.571 312.06,114.415 314.097,116.323 316.133,118.297 318.17,120.336 320.207,122.439 322.243,124.607 324.28,126.838 326.316,129.134 328.353,131.494 330.39,133.917 332.426,136.404 334.463,138.953 336.5,141.566 338.536,144.24 340.573,146.978 342.609,149.777 344.646,152.638 346.683,155.56 348.719,158.543 350.756,161.587 352.793,164.692 354.829,167.857 356.866,171.082 358.902,174.366 360.939,177.71 362.976,181.112 365.012,184.574 367.049,188.093 369.086,191.67 371.122,195.305 373.159,198.997 375.195,202.746 377.232,206.551 379.269,210.412 381.305,214.329 383.342,218.301 385.379,222.328 387.415,226.409 389.452,230.544 391.488,234.733 393.525,238.976 395.562,243.271 397.598,247.618 399.635,252.017 401.671,256.468 403.708,260.97 405.745,265.522 407.781,270.125 409.818,274.777 411.855,279.478 413.891,284.228 415.928,289.027 417.964,293.873 420.001,298.767 422.038,303.707 424.074,308.693 426.111,313.726 428.148,318.804 430.184,323.926 432.221,329.093 434.257,334.304 436.294,339.557 438.331,344.854 440.367,350.193 442.404,355.573 444.441,360.995 446.477,366.457 448.514,371.959 450.55,377.501 452.587,383.081 454.624,388.7 456.66,394.357 458.697,400.051 460.734,405.782 462.77,411.549 464.807,417.351 466.843,423.189 468.88,429.06 470.917,434.966 472.953,440.904 474.99,446.876 477.027,452.879 479.063,458.914 481.1,464.979 483.136,471.075 485.173,477.2 487.21,483.354 489.246,489.536 491.283,495.747 493.32,501.984 495.356,508.248 497.393,514.538 499.429,520.853 501.466,527.192 503.503,533.556 505.539,539.942 507.576,546.352 509.612,552.783 511.649,559.236 513.686,565.71 515.722,572.204 517.759,578.717 519.796,585.249 521.832,591.8 523.869,598.368 525.905,604.952 527.942,611.553 529.979,618.169 532.015,624.801 534.052,631.446 536.089,638.105 538.125,644.777 540.162,651.461 542.198,658.156 544.235,664.863 546.272,671.579 548.308,678.306 550.345,685.041 552.382,691.784 554.418,698.535 556.455,705.292 558.491,712.056 560.528,718.825 562.565,725.599 564.601,732.377 566.638,739.159 568.675,745.943 570.711,752.729 572.748,759.517 574.784,766.306 576.821,773.094 578.858,779.882 580.894,786.669 582.931,793.454 584.968,800.236 587.004,807.015 589.041,813.789 591.077,820.559 593.114,827.324 595.151,834.082 597.187,840.834 599.224,847.579 601.261,854.315 603.297,861.043 605.334,867.761 607.37,874.469 609.407,881.166 611.444,887.852 613.48,894.526 615.517,901.187 617.553,907.835 619.59,914.468 621.627,921.087 623.663,927.69 625.7,934.278 627.737,940.848 629.773,947.401 631.81,953.936 633.846,960.453 635.883,966.95 637.92,973.427 639.956,979.883 641.993,986.318 644.03,992.731 646.066,999.122 648.103,1005.49 650.139,1011.83 652.176,1018.15 654.213,1024.44 656.249,1030.71 658.286,1036.95 660.323,1043.17 662.359,1049.36 664.396,1055.51 666.432,1061.64 668.469,1067.75 670.506,1073.82 672.542,1079.85 674.579,1085.86 676.616,1091.84 678.652,1097.78 680.689,1103.69 682.725,1109.57 684.762,1115.41 686.799,1121.22 688.835,1126.99 690.872,1132.73 692.909,1138.43 694.945,1144.09 696.982,1149.72 699.018,1155.31 701.055,1160.85 703.092,1166.36 705.128,1171.83 707.165,1177.26 709.202,1182.65 711.238,1187.99 713.275,1193.29 715.311,1198.56 717.348,1203.77 719.385,1208.95 721.421,1214.08 723.458,1219.16 725.494,1224.2 727.531,1229.19 729.568,1234.14 731.604,1239.04 733.641,1243.9 735.678,1248.7 737.714,1253.46 739.751,1258.17 741.787,1262.83 743.824,1267.44 745.861,1272 747.897,1276.51 749.934,1280.97 751.971,1285.38 754.007,1289.73 756.044,1294.04 758.08,1298.29 760.117,1302.48 762.154,1306.63 764.19,1310.72 766.227,1314.75 768.264,1318.74 770.3,1322.66 772.337,1326.53 774.373,1330.34 776.41,1334.1 778.447,1337.8 780.483,1341.45 782.52,1345.03 784.557,1348.56 786.593,1352.03 788.63,1355.44 790.666,1358.8 792.703,1362.09 794.74,1365.33 796.776,1368.5 798.813,1371.62 800.85,1374.67 802.886,1377.66 804.923,1380.59 806.959,1383.46 808.996,1386.27 811.033,1389.02 813.069,1391.71 815.106,1394.33 817.142,1396.89 819.179,1399.38 821.216,1401.82 823.252,1404.19 825.289,1406.49 827.326,1408.74 829.362,1410.91 831.399,1413.03 833.435,1415.08 835.472,1417.06 837.509,1418.98 839.545,1420.83 841.582,1422.62 843.619,1424.34 845.655,1426 847.692,1427.59 849.728,1429.12 851.765,1430.58 853.802,1431.97 855.838,1433.29 857.875,1434.55 859.912,1435.75 861.948,1436.87 863.985,1437.93 866.021,1438.92 868.058,1439.85 870.095,1440.7 872.131,1441.49 874.168,1442.22 876.205,1442.87 878.241,1443.46 880.278,1443.98 882.314,1444.43 884.351,1444.81 886.388,1445.13 888.424,1445.38 890.461,1445.56 892.498,1445.67 894.534,1445.72 896.571,1445.69 898.607,1445.6 900.644,1445.44 902.681,1445.22 904.717,1444.92 906.754,1444.56 908.791,1444.13 910.827,1443.63 912.864,1443.07 914.9,1442.43 916.937,1441.73 918.974,1440.96 921.01,1440.13 923.047,1439.22 925.083,1438.25 927.12,1437.22 929.157,1436.11 931.193,1434.94 933.23,1433.7 935.267,1432.4 937.303,1431.03 939.34,1429.59 941.376,1428.09 943.413,1426.51 945.45,1424.88 947.486,1423.18 949.523,1421.41 951.56,1419.58 953.596,1417.68 955.633,1415.71 957.669,1413.69 959.706,1411.59 961.743,1409.44 963.779,1407.21 965.816,1404.93 967.853,1402.58 969.889,1400.17 971.926,1397.69 973.962,1395.15 975.999,1392.55 978.036,1389.88 980.072,1387.16 982.109,1384.37 984.146,1381.52 986.182,1378.6 988.219,1375.63 990.255,1372.59 992.292,1369.5 994.329,1366.34 996.365,1363.13 998.402,1359.85 1000.44,1356.52 1002.48,1353.13 1004.51,1349.67 1006.55,1346.16 1008.59,1342.6 1010.62,1338.97 1012.66,1335.29 1014.69,1331.55 1016.73,1327.75 1018.77,1323.9 1020.8,1319.99 1022.84,1316.03 1024.88,1312.01 1026.91,1307.94 1028.95,1303.81 1030.99,1299.63 1033.02,1295.4 1035.06,1291.11 1037.1,1286.77 1039.13,1282.38 1041.17,1277.94 1043.21,1273.44 1045.24,1268.9 1047.28,1264.3 1049.32,1259.66 1051.35,1254.97 1053.39,1250.22 1055.43,1245.43 1057.46,1240.59 1059.5,1235.71 1061.54,1230.78 1063.57,1225.8 1065.61,1220.77 1067.65,1215.7 1069.68,1210.59 1071.72,1205.43 1073.76,1200.22 1075.79,1194.98 1077.83,1189.69 1079.87,1184.35 1081.9,1178.98 1083.94,1173.56 1085.98,1168.11 1088.01,1162.61 1090.05,1157.08 1092.09,1151.5 1094.12,1145.89 1096.16,1140.24 1098.2,1134.55 1100.23,1128.83 1102.27,1123.06 1104.31,1117.27 1106.34,1111.44 1108.38,1105.57 1110.42,1099.67 1112.45,1093.74 1114.49,1087.77 1116.53,1081.77 1118.56,1075.74 1120.6,1069.68 1122.64,1063.59 1124.67,1057.47 1126.71,1051.32 1128.75,1045.14 1130.78,1038.94 1132.82,1032.7 1134.86,1026.44 1136.89,1020.16 1138.93,1013.85 1140.97,1007.51 1143,1001.15 1145.04,994.769 1147.08,988.363 1149.11,981.935 1151.15,975.486 1153.19,969.015 1155.22,962.524 1157.26,956.014 1159.3,949.485 1161.33,942.938 1163.37,936.372 1165.4,929.79 1167.44,923.192 1169.48,916.578 1171.51,909.949 1173.55,903.306 1175.59,896.649 1177.62,889.98 1179.66,883.297 1181.7,876.604 1183.73,869.899 1185.77,863.184 1187.81,856.459 1189.84,849.725 1191.88,842.983 1193.92,836.234 1195.95,829.477 1197.99,822.715 1200.03,815.946 1202.06,809.173 1204.1,802.395 1206.14,795.614 1208.17,788.83 1210.21,782.044 1212.25,775.257 1214.28,768.468 1216.32,761.68 1218.36,754.891 1220.39,748.104 1222.43,741.319 1224.47,734.537 1226.5,727.758 1228.54,720.982 1230.58,714.211 1232.61,707.446 1234.65,700.686 1236.69,693.933 1238.72,687.188 1240.76,680.45 1242.8,673.721 1244.83,667.001 1246.87,660.291 1248.91,653.592 1250.94,646.905 1252.98,640.229 1255.02,633.566 1257.05,626.916 1259.09,620.28 1261.13,613.659 1263.16,607.053 1265.2,600.463 1267.24,593.89 1269.27,587.334 1271.31,580.796 1273.35,574.277 1275.38,567.777 1277.42,561.296 1279.46,554.837 1281.49,548.398 1283.53,541.982 1285.57,535.587 1287.6,529.216 1289.64,522.869 1291.68,516.546 1293.71,510.249 1295.75,503.976 1297.79,497.731 1299.82,491.512 1301.86,485.32 1303.9,479.157 1305.93,473.022 1307.97,466.917 1310.01,460.842 1312.04,454.798 1314.08,448.784 1316.12,442.803 1318.15,436.854 1320.19,430.938 1322.22,425.055 1324.26,419.207 1326.3,413.393 1328.33,407.615 1330.37,401.873 1332.41,396.167 1334.44,390.498 1336.48,384.867 1338.52,379.274 1340.55,373.72 1342.59,368.205 1344.63,362.73 1346.66,357.296 1348.7,351.902 1350.74,346.55 1352.77,341.24 1354.81,335.972 1356.85,330.748 1358.88,325.567 1360.92,320.43 1362.96,315.338 1364.99,310.291 1367.03,305.29 1369.07,300.335 1371.1,295.427 1373.14,290.565 1375.18,285.752 1377.21,280.986 1379.25,276.269 1381.29,271.601 1383.32,266.983 1385.36,262.414 1387.4,257.896 1389.43,253.429 1391.47,249.014 1393.51,244.65 1395.54,240.338 1397.58,236.079 1399.62,231.873 1401.65,227.72 1403.69,223.622 1405.73,219.577 1407.76,215.588 1409.8,211.653 1411.84,207.775 1413.87,203.952 1415.91,200.185 1417.95,196.475 1419.98,192.822 1422.02,189.226 1424.06,185.688 1426.09,182.209 1428.13,178.787 1430.17,175.425 1432.2,172.122 1434.24,168.878 1436.28,165.694 1438.31,162.57 1440.35,159.506 1442.39,156.503 1444.42,153.562 1446.46,150.681 1448.5,147.862 1450.53,145.106 1452.57,142.411 1454.61,139.779 1456.64,137.209 1458.68,134.702 1460.72,132.259 1462.75,129.879 1464.79,127.563 1466.83,125.31 1468.86,123.122 1470.9,120.999 1472.93,118.939 1474.97,116.945 1477.01,115.015 1479.04,113.151 1481.08,111.352 1483.12,109.619 1485.15,107.951 1487.19,106.35 1489.23,104.814 1491.26,103.345 1493.3,101.941 1495.34,100.605 1497.37,99.3348 1499.41,98.1316 1501.45,96.9952 1503.48,95.9258 1505.52,94.9235 1507.56,93.9884 1509.59,93.1206 1511.63,92.3201 1513.67,91.5871 1515.7,90.9216 1517.74,90.3237 1519.78,89.7935 1521.81,89.331 1523.85,88.9362 1525.89,88.6092 1527.92,88.3501 1529.96,88.1587 1532,88.0353 1534.03,87.9797 1536.07,87.992 1538.11,88.0722 1540.14,88.2203 1542.18,88.4363 1544.22,88.7201 1546.25,89.0716 1548.29,89.491 1550.33,89.9781 1552.36,90.5329 1554.4,91.1553 1556.44,91.8453 1558.47,92.6028 1560.51,93.4277 1562.55,94.32 1564.58,95.2795 1566.62,96.3062 1568.66,97.3999 1570.69,98.5606 1572.73,99.7881 1574.77,101.082 1576.8,102.443 1578.84,103.87 1580.88,105.364 1582.91,106.923 1584.95,108.549 1586.99,110.241 1589.02,111.998 1591.06,113.82 1593.1,115.708 1595.13,117.661 1597.17,119.679 1599.21,121.762 1601.24,123.909 1603.28,126.121 1605.32,128.396 1607.35,130.735 1609.39,133.138 1611.43,135.605 1613.46,138.134 1615.5,140.727 1617.54,143.382 1619.57,146.099 1621.61,148.878 1623.65,151.72 1625.68,154.622 1627.72,157.586 1629.75,160.611 1631.79,163.697 1633.83,166.842 1635.86,170.048 1637.9,173.314 1639.94,176.638 1641.97,180.022 1644.01,183.465 1646.05,186.966 1648.08,190.524 1650.12,194.141 1652.16,197.815 1654.19,201.545 1656.23,205.333 1658.27,209.176 1660.3,213.075 1662.34,217.029 1664.38,221.039 1666.41,225.103 1668.45,229.221 1670.49,233.393 1672.52,237.618 1674.56,241.897 1676.6,246.227 1678.63,250.61 1680.67,255.045 1682.71,259.53 1684.74,264.067 1686.78,268.653 1688.82,273.29 1690.85,277.975 1692.89,282.71 1694.93,287.493 1696.96,292.324 1699,297.203 1701.04,302.128 1703.07,307.1 1705.11,312.118 1707.15,317.181 1709.18,322.29 1711.22,327.442 1713.26,332.639 1715.29,337.879 1717.33,343.162 1719.37,348.488 1721.4,353.855 1723.44,359.263 1725.48,364.713 1727.51,370.202 1729.55,375.731 1731.59,381.3 1733.62,386.906 1735.66,392.551 1737.7,398.234 1739.73,403.953 1741.77,409.708 1743.81,415.499 1745.84,421.325 1747.88,427.186 1749.92,433.081 1751.95,439.009 1753.99,444.97 1756.03,450.963 1758.06,456.988 1760.1,463.044 1762.14,469.13 1764.17,475.246 1766.21,481.391 1768.25,487.564 1770.28,493.766 1772.32,499.994 1774.36,506.25 1776.39,512.531 1778.43,518.838 1780.46,525.17 1782.5,531.526 1784.54,537.906 1786.57,544.308 1788.61,550.732 1790.65,557.179 1792.68,563.646 1794.72,570.133 1796.76,576.641 1798.79,583.167 1800.83,589.711 1802.87,596.274 1804.9,602.853 1806.94,609.449 1808.98,616.06 1811.01,622.687 1813.05,629.328 1815.09,635.982 1817.12,642.65 1819.16,649.33 1821.2,656.022 1823.23,662.725 1825.27,669.439 1827.31,676.162 1829.34,682.894 1831.38,689.635 1833.42,696.384 1835.45,703.139 1837.49,709.901 1839.53,716.668 1841.56,723.441 1843.6,730.218 1845.64,736.998 1847.67,743.782 1849.71,750.568 1851.75,757.355 1853.78,764.143 1855.82,770.932 1857.86,777.72 1859.89,784.508 1861.93,791.293 1863.97,798.076 1866,804.856 1868.04,811.632 1870.08,818.403 1872.11,825.17 1874.15,831.93 1876.19,838.684 1878.22,845.431 1880.26,852.17 1882.3,858.901 1884.33,865.622 1886.37,872.333 1888.41,879.034 1890.44,885.724 1892.48,892.402 1894.52,899.067 1896.55,905.719 1898.59,912.357 1900.63,918.98 1902.66,925.589 1904.7,932.181 1906.74,938.757 1908.77,945.316 1910.81,951.857 1912.85,958.379 1914.88,964.882 1916.92,971.366 1918.96,977.829 1920.99,984.271 1923.03,990.691 1925.07,997.089 1927.1,1003.46 1929.14,1009.81 1931.18,1016.14 1933.21,1022.44 1935.25,1028.72 1937.28,1034.97 1939.32,1041.19 1941.36,1047.39 1943.39,1053.56 1945.43,1059.7 1947.47,1065.81 1949.5,1071.89 1951.54,1077.93 1953.58,1083.95 1955.61,1089.94 1957.65,1095.89 1959.69,1101.82 1961.72,1107.7 1963.76,1113.56 1965.8,1119.38 1967.83,1125.16 1969.87,1130.91 1971.91,1136.62 1973.94,1142.29 1975.98,1147.93 1978.02,1153.53 1980.05,1159.09 1982.09,1164.61 1984.13,1170.09 1986.16,1175.53 1988.2,1180.93 1990.24,1186.29 1992.27,1191.61 1994.31,1196.88 1996.35,1202.12 1998.38,1207.3 2000.42,1212.45 2002.46,1217.55 2004.49,1222.6 2006.53,1227.61 2008.57,1232.57 2010.6,1237.49 2012.64,1242.36 2014.68,1247.18 2016.71,1251.95 2018.75,1256.68 2020.79,1261.35 2022.82,1265.98 2024.86,1270.55 2026.9,1275.08 2028.93,1279.56 2030.97,1283.98 2033.01,1288.35 2035.04,1292.67 2037.08,1296.94 2039.12,1301.15 2041.15,1305.31 2043.19,1309.42 2045.23,1313.47 2047.26,1317.47 2049.3,1321.42 2051.34,1325.3 2053.37,1329.14 2055.41,1332.91 2057.45,1336.63 2059.48,1340.29 2061.52,1343.9 2063.56,1347.44 2065.59,1350.93 2067.63,1354.36 2069.67,1357.74 2071.7,1361.05 2073.74,1364.3 2075.78,1367.5 2077.81,1370.63 2079.85,1373.7 2081.89,1376.72 2083.92,1379.67 2085.96,1382.56 2087.99,1385.39 2090.03,1388.15 2092.07,1390.86 2094.1,1393.5 2096.14,1396.08 2098.18,1398.6 2100.21,1401.05 2102.25,1403.44 2104.29,1405.77 2106.32,1408.03 2108.36,1410.23 2110.4,1412.36 2112.43,1414.43 2114.47,1416.43 2116.51,1418.37 2118.54,1420.25 2120.58,1422.06 2122.62,1423.8 2124.65,1425.48 2126.69,1427.09 2128.73,1428.64 2130.76,1430.12 2132.8,1431.53 2134.84,1432.88 2136.87,1434.16 2138.91,1435.37 2140.95,1436.52 2142.98,1437.6 2145.02,1438.61 2147.06,1439.56 2149.09,1440.44 2151.13,1441.25 2153.17,1441.99 2155.2,1442.67 2157.24,1443.28 2159.28,1443.82 2161.31,1444.29 2163.35,1444.7 2165.39,1445.04 2167.42,1445.31 2169.46,1445.51 2171.5,1445.64 2173.53,1445.71 2175.57,1445.71 2177.61,1445.64 2179.64,1445.5 2181.68,1445.3 2183.72,1445.02 2185.75,1444.68 2187.79,1444.27 2189.83,1443.8 2191.86,1443.25 2193.9,1442.64 2195.94,1441.96 2197.97,1441.22 2200.01,1440.4 2202.05,1439.52 2204.08,1438.57 2206.12,1437.55 2208.16,1436.47 2210.19,1435.32 2212.23,1434.1 2214.27,1432.82 2216.3,1431.47 2218.34,1430.05 2220.38,1428.57 2222.41,1427.02 2224.45,1425.41 2226.49,1423.73 2228.52,1421.98 2230.56,1420.17 2232.6,1418.29 2234.63,1416.35 2236.67,1414.34 2238.71,1412.27 2240.74,1410.13 2242.78,1407.93 2244.81,1405.66 2246.85,1403.33 2248.89,1400.94 2250.92,1398.49 2252.96,1395.97 2255,1393.38 2257.03,1390.74 2259.07,1388.03 2261.11,1385.26 2263.14,1382.43 2265.18,1379.54 2267.22,1376.58 2269.25,1373.57 2271.29,1370.49 2273.33,1367.36 2275.36,1364.16 2277.4,1360.9 2279.44,1357.59 2281.47,1354.21 2283.51,1350.78 2285.55,1347.29 2287.58,1343.74 2289.62,1340.13 2291.66,1336.47 "/>
<polyline clip-path="url(#clip662)" style="stroke:#e26f46; stroke-linecap:round; stroke-linejoin:round; stroke-width:8; stroke-opacity:1; fill:none" points="255.035,766.846 257.071,760.058 259.108,753.27 261.145,746.483 263.181,739.699 265.218,732.917 267.254,726.139 269.291,719.364 271.328,712.595 273.364,705.831 275.401,699.072 277.438,692.321 279.474,685.577 281.511,678.842 283.547,672.115 285.584,665.397 287.621,658.69 289.657,651.994 291.694,645.309 293.731,638.636 295.767,631.976 297.804,625.329 299.84,618.697 301.877,612.079 303.914,605.477 305.95,598.891 307.987,592.322 310.023,585.77 312.06,579.237 314.097,572.722 316.133,566.227 318.17,559.751 320.207,553.297 322.243,546.863 324.28,540.452 326.316,534.063 328.353,527.698 330.39,521.356 332.426,515.04 334.463,508.748 336.5,502.482 338.536,496.242 340.573,490.03 342.609,483.845 344.646,477.689 346.683,471.561 348.719,465.463 350.756,459.395 352.793,453.358 354.829,447.353 356.866,441.379 358.902,435.437 360.939,429.529 362.976,423.655 365.012,417.815 367.049,412.01 369.086,406.24 371.122,400.506 373.159,394.809 375.195,389.15 377.232,383.528 379.269,377.944 381.305,372.399 383.342,366.894 385.379,361.428 387.415,356.003 389.452,350.62 391.488,345.278 393.525,339.978 395.562,334.72 397.598,329.506 399.635,324.336 401.671,319.21 403.708,314.129 405.745,309.092 407.781,304.102 409.818,299.158 411.855,294.261 413.891,289.411 415.928,284.609 417.964,279.855 420.001,275.149 422.038,270.493 424.074,265.887 426.111,261.33 428.148,256.825 430.184,252.37 432.221,247.966 434.257,243.615 436.294,239.316 438.331,235.069 440.367,230.876 442.404,226.736 444.441,222.651 446.477,218.619 448.514,214.643 450.55,210.722 452.587,206.856 454.624,203.047 456.66,199.293 458.697,195.597 460.734,191.958 462.77,188.376 464.807,184.852 466.843,181.386 468.88,177.979 470.917,174.63 472.953,171.341 474.99,168.112 477.027,164.942 479.063,161.832 481.1,158.783 483.136,155.795 485.173,152.868 487.21,150.002 489.246,147.198 491.283,144.456 493.32,141.776 495.356,139.159 497.393,136.604 499.429,134.113 501.466,131.685 503.503,129.32 505.539,127.019 507.576,124.782 509.612,122.609 511.649,120.501 513.686,118.457 515.722,116.478 517.759,114.564 519.796,112.716 521.832,110.932 523.869,109.215 525.905,107.563 527.942,105.977 529.979,104.457 532.015,103.003 534.052,101.616 536.089,100.295 538.125,99.0413 540.162,97.854 542.198,96.7336 544.235,95.6803 546.272,94.694 548.308,93.7749 550.345,92.9232 552.382,92.1389 554.418,91.422 556.455,90.7726 558.491,90.1909 560.528,89.6769 562.565,89.2305 564.601,88.8519 566.638,88.5411 568.675,88.2982 570.711,88.1231 572.748,88.0158 574.784,87.9765 576.821,88.005 578.858,88.1015 580.894,88.2657 582.931,88.4979 584.968,88.7979 587.004,89.1657 589.041,89.6012 591.077,90.1045 593.114,90.6755 595.151,91.314 597.187,92.0202 599.224,92.7938 601.261,93.6348 603.297,94.5431 605.334,95.5187 607.37,96.5614 609.407,97.6711 611.444,98.8477 613.48,100.091 615.517,101.401 617.553,102.778 619.59,104.221 621.627,105.73 623.663,107.306 625.7,108.947 627.737,110.654 629.773,112.427 631.81,114.265 633.846,116.169 635.883,118.137 637.92,120.171 639.956,122.269 641.993,124.432 644.03,126.658 646.066,128.949 648.103,131.304 650.139,133.722 652.176,136.203 654.213,138.748 656.249,141.355 658.286,144.025 660.323,146.757 662.359,149.552 664.396,152.407 666.432,155.325 668.469,158.303 670.506,161.343 672.542,164.443 674.579,167.603 676.616,170.823 678.652,174.103 680.689,177.441 682.725,180.839 684.762,184.296 686.799,187.811 688.835,191.383 690.872,195.013 692.909,198.701 694.945,202.445 696.982,206.246 699.018,210.102 701.055,214.015 703.092,217.982 705.128,222.005 707.165,226.082 709.202,230.213 711.238,234.398 713.275,238.636 715.311,242.927 717.348,247.27 719.385,251.665 721.421,256.112 723.458,260.609 725.494,265.158 727.531,269.756 729.568,274.405 731.604,279.102 733.641,283.848 735.678,288.643 737.714,293.485 739.751,298.375 741.787,303.312 743.824,308.295 745.861,313.323 747.897,318.398 749.934,323.517 751.971,328.68 754.007,333.887 756.044,339.137 758.08,344.431 760.117,349.766 762.154,355.143 764.19,360.562 766.227,366.02 768.264,371.52 770.3,377.058 772.337,382.636 774.373,388.252 776.41,393.905 778.447,399.597 780.483,405.324 782.52,411.088 784.557,416.888 786.593,422.722 788.63,428.591 790.666,434.494 792.703,440.43 794.74,446.399 796.776,452.4 798.813,458.432 800.85,464.495 802.886,470.588 804.923,476.711 806.959,482.863 808.996,489.043 811.033,495.251 813.069,501.486 815.106,507.748 817.142,514.036 819.179,520.349 821.216,526.686 823.252,533.048 825.289,539.433 827.326,545.841 829.362,552.271 831.399,558.722 833.435,565.194 835.472,571.686 837.509,578.198 839.545,584.729 841.582,591.277 843.619,597.844 845.655,604.427 847.692,611.027 849.728,617.642 851.765,624.272 853.802,630.916 855.838,637.574 857.875,644.245 859.912,650.928 861.948,657.623 863.985,664.328 866.021,671.044 868.058,677.77 870.095,684.504 872.131,691.247 874.168,697.997 876.205,704.754 878.241,711.517 880.278,718.286 882.314,725.059 884.351,731.837 886.388,738.619 888.424,745.403 890.461,752.189 892.498,758.977 894.534,765.765 896.571,772.554 898.607,779.342 900.644,786.129 902.681,792.914 904.717,799.696 906.754,806.475 908.791,813.25 910.827,820.02 912.864,826.785 914.9,833.544 916.937,840.297 918.974,847.042 921.01,853.779 923.047,860.507 925.083,867.226 927.12,873.935 929.157,880.633 931.193,887.32 933.23,893.995 935.267,900.657 937.303,907.306 939.34,913.941 941.376,920.561 943.413,927.165 945.45,933.754 947.486,940.326 949.523,946.88 951.56,953.417 953.596,959.935 955.633,966.433 957.669,972.912 959.706,979.37 961.743,985.806 963.779,992.221 965.816,998.614 967.853,1004.98 969.889,1011.33 971.926,1017.65 973.962,1023.94 975.999,1030.21 978.036,1036.46 980.072,1042.68 982.109,1048.86 984.146,1055.03 986.182,1061.16 988.219,1067.26 990.255,1073.33 992.292,1079.38 994.329,1085.39 996.365,1091.36 998.402,1097.31 1000.44,1103.22 1002.48,1109.1 1004.51,1114.95 1006.55,1120.76 1008.59,1126.54 1010.62,1132.28 1012.66,1137.98 1014.69,1143.64 1016.73,1149.27 1018.77,1154.86 1020.8,1160.41 1022.84,1165.93 1024.88,1171.4 1026.91,1176.83 1028.95,1182.22 1030.99,1187.57 1033.02,1192.87 1035.06,1198.14 1037.1,1203.36 1039.13,1208.54 1041.17,1213.67 1043.21,1218.76 1045.24,1223.8 1047.28,1228.8 1049.32,1233.75 1051.35,1238.66 1053.39,1243.51 1055.43,1248.32 1057.46,1253.08 1059.5,1257.8 1061.54,1262.46 1063.57,1267.08 1065.61,1271.64 1067.65,1276.15 1069.68,1280.62 1071.72,1285.03 1073.76,1289.39 1075.79,1293.7 1077.83,1297.95 1079.87,1302.15 1081.9,1306.3 1083.94,1310.4 1085.98,1314.44 1088.01,1318.42 1090.05,1322.35 1092.09,1326.22 1094.12,1330.04 1096.16,1333.81 1098.2,1337.51 1100.23,1341.16 1102.27,1344.75 1104.31,1348.28 1106.34,1351.76 1108.38,1355.18 1110.42,1358.53 1112.45,1361.83 1114.49,1365.07 1116.53,1368.25 1118.56,1371.37 1120.6,1374.43 1122.64,1377.43 1124.67,1380.36 1126.71,1383.24 1128.75,1386.05 1130.78,1388.8 1132.82,1391.49 1134.86,1394.12 1136.89,1396.69 1138.93,1399.19 1140.97,1401.63 1143,1404 1145.04,1406.31 1147.08,1408.56 1149.11,1410.74 1151.15,1412.86 1153.19,1414.91 1155.22,1416.9 1157.26,1418.83 1159.3,1420.69 1161.33,1422.48 1163.37,1424.21 1165.4,1425.87 1167.44,1427.47 1169.48,1429 1171.51,1430.46 1173.55,1431.86 1175.59,1433.19 1177.62,1434.46 1179.66,1435.65 1181.7,1436.79 1183.73,1437.85 1185.77,1438.85 1187.81,1439.78 1189.84,1440.64 1191.88,1441.43 1193.92,1442.16 1195.95,1442.82 1197.99,1443.41 1200.03,1443.94 1202.06,1444.4 1204.1,1444.79 1206.14,1445.11 1208.17,1445.36 1210.21,1445.55 1212.25,1445.66 1214.28,1445.71 1216.32,1445.7 1218.36,1445.61 1220.39,1445.46 1222.43,1445.24 1224.47,1444.95 1226.5,1444.59 1228.54,1444.17 1230.58,1443.67 1232.61,1443.11 1234.65,1442.49 1236.69,1441.79 1238.72,1441.03 1240.76,1440.2 1242.8,1439.3 1244.83,1438.33 1246.87,1437.3 1248.91,1436.2 1250.94,1435.04 1252.98,1433.8 1255.02,1432.5 1257.05,1431.14 1259.09,1429.71 1261.13,1428.21 1263.16,1426.64 1265.2,1425.01 1267.24,1423.31 1269.27,1421.55 1271.31,1419.72 1273.35,1417.83 1275.38,1415.87 1277.42,1413.85 1279.46,1411.76 1281.49,1409.61 1283.53,1407.39 1285.57,1405.11 1287.6,1402.77 1289.64,1400.36 1291.68,1397.89 1293.71,1395.35 1295.75,1392.76 1297.79,1390.1 1299.82,1387.37 1301.86,1384.59 1303.9,1381.74 1305.93,1378.84 1307.97,1375.87 1310.01,1372.84 1312.04,1369.75 1314.08,1366.6 1316.12,1363.39 1318.15,1360.12 1320.19,1356.79 1322.22,1353.4 1324.26,1349.95 1326.3,1346.45 1328.33,1342.88 1330.37,1339.26 1332.41,1335.58 1334.44,1331.85 1336.48,1328.06 1338.52,1324.21 1340.55,1320.3 1342.59,1316.35 1344.63,1312.33 1346.66,1308.26 1348.7,1304.14 1350.74,1299.97 1352.77,1295.74 1354.81,1291.45 1356.85,1287.12 1358.88,1282.73 1360.92,1278.29 1362.96,1273.8 1364.99,1269.26 1367.03,1264.67 1369.07,1260.03 1371.1,1255.34 1373.14,1250.6 1375.18,1245.82 1377.21,1240.98 1379.25,1236.1 1381.29,1231.17 1383.32,1226.19 1385.36,1221.17 1387.4,1216.11 1389.43,1210.99 1391.47,1205.84 1393.51,1200.64 1395.54,1195.39 1397.58,1190.11 1399.62,1184.78 1401.65,1179.41 1403.69,1174 1405.73,1168.54 1407.76,1163.05 1409.8,1157.52 1411.84,1151.95 1413.87,1146.34 1415.91,1140.69 1417.95,1135.01 1419.98,1129.28 1422.02,1123.52 1424.06,1117.73 1426.09,1111.9 1428.13,1106.04 1430.17,1100.14 1432.2,1094.21 1434.24,1088.25 1436.28,1082.25 1438.31,1076.22 1440.35,1070.17 1442.39,1064.08 1444.42,1057.96 1446.46,1051.81 1448.5,1045.64 1450.53,1039.43 1452.57,1033.2 1454.61,1026.94 1456.64,1020.66 1458.68,1014.35 1460.72,1008.02 1462.75,1001.66 1464.79,995.278 1466.83,988.874 1468.86,982.448 1470.9,976 1472.93,969.531 1474.97,963.042 1477.01,956.533 1479.04,950.006 1481.08,943.46 1483.12,936.896 1485.15,930.315 1487.19,923.718 1489.23,917.106 1491.26,910.478 1493.3,903.836 1495.34,897.18 1497.37,890.511 1499.41,883.83 1501.45,877.137 1503.48,870.433 1505.52,863.719 1507.56,856.995 1509.59,850.262 1511.63,843.521 1513.67,836.772 1515.7,830.016 1517.74,823.253 1519.78,816.485 1521.81,809.712 1523.85,802.935 1525.89,796.155 1527.92,789.371 1529.96,782.585 1532,775.797 1534.03,769.009 1536.07,762.22 1538.11,755.432 1540.14,748.645 1542.18,741.86 1544.22,735.077 1546.25,728.297 1548.29,721.522 1550.33,714.75 1552.36,707.985 1554.4,701.224 1556.44,694.471 1558.47,687.725 1560.51,680.986 1562.55,674.256 1564.58,667.536 1566.62,660.825 1568.66,654.125 1570.69,647.437 1572.73,640.76 1574.77,634.096 1576.8,627.445 1578.84,620.808 1580.88,614.186 1582.91,607.578 1584.95,600.987 1586.99,594.413 1589.02,587.855 1591.06,581.316 1593.1,574.795 1595.13,568.293 1597.17,561.812 1599.21,555.35 1601.24,548.91 1603.28,542.492 1605.32,536.096 1607.35,529.723 1609.39,523.374 1611.43,517.049 1613.46,510.749 1615.5,504.475 1617.54,498.227 1619.57,492.006 1621.61,485.812 1623.65,479.647 1625.68,473.51 1627.72,467.402 1629.75,461.325 1631.79,455.278 1633.83,449.262 1635.86,443.278 1637.9,437.326 1639.94,431.408 1641.97,425.522 1644.01,419.671 1646.05,413.855 1648.08,408.074 1650.12,402.329 1652.16,396.62 1654.19,390.948 1656.23,385.314 1658.27,379.718 1660.3,374.161 1662.34,368.643 1664.38,363.165 1666.41,357.727 1668.45,352.33 1670.49,346.975 1672.52,341.661 1674.56,336.39 1676.6,331.162 1678.63,325.978 1680.67,320.838 1682.71,315.742 1684.74,310.692 1686.78,305.687 1688.82,300.728 1690.85,295.816 1692.89,290.951 1694.93,286.133 1696.96,281.364 1699,276.643 1701.04,271.971 1703.07,267.349 1705.11,262.776 1707.15,258.254 1709.18,253.783 1711.22,249.363 1713.26,244.995 1715.29,240.679 1717.33,236.416 1719.37,232.206 1721.4,228.049 1723.44,223.946 1725.48,219.897 1727.51,215.904 1729.55,211.965 1731.59,208.081 1733.62,204.254 1735.66,200.483 1737.7,196.768 1739.73,193.111 1741.77,189.51 1743.81,185.968 1745.84,182.484 1747.88,179.058 1749.92,175.69 1751.95,172.382 1753.99,169.134 1756.03,165.945 1758.06,162.816 1760.1,159.748 1762.14,156.74 1764.17,153.794 1766.21,150.908 1768.25,148.085 1770.28,145.323 1772.32,142.623 1774.36,139.986 1776.39,137.411 1778.43,134.9 1780.46,132.451 1782.5,130.066 1784.54,127.745 1786.57,125.487 1788.61,123.294 1790.65,121.165 1792.68,119.101 1794.72,117.101 1796.76,115.167 1798.79,113.297 1800.83,111.493 1802.87,109.755 1804.9,108.082 1806.94,106.475 1808.98,104.934 1811.01,103.459 1813.05,102.051 1815.09,100.709 1817.12,99.4335 1819.16,98.225 1821.2,97.0832 1823.23,96.0085 1825.27,95.0009 1827.31,94.0604 1829.34,93.1872 1831.38,92.3814 1833.42,91.643 1835.45,90.9721 1837.49,90.3689 1839.53,89.8333 1841.56,89.3653 1843.6,88.9652 1845.64,88.6328 1847.67,88.3682 1849.71,88.1715 1851.75,88.0426 1853.78,87.9817 1855.82,87.9886 1857.86,88.0634 1859.89,88.206 1861.93,88.4166 1863.97,88.695 1866,89.0412 1868.04,89.4551 1870.08,89.9369 1872.11,90.4863 1874.15,91.1033 1876.19,91.7879 1878.22,92.54 1880.26,93.3596 1882.3,94.2465 1884.33,95.2006 1886.37,96.222 1888.41,97.3104 1890.44,98.4657 1892.48,99.6879 1894.52,100.977 1896.55,102.332 1898.59,103.754 1900.63,105.242 1902.66,106.797 1904.7,108.417 1906.74,110.103 1908.77,111.855 1910.81,113.673 1912.85,115.555 1914.88,117.503 1916.92,119.516 1918.96,121.594 1920.99,123.736 1923.03,125.942 1925.07,128.213 1927.1,130.547 1929.14,132.945 1931.18,135.406 1933.21,137.931 1935.25,140.518 1937.28,143.168 1939.32,145.88 1941.36,148.655 1943.39,151.491 1945.43,154.389 1947.47,157.348 1949.5,160.368 1951.54,163.449 1953.58,166.59 1955.61,169.791 1957.65,173.051 1959.69,176.371 1961.72,179.751 1963.76,183.189 1965.8,186.685 1967.83,190.239 1969.87,193.851 1971.91,197.52 1973.94,201.246 1975.98,205.029 1978.02,208.868 1980.05,212.762 1982.09,216.713 1984.13,220.718 1986.16,224.777 1988.2,228.891 1990.24,233.059 1992.27,237.28 1994.31,241.554 1996.35,245.881 1998.38,250.259 2000.42,254.69 2002.46,259.171 2004.49,263.704 2006.53,268.286 2008.57,272.919 2010.6,277.601 2012.64,282.331 2014.68,287.111 2016.71,291.938 2018.75,296.812 2020.79,301.734 2022.82,306.702 2024.86,311.717 2026.9,316.776 2028.93,321.881 2030.97,327.03 2033.01,332.224 2035.04,337.46 2037.08,342.74 2039.12,348.062 2041.15,353.426 2043.19,358.831 2045.23,364.277 2047.26,369.764 2049.3,375.29 2051.34,380.855 2053.37,386.459 2055.41,392.1 2057.45,397.78 2059.48,403.496 2061.52,409.248 2063.56,415.037 2065.59,420.86 2067.63,426.718 2069.67,432.61 2071.7,438.536 2073.74,444.494 2075.78,450.485 2077.81,456.507 2079.85,462.56 2081.89,468.644 2083.92,474.757 2085.96,480.9 2087.99,487.071 2090.03,493.271 2092.07,499.497 2094.1,505.751 2096.14,512.03 2098.18,518.335 2100.21,524.665 2102.25,531.019 2104.29,537.397 2106.32,543.797 2108.36,550.22 2110.4,556.665 2112.43,563.13 2114.47,569.616 2116.51,576.122 2118.54,582.646 2120.58,589.19 2122.62,595.75 2124.65,602.328 2126.69,608.923 2128.73,615.533 2130.76,622.158 2132.8,628.798 2134.84,635.452 2136.87,642.119 2138.91,648.798 2140.95,655.489 2142.98,662.191 2145.02,668.904 2147.06,675.626 2149.09,682.358 2151.13,689.098 2153.17,695.846 2155.2,702.601 2157.24,709.362 2159.28,716.129 2161.31,722.901 2163.35,729.678 2165.39,736.458 2167.42,743.241 2169.46,750.027 2171.5,756.814 2173.53,763.603 2175.57,770.391 2177.61,777.18 2179.64,783.967 2181.68,790.753 2183.72,797.536 2185.75,804.316 2187.79,811.092 2189.83,817.864 2191.86,824.631 2193.9,831.392 2195.94,838.147 2197.97,844.894 2200.01,851.634 2202.05,858.365 2204.08,865.087 2206.12,871.799 2208.16,878.501 2210.19,885.192 2212.23,891.87 2214.27,898.537 2216.3,905.19 2218.34,911.829 2220.38,918.454 2222.41,925.063 2224.45,931.657 2226.49,938.234 2228.52,944.794 2230.56,951.337 2232.6,957.86 2234.63,964.365 2236.67,970.85 2238.71,977.315 2240.74,983.758 2242.78,990.18 2244.81,996.58 2246.85,1002.96 2248.89,1009.31 2250.92,1015.64 2252.96,1021.94 2255,1028.22 2257.03,1034.47 2259.07,1040.7 2261.11,1046.9 2263.14,1053.07 2265.18,1059.21 2267.22,1065.32 2269.25,1071.4 2271.29,1077.45 2273.33,1083.47 2275.36,1089.46 2277.4,1095.42 2279.44,1101.34 2281.47,1107.24 2283.51,1113.09 2285.55,1118.91 2287.58,1124.7 2289.62,1130.45 2291.66,1136.17 "/>
<path clip-path="url(#clip660)" d="M265.897 1438.47 L827.402 1438.47 L827.402 1282.95 L265.897 1282.95  Z" fill="#ffffff" fill-rule="evenodd" fill-opacity="1"/>
<polyline clip-path="url(#clip660)" style="stroke:#000000; stroke-linecap:round; stroke-linejoin:round; stroke-width:4; stroke-opacity:1; fill:none" points="265.897,1438.47 827.402,1438.47 827.402,1282.95 265.897,1282.95 265.897,1438.47 "/>
<polyline clip-path="url(#clip660)" style="stroke:#009af9; stroke-linecap:round; stroke-linejoin:round; stroke-width:8; stroke-opacity:1; fill:none" points="289.884,1334.79 433.805,1334.79 "/>
<path clip-path="url(#clip660)" d="M474.181 1335.87 Q475.685 1336.38 477.097 1338.05 Q478.532 1339.71 479.968 1342.63 L484.713 1352.07 L479.69 1352.07 L475.269 1343.21 Q473.556 1339.74 471.935 1338.6 Q470.338 1337.47 467.56 1337.47 L462.468 1337.47 L462.468 1352.07 L457.792 1352.07 L457.792 1317.51 L468.347 1317.51 Q474.273 1317.51 477.19 1319.99 Q480.106 1322.47 480.106 1327.47 Q480.106 1330.73 478.579 1332.88 Q477.074 1335.04 474.181 1335.87 M462.468 1321.36 L462.468 1333.63 L468.347 1333.63 Q471.727 1333.63 473.44 1332.07 Q475.176 1330.5 475.176 1327.47 Q475.176 1324.44 473.44 1322.91 Q471.727 1321.36 468.347 1321.36 L462.468 1321.36 Z" fill="#000000" fill-rule="nonzero" fill-opacity="1" /><path clip-path="url(#clip660)" d="M510.592 1338.05 L510.592 1340.13 L491.009 1340.13 Q491.287 1344.53 493.648 1346.84 Q496.032 1349.13 500.268 1349.13 Q502.722 1349.13 505.014 1348.53 Q507.329 1347.93 509.597 1346.73 L509.597 1350.75 Q507.305 1351.73 504.898 1352.24 Q502.491 1352.75 500.014 1352.75 Q493.81 1352.75 490.176 1349.13 Q486.565 1345.52 486.565 1339.37 Q486.565 1333 489.991 1329.27 Q493.44 1325.52 499.273 1325.52 Q504.504 1325.52 507.537 1328.9 Q510.592 1332.26 510.592 1338.05 M506.333 1336.8 Q506.287 1333.3 504.366 1331.22 Q502.467 1329.13 499.319 1329.13 Q495.755 1329.13 493.602 1331.15 Q491.472 1333.16 491.148 1336.82 L506.333 1336.8 Z" fill="#000000" fill-rule="nonzero" fill-opacity="1" /><path clip-path="url(#clip660)" d="M529.365 1339.04 Q524.203 1339.04 522.213 1340.22 Q520.222 1341.4 520.222 1344.25 Q520.222 1346.52 521.703 1347.86 Q523.208 1349.18 525.778 1349.18 Q529.319 1349.18 531.449 1346.68 Q533.602 1344.16 533.602 1339.99 L533.602 1339.04 L529.365 1339.04 M537.861 1337.28 L537.861 1352.07 L533.602 1352.07 L533.602 1348.14 Q532.143 1350.5 529.967 1351.63 Q527.791 1352.75 524.643 1352.75 Q520.662 1352.75 518.301 1350.52 Q515.963 1348.28 515.963 1344.53 Q515.963 1340.15 518.879 1337.93 Q521.819 1335.71 527.629 1335.71 L533.602 1335.71 L533.602 1335.29 Q533.602 1332.35 531.657 1330.76 Q529.736 1329.13 526.24 1329.13 Q524.018 1329.13 521.912 1329.67 Q519.805 1330.2 517.861 1331.26 L517.861 1327.33 Q520.199 1326.43 522.398 1325.99 Q524.597 1325.52 526.68 1325.52 Q532.305 1325.52 535.083 1328.44 Q537.861 1331.36 537.861 1337.28 Z" fill="#000000" fill-rule="nonzero" fill-opacity="1" /><path clip-path="url(#clip660)" d="M546.634 1316.06 L550.893 1316.06 L550.893 1352.07 L546.634 1352.07 L546.634 1316.06 Z" fill="#000000" fill-rule="nonzero" fill-opacity="1" /><path clip-path="url(#clip660)" d="M578.995 1348.19 L578.995 1361.94 L574.712 1361.94 L574.712 1326.15 L578.995 1326.15 L578.995 1330.08 Q580.337 1327.77 582.374 1326.66 Q584.435 1325.52 587.282 1325.52 Q592.004 1325.52 594.944 1329.27 Q597.907 1333.02 597.907 1339.13 Q597.907 1345.25 594.944 1349 Q592.004 1352.75 587.282 1352.75 Q584.435 1352.75 582.374 1351.63 Q580.337 1350.5 578.995 1348.19 M593.485 1339.13 Q593.485 1334.44 591.541 1331.77 Q589.62 1329.09 586.24 1329.09 Q582.861 1329.09 580.916 1331.77 Q578.995 1334.44 578.995 1339.13 Q578.995 1343.83 580.916 1346.52 Q582.861 1349.18 586.24 1349.18 Q589.62 1349.18 591.541 1346.52 Q593.485 1343.83 593.485 1339.13 Z" fill="#000000" fill-rule="nonzero" fill-opacity="1" /><path clip-path="url(#clip660)" d="M616.749 1339.04 Q611.587 1339.04 609.597 1340.22 Q607.606 1341.4 607.606 1344.25 Q607.606 1346.52 609.087 1347.86 Q610.592 1349.18 613.161 1349.18 Q616.703 1349.18 618.833 1346.68 Q620.985 1344.16 620.985 1339.99 L620.985 1339.04 L616.749 1339.04 M625.245 1337.28 L625.245 1352.07 L620.985 1352.07 L620.985 1348.14 Q619.527 1350.5 617.351 1351.63 Q615.175 1352.75 612.027 1352.75 Q608.046 1352.75 605.684 1350.52 Q603.347 1348.28 603.347 1344.53 Q603.347 1340.15 606.263 1337.93 Q609.203 1335.71 615.013 1335.71 L620.985 1335.71 L620.985 1335.29 Q620.985 1332.35 619.041 1330.76 Q617.12 1329.13 613.624 1329.13 Q611.402 1329.13 609.296 1329.67 Q607.189 1330.2 605.245 1331.26 L605.245 1327.33 Q607.583 1326.43 609.782 1325.99 Q611.981 1325.52 614.064 1325.52 Q619.689 1325.52 622.467 1328.44 Q625.245 1331.36 625.245 1337.28 Z" fill="#000000" fill-rule="nonzero" fill-opacity="1" /><path clip-path="url(#clip660)" d="M649.041 1330.13 Q648.323 1329.71 647.467 1329.53 Q646.633 1329.32 645.615 1329.32 Q642.004 1329.32 640.059 1331.68 Q638.138 1334.02 638.138 1338.42 L638.138 1352.07 L633.856 1352.07 L633.856 1326.15 L638.138 1326.15 L638.138 1330.18 Q639.481 1327.82 641.633 1326.68 Q643.786 1325.52 646.865 1325.52 Q647.305 1325.52 647.837 1325.59 Q648.369 1325.64 649.018 1325.76 L649.041 1330.13 Z" fill="#000000" fill-rule="nonzero" fill-opacity="1" /><path clip-path="url(#clip660)" d="M657.721 1318.79 L657.721 1326.15 L666.494 1326.15 L666.494 1329.46 L657.721 1329.46 L657.721 1343.53 Q657.721 1346.7 658.578 1347.61 Q659.457 1348.51 662.119 1348.51 L666.494 1348.51 L666.494 1352.07 L662.119 1352.07 Q657.189 1352.07 655.314 1350.25 Q653.439 1348.39 653.439 1343.53 L653.439 1329.46 L650.314 1329.46 L650.314 1326.15 L653.439 1326.15 L653.439 1318.79 L657.721 1318.79 Z" fill="#000000" fill-rule="nonzero" fill-opacity="1" /><polyline clip-path="url(#clip660)" style="stroke:#e26f46; stroke-linecap:round; stroke-linejoin:round; stroke-width:8; stroke-opacity:1; fill:none" points="289.884,1386.63 433.805,1386.63 "/>
<path clip-path="url(#clip660)" d="M457.792 1369.35 L462.468 1369.35 L462.468 1403.91 L457.792 1403.91 L457.792 1369.35 Z" fill="#000000" fill-rule="nonzero" fill-opacity="1" /><path clip-path="url(#clip660)" d="M491.773 1382.97 Q493.37 1380.1 495.592 1378.73 Q497.815 1377.36 500.824 1377.36 Q504.875 1377.36 507.074 1380.21 Q509.273 1383.03 509.273 1388.27 L509.273 1403.91 L504.991 1403.91 L504.991 1388.41 Q504.991 1384.68 503.671 1382.87 Q502.352 1381.07 499.643 1381.07 Q496.333 1381.07 494.412 1383.27 Q492.491 1385.47 492.491 1389.26 L492.491 1403.91 L488.208 1403.91 L488.208 1388.41 Q488.208 1384.66 486.889 1382.87 Q485.569 1381.07 482.815 1381.07 Q479.551 1381.07 477.63 1383.29 Q475.708 1385.49 475.708 1389.26 L475.708 1403.91 L471.426 1403.91 L471.426 1377.99 L475.708 1377.99 L475.708 1382.02 Q477.167 1379.63 479.204 1378.5 Q481.241 1377.36 484.042 1377.36 Q486.866 1377.36 488.833 1378.8 Q490.824 1380.23 491.773 1382.97 Z" fill="#000000" fill-rule="nonzero" fill-opacity="1" /><path clip-path="url(#clip660)" d="M529.551 1390.88 Q524.389 1390.88 522.398 1392.06 Q520.407 1393.24 520.407 1396.09 Q520.407 1398.36 521.889 1399.7 Q523.393 1401.02 525.963 1401.02 Q529.504 1401.02 531.634 1398.52 Q533.787 1396 533.787 1391.83 L533.787 1390.88 L529.551 1390.88 M538.046 1389.12 L538.046 1403.91 L533.787 1403.91 L533.787 1399.98 Q532.328 1402.34 530.152 1403.47 Q527.977 1404.59 524.828 1404.59 Q520.847 1404.59 518.486 1402.36 Q516.148 1400.12 516.148 1396.37 Q516.148 1391.99 519.065 1389.77 Q522.004 1387.55 527.815 1387.55 L533.787 1387.55 L533.787 1387.13 Q533.787 1384.19 531.842 1382.6 Q529.921 1380.97 526.426 1380.97 Q524.203 1380.97 522.097 1381.51 Q519.991 1382.04 518.046 1383.1 L518.046 1379.17 Q520.384 1378.27 522.583 1377.83 Q524.782 1377.36 526.865 1377.36 Q532.49 1377.36 535.268 1380.28 Q538.046 1383.2 538.046 1389.12 Z" fill="#000000" fill-rule="nonzero" fill-opacity="1" /><path clip-path="url(#clip660)" d="M563.879 1390.65 Q563.879 1386.02 561.958 1383.47 Q560.06 1380.93 556.611 1380.93 Q553.185 1380.93 551.263 1383.47 Q549.365 1386.02 549.365 1390.65 Q549.365 1395.26 551.263 1397.8 Q553.185 1400.35 556.611 1400.35 Q560.06 1400.35 561.958 1397.8 Q563.879 1395.26 563.879 1390.65 M568.138 1400.7 Q568.138 1407.32 565.199 1410.53 Q562.259 1413.78 556.194 1413.78 Q553.949 1413.78 551.958 1413.43 Q549.967 1413.1 548.092 1412.41 L548.092 1408.27 Q549.967 1409.28 551.796 1409.77 Q553.625 1410.26 555.523 1410.26 Q559.713 1410.26 561.796 1408.06 Q563.879 1405.88 563.879 1401.46 L563.879 1399.35 Q562.56 1401.65 560.5 1402.78 Q558.439 1403.91 555.569 1403.91 Q550.801 1403.91 547.884 1400.28 Q544.967 1396.65 544.967 1390.65 Q544.967 1384.63 547.884 1381 Q550.801 1377.36 555.569 1377.36 Q558.439 1377.36 560.5 1378.5 Q562.56 1379.63 563.879 1381.92 L563.879 1377.99 L568.138 1377.99 L568.138 1400.7 Z" fill="#000000" fill-rule="nonzero" fill-opacity="1" /><path clip-path="url(#clip660)" d="M576.911 1377.99 L581.171 1377.99 L581.171 1403.91 L576.911 1403.91 L576.911 1377.99 M576.911 1367.9 L581.171 1367.9 L581.171 1373.29 L576.911 1373.29 L576.911 1367.9 Z" fill="#000000" fill-rule="nonzero" fill-opacity="1" /><path clip-path="url(#clip660)" d="M611.634 1388.27 L611.634 1403.91 L607.374 1403.91 L607.374 1388.41 Q607.374 1384.72 605.939 1382.9 Q604.504 1381.07 601.634 1381.07 Q598.185 1381.07 596.194 1383.27 Q594.203 1385.47 594.203 1389.26 L594.203 1403.91 L589.921 1403.91 L589.921 1377.99 L594.203 1377.99 L594.203 1382.02 Q595.731 1379.68 597.791 1378.52 Q599.874 1377.36 602.583 1377.36 Q607.05 1377.36 609.342 1380.14 Q611.634 1382.9 611.634 1388.27 Z" fill="#000000" fill-rule="nonzero" fill-opacity="1" /><path clip-path="url(#clip660)" d="M631.911 1390.88 Q626.749 1390.88 624.758 1392.06 Q622.768 1393.24 622.768 1396.09 Q622.768 1398.36 624.249 1399.7 Q625.754 1401.02 628.323 1401.02 Q631.865 1401.02 633.995 1398.52 Q636.147 1396 636.147 1391.83 L636.147 1390.88 L631.911 1390.88 M640.407 1389.12 L640.407 1403.91 L636.147 1403.91 L636.147 1399.98 Q634.689 1402.34 632.513 1403.47 Q630.337 1404.59 627.189 1404.59 Q623.208 1404.59 620.846 1402.36 Q618.508 1400.12 618.508 1396.37 Q618.508 1391.99 621.425 1389.77 Q624.365 1387.55 630.175 1387.55 L636.147 1387.55 L636.147 1387.13 Q636.147 1384.19 634.203 1382.6 Q632.282 1380.97 628.786 1380.97 Q626.564 1380.97 624.458 1381.51 Q622.351 1382.04 620.407 1383.1 L620.407 1379.17 Q622.745 1378.27 624.944 1377.83 Q627.143 1377.36 629.226 1377.36 Q634.851 1377.36 637.629 1380.28 Q640.407 1383.2 640.407 1389.12 Z" fill="#000000" fill-rule="nonzero" fill-opacity="1" /><path clip-path="url(#clip660)" d="M664.203 1381.97 Q663.485 1381.55 662.629 1381.37 Q661.795 1381.16 660.777 1381.16 Q657.166 1381.16 655.221 1383.52 Q653.3 1385.86 653.3 1390.26 L653.3 1403.91 L649.018 1403.91 L649.018 1377.99 L653.3 1377.99 L653.3 1382.02 Q654.643 1379.66 656.795 1378.52 Q658.948 1377.36 662.027 1377.36 Q662.467 1377.36 662.999 1377.43 Q663.531 1377.48 664.18 1377.6 L664.203 1381.97 Z" fill="#000000" fill-rule="nonzero" fill-opacity="1" /><path clip-path="url(#clip660)" d="M679.457 1406.32 Q677.652 1410.95 675.939 1412.36 Q674.226 1413.78 671.355 1413.78 L667.953 1413.78 L667.953 1410.21 L670.453 1410.21 Q672.212 1410.21 673.184 1409.38 Q674.156 1408.54 675.337 1405.44 L676.101 1403.5 L665.615 1377.99 L670.129 1377.99 L678.23 1398.27 L686.332 1377.99 L690.846 1377.99 L679.457 1406.32 Z" fill="#000000" fill-rule="nonzero" fill-opacity="1" /><path clip-path="url(#clip660)" d="M715.915 1400.03 L715.915 1413.78 L711.633 1413.78 L711.633 1377.99 L715.915 1377.99 L715.915 1381.92 Q717.258 1379.61 719.295 1378.5 Q721.355 1377.36 724.202 1377.36 Q728.925 1377.36 731.864 1381.11 Q734.827 1384.86 734.827 1390.97 Q734.827 1397.09 731.864 1400.84 Q728.925 1404.59 724.202 1404.59 Q721.355 1404.59 719.295 1403.47 Q717.258 1402.34 715.915 1400.03 M730.406 1390.97 Q730.406 1386.28 728.462 1383.61 Q726.54 1380.93 723.161 1380.93 Q719.781 1380.93 717.837 1383.61 Q715.915 1386.28 715.915 1390.97 Q715.915 1395.67 717.837 1398.36 Q719.781 1401.02 723.161 1401.02 Q726.54 1401.02 728.462 1398.36 Q730.406 1395.67 730.406 1390.97 Z" fill="#000000" fill-rule="nonzero" fill-opacity="1" /><path clip-path="url(#clip660)" d="M753.67 1390.88 Q748.508 1390.88 746.517 1392.06 Q744.526 1393.24 744.526 1396.09 Q744.526 1398.36 746.008 1399.7 Q747.512 1401.02 750.082 1401.02 Q753.624 1401.02 755.753 1398.52 Q757.906 1396 757.906 1391.83 L757.906 1390.88 L753.67 1390.88 M762.165 1389.12 L762.165 1403.91 L757.906 1403.91 L757.906 1399.98 Q756.448 1402.34 754.272 1403.47 Q752.096 1404.59 748.948 1404.59 Q744.966 1404.59 742.605 1402.36 Q740.267 1400.12 740.267 1396.37 Q740.267 1391.99 743.184 1389.77 Q746.124 1387.55 751.934 1387.55 L757.906 1387.55 L757.906 1387.13 Q757.906 1384.19 755.961 1382.6 Q754.04 1380.97 750.545 1380.97 Q748.323 1380.97 746.216 1381.51 Q744.11 1382.04 742.165 1383.1 L742.165 1379.17 Q744.503 1378.27 746.702 1377.83 Q748.901 1377.36 750.985 1377.36 Q756.61 1377.36 759.387 1380.28 Q762.165 1383.2 762.165 1389.12 Z" fill="#000000" fill-rule="nonzero" fill-opacity="1" /><path clip-path="url(#clip660)" d="M785.961 1381.97 Q785.244 1381.55 784.387 1381.37 Q783.554 1381.16 782.535 1381.16 Q778.924 1381.16 776.98 1383.52 Q775.059 1385.86 775.059 1390.26 L775.059 1403.91 L770.776 1403.91 L770.776 1377.99 L775.059 1377.99 L775.059 1382.02 Q776.401 1379.66 778.554 1378.52 Q780.707 1377.36 783.785 1377.36 Q784.225 1377.36 784.758 1377.43 Q785.29 1377.48 785.938 1377.6 L785.961 1381.97 Z" fill="#000000" fill-rule="nonzero" fill-opacity="1" /><path clip-path="url(#clip660)" d="M794.642 1370.63 L794.642 1377.99 L803.415 1377.99 L803.415 1381.3 L794.642 1381.3 L794.642 1395.37 Q794.642 1398.54 795.498 1399.45 Q796.378 1400.35 799.04 1400.35 L803.415 1400.35 L803.415 1403.91 L799.04 1403.91 Q794.109 1403.91 792.234 1402.09 Q790.359 1400.23 790.359 1395.37 L790.359 1381.3 L787.234 1381.3 L787.234 1377.99 L790.359 1377.99 L790.359 1370.63 L794.642 1370.63 Z" fill="#000000" fill-rule="nonzero" fill-opacity="1" /></svg>