<?xml version="1.0" encoding="utf-8"?>
<svg xmlns="http://www.w3.org/2000/svg" xmlns:xlink="http://www.w3.org/1999/xlink" width="600" height="400" viewBox="0 0 2400 1600">
<defs>
  <clipPath id="clip010">
    <rect x="0" y="0" width="2400" height="1600"/>
  </clipPath>
</defs>
<path clip-path="url(#clip010)" d="M0 1600 L2400 1600 L2400 8.88178e-14 L0 8.88178e-14  Z" fill="#ffffff" fill-rule="evenodd" fill-opacity="1"/>
<defs>
  <clipPath id="clip011">
    <rect x="480" y="0" width="1681" height="1600"/>
  </clipPath>
</defs>
<path clip-path="url(#clip010)" d="M219.866 1423.18 L2352.76 1423.18 L2352.76 47.2441 L219.866 47.2441  Z" fill="#ffffff" fill-rule="evenodd" fill-opacity="1"/>
<defs>
  <clipPath id="clip012">
    <rect x="219" y="47" width="2134" height="1377"/>
  </clipPath>
</defs>
<polyline clip-path="url(#clip012)" style="stroke:#000000; stroke-linecap:round; stroke-linejoin:round; stroke-width:2; stroke-opacity:0.1; fill:none" points="239.167,1423.18 239.167,47.2441 "/>
<polyline clip-path="url(#clip012)" style="stroke:#000000; stroke-linecap:round; stroke-linejoin:round; stroke-width:2; stroke-opacity:0.1; fill:none" points="649.811,1423.18 649.811,47.2441 "/>
<polyline clip-path="url(#clip012)" style="stroke:#000000; stroke-linecap:round; stroke-linejoin:round; stroke-width:2; stroke-opacity:0.1; fill:none" points="1060.46,1423.18 1060.46,47.2441 "/>
<polyline clip-path="url(#clip012)" style="stroke:#000000; stroke-linecap:round; stroke-linejoin:round; stroke-width:2; stroke-opacity:0.1; fill:none" points="1471.1,1423.18 1471.1,47.2441 "/>
<polyline clip-path="url(#clip012)" style="stroke:#000000; stroke-linecap:round; stroke-linejoin:round; stroke-width:2; stroke-opacity:0.1; fill:none" points="1881.75,1423.18 1881.75,47.2441 "/>
<polyline clip-path="url(#clip012)" style="stroke:#000000; stroke-linecap:round; stroke-linejoin:round; stroke-width:2; stroke-opacity:0.1; fill:none" points="2292.39,1423.18 2292.39,47.2441 "/>
<polyline clip-path="url(#clip010)" style="stroke:#000000; stroke-linecap:round; stroke-linejoin:round; stroke-width:4; stroke-opacity:1; fill:none" points="219.866,1423.18 2352.76,1423.18 "/>
<polyline clip-path="url(#clip010)" style="stroke:#000000; stroke-linecap:round; stroke-linejoin:round; stroke-width:4; stroke-opacity:1; fill:none" points="239.167,1423.18 239.167,1404.28 "/>
<polyline clip-path="url(#clip010)" style="stroke:#000000; stroke-linecap:round; stroke-linejoin:round; stroke-width:4; stroke-opacity:1; fill:none" points="649.811,1423.18 649.811,1404.28 "/>
<polyline clip-path="url(#clip010)" style="stroke:#000000; stroke-linecap:round; stroke-linejoin:round; stroke-width:4; stroke-opacity:1; fill:none" points="1060.46,1423.18 1060.46,1404.28 "/>
<polyline clip-path="url(#clip010)" style="stroke:#000000; stroke-linecap:round; stroke-linejoin:round; stroke-width:4; stroke-opacity:1; fill:none" points="1471.1,1423.18 1471.1,1404.28 "/>
<polyline clip-path="url(#clip010)" style="stroke:#000000; stroke-linecap:round; stroke-linejoin:round; stroke-width:4; stroke-opacity:1; fill:none" points="1881.75,1423.18 1881.75,1404.28 "/>
<polyline clip-path="url(#clip010)" style="stroke:#000000; stroke-linecap:round; stroke-linejoin:round; stroke-width:4; stroke-opacity:1; fill:none" points="2292.39,1423.18 2292.39,1404.28 "/>
<path clip-path="url(#clip010)" d="M239.167 1454.1 Q235.555 1454.1 233.727 1457.66 Q231.921 1461.2 231.921 1468.33 Q231.921 1475.44 233.727 1479.01 Q235.555 1482.55 239.167 1482.55 Q242.801 1482.55 244.606 1479.01 Q246.435 1475.44 246.435 1468.33 Q246.435 1461.2 244.606 1457.66 Q242.801 1454.1 239.167 1454.1 M239.167 1450.39 Q244.977 1450.39 248.032 1455 Q251.111 1459.58 251.111 1468.33 Q251.111 1477.06 248.032 1481.67 Q244.977 1486.25 239.167 1486.25 Q233.356 1486.25 230.278 1481.67 Q227.222 1477.06 227.222 1468.33 Q227.222 1459.58 230.278 1455 Q233.356 1450.39 239.167 1450.39 Z" fill="#000000" fill-rule="nonzero" fill-opacity="1" /><path clip-path="url(#clip010)" d="M624.499 1481.64 L632.138 1481.64 L632.138 1455.28 L623.828 1456.95 L623.828 1452.69 L632.092 1451.02 L636.768 1451.02 L636.768 1481.64 L644.406 1481.64 L644.406 1485.58 L624.499 1485.58 L624.499 1481.64 Z" fill="#000000" fill-rule="nonzero" fill-opacity="1" /><path clip-path="url(#clip010)" d="M663.851 1454.1 Q660.24 1454.1 658.411 1457.66 Q656.605 1461.2 656.605 1468.33 Q656.605 1475.44 658.411 1479.01 Q660.24 1482.55 663.851 1482.55 Q667.485 1482.55 669.291 1479.01 Q671.119 1475.44 671.119 1468.33 Q671.119 1461.2 669.291 1457.66 Q667.485 1454.1 663.851 1454.1 M663.851 1450.39 Q669.661 1450.39 672.716 1455 Q675.795 1459.58 675.795 1468.33 Q675.795 1477.06 672.716 1481.67 Q669.661 1486.25 663.851 1486.25 Q658.041 1486.25 654.962 1481.67 Q651.906 1477.06 651.906 1468.33 Q651.906 1459.58 654.962 1455 Q658.041 1450.39 663.851 1450.39 Z" fill="#000000" fill-rule="nonzero" fill-opacity="1" /><path clip-path="url(#clip010)" d="M1039.23 1481.64 L1055.55 1481.64 L1055.55 1485.58 L1033.6 1485.58 L1033.6 1481.64 Q1036.27 1478.89 1040.85 1474.26 Q1045.46 1469.61 1046.64 1468.27 Q1048.88 1465.74 1049.76 1464.01 Q1050.66 1462.25 1050.66 1460.56 Q1050.66 1457.8 1048.72 1456.07 Q1046.8 1454.33 1043.7 1454.33 Q1041.5 1454.33 1039.04 1455.09 Q1036.61 1455.86 1033.84 1457.41 L1033.84 1452.69 Q1036.66 1451.55 1039.11 1450.97 Q1041.57 1450.39 1043.6 1450.39 Q1048.97 1450.39 1052.17 1453.08 Q1055.36 1455.77 1055.36 1460.26 Q1055.36 1462.39 1054.55 1464.31 Q1053.77 1466.2 1051.66 1468.8 Q1051.08 1469.47 1047.98 1472.69 Q1044.88 1475.88 1039.23 1481.64 Z" fill="#000000" fill-rule="nonzero" fill-opacity="1" /><path clip-path="url(#clip010)" d="M1075.36 1454.1 Q1071.75 1454.1 1069.92 1457.66 Q1068.12 1461.2 1068.12 1468.33 Q1068.12 1475.44 1069.92 1479.01 Q1071.75 1482.55 1075.36 1482.55 Q1079 1482.55 1080.8 1479.01 Q1082.63 1475.44 1082.63 1468.33 Q1082.63 1461.2 1080.8 1457.66 Q1079 1454.1 1075.36 1454.1 M1075.36 1450.39 Q1081.17 1450.39 1084.23 1455 Q1087.31 1459.58 1087.31 1468.33 Q1087.31 1477.06 1084.23 1481.67 Q1081.17 1486.25 1075.36 1486.25 Q1069.55 1486.25 1066.47 1481.67 Q1063.42 1477.06 1063.42 1468.33 Q1063.42 1459.58 1066.47 1455 Q1069.55 1450.39 1075.36 1450.39 Z" fill="#000000" fill-rule="nonzero" fill-opacity="1" /><path clip-path="url(#clip010)" d="M1459.94 1466.95 Q1463.3 1467.66 1465.18 1469.93 Q1467.07 1472.2 1467.07 1475.53 Q1467.07 1480.65 1463.56 1483.45 Q1460.04 1486.25 1453.56 1486.25 Q1451.38 1486.25 1449.06 1485.81 Q1446.77 1485.39 1444.32 1484.54 L1444.32 1480.02 Q1446.26 1481.16 1448.58 1481.74 Q1450.89 1482.32 1453.42 1482.32 Q1457.81 1482.32 1460.11 1480.58 Q1462.42 1478.84 1462.42 1475.53 Q1462.42 1472.48 1460.27 1470.77 Q1458.14 1469.03 1454.32 1469.03 L1450.29 1469.03 L1450.29 1465.19 L1454.5 1465.19 Q1457.95 1465.19 1459.78 1463.82 Q1461.61 1462.43 1461.61 1459.84 Q1461.61 1457.18 1459.71 1455.77 Q1457.84 1454.33 1454.32 1454.33 Q1452.4 1454.33 1450.2 1454.75 Q1448 1455.16 1445.36 1456.04 L1445.36 1451.88 Q1448.02 1451.14 1450.34 1450.77 Q1452.68 1450.39 1454.74 1450.39 Q1460.06 1450.39 1463.16 1452.83 Q1466.26 1455.23 1466.26 1459.35 Q1466.26 1462.22 1464.62 1464.21 Q1462.98 1466.18 1459.94 1466.95 Z" fill="#000000" fill-rule="nonzero" fill-opacity="1" /><path clip-path="url(#clip010)" d="M1485.94 1454.1 Q1482.33 1454.1 1480.5 1457.66 Q1478.69 1461.2 1478.69 1468.33 Q1478.69 1475.44 1480.5 1479.01 Q1482.33 1482.55 1485.94 1482.55 Q1489.57 1482.55 1491.38 1479.01 Q1493.21 1475.44 1493.21 1468.33 Q1493.21 1461.2 1491.38 1457.66 Q1489.57 1454.1 1485.94 1454.1 M1485.94 1450.39 Q1491.75 1450.39 1494.8 1455 Q1497.88 1459.58 1497.88 1468.33 Q1497.88 1477.06 1494.8 1481.67 Q1491.75 1486.25 1485.94 1486.25 Q1480.13 1486.25 1477.05 1481.67 Q1473.99 1477.06 1473.99 1468.33 Q1473.99 1459.58 1477.05 1455 Q1480.13 1450.39 1485.94 1450.39 Z" fill="#000000" fill-rule="nonzero" fill-opacity="1" /><path clip-path="url(#clip010)" d="M1869.92 1455.09 L1858.11 1473.54 L1869.92 1473.54 L1869.92 1455.09 M1868.69 1451.02 L1874.57 1451.02 L1874.57 1473.54 L1879.5 1473.54 L1879.5 1477.43 L1874.57 1477.43 L1874.57 1485.58 L1869.92 1485.58 L1869.92 1477.43 L1854.32 1477.43 L1854.32 1472.92 L1868.69 1451.02 Z" fill="#000000" fill-rule="nonzero" fill-opacity="1" /><path clip-path="url(#clip010)" d="M1897.23 1454.1 Q1893.62 1454.1 1891.79 1457.66 Q1889.99 1461.2 1889.99 1468.33 Q1889.99 1475.44 1891.79 1479.01 Q1893.62 1482.55 1897.23 1482.55 Q1900.87 1482.55 1902.67 1479.01 Q1904.5 1475.44 1904.5 1468.33 Q1904.5 1461.2 1902.67 1457.66 Q1900.87 1454.1 1897.23 1454.1 M1897.23 1450.39 Q1903.04 1450.39 1906.1 1455 Q1909.18 1459.58 1909.18 1468.33 Q1909.18 1477.06 1906.1 1481.67 Q1903.04 1486.25 1897.23 1486.25 Q1891.42 1486.25 1888.34 1481.67 Q1885.29 1477.06 1885.29 1468.33 Q1885.29 1459.58 1888.34 1455 Q1891.42 1450.39 1897.23 1450.39 Z" fill="#000000" fill-rule="nonzero" fill-opacity="1" /><path clip-path="url(#clip010)" d="M2267.09 1451.02 L2285.45 1451.02 L2285.45 1454.96 L2271.37 1454.96 L2271.37 1463.43 Q2272.39 1463.08 2273.41 1462.92 Q2274.43 1462.73 2275.45 1462.73 Q2281.23 1462.73 2284.61 1465.9 Q2287.99 1469.08 2287.99 1474.49 Q2287.99 1480.07 2284.52 1483.17 Q2281.05 1486.25 2274.73 1486.25 Q2272.55 1486.25 2270.28 1485.88 Q2268.04 1485.51 2265.63 1484.77 L2265.63 1480.07 Q2267.72 1481.2 2269.94 1481.76 Q2272.16 1482.32 2274.64 1482.32 Q2278.64 1482.32 2280.98 1480.21 Q2283.32 1478.1 2283.32 1474.49 Q2283.32 1470.88 2280.98 1468.77 Q2278.64 1466.67 2274.64 1466.67 Q2272.76 1466.67 2270.89 1467.08 Q2269.03 1467.5 2267.09 1468.38 L2267.09 1451.02 Z" fill="#000000" fill-rule="nonzero" fill-opacity="1" /><path clip-path="url(#clip010)" d="M2307.21 1454.1 Q2303.59 1454.1 2301.77 1457.66 Q2299.96 1461.2 2299.96 1468.33 Q2299.96 1475.44 2301.77 1479.01 Q2303.59 1482.55 2307.21 1482.55 Q2310.84 1482.55 2312.65 1479.01 Q2314.47 1475.44 2314.47 1468.33 Q2314.47 1461.2 2312.65 1457.66 Q2310.84 1454.1 2307.21 1454.1 M2307.21 1450.39 Q2313.02 1450.39 2316.07 1455 Q2319.15 1459.58 2319.15 1468.33 Q2319.15 1477.06 2316.07 1481.67 Q2313.02 1486.25 2307.21 1486.25 Q2301.4 1486.25 2298.32 1481.67 Q2295.26 1477.06 2295.26 1468.33 Q2295.26 1459.58 2298.32 1455 Q2301.4 1450.39 2307.21 1450.39 Z" fill="#000000" fill-rule="nonzero" fill-opacity="1" /><path clip-path="url(#clip010)" d="M1208.19 1520.52 L1248.39 1520.52 L1248.39 1525.93 L1231.52 1525.93 L1231.52 1568.04 L1225.06 1568.04 L1225.06 1525.93 L1208.19 1525.93 L1208.19 1520.52 Z" fill="#000000" fill-rule="nonzero" fill-opacity="1" /><path clip-path="url(#clip010)" d="M1252.33 1532.4 L1258.19 1532.4 L1258.19 1568.04 L1252.33 1568.04 L1252.33 1532.4 M1252.33 1518.52 L1258.19 1518.52 L1258.19 1525.93 L1252.33 1525.93 L1252.33 1518.52 Z" fill="#000000" fill-rule="nonzero" fill-opacity="1" /><path clip-path="url(#clip010)" d="M1298.2 1539.24 Q1300.4 1535.29 1303.45 1533.41 Q1306.51 1531.54 1310.64 1531.54 Q1316.21 1531.54 1319.24 1535.45 Q1322.26 1539.33 1322.26 1546.53 L1322.26 1568.04 L1316.37 1568.04 L1316.37 1546.72 Q1316.37 1541.59 1314.56 1539.11 Q1312.74 1536.63 1309.02 1536.63 Q1304.47 1536.63 1301.83 1539.65 Q1299.19 1542.68 1299.19 1547.9 L1299.19 1568.04 L1293.3 1568.04 L1293.3 1546.72 Q1293.3 1541.56 1291.48 1539.11 Q1289.67 1536.63 1285.88 1536.63 Q1281.39 1536.63 1278.75 1539.68 Q1276.11 1542.71 1276.11 1547.9 L1276.11 1568.04 L1270.22 1568.04 L1270.22 1532.4 L1276.11 1532.4 L1276.11 1537.93 Q1278.12 1534.66 1280.92 1533.1 Q1283.72 1531.54 1287.57 1531.54 Q1291.45 1531.54 1294.16 1533.51 Q1296.89 1535.48 1298.2 1539.24 Z" fill="#000000" fill-rule="nonzero" fill-opacity="1" /><path clip-path="url(#clip010)" d="M1364.43 1548.76 L1364.43 1551.62 L1337.51 1551.62 Q1337.89 1557.67 1341.14 1560.85 Q1344.41 1564 1350.24 1564 Q1353.61 1564 1356.76 1563.17 Q1359.95 1562.35 1363.07 1560.69 L1363.07 1566.23 Q1359.91 1567.57 1356.6 1568.27 Q1353.29 1568.97 1349.89 1568.97 Q1341.36 1568.97 1336.36 1564 Q1331.4 1559.04 1331.4 1550.57 Q1331.4 1541.82 1336.11 1536.69 Q1340.85 1531.54 1348.87 1531.54 Q1356.06 1531.54 1360.23 1536.18 Q1364.43 1540.8 1364.43 1548.76 M1358.58 1547.04 Q1358.51 1542.23 1355.87 1539.37 Q1353.26 1536.5 1348.93 1536.5 Q1344.03 1536.5 1341.07 1539.27 Q1338.14 1542.04 1337.7 1547.07 L1358.58 1547.04 Z" fill="#000000" fill-rule="nonzero" fill-opacity="1" /><polyline clip-path="url(#clip012)" style="stroke:#000000; stroke-linecap:round; stroke-linejoin:round; stroke-width:2; stroke-opacity:0.1; fill:none" points="219.866,1332.32 2352.76,1332.32 "/>
<polyline clip-path="url(#clip012)" style="stroke:#000000; stroke-linecap:round; stroke-linejoin:round; stroke-width:2; stroke-opacity:0.1; fill:none" points="219.866,916.939 2352.76,916.939 "/>
<polyline clip-path="url(#clip012)" style="stroke:#000000; stroke-linecap:round; stroke-linejoin:round; stroke-width:2; stroke-opacity:0.1; fill:none" points="219.866,501.563 2352.76,501.563 "/>
<polyline clip-path="url(#clip012)" style="stroke:#000000; stroke-linecap:round; stroke-linejoin:round; stroke-width:2; stroke-opacity:0.1; fill:none" points="219.866,86.1857 2352.76,86.1857 "/>
<polyline clip-path="url(#clip010)" style="stroke:#000000; stroke-linecap:round; stroke-linejoin:round; stroke-width:4; stroke-opacity:1; fill:none" points="219.866,1423.18 219.866,47.2441 "/>
<polyline clip-path="url(#clip010)" style="stroke:#000000; stroke-linecap:round; stroke-linejoin:round; stroke-width:4; stroke-opacity:1; fill:none" points="219.866,1332.32 238.764,1332.32 "/>
<polyline clip-path="url(#clip010)" style="stroke:#000000; stroke-linecap:round; stroke-linejoin:round; stroke-width:4; stroke-opacity:1; fill:none" points="219.866,916.939 238.764,916.939 "/>
<polyline clip-path="url(#clip010)" style="stroke:#000000; stroke-linecap:round; stroke-linejoin:round; stroke-width:4; stroke-opacity:1; fill:none" points="219.866,501.563 238.764,501.563 "/>
<polyline clip-path="url(#clip010)" style="stroke:#000000; stroke-linecap:round; stroke-linejoin:round; stroke-width:4; stroke-opacity:1; fill:none" points="219.866,86.1857 238.764,86.1857 "/>
<path clip-path="url(#clip010)" d="M128.288 1318.11 Q124.677 1318.11 122.848 1321.68 Q121.043 1325.22 121.043 1332.35 Q121.043 1339.46 122.848 1343.02 Q124.677 1346.56 128.288 1346.56 Q131.922 1346.56 133.728 1343.02 Q135.556 1339.46 135.556 1332.35 Q135.556 1325.22 133.728 1321.68 Q131.922 1318.11 128.288 1318.11 M128.288 1314.41 Q134.098 1314.41 137.154 1319.02 Q140.232 1323.6 140.232 1332.35 Q140.232 1341.08 137.154 1345.68 Q134.098 1350.27 128.288 1350.27 Q122.478 1350.27 119.399 1345.68 Q116.343 1341.08 116.343 1332.35 Q116.343 1323.6 119.399 1319.02 Q122.478 1314.41 128.288 1314.41 Z" fill="#000000" fill-rule="nonzero" fill-opacity="1" /><path clip-path="url(#clip010)" d="M148.45 1343.72 L153.334 1343.72 L153.334 1349.6 L148.45 1349.6 L148.45 1343.72 Z" fill="#000000" fill-rule="nonzero" fill-opacity="1" /><path clip-path="url(#clip010)" d="M167.547 1345.66 L183.866 1345.66 L183.866 1349.6 L161.922 1349.6 L161.922 1345.66 Q164.584 1342.91 169.167 1338.28 Q173.774 1333.62 174.954 1332.28 Q177.2 1329.76 178.079 1328.02 Q178.982 1326.26 178.982 1324.57 Q178.982 1321.82 177.038 1320.08 Q175.116 1318.35 172.014 1318.35 Q169.815 1318.35 167.362 1319.11 Q164.931 1319.87 162.153 1321.43 L162.153 1316.7 Q164.977 1315.57 167.431 1314.99 Q169.885 1314.41 171.922 1314.41 Q177.292 1314.41 180.487 1317.1 Q183.681 1319.78 183.681 1324.27 Q183.681 1326.4 182.871 1328.32 Q182.084 1330.22 179.977 1332.81 Q179.399 1333.49 176.297 1336.7 Q173.195 1339.9 167.547 1345.66 Z" fill="#000000" fill-rule="nonzero" fill-opacity="1" /><path clip-path="url(#clip010)" d="M127.339 902.738 Q123.728 902.738 121.899 906.303 Q120.093 909.844 120.093 916.974 Q120.093 924.08 121.899 927.645 Q123.728 931.187 127.339 931.187 Q130.973 931.187 132.779 927.645 Q134.607 924.08 134.607 916.974 Q134.607 909.844 132.779 906.303 Q130.973 902.738 127.339 902.738 M127.339 899.034 Q133.149 899.034 136.204 903.641 Q139.283 908.224 139.283 916.974 Q139.283 925.701 136.204 930.307 Q133.149 934.891 127.339 934.891 Q121.529 934.891 118.45 930.307 Q115.394 925.701 115.394 916.974 Q115.394 908.224 118.45 903.641 Q121.529 899.034 127.339 899.034 Z" fill="#000000" fill-rule="nonzero" fill-opacity="1" /><path clip-path="url(#clip010)" d="M147.501 928.34 L152.385 928.34 L152.385 934.219 L147.501 934.219 L147.501 928.34 Z" fill="#000000" fill-rule="nonzero" fill-opacity="1" /><path clip-path="url(#clip010)" d="M176.737 915.585 Q180.093 916.303 181.968 918.571 Q183.866 920.84 183.866 924.173 Q183.866 929.289 180.348 932.09 Q176.829 934.891 170.348 934.891 Q168.172 934.891 165.857 934.451 Q163.565 934.034 161.112 933.178 L161.112 928.664 Q163.056 929.798 165.371 930.377 Q167.686 930.955 170.209 930.955 Q174.607 930.955 176.899 929.219 Q179.214 927.483 179.214 924.173 Q179.214 921.118 177.061 919.405 Q174.931 917.668 171.112 917.668 L167.084 917.668 L167.084 913.826 L171.297 913.826 Q174.746 913.826 176.575 912.46 Q178.403 911.071 178.403 908.479 Q178.403 905.817 176.505 904.405 Q174.63 902.969 171.112 902.969 Q169.19 902.969 166.991 903.386 Q164.792 903.803 162.153 904.682 L162.153 900.516 Q164.815 899.775 167.13 899.405 Q169.468 899.034 171.528 899.034 Q176.852 899.034 179.954 901.465 Q183.056 903.872 183.056 907.993 Q183.056 910.863 181.413 912.854 Q179.769 914.821 176.737 915.585 Z" fill="#000000" fill-rule="nonzero" fill-opacity="1" /><path clip-path="url(#clip010)" d="M126.205 487.361 Q122.593 487.361 120.765 490.926 Q118.959 494.468 118.959 501.597 Q118.959 508.704 120.765 512.268 Q122.593 515.81 126.205 515.81 Q129.839 515.81 131.644 512.268 Q133.473 508.704 133.473 501.597 Q133.473 494.468 131.644 490.926 Q129.839 487.361 126.205 487.361 M126.205 483.658 Q132.015 483.658 135.07 488.264 Q138.149 492.847 138.149 501.597 Q138.149 510.324 135.07 514.93 Q132.015 519.514 126.205 519.514 Q120.394 519.514 117.316 514.93 Q114.26 510.324 114.26 501.597 Q114.26 492.847 117.316 488.264 Q120.394 483.658 126.205 483.658 Z" fill="#000000" fill-rule="nonzero" fill-opacity="1" /><path clip-path="url(#clip010)" d="M146.366 512.963 L151.251 512.963 L151.251 518.843 L146.366 518.843 L146.366 512.963 Z" fill="#000000" fill-rule="nonzero" fill-opacity="1" /><path clip-path="url(#clip010)" d="M174.283 488.357 L162.477 506.806 L174.283 506.806 L174.283 488.357 M173.056 484.283 L178.936 484.283 L178.936 506.806 L183.866 506.806 L183.866 510.694 L178.936 510.694 L178.936 518.843 L174.283 518.843 L174.283 510.694 L158.681 510.694 L158.681 506.181 L173.056 484.283 Z" fill="#000000" fill-rule="nonzero" fill-opacity="1" /><path clip-path="url(#clip010)" d="M127.686 71.9844 Q124.075 71.9844 122.246 75.5492 Q120.441 79.0908 120.441 86.2204 Q120.441 93.3268 122.246 96.8916 Q124.075 100.433 127.686 100.433 Q131.32 100.433 133.126 96.8916 Q134.954 93.3268 134.954 86.2204 Q134.954 79.0908 133.126 75.5492 Q131.32 71.9844 127.686 71.9844 M127.686 68.2807 Q133.496 68.2807 136.552 72.8871 Q139.63 77.4704 139.63 86.2204 Q139.63 94.9472 136.552 99.5537 Q133.496 104.137 127.686 104.137 Q121.876 104.137 118.797 99.5537 Q115.742 94.9472 115.742 86.2204 Q115.742 77.4704 118.797 72.8871 Q121.876 68.2807 127.686 68.2807 Z" fill="#000000" fill-rule="nonzero" fill-opacity="1" /><path clip-path="url(#clip010)" d="M147.848 97.5861 L152.732 97.5861 L152.732 103.466 L147.848 103.466 L147.848 97.5861 Z" fill="#000000" fill-rule="nonzero" fill-opacity="1" /><path clip-path="url(#clip010)" d="M162.964 68.9057 L181.32 68.9057 L181.32 72.8408 L167.246 72.8408 L167.246 81.313 Q168.264 80.9658 169.283 80.8038 Q170.302 80.6186 171.32 80.6186 Q177.107 80.6186 180.487 83.7899 Q183.866 86.9611 183.866 92.3778 Q183.866 97.9564 180.394 101.058 Q176.922 104.137 170.602 104.137 Q168.427 104.137 166.158 103.767 Q163.913 103.396 161.505 102.655 L161.505 97.9564 Q163.589 99.0907 165.811 99.6462 Q168.033 100.202 170.51 100.202 Q174.514 100.202 176.852 98.0953 Q179.19 95.9889 179.19 92.3778 Q179.19 88.7667 176.852 86.6602 Q174.514 84.5537 170.51 84.5537 Q168.635 84.5537 166.76 84.9704 Q164.908 85.3871 162.964 86.2667 L162.964 68.9057 Z" fill="#000000" fill-rule="nonzero" fill-opacity="1" /><path clip-path="url(#clip010)" d="M21.7677 896.901 L39.6235 896.901 L39.6235 888.816 Q39.6235 884.329 37.3 881.878 Q34.9765 879.427 30.6797 879.427 Q26.4147 879.427 24.0912 881.878 Q21.7677 884.329 21.7677 888.816 L21.7677 896.901 M16.4842 903.33 L16.4842 888.816 Q16.4842 880.828 20.1126 876.753 Q23.7092 872.648 30.6797 872.648 Q37.7138 872.648 41.3104 876.753 Q44.907 880.828 44.907 888.816 L44.907 896.901 L64.0042 896.901 L64.0042 903.33 L16.4842 903.33 Z" fill="#000000" fill-rule="nonzero" fill-opacity="1" /><path clip-path="url(#clip010)" d="M33.8307 844.766 Q33.2578 845.752 33.0032 846.93 Q32.7167 848.076 32.7167 849.476 Q32.7167 854.442 35.9632 857.115 Q39.1779 859.757 45.2253 859.757 L64.0042 859.757 L64.0042 865.645 L28.3562 865.645 L28.3562 859.757 L33.8944 859.757 Q30.6479 857.911 29.0883 854.951 Q27.4968 851.991 27.4968 847.758 Q27.4968 847.153 27.5923 846.421 Q27.656 845.689 27.8151 844.798 L33.8307 844.766 Z" fill="#000000" fill-rule="nonzero" fill-opacity="1" /><path clip-path="url(#clip010)" d="M32.4621 826.242 Q32.4621 830.952 36.1542 833.689 Q39.8145 836.427 46.212 836.427 Q52.6095 836.427 56.3017 833.721 Q59.9619 830.984 59.9619 826.242 Q59.9619 821.563 56.2698 818.826 Q52.5777 816.088 46.212 816.088 Q39.8781 816.088 36.186 818.826 Q32.4621 821.563 32.4621 826.242 M27.4968 826.242 Q27.4968 818.603 32.4621 814.242 Q37.4273 809.882 46.212 809.882 Q54.9649 809.882 59.9619 814.242 Q64.9272 818.603 64.9272 826.242 Q64.9272 833.912 59.9619 838.273 Q54.9649 842.601 46.212 842.601 Q37.4273 842.601 32.4621 838.273 Q27.4968 833.912 27.4968 826.242 Z" fill="#000000" fill-rule="nonzero" fill-opacity="1" /><path clip-path="url(#clip010)" d="M46.212 774.584 Q39.7508 774.584 36.0905 777.257 Q32.3984 779.899 32.3984 784.546 Q32.3984 789.193 36.0905 791.867 Q39.7508 794.509 46.212 794.509 Q52.6732 794.509 56.3653 791.867 Q60.0256 789.193 60.0256 784.546 Q60.0256 779.899 56.3653 777.257 Q52.6732 774.584 46.212 774.584 M33.7671 794.509 Q30.5842 792.662 29.0564 789.862 Q27.4968 787.029 27.4968 783.114 Q27.4968 776.621 32.6531 772.579 Q37.8093 768.505 46.212 768.505 Q54.6147 768.505 59.771 772.579 Q64.9272 776.621 64.9272 783.114 Q64.9272 787.029 63.3994 789.862 Q61.8398 792.662 58.657 794.509 L64.0042 794.509 L64.0042 800.397 L14.479 800.397 L14.479 794.509 L33.7671 794.509 Z" fill="#000000" fill-rule="nonzero" fill-opacity="1" /><path clip-path="url(#clip010)" d="M46.0847 742.596 Q46.0847 749.694 47.7079 752.431 Q49.3312 755.168 53.2461 755.168 Q56.3653 755.168 58.2114 753.131 Q60.0256 751.063 60.0256 747.53 Q60.0256 742.66 56.5881 739.732 Q53.1188 736.772 47.3897 736.772 L46.0847 736.772 L46.0847 742.596 M43.6657 730.915 L64.0042 730.915 L64.0042 736.772 L58.5933 736.772 Q61.8398 738.777 63.3994 741.769 Q64.9272 744.761 64.9272 749.089 Q64.9272 754.564 61.8716 757.81 Q58.7843 761.025 53.6281 761.025 Q47.6125 761.025 44.5569 757.015 Q41.5014 752.972 41.5014 744.983 L41.5014 736.772 L40.9285 736.772 Q36.8862 736.772 34.6901 739.445 Q32.4621 742.087 32.4621 746.893 Q32.4621 749.949 33.1941 752.845 Q33.9262 755.741 35.3903 758.415 L29.9795 758.415 Q28.7381 755.2 28.1334 752.177 Q27.4968 749.153 27.4968 746.288 Q27.4968 738.554 31.5072 734.735 Q35.5176 730.915 43.6657 730.915 Z" fill="#000000" fill-rule="nonzero" fill-opacity="1" /><path clip-path="url(#clip010)" d="M46.212 693.262 Q39.7508 693.262 36.0905 695.936 Q32.3984 698.577 32.3984 703.224 Q32.3984 707.871 36.0905 710.545 Q39.7508 713.187 46.212 713.187 Q52.6732 713.187 56.3653 710.545 Q60.0256 707.871 60.0256 703.224 Q60.0256 698.577 56.3653 695.936 Q52.6732 693.262 46.212 693.262 M33.7671 713.187 Q30.5842 711.341 29.0564 708.54 Q27.4968 705.707 27.4968 701.792 Q27.4968 695.299 32.6531 691.257 Q37.8093 687.183 46.212 687.183 Q54.6147 687.183 59.771 691.257 Q64.9272 695.299 64.9272 701.792 Q64.9272 705.707 63.3994 708.54 Q61.8398 711.341 58.657 713.187 L64.0042 713.187 L64.0042 719.075 L14.479 719.075 L14.479 713.187 L33.7671 713.187 Z" fill="#000000" fill-rule="nonzero" fill-opacity="1" /><path clip-path="url(#clip010)" d="M28.3562 677.475 L28.3562 671.619 L64.0042 671.619 L64.0042 677.475 L28.3562 677.475 M14.479 677.475 L14.479 671.619 L21.895 671.619 L21.895 677.475 L14.479 677.475 Z" fill="#000000" fill-rule="nonzero" fill-opacity="1" /><path clip-path="url(#clip010)" d="M14.479 659.365 L14.479 653.508 L64.0042 653.508 L64.0042 659.365 L14.479 659.365 Z" fill="#000000" fill-rule="nonzero" fill-opacity="1" /><path clip-path="url(#clip010)" d="M28.3562 641.254 L28.3562 635.398 L64.0042 635.398 L64.0042 641.254 L28.3562 641.254 M14.479 641.254 L14.479 635.398 L21.895 635.398 L21.895 641.254 L14.479 641.254 Z" fill="#000000" fill-rule="nonzero" fill-opacity="1" /><path clip-path="url(#clip010)" d="M18.2347 617.351 L28.3562 617.351 L28.3562 605.288 L32.9077 605.288 L32.9077 617.351 L52.2594 617.351 Q56.6199 617.351 57.8613 616.173 Q59.1026 614.964 59.1026 611.303 L59.1026 605.288 L64.0042 605.288 L64.0042 611.303 Q64.0042 618.083 61.4897 620.661 Q58.9434 623.239 52.2594 623.239 L32.9077 623.239 L32.9077 627.536 L28.3562 627.536 L28.3562 623.239 L18.2347 623.239 L18.2347 617.351 Z" fill="#000000" fill-rule="nonzero" fill-opacity="1" /><path clip-path="url(#clip010)" d="M67.3143 582.753 Q73.68 585.236 75.6216 587.591 Q77.5631 589.947 77.5631 593.893 L77.5631 598.572 L72.6615 598.572 L72.6615 595.135 Q72.6615 592.716 71.5157 591.379 Q70.3699 590.042 66.1048 588.419 L63.4312 587.368 L28.3562 601.787 L28.3562 595.58 L56.238 584.44 L28.3562 573.3 L28.3562 567.094 L67.3143 582.753 Z" fill="#000000" fill-rule="nonzero" fill-opacity="1" /><polyline clip-path="url(#clip012)" style="stroke:#009af9; stroke-linecap:round; stroke-linejoin:round; stroke-width:4; stroke-opacity:1; fill:none" points="280.231,86.1857 321.296,345.796 362.36,475.601 403.425,491.827 444.489,499.94 485.554,500.954 526.618,501.461 567.683,501.524 608.747,501.556 649.811,501.56 690.876,501.562 731.94,501.562 773.005,501.562 814.069,501.562 855.134,501.563 896.198,501.563 937.263,501.563 978.327,501.563 1019.39,501.563 1060.46,501.563 1101.52,501.563 1142.59,501.563 1183.65,501.563 1224.71,501.563 1265.78,501.563 1306.84,501.563 1347.91,501.563 1388.97,501.563 1430.04,501.563 1471.1,501.563 1512.17,501.563 1553.23,501.563 1594.29,501.563 1635.36,501.563 1676.42,501.563 1717.49,501.563 1758.55,501.563 1799.62,501.563 1840.68,501.563 1881.75,501.563 1922.81,501.563 1963.88,501.563 2004.94,501.563 2046,501.563 2087.07,501.563 2128.13,501.563 2169.2,501.563 2210.26,501.563 2251.33,501.563 2292.39,501.563 "/>
<polyline clip-path="url(#clip012)" style="stroke:#e26f46; stroke-linecap:round; stroke-linejoin:round; stroke-width:4; stroke-opacity:1; fill:none" points="280.231,1124.63 321.296,1384.24 362.36,1319.34 403.425,1335.56 444.489,1331.5 485.554,1332.52 526.618,1332.27 567.683,1332.33 608.747,1332.31 649.811,1332.32 690.876,1332.32 731.94,1332.32 773.005,1332.32 814.069,1332.32 855.134,1332.32 896.198,1332.32 937.263,1332.32 978.327,1332.32 1019.39,1332.32 1060.46,1332.32 1101.52,1332.32 1142.59,1332.32 1183.65,1332.32 1224.71,1332.32 1265.78,1332.32 1306.84,1332.32 1347.91,1332.32 1388.97,1332.32 1430.04,1332.32 1471.1,1332.32 1512.17,1332.32 1553.23,1332.32 1594.29,1332.32 1635.36,1332.32 1676.42,1332.32 1717.49,1332.32 1758.55,1332.32 1799.62,1332.32 1840.68,1332.32 1881.75,1332.32 1922.81,1332.32 1963.88,1332.32 2004.94,1332.32 2046,1332.32 2087.07,1332.32 2128.13,1332.32 2169.2,1332.32 2210.26,1332.32 2251.33,1332.32 2292.39,1332.32 "/>
<polyline clip-path="url(#clip012)" style="stroke:#3da44d; stroke-linecap:round; stroke-linejoin:round; stroke-width:4; stroke-opacity:1; fill:none" points="280.231,1124.63 321.296,605.407 362.36,540.504 403.425,508.053 444.489,503.996 485.554,501.968 526.618,501.715 567.683,501.588 608.747,501.572 649.811,501.564 690.876,501.563 731.94,501.563 773.005,501.563 814.069,501.563 855.134,501.563 896.198,501.563 937.263,501.563 978.327,501.563 1019.39,501.563 1060.46,501.563 1101.52,501.563 1142.59,501.563 1183.65,501.563 1224.71,501.563 1265.78,501.563 1306.84,501.563 1347.91,501.563 1388.97,501.563 1430.04,501.563 1471.1,501.563 1512.17,501.563 1553.23,501.563 1594.29,501.563 1635.36,501.563 1676.42,501.563 1717.49,501.563 1758.55,501.563 1799.62,501.563 1840.68,501.563 1881.75,501.563 1922.81,501.563 1963.88,501.563 2004.94,501.563 2046,501.563 2087.07,501.563 2128.13,501.563 2169.2,501.563 2210.26,501.563 2251.33,501.563 2292.39,501.563 "/>
<path clip-path="url(#clip010)" d="M1899.85 300.469 L2281.66 300.469 L2281.66 93.1086 L1899.85 93.1086  Z" fill="#ffffff" fill-rule="evenodd" fill-opacity="1"/>
<polyline clip-path="url(#clip010)" style="stroke:#000000; stroke-linecap:round; stroke-linejoin:round; stroke-width:4; stroke-opacity:1; fill:none" points="1899.85,300.469 2281.66,300.469 2281.66,93.1086 1899.85,93.1086 1899.85,300.469 "/>
<polyline clip-path="url(#clip010)" style="stroke:#009af9; stroke-linecap:round; stroke-linejoin:round; stroke-width:4; stroke-opacity:1; fill:none" points="1923.55,144.949 2065.74,144.949 "/>
<path clip-path="url(#clip010)" d="M2105.83 146.025 Q2107.34 146.534 2108.75 148.201 Q2110.18 149.868 2111.62 152.784 L2116.36 162.229 L2111.34 162.229 L2106.92 153.363 Q2105.21 149.891 2103.59 148.756 Q2101.99 147.622 2099.21 147.622 L2094.12 147.622 L2094.12 162.229 L2089.44 162.229 L2089.44 127.669 L2100 127.669 Q2105.92 127.669 2108.84 130.145 Q2111.76 132.622 2111.76 137.622 Q2111.76 140.886 2110.23 143.039 Q2108.73 145.192 2105.83 146.025 M2094.12 131.511 L2094.12 143.78 L2100 143.78 Q2103.38 143.78 2105.09 142.229 Q2106.83 140.655 2106.83 137.622 Q2106.83 134.59 2105.09 133.062 Q2103.38 131.511 2100 131.511 L2094.12 131.511 Z" fill="#000000" fill-rule="nonzero" fill-opacity="1" /><path clip-path="url(#clip010)" d="M2132.94 149.196 Q2127.78 149.196 2125.79 150.377 Q2123.79 151.557 2123.79 154.405 Q2123.79 156.673 2125.28 158.016 Q2126.78 159.335 2129.35 159.335 Q2132.89 159.335 2135.02 156.835 Q2137.17 154.312 2137.17 150.145 L2137.17 149.196 L2132.94 149.196 M2141.43 147.437 L2141.43 162.229 L2137.17 162.229 L2137.17 158.293 Q2135.72 160.655 2133.54 161.789 Q2131.36 162.9 2128.22 162.9 Q2124.23 162.9 2121.87 160.678 Q2119.54 158.432 2119.54 154.682 Q2119.54 150.307 2122.45 148.085 Q2125.39 145.863 2131.2 145.863 L2137.17 145.863 L2137.17 145.446 Q2137.17 142.507 2135.23 140.909 Q2133.31 139.289 2129.81 139.289 Q2127.59 139.289 2125.48 139.821 Q2123.38 140.354 2121.43 141.419 L2121.43 137.483 Q2123.77 136.581 2125.97 136.141 Q2128.17 135.678 2130.25 135.678 Q2135.88 135.678 2138.66 138.594 Q2141.43 141.511 2141.43 147.437 Z" fill="#000000" fill-rule="nonzero" fill-opacity="1" /><path clip-path="url(#clip010)" d="M2150.21 136.303 L2154.47 136.303 L2154.47 162.229 L2150.21 162.229 L2150.21 136.303 M2150.21 126.21 L2154.47 126.21 L2154.47 131.604 L2150.21 131.604 L2150.21 126.21 Z" fill="#000000" fill-rule="nonzero" fill-opacity="1" /><path clip-path="url(#clip010)" d="M2184.93 146.581 L2184.93 162.229 L2180.67 162.229 L2180.67 146.719 Q2180.67 143.039 2179.23 141.21 Q2177.8 139.382 2174.93 139.382 Q2171.48 139.382 2169.49 141.581 Q2167.5 143.78 2167.5 147.576 L2167.5 162.229 L2163.22 162.229 L2163.22 136.303 L2167.5 136.303 L2167.5 140.331 Q2169.03 137.993 2171.09 136.835 Q2173.17 135.678 2175.88 135.678 Q2180.35 135.678 2182.64 138.456 Q2184.93 141.21 2184.93 146.581 Z" fill="#000000" fill-rule="nonzero" fill-opacity="1" /><path clip-path="url(#clip010)" d="M2193.42 136.303 L2197.68 136.303 L2197.68 162.229 L2193.42 162.229 L2193.42 136.303 M2193.42 126.21 L2197.68 126.21 L2197.68 131.604 L2193.42 131.604 L2193.42 126.21 Z" fill="#000000" fill-rule="nonzero" fill-opacity="1" /><path clip-path="url(#clip010)" d="M2228.15 146.581 L2228.15 162.229 L2223.89 162.229 L2223.89 146.719 Q2223.89 143.039 2222.45 141.21 Q2221.02 139.382 2218.15 139.382 Q2214.7 139.382 2212.71 141.581 Q2210.72 143.78 2210.72 147.576 L2210.72 162.229 L2206.43 162.229 L2206.43 136.303 L2210.72 136.303 L2210.72 140.331 Q2212.24 137.993 2214.3 136.835 Q2216.39 135.678 2219.1 135.678 Q2223.56 135.678 2225.85 138.456 Q2228.15 141.21 2228.15 146.581 Z" fill="#000000" fill-rule="nonzero" fill-opacity="1" /><path clip-path="url(#clip010)" d="M2253.7 148.965 Q2253.7 144.335 2251.78 141.789 Q2249.88 139.243 2246.43 139.243 Q2243.01 139.243 2241.09 141.789 Q2239.19 144.335 2239.19 148.965 Q2239.19 153.571 2241.09 156.118 Q2243.01 158.664 2246.43 158.664 Q2249.88 158.664 2251.78 156.118 Q2253.7 153.571 2253.7 148.965 M2257.96 159.011 Q2257.96 165.631 2255.02 168.849 Q2252.08 172.09 2246.02 172.09 Q2243.77 172.09 2241.78 171.742 Q2239.79 171.418 2237.91 170.724 L2237.91 166.58 Q2239.79 167.599 2241.62 168.085 Q2243.45 168.571 2245.35 168.571 Q2249.53 168.571 2251.62 166.372 Q2253.7 164.196 2253.7 159.775 L2253.7 157.668 Q2252.38 159.96 2250.32 161.094 Q2248.26 162.229 2245.39 162.229 Q2240.62 162.229 2237.71 158.594 Q2234.79 154.96 2234.79 148.965 Q2234.79 142.946 2237.71 139.312 Q2240.62 135.678 2245.39 135.678 Q2248.26 135.678 2250.32 136.812 Q2252.38 137.946 2253.7 140.238 L2253.7 136.303 L2257.96 136.303 L2257.96 159.011 Z" fill="#000000" fill-rule="nonzero" fill-opacity="1" /><polyline clip-path="url(#clip010)" style="stroke:#e26f46; stroke-linecap:round; stroke-linejoin:round; stroke-width:4; stroke-opacity:1; fill:none" points="1923.55,196.789 2065.74,196.789 "/>
<path clip-path="url(#clip010)" d="M2089.44 179.509 L2095.74 179.509 L2111.06 208.421 L2111.06 179.509 L2115.6 179.509 L2115.6 214.069 L2109.3 214.069 L2093.98 185.157 L2093.98 214.069 L2089.44 214.069 L2089.44 179.509 Z" fill="#000000" fill-rule="nonzero" fill-opacity="1" /><path clip-path="url(#clip010)" d="M2124.72 188.143 L2128.98 188.143 L2128.98 214.069 L2124.72 214.069 L2124.72 188.143 M2124.72 178.05 L2128.98 178.05 L2128.98 183.444 L2124.72 183.444 L2124.72 178.05 Z" fill="#000000" fill-rule="nonzero" fill-opacity="1" /><path clip-path="url(#clip010)" d="M2156.55 189.138 L2156.55 193.12 Q2154.74 192.124 2152.92 191.638 Q2151.11 191.129 2149.26 191.129 Q2145.11 191.129 2142.82 193.768 Q2140.53 196.384 2140.53 201.129 Q2140.53 205.874 2142.82 208.513 Q2145.11 211.129 2149.26 211.129 Q2151.11 211.129 2152.92 210.643 Q2154.74 210.133 2156.55 209.138 L2156.55 213.073 Q2154.77 213.907 2152.85 214.323 Q2150.95 214.74 2148.79 214.74 Q2142.94 214.74 2139.49 211.059 Q2136.04 207.379 2136.04 201.129 Q2136.04 194.786 2139.51 191.152 Q2143.01 187.518 2149.07 187.518 Q2151.04 187.518 2152.92 187.935 Q2154.79 188.328 2156.55 189.138 Z" fill="#000000" fill-rule="nonzero" fill-opacity="1" /><path clip-path="url(#clip010)" d="M2186.13 200.041 L2186.13 202.124 L2166.55 202.124 Q2166.83 206.522 2169.19 208.837 Q2171.57 211.129 2175.81 211.129 Q2178.26 211.129 2180.55 210.527 Q2182.87 209.925 2185.14 208.721 L2185.14 212.749 Q2182.85 213.721 2180.44 214.231 Q2178.03 214.74 2175.55 214.74 Q2169.35 214.74 2165.72 211.129 Q2162.1 207.518 2162.1 201.36 Q2162.1 194.995 2165.53 191.268 Q2168.98 187.518 2174.81 187.518 Q2180.04 187.518 2183.08 190.897 Q2186.13 194.254 2186.13 200.041 M2181.87 198.791 Q2181.83 195.296 2179.91 193.212 Q2178.01 191.129 2174.86 191.129 Q2171.29 191.129 2169.14 193.143 Q2167.01 195.157 2166.69 198.814 L2181.87 198.791 Z" fill="#000000" fill-rule="nonzero" fill-opacity="1" /><polyline clip-path="url(#clip010)" style="stroke:#3da44d; stroke-linecap:round; stroke-linejoin:round; stroke-width:4; stroke-opacity:1; fill:none" points="1923.55,248.629 2065.74,248.629 "/>
<path clip-path="url(#clip010)" d="M2109.95 240.978 L2109.95 244.96 Q2108.15 243.964 2106.32 243.478 Q2104.51 242.969 2102.66 242.969 Q2098.52 242.969 2096.23 245.608 Q2093.93 248.224 2093.93 252.969 Q2093.93 257.714 2096.23 260.353 Q2098.52 262.969 2102.66 262.969 Q2104.51 262.969 2106.32 262.483 Q2108.15 261.973 2109.95 260.978 L2109.95 264.913 Q2108.17 265.747 2106.25 266.163 Q2104.35 266.58 2102.2 266.58 Q2096.34 266.58 2092.89 262.899 Q2089.44 259.219 2089.44 252.969 Q2089.44 246.626 2092.92 242.992 Q2096.41 239.358 2102.48 239.358 Q2104.44 239.358 2106.32 239.775 Q2108.19 240.168 2109.95 240.978 Z" fill="#000000" fill-rule="nonzero" fill-opacity="1" /><path clip-path="url(#clip010)" d="M2117.36 229.89 L2121.62 229.89 L2121.62 265.909 L2117.36 265.909 L2117.36 229.89 Z" fill="#000000" fill-rule="nonzero" fill-opacity="1" /><path clip-path="url(#clip010)" d="M2140.58 242.969 Q2137.15 242.969 2135.16 245.654 Q2133.17 248.316 2133.17 252.969 Q2133.17 257.622 2135.14 260.307 Q2137.13 262.969 2140.58 262.969 Q2143.98 262.969 2145.97 260.284 Q2147.96 257.598 2147.96 252.969 Q2147.96 248.362 2145.97 245.677 Q2143.98 242.969 2140.58 242.969 M2140.58 239.358 Q2146.13 239.358 2149.3 242.969 Q2152.48 246.58 2152.48 252.969 Q2152.48 259.335 2149.3 262.969 Q2146.13 266.58 2140.58 266.58 Q2135 266.58 2131.83 262.969 Q2128.68 259.335 2128.68 252.969 Q2128.68 246.58 2131.83 242.969 Q2135 239.358 2140.58 239.358 Z" fill="#000000" fill-rule="nonzero" fill-opacity="1" /><path clip-path="url(#clip010)" d="M2159.1 255.677 L2159.1 239.983 L2163.35 239.983 L2163.35 255.515 Q2163.35 259.196 2164.79 261.048 Q2166.23 262.876 2169.1 262.876 Q2172.54 262.876 2174.54 260.677 Q2176.55 258.478 2176.55 254.682 L2176.55 239.983 L2180.81 239.983 L2180.81 265.909 L2176.55 265.909 L2176.55 261.927 Q2175 264.288 2172.94 265.446 Q2170.9 266.58 2168.19 266.58 Q2163.73 266.58 2161.41 263.802 Q2159.1 261.024 2159.1 255.677 M2169.81 239.358 L2169.81 239.358 Z" fill="#000000" fill-rule="nonzero" fill-opacity="1" /><path clip-path="url(#clip010)" d="M2206.64 243.918 L2206.64 229.89 L2210.9 229.89 L2210.9 265.909 L2206.64 265.909 L2206.64 262.02 Q2205.3 264.335 2203.24 265.469 Q2201.2 266.58 2198.33 266.58 Q2193.63 266.58 2190.67 262.83 Q2187.73 259.08 2187.73 252.969 Q2187.73 246.858 2190.67 243.108 Q2193.63 239.358 2198.33 239.358 Q2201.2 239.358 2203.24 240.492 Q2205.3 241.603 2206.64 243.918 M2192.13 252.969 Q2192.13 257.668 2194.05 260.353 Q2195.99 263.015 2199.37 263.015 Q2202.75 263.015 2204.7 260.353 Q2206.64 257.668 2206.64 252.969 Q2206.64 248.27 2204.7 245.608 Q2202.75 242.923 2199.37 242.923 Q2195.99 242.923 2194.05 245.608 Q2192.13 248.27 2192.13 252.969 Z" fill="#000000" fill-rule="nonzero" fill-opacity="1" /><path clip-path="url(#clip010)" d="M2230.46 268.316 Q2228.66 272.946 2226.94 274.358 Q2225.23 275.77 2222.36 275.77 L2218.96 275.77 L2218.96 272.205 L2221.46 272.205 Q2223.22 272.205 2224.19 271.372 Q2225.16 270.538 2226.34 267.436 L2227.1 265.492 L2216.62 239.983 L2221.13 239.983 L2229.23 260.261 L2237.34 239.983 L2241.85 239.983 L2230.46 268.316 Z" fill="#000000" fill-rule="nonzero" fill-opacity="1" /></svg>