<?xml version="1.0" encoding="utf-8"?>
<svg xmlns="http://www.w3.org/2000/svg" xmlns:xlink="http://www.w3.org/1999/xlink" width="600" height="400" viewBox="0 0 2400 1600">
<defs>
  <clipPath id="clip470">
    <rect x="0" y="0" width="2400" height="1600"/>
  </clipPath>
</defs>
<path clip-path="url(#clip470)" d="M0 1600 L2400 1600 L2400 8.88178e-14 L0 8.88178e-14  Z" fill="#ffffff" fill-rule="evenodd" fill-opacity="1"/>
<defs>
  <clipPath id="clip471">
    <rect x="480" y="0" width="1681" height="1600"/>
  </clipPath>
</defs>
<path clip-path="url(#clip470)" d="M156.112 1486.45 L2352.76 1486.45 L2352.76 47.2441 L156.112 47.2441  Z" fill="#ffffff" fill-rule="evenodd" fill-opacity="1"/>
<defs>
  <clipPath id="clip472">
    <rect x="156" y="47" width="2198" height="1440"/>
  </clipPath>
</defs>
<polyline clip-path="url(#clip472)" style="stroke:#000000; stroke-linecap:round; stroke-linejoin:round; stroke-width:2; stroke-opacity:0.1; fill:none" points="218.281,1486.45 218.281,47.2441 "/>
<polyline clip-path="url(#clip472)" style="stroke:#000000; stroke-linecap:round; stroke-linejoin:round; stroke-width:2; stroke-opacity:0.1; fill:none" points="632.742,1486.45 632.742,47.2441 "/>
<polyline clip-path="url(#clip472)" style="stroke:#000000; stroke-linecap:round; stroke-linejoin:round; stroke-width:2; stroke-opacity:0.1; fill:none" points="1047.2,1486.45 1047.2,47.2441 "/>
<polyline clip-path="url(#clip472)" style="stroke:#000000; stroke-linecap:round; stroke-linejoin:round; stroke-width:2; stroke-opacity:0.1; fill:none" points="1461.66,1486.45 1461.66,47.2441 "/>
<polyline clip-path="url(#clip472)" style="stroke:#000000; stroke-linecap:round; stroke-linejoin:round; stroke-width:2; stroke-opacity:0.1; fill:none" points="1876.13,1486.45 1876.13,47.2441 "/>
<polyline clip-path="url(#clip472)" style="stroke:#000000; stroke-linecap:round; stroke-linejoin:round; stroke-width:2; stroke-opacity:0.1; fill:none" points="2290.59,1486.45 2290.59,47.2441 "/>
<polyline clip-path="url(#clip472)" style="stroke:#000000; stroke-linecap:round; stroke-linejoin:round; stroke-width:2; stroke-opacity:0.1; fill:none" points="156.112,1445.72 2352.76,1445.72 "/>
<polyline clip-path="url(#clip472)" style="stroke:#000000; stroke-linecap:round; stroke-linejoin:round; stroke-width:2; stroke-opacity:0.1; fill:none" points="156.112,1106.28 2352.76,1106.28 "/>
<polyline clip-path="url(#clip472)" style="stroke:#000000; stroke-linecap:round; stroke-linejoin:round; stroke-width:2; stroke-opacity:0.1; fill:none" points="156.112,766.846 2352.76,766.846 "/>
<polyline clip-path="url(#clip472)" style="stroke:#000000; stroke-linecap:round; stroke-linejoin:round; stroke-width:2; stroke-opacity:0.1; fill:none" points="156.112,427.411 2352.76,427.411 "/>
<polyline clip-path="url(#clip472)" style="stroke:#000000; stroke-linecap:round; stroke-linejoin:round; stroke-width:2; stroke-opacity:0.1; fill:none" points="156.112,87.9763 2352.76,87.9763 "/>
<polyline clip-path="url(#clip470)" style="stroke:#000000; stroke-linecap:round; stroke-linejoin:round; stroke-width:4; stroke-opacity:1; fill:none" points="156.112,1486.45 2352.76,1486.45 "/>
<polyline clip-path="url(#clip470)" style="stroke:#000000; stroke-linecap:round; stroke-linejoin:round; stroke-width:4; stroke-opacity:1; fill:none" points="218.281,1486.45 218.281,1467.55 "/>
<polyline clip-path="url(#clip470)" style="stroke:#000000; stroke-linecap:round; stroke-linejoin:round; stroke-width:4; stroke-opacity:1; fill:none" points="632.742,1486.45 632.742,1467.55 "/>
<polyline clip-path="url(#clip470)" style="stroke:#000000; stroke-linecap:round; stroke-linejoin:round; stroke-width:4; stroke-opacity:1; fill:none" points="1047.2,1486.45 1047.2,1467.55 "/>
<polyline clip-path="url(#clip470)" style="stroke:#000000; stroke-linecap:round; stroke-linejoin:round; stroke-width:4; stroke-opacity:1; fill:none" points="1461.66,1486.45 1461.66,1467.55 "/>
<polyline clip-path="url(#clip470)" style="stroke:#000000; stroke-linecap:round; stroke-linejoin:round; stroke-width:4; stroke-opacity:1; fill:none" points="1876.13,1486.45 1876.13,1467.55 "/>
<polyline clip-path="url(#clip470)" style="stroke:#000000; stroke-linecap:round; stroke-linejoin:round; stroke-width:4; stroke-opacity:1; fill:none" points="2290.59,1486.45 2290.59,1467.55 "/>
<path clip-path="url(#clip470)" d="M208.663 1544.91 L216.302 1544.91 L216.302 1518.55 L207.992 1520.21 L207.992 1515.95 L216.256 1514.29 L220.932 1514.29 L220.932 1544.91 L228.571 1544.91 L228.571 1548.85 L208.663 1548.85 L208.663 1544.91 Z" fill="#000000" fill-rule="nonzero" fill-opacity="1" /><path clip-path="url(#clip470)" d="M627.395 1544.91 L643.715 1544.91 L643.715 1548.85 L621.77 1548.85 L621.77 1544.91 Q624.432 1542.16 629.016 1537.53 Q633.622 1532.88 634.803 1531.53 Q637.048 1529.01 637.928 1527.27 Q638.83 1525.51 638.83 1523.82 Q638.83 1521.07 636.886 1519.33 Q634.965 1517.6 631.863 1517.6 Q629.664 1517.6 627.21 1518.36 Q624.779 1519.13 622.002 1520.68 L622.002 1515.95 Q624.826 1514.82 627.279 1514.24 Q629.733 1513.66 631.77 1513.66 Q637.141 1513.66 640.335 1516.35 Q643.529 1519.03 643.529 1523.52 Q643.529 1525.65 642.719 1527.57 Q641.932 1529.47 639.826 1532.07 Q639.247 1532.74 636.145 1535.95 Q633.043 1539.15 627.395 1544.91 Z" fill="#000000" fill-rule="nonzero" fill-opacity="1" /><path clip-path="url(#clip470)" d="M1051.45 1530.21 Q1054.81 1530.93 1056.68 1533.2 Q1058.58 1535.47 1058.58 1538.8 Q1058.58 1543.92 1055.06 1546.72 Q1051.54 1549.52 1045.06 1549.52 Q1042.89 1549.52 1040.57 1549.08 Q1038.28 1548.66 1035.83 1547.81 L1035.83 1543.29 Q1037.77 1544.43 1040.09 1545.01 Q1042.4 1545.58 1044.92 1545.58 Q1049.32 1545.58 1051.61 1543.85 Q1053.93 1542.11 1053.93 1538.8 Q1053.93 1535.75 1051.78 1534.03 Q1049.65 1532.3 1045.83 1532.3 L1041.8 1532.3 L1041.8 1528.45 L1046.01 1528.45 Q1049.46 1528.45 1051.29 1527.09 Q1053.12 1525.7 1053.12 1523.11 Q1053.12 1520.45 1051.22 1519.03 Q1049.34 1517.6 1045.83 1517.6 Q1043.9 1517.6 1041.71 1518.01 Q1039.51 1518.43 1036.87 1519.31 L1036.87 1515.14 Q1039.53 1514.4 1041.84 1514.03 Q1044.18 1513.66 1046.24 1513.66 Q1051.57 1513.66 1054.67 1516.09 Q1057.77 1518.5 1057.77 1522.62 Q1057.77 1525.49 1056.13 1527.48 Q1054.48 1529.45 1051.45 1530.21 Z" fill="#000000" fill-rule="nonzero" fill-opacity="1" /><path clip-path="url(#clip470)" d="M1464.67 1518.36 L1452.87 1536.81 L1464.67 1536.81 L1464.67 1518.36 M1463.45 1514.29 L1469.33 1514.29 L1469.33 1536.81 L1474.26 1536.81 L1474.26 1540.7 L1469.33 1540.7 L1469.33 1548.85 L1464.67 1548.85 L1464.67 1540.7 L1449.07 1540.7 L1449.07 1536.19 L1463.45 1514.29 Z" fill="#000000" fill-rule="nonzero" fill-opacity="1" /><path clip-path="url(#clip470)" d="M1866.4 1514.29 L1884.76 1514.29 L1884.76 1518.22 L1870.69 1518.22 L1870.69 1526.7 Q1871.7 1526.35 1872.72 1526.19 Q1873.74 1526 1874.76 1526 Q1880.55 1526 1883.93 1529.17 Q1887.31 1532.34 1887.31 1537.76 Q1887.31 1543.34 1883.83 1546.44 Q1880.36 1549.52 1874.04 1549.52 Q1871.87 1549.52 1869.6 1549.15 Q1867.35 1548.78 1864.95 1548.04 L1864.95 1543.34 Q1867.03 1544.47 1869.25 1545.03 Q1871.47 1545.58 1873.95 1545.58 Q1877.95 1545.58 1880.29 1543.48 Q1882.63 1541.37 1882.63 1537.76 Q1882.63 1534.15 1880.29 1532.04 Q1877.95 1529.94 1873.95 1529.94 Q1872.07 1529.94 1870.2 1530.35 Q1868.35 1530.77 1866.4 1531.65 L1866.4 1514.29 Z" fill="#000000" fill-rule="nonzero" fill-opacity="1" /><path clip-path="url(#clip470)" d="M2290.99 1529.7 Q2287.84 1529.7 2285.99 1531.86 Q2284.16 1534.01 2284.16 1537.76 Q2284.16 1541.49 2285.99 1543.66 Q2287.84 1545.82 2290.99 1545.82 Q2294.14 1545.82 2295.97 1543.66 Q2297.82 1541.49 2297.82 1537.76 Q2297.82 1534.01 2295.97 1531.86 Q2294.14 1529.7 2290.99 1529.7 M2300.27 1515.05 L2300.27 1519.31 Q2298.51 1518.48 2296.71 1518.04 Q2294.93 1517.6 2293.17 1517.6 Q2288.54 1517.6 2286.08 1520.72 Q2283.65 1523.85 2283.31 1530.17 Q2284.67 1528.15 2286.73 1527.09 Q2288.79 1526 2291.27 1526 Q2296.48 1526 2299.49 1529.17 Q2302.52 1532.32 2302.52 1537.76 Q2302.52 1543.08 2299.37 1546.3 Q2296.22 1549.52 2290.99 1549.52 Q2285 1549.52 2281.83 1544.94 Q2278.65 1540.33 2278.65 1531.6 Q2278.65 1523.41 2282.54 1518.55 Q2286.43 1513.66 2292.98 1513.66 Q2294.74 1513.66 2296.52 1514.01 Q2298.33 1514.36 2300.27 1515.05 Z" fill="#000000" fill-rule="nonzero" fill-opacity="1" /><polyline clip-path="url(#clip470)" style="stroke:#000000; stroke-linecap:round; stroke-linejoin:round; stroke-width:4; stroke-opacity:1; fill:none" points="156.112,1486.45 156.112,47.2441 "/>
<polyline clip-path="url(#clip470)" style="stroke:#000000; stroke-linecap:round; stroke-linejoin:round; stroke-width:4; stroke-opacity:1; fill:none" points="156.112,1445.72 175.01,1445.72 "/>
<polyline clip-path="url(#clip470)" style="stroke:#000000; stroke-linecap:round; stroke-linejoin:round; stroke-width:4; stroke-opacity:1; fill:none" points="156.112,1106.28 175.01,1106.28 "/>
<polyline clip-path="url(#clip470)" style="stroke:#000000; stroke-linecap:round; stroke-linejoin:round; stroke-width:4; stroke-opacity:1; fill:none" points="156.112,766.846 175.01,766.846 "/>
<polyline clip-path="url(#clip470)" style="stroke:#000000; stroke-linecap:round; stroke-linejoin:round; stroke-width:4; stroke-opacity:1; fill:none" points="156.112,427.411 175.01,427.411 "/>
<polyline clip-path="url(#clip470)" style="stroke:#000000; stroke-linecap:round; stroke-linejoin:round; stroke-width:4; stroke-opacity:1; fill:none" points="156.112,87.9763 175.01,87.9763 "/>
<path clip-path="url(#clip470)" d="M62.9365 1431.51 Q59.3254 1431.51 57.4967 1435.08 Q55.6912 1438.62 55.6912 1445.75 Q55.6912 1452.86 57.4967 1456.42 Q59.3254 1459.96 62.9365 1459.96 Q66.5707 1459.96 68.3763 1456.42 Q70.205 1452.86 70.205 1445.75 Q70.205 1438.62 68.3763 1435.08 Q66.5707 1431.51 62.9365 1431.51 M62.9365 1427.81 Q68.7467 1427.81 71.8022 1432.42 Q74.8809 1437 74.8809 1445.75 Q74.8809 1454.48 71.8022 1459.08 Q68.7467 1463.67 62.9365 1463.67 Q57.1264 1463.67 54.0477 1459.08 Q50.9921 1454.48 50.9921 1445.75 Q50.9921 1437 54.0477 1432.42 Q57.1264 1427.81 62.9365 1427.81 Z" fill="#000000" fill-rule="nonzero" fill-opacity="1" /><path clip-path="url(#clip470)" d="M83.0984 1457.12 L87.9827 1457.12 L87.9827 1463 L83.0984 1463 L83.0984 1457.12 Z" fill="#000000" fill-rule="nonzero" fill-opacity="1" /><path clip-path="url(#clip470)" d="M108.168 1431.51 Q104.557 1431.51 102.728 1435.08 Q100.922 1438.62 100.922 1445.75 Q100.922 1452.86 102.728 1456.42 Q104.557 1459.96 108.168 1459.96 Q111.802 1459.96 113.608 1456.42 Q115.436 1452.86 115.436 1445.75 Q115.436 1438.62 113.608 1435.08 Q111.802 1431.51 108.168 1431.51 M108.168 1427.81 Q113.978 1427.81 117.033 1432.42 Q120.112 1437 120.112 1445.75 Q120.112 1454.48 117.033 1459.08 Q113.978 1463.67 108.168 1463.67 Q102.358 1463.67 99.2789 1459.08 Q96.2234 1454.48 96.2234 1445.75 Q96.2234 1437 99.2789 1432.42 Q102.358 1427.81 108.168 1427.81 Z" fill="#000000" fill-rule="nonzero" fill-opacity="1" /><path clip-path="url(#clip470)" d="M63.9319 1092.08 Q60.3208 1092.08 58.4921 1095.64 Q56.6865 1099.19 56.6865 1106.32 Q56.6865 1113.42 58.4921 1116.99 Q60.3208 1120.53 63.9319 1120.53 Q67.5661 1120.53 69.3717 1116.99 Q71.2004 1113.42 71.2004 1106.32 Q71.2004 1099.19 69.3717 1095.64 Q67.5661 1092.08 63.9319 1092.08 M63.9319 1088.38 Q69.742 1088.38 72.7976 1092.98 Q75.8763 1097.57 75.8763 1106.32 Q75.8763 1115.04 72.7976 1119.65 Q69.742 1124.23 63.9319 1124.23 Q58.1217 1124.23 55.043 1119.65 Q51.9875 1115.04 51.9875 1106.32 Q51.9875 1097.57 55.043 1092.98 Q58.1217 1088.38 63.9319 1088.38 Z" fill="#000000" fill-rule="nonzero" fill-opacity="1" /><path clip-path="url(#clip470)" d="M84.0938 1117.68 L88.978 1117.68 L88.978 1123.56 L84.0938 1123.56 L84.0938 1117.68 Z" fill="#000000" fill-rule="nonzero" fill-opacity="1" /><path clip-path="url(#clip470)" d="M99.2095 1089 L117.566 1089 L117.566 1092.94 L103.492 1092.94 L103.492 1101.41 Q104.51 1101.06 105.529 1100.9 Q106.547 1100.71 107.566 1100.71 Q113.353 1100.71 116.733 1103.89 Q120.112 1107.06 120.112 1112.47 Q120.112 1118.05 116.64 1121.15 Q113.168 1124.23 106.848 1124.23 Q104.672 1124.23 102.404 1123.86 Q100.159 1123.49 97.7511 1122.75 L97.7511 1118.05 Q99.8345 1119.19 102.057 1119.74 Q104.279 1120.3 106.756 1120.3 Q110.76 1120.3 113.098 1118.19 Q115.436 1116.08 115.436 1112.47 Q115.436 1108.86 113.098 1106.76 Q110.76 1104.65 106.756 1104.65 Q104.881 1104.65 103.006 1105.07 Q101.154 1105.48 99.2095 1106.36 L99.2095 1089 Z" fill="#000000" fill-rule="nonzero" fill-opacity="1" /><path clip-path="url(#clip470)" d="M53.7467 780.191 L61.3856 780.191 L61.3856 753.825 L53.0754 755.492 L53.0754 751.233 L61.3393 749.566 L66.0152 749.566 L66.0152 780.191 L73.654 780.191 L73.654 784.126 L53.7467 784.126 L53.7467 780.191 Z" fill="#000000" fill-rule="nonzero" fill-opacity="1" /><path clip-path="url(#clip470)" d="M83.0984 778.246 L87.9827 778.246 L87.9827 784.126 L83.0984 784.126 L83.0984 778.246 Z" fill="#000000" fill-rule="nonzero" fill-opacity="1" /><path clip-path="url(#clip470)" d="M108.168 752.645 Q104.557 752.645 102.728 756.209 Q100.922 759.751 100.922 766.881 Q100.922 773.987 102.728 777.552 Q104.557 781.094 108.168 781.094 Q111.802 781.094 113.608 777.552 Q115.436 773.987 115.436 766.881 Q115.436 759.751 113.608 756.209 Q111.802 752.645 108.168 752.645 M108.168 748.941 Q113.978 748.941 117.033 753.547 Q120.112 758.131 120.112 766.881 Q120.112 775.608 117.033 780.214 Q113.978 784.797 108.168 784.797 Q102.358 784.797 99.2789 780.214 Q96.2234 775.608 96.2234 766.881 Q96.2234 758.131 99.2789 753.547 Q102.358 748.941 108.168 748.941 Z" fill="#000000" fill-rule="nonzero" fill-opacity="1" /><path clip-path="url(#clip470)" d="M54.7421 440.756 L62.381 440.756 L62.381 414.39 L54.0708 416.057 L54.0708 411.798 L62.3347 410.131 L67.0106 410.131 L67.0106 440.756 L74.6494 440.756 L74.6494 444.691 L54.7421 444.691 L54.7421 440.756 Z" fill="#000000" fill-rule="nonzero" fill-opacity="1" /><path clip-path="url(#clip470)" d="M84.0938 438.812 L88.978 438.812 L88.978 444.691 L84.0938 444.691 L84.0938 438.812 Z" fill="#000000" fill-rule="nonzero" fill-opacity="1" /><path clip-path="url(#clip470)" d="M99.2095 410.131 L117.566 410.131 L117.566 414.066 L103.492 414.066 L103.492 422.538 Q104.51 422.191 105.529 422.029 Q106.547 421.844 107.566 421.844 Q113.353 421.844 116.733 425.015 Q120.112 428.187 120.112 433.603 Q120.112 439.182 116.64 442.284 Q113.168 445.362 106.848 445.362 Q104.672 445.362 102.404 444.992 Q100.159 444.622 97.7511 443.881 L97.7511 439.182 Q99.8345 440.316 102.057 440.872 Q104.279 441.427 106.756 441.427 Q110.76 441.427 113.098 439.321 Q115.436 437.214 115.436 433.603 Q115.436 429.992 113.098 427.886 Q110.76 425.779 106.756 425.779 Q104.881 425.779 103.006 426.196 Q101.154 426.613 99.2095 427.492 L99.2095 410.131 Z" fill="#000000" fill-rule="nonzero" fill-opacity="1" /><path clip-path="url(#clip470)" d="M56.9643 101.321 L73.2837 101.321 L73.2837 105.256 L51.3393 105.256 L51.3393 101.321 Q54.0014 98.5665 58.5847 93.9369 Q63.1911 89.2841 64.3717 87.9416 Q66.617 85.4184 67.4967 83.6823 Q68.3994 81.9231 68.3994 80.2333 Q68.3994 77.4786 66.455 75.7425 Q64.5337 74.0064 61.4319 74.0064 Q59.2328 74.0064 56.7791 74.7703 Q54.3486 75.5342 51.5708 77.0851 L51.5708 72.3629 Q54.3949 71.2287 56.8486 70.65 Q59.3023 70.0713 61.3393 70.0713 Q66.7096 70.0713 69.9041 72.7565 Q73.0985 75.4416 73.0985 79.9323 Q73.0985 82.062 72.2883 83.9832 Q71.5013 85.8814 69.3948 88.474 Q68.8161 89.1453 65.7143 92.3628 Q62.6124 95.5573 56.9643 101.321 Z" fill="#000000" fill-rule="nonzero" fill-opacity="1" /><path clip-path="url(#clip470)" d="M83.0984 99.3767 L87.9827 99.3767 L87.9827 105.256 L83.0984 105.256 L83.0984 99.3767 Z" fill="#000000" fill-rule="nonzero" fill-opacity="1" /><path clip-path="url(#clip470)" d="M108.168 73.775 Q104.557 73.775 102.728 77.3398 Q100.922 80.8814 100.922 88.011 Q100.922 95.1174 102.728 98.6822 Q104.557 102.224 108.168 102.224 Q111.802 102.224 113.608 98.6822 Q115.436 95.1174 115.436 88.011 Q115.436 80.8814 113.608 77.3398 Q111.802 73.775 108.168 73.775 M108.168 70.0713 Q113.978 70.0713 117.033 74.6777 Q120.112 79.261 120.112 88.011 Q120.112 96.7378 117.033 101.344 Q113.978 105.928 108.168 105.928 Q102.358 105.928 99.2789 101.344 Q96.2234 96.7378 96.2234 88.011 Q96.2234 79.261 99.2789 74.6777 Q102.358 70.0713 108.168 70.0713 Z" fill="#000000" fill-rule="nonzero" fill-opacity="1" /><polyline clip-path="url(#clip472)" style="stroke:#009af9; stroke-linecap:round; stroke-linejoin:round; stroke-width:4; stroke-opacity:1; fill:none" points="218.281,87.9763 632.742,1436.57 1047.2,1445.65 1461.66,1445.72 1876.13,1445.72 2290.59,1445.72 "/>
<polyline clip-path="url(#clip472)" style="stroke:#e26f46; stroke-linecap:round; stroke-linejoin:round; stroke-width:4; stroke-opacity:1; fill:none" points="218.281,87.9763 632.742,946.231 1047.2,1261.97 1461.66,1378.12 1876.13,1420.85 2290.59,1436.57 "/>
<polyline clip-path="url(#clip472)" style="stroke:#3da44d; stroke-linecap:round; stroke-linejoin:round; stroke-width:4; stroke-opacity:1; fill:none" points="218.281,87.9763 632.742,87.9763 1047.2,87.9763 1461.66,87.9763 1876.13,87.9763 2290.59,87.9763 "/>
<polyline clip-path="url(#clip472)" style="stroke:#c271d2; stroke-linecap:round; stroke-linejoin:round; stroke-width:4; stroke-opacity:1; fill:none" points="218.281,87.9763 632.742,101.486 1047.2,114.861 1461.66,128.104 1876.13,141.214 2290.59,154.194 "/>
<polyline clip-path="url(#clip472)" style="stroke:#ac8d18; stroke-linecap:round; stroke-linejoin:round; stroke-width:4; stroke-opacity:1; fill:none" points="218.281,87.9763 632.742,217.182 1047.2,334.093 1461.66,439.878 1876.13,535.596 2290.59,622.205 "/>
<path clip-path="url(#clip470)" d="M229.334 1438.47 L646.682 1438.47 L646.682 1127.43 L229.334 1127.43  Z" fill="#ffffff" fill-rule="evenodd" fill-opacity="1"/>
<polyline clip-path="url(#clip470)" style="stroke:#000000; stroke-linecap:round; stroke-linejoin:round; stroke-width:4; stroke-opacity:1; fill:none" points="229.334,1438.47 646.682,1438.47 646.682,1127.43 229.334,1127.43 229.334,1438.47 "/>
<polyline clip-path="url(#clip470)" style="stroke:#009af9; stroke-linecap:round; stroke-linejoin:round; stroke-width:4; stroke-opacity:1; fill:none" points="253.741,1179.27 400.184,1179.27 "/>
<path clip-path="url(#clip470)" d="M437.855 1164.59 L449.822 1196.55 L445.308 1196.55 L438.04 1177.39 L429.105 1196.55 L424.591 1196.55 L435.956 1171.69 L434.244 1167.11 Q433.156 1164.19 430.679 1164.19 L428.457 1164.19 L428.457 1160.54 L431.165 1160.58 Q436.396 1160.65 437.855 1164.59 Z" fill="#000000" fill-rule="nonzero" fill-opacity="1" /><path clip-path="url(#clip470)" d="M471.327 1175.03 L501.002 1175.03 L501.002 1178.92 L471.327 1178.92 L471.327 1175.03 M471.327 1184.47 L501.002 1184.47 L501.002 1188.41 L471.327 1188.41 L471.327 1184.47 Z" fill="#000000" fill-rule="nonzero" fill-opacity="1" /><path clip-path="url(#clip470)" d="M526.211 1161.99 L544.567 1161.99 L544.567 1165.93 L530.493 1165.93 L530.493 1174.4 Q531.512 1174.05 532.53 1173.89 Q533.549 1173.71 534.567 1173.71 Q540.354 1173.71 543.734 1176.88 Q547.113 1180.05 547.113 1185.47 Q547.113 1191.05 543.641 1194.15 Q540.169 1197.23 533.849 1197.23 Q531.674 1197.23 529.405 1196.86 Q527.16 1196.48 524.752 1195.74 L524.752 1191.05 Q526.836 1192.18 529.058 1192.73 Q531.28 1193.29 533.757 1193.29 Q537.762 1193.29 540.099 1191.18 Q542.437 1189.08 542.437 1185.47 Q542.437 1181.86 540.099 1179.75 Q537.762 1177.64 533.757 1177.64 Q531.882 1177.64 530.007 1178.06 Q528.155 1178.48 526.211 1179.36 L526.211 1161.99 Z" fill="#000000" fill-rule="nonzero" fill-opacity="1" /><path clip-path="url(#clip470)" d="M556.326 1190.67 L561.21 1190.67 L561.21 1196.55 L556.326 1196.55 L556.326 1190.67 Z" fill="#000000" fill-rule="nonzero" fill-opacity="1" /><path clip-path="url(#clip470)" d="M581.396 1165.07 Q577.784 1165.07 575.956 1168.64 Q574.15 1172.18 574.15 1179.31 Q574.15 1186.42 575.956 1189.98 Q577.784 1193.52 581.396 1193.52 Q585.03 1193.52 586.835 1189.98 Q588.664 1186.42 588.664 1179.31 Q588.664 1172.18 586.835 1168.64 Q585.03 1165.07 581.396 1165.07 M581.396 1161.37 Q587.206 1161.37 590.261 1165.98 Q593.34 1170.56 593.34 1179.31 Q593.34 1188.04 590.261 1192.64 Q587.206 1197.23 581.396 1197.23 Q575.585 1197.23 572.507 1192.64 Q569.451 1188.04 569.451 1179.31 Q569.451 1170.56 572.507 1165.98 Q575.585 1161.37 581.396 1161.37 Z" fill="#000000" fill-rule="nonzero" fill-opacity="1" /><polyline clip-path="url(#clip470)" style="stroke:#e26f46; stroke-linecap:round; stroke-linejoin:round; stroke-width:4; stroke-opacity:1; fill:none" points="253.741,1231.11 400.184,1231.11 "/>
<path clip-path="url(#clip470)" d="M437.855 1216.43 L449.822 1248.39 L445.308 1248.39 L438.04 1229.23 L429.105 1248.39 L424.591 1248.39 L435.956 1223.53 L434.244 1218.95 Q433.156 1216.03 430.679 1216.03 L428.457 1216.03 L428.457 1212.38 L431.165 1212.42 Q436.396 1212.49 437.855 1216.43 Z" fill="#000000" fill-rule="nonzero" fill-opacity="1" /><path clip-path="url(#clip470)" d="M471.327 1226.87 L501.002 1226.87 L501.002 1230.76 L471.327 1230.76 L471.327 1226.87 M471.327 1236.31 L501.002 1236.31 L501.002 1240.25 L471.327 1240.25 L471.327 1236.31 Z" fill="#000000" fill-rule="nonzero" fill-opacity="1" /><path clip-path="url(#clip470)" d="M526.975 1244.46 L534.613 1244.46 L534.613 1218.09 L526.303 1219.76 L526.303 1215.5 L534.567 1213.83 L539.243 1213.83 L539.243 1244.46 L546.882 1244.46 L546.882 1248.39 L526.975 1248.39 L526.975 1244.46 Z" fill="#000000" fill-rule="nonzero" fill-opacity="1" /><path clip-path="url(#clip470)" d="M556.326 1242.51 L561.21 1242.51 L561.21 1248.39 L556.326 1248.39 L556.326 1242.51 Z" fill="#000000" fill-rule="nonzero" fill-opacity="1" /><path clip-path="url(#clip470)" d="M581.396 1216.91 Q577.784 1216.91 575.956 1220.48 Q574.15 1224.02 574.15 1231.15 Q574.15 1238.26 575.956 1241.82 Q577.784 1245.36 581.396 1245.36 Q585.03 1245.36 586.835 1241.82 Q588.664 1238.26 588.664 1231.15 Q588.664 1224.02 586.835 1220.48 Q585.03 1216.91 581.396 1216.91 M581.396 1213.21 Q587.206 1213.21 590.261 1217.82 Q593.34 1222.4 593.34 1231.15 Q593.34 1239.88 590.261 1244.48 Q587.206 1249.07 581.396 1249.07 Q575.585 1249.07 572.507 1244.48 Q569.451 1239.88 569.451 1231.15 Q569.451 1222.4 572.507 1217.82 Q575.585 1213.21 581.396 1213.21 Z" fill="#000000" fill-rule="nonzero" fill-opacity="1" /><polyline clip-path="url(#clip470)" style="stroke:#3da44d; stroke-linecap:round; stroke-linejoin:round; stroke-width:4; stroke-opacity:1; fill:none" points="253.741,1282.95 400.184,1282.95 "/>
<path clip-path="url(#clip470)" d="M437.855 1268.27 L449.822 1300.23 L445.308 1300.23 L438.04 1281.07 L429.105 1300.23 L424.591 1300.23 L435.956 1275.37 L434.244 1270.79 Q433.156 1267.87 430.679 1267.87 L428.457 1267.87 L428.457 1264.22 L431.165 1264.26 Q436.396 1264.33 437.855 1268.27 Z" fill="#000000" fill-rule="nonzero" fill-opacity="1" /><path clip-path="url(#clip470)" d="M471.327 1278.71 L501.002 1278.71 L501.002 1282.6 L471.327 1282.6 L471.327 1278.71 M471.327 1288.15 L501.002 1288.15 L501.002 1292.09 L471.327 1292.09 L471.327 1288.15 Z" fill="#000000" fill-rule="nonzero" fill-opacity="1" /><path clip-path="url(#clip470)" d="M536.164 1268.75 Q532.553 1268.75 530.725 1272.32 Q528.919 1275.86 528.919 1282.99 Q528.919 1290.1 530.725 1293.66 Q532.553 1297.2 536.164 1297.2 Q539.799 1297.2 541.604 1293.66 Q543.433 1290.1 543.433 1282.99 Q543.433 1275.86 541.604 1272.32 Q539.799 1268.75 536.164 1268.75 M536.164 1265.05 Q541.974 1265.05 545.03 1269.66 Q548.109 1274.24 548.109 1282.99 Q548.109 1291.72 545.03 1296.32 Q541.974 1300.91 536.164 1300.91 Q530.354 1300.91 527.275 1296.32 Q524.22 1291.72 524.22 1282.99 Q524.22 1274.24 527.275 1269.66 Q530.354 1265.05 536.164 1265.05 Z" fill="#000000" fill-rule="nonzero" fill-opacity="1" /><path clip-path="url(#clip470)" d="M556.326 1294.35 L561.21 1294.35 L561.21 1300.23 L556.326 1300.23 L556.326 1294.35 Z" fill="#000000" fill-rule="nonzero" fill-opacity="1" /><path clip-path="url(#clip470)" d="M581.396 1268.75 Q577.784 1268.75 575.956 1272.32 Q574.15 1275.86 574.15 1282.99 Q574.15 1290.1 575.956 1293.66 Q577.784 1297.2 581.396 1297.2 Q585.03 1297.2 586.835 1293.66 Q588.664 1290.1 588.664 1282.99 Q588.664 1275.86 586.835 1272.32 Q585.03 1268.75 581.396 1268.75 M581.396 1265.05 Q587.206 1265.05 590.261 1269.66 Q593.34 1274.24 593.34 1282.99 Q593.34 1291.72 590.261 1296.32 Q587.206 1300.91 581.396 1300.91 Q575.585 1300.91 572.507 1296.32 Q569.451 1291.72 569.451 1282.99 Q569.451 1274.24 572.507 1269.66 Q575.585 1265.05 581.396 1265.05 Z" fill="#000000" fill-rule="nonzero" fill-opacity="1" /><polyline clip-path="url(#clip470)" style="stroke:#c271d2; stroke-linecap:round; stroke-linejoin:round; stroke-width:4; stroke-opacity:1; fill:none" points="253.741,1334.79 400.184,1334.79 "/>
<path clip-path="url(#clip470)" d="M437.855 1320.11 L449.822 1352.07 L445.308 1352.07 L438.04 1332.91 L429.105 1352.07 L424.591 1352.07 L435.956 1327.21 L434.244 1322.63 Q433.156 1319.71 430.679 1319.71 L428.457 1319.71 L428.457 1316.06 L431.165 1316.1 Q436.396 1316.17 437.855 1320.11 Z" fill="#000000" fill-rule="nonzero" fill-opacity="1" /><path clip-path="url(#clip470)" d="M471.327 1330.55 L501.002 1330.55 L501.002 1334.44 L471.327 1334.44 L471.327 1330.55 M471.327 1339.99 L501.002 1339.99 L501.002 1343.93 L471.327 1343.93 L471.327 1339.99 Z" fill="#000000" fill-rule="nonzero" fill-opacity="1" /><path clip-path="url(#clip470)" d="M536.164 1320.59 Q532.553 1320.59 530.725 1324.16 Q528.919 1327.7 528.919 1334.83 Q528.919 1341.94 530.725 1345.5 Q532.553 1349.04 536.164 1349.04 Q539.799 1349.04 541.604 1345.5 Q543.433 1341.94 543.433 1334.83 Q543.433 1327.7 541.604 1324.16 Q539.799 1320.59 536.164 1320.59 M536.164 1316.89 Q541.974 1316.89 545.03 1321.5 Q548.109 1326.08 548.109 1334.83 Q548.109 1343.56 545.03 1348.16 Q541.974 1352.75 536.164 1352.75 Q530.354 1352.75 527.275 1348.16 Q524.22 1343.56 524.22 1334.83 Q524.22 1326.08 527.275 1321.5 Q530.354 1316.89 536.164 1316.89 Z" fill="#000000" fill-rule="nonzero" fill-opacity="1" /><path clip-path="url(#clip470)" d="M556.326 1346.19 L561.21 1346.19 L561.21 1352.07 L556.326 1352.07 L556.326 1346.19 Z" fill="#000000" fill-rule="nonzero" fill-opacity="1" /><path clip-path="url(#clip470)" d="M581.396 1320.59 Q577.784 1320.59 575.956 1324.16 Q574.15 1327.7 574.15 1334.83 Q574.15 1341.94 575.956 1345.5 Q577.784 1349.04 581.396 1349.04 Q585.03 1349.04 586.835 1345.5 Q588.664 1341.94 588.664 1334.83 Q588.664 1327.7 586.835 1324.16 Q585.03 1320.59 581.396 1320.59 M581.396 1316.89 Q587.206 1316.89 590.261 1321.5 Q593.34 1326.08 593.34 1334.83 Q593.34 1343.56 590.261 1348.16 Q587.206 1352.75 581.396 1352.75 Q575.585 1352.75 572.507 1348.16 Q569.451 1343.56 569.451 1334.83 Q569.451 1326.08 572.507 1321.5 Q575.585 1316.89 581.396 1316.89 Z" fill="#000000" fill-rule="nonzero" fill-opacity="1" /><path clip-path="url(#clip470)" d="M602.368 1348.14 L610.006 1348.14 L610.006 1321.77 L601.696 1323.44 L601.696 1319.18 L609.96 1317.51 L614.636 1317.51 L614.636 1348.14 L622.275 1348.14 L622.275 1352.07 L602.368 1352.07 L602.368 1348.14 Z" fill="#000000" fill-rule="nonzero" fill-opacity="1" /><polyline clip-path="url(#clip470)" style="stroke:#ac8d18; stroke-linecap:round; stroke-linejoin:round; stroke-width:4; stroke-opacity:1; fill:none" points="253.741,1386.63 400.184,1386.63 "/>
<path clip-path="url(#clip470)" d="M437.855 1371.95 L449.822 1403.91 L445.308 1403.91 L438.04 1384.75 L429.105 1403.91 L424.591 1403.91 L435.956 1379.05 L434.244 1374.47 Q433.156 1371.55 430.679 1371.55 L428.457 1371.55 L428.457 1367.9 L431.165 1367.94 Q436.396 1368.01 437.855 1371.95 Z" fill="#000000" fill-rule="nonzero" fill-opacity="1" /><path clip-path="url(#clip470)" d="M471.327 1382.39 L501.002 1382.39 L501.002 1386.28 L471.327 1386.28 L471.327 1382.39 M471.327 1391.83 L501.002 1391.83 L501.002 1395.77 L471.327 1395.77 L471.327 1391.83 Z" fill="#000000" fill-rule="nonzero" fill-opacity="1" /><path clip-path="url(#clip470)" d="M536.164 1372.43 Q532.553 1372.43 530.725 1376 Q528.919 1379.54 528.919 1386.67 Q528.919 1393.78 530.725 1397.34 Q532.553 1400.88 536.164 1400.88 Q539.799 1400.88 541.604 1397.34 Q543.433 1393.78 543.433 1386.67 Q543.433 1379.54 541.604 1376 Q539.799 1372.43 536.164 1372.43 M536.164 1368.73 Q541.974 1368.73 545.03 1373.34 Q548.109 1377.92 548.109 1386.67 Q548.109 1395.4 545.03 1400 Q541.974 1404.59 536.164 1404.59 Q530.354 1404.59 527.275 1400 Q524.22 1395.4 524.22 1386.67 Q524.22 1377.92 527.275 1373.34 Q530.354 1368.73 536.164 1368.73 Z" fill="#000000" fill-rule="nonzero" fill-opacity="1" /><path clip-path="url(#clip470)" d="M556.326 1398.03 L561.21 1398.03 L561.21 1403.91 L556.326 1403.91 L556.326 1398.03 Z" fill="#000000" fill-rule="nonzero" fill-opacity="1" /><path clip-path="url(#clip470)" d="M572.206 1399.98 L579.845 1399.98 L579.845 1373.61 L571.534 1375.28 L571.534 1371.02 L579.798 1369.35 L584.474 1369.35 L584.474 1399.98 L592.113 1399.98 L592.113 1403.91 L572.206 1403.91 L572.206 1399.98 Z" fill="#000000" fill-rule="nonzero" fill-opacity="1" /></svg>