<?xml version="1.0" encoding="utf-8"?>
<svg xmlns="http://www.w3.org/2000/svg" xmlns:xlink="http://www.w3.org/1999/xlink" width="600" height="400" viewBox="0 0 2400 1600">
<defs>
  <clipPath id="clip910">
    <rect x="0" y="0" width="2400" height="1600"/>
  </clipPath>
</defs>
<path clip-path="url(#clip910)" d="M0 1600 L2400 1600 L2400 8.88178e-14 L0 8.88178e-14  Z" fill="#ffffff" fill-rule="evenodd" fill-opacity="1"/>
<defs>
  <clipPath id="clip911">
    <rect x="480" y="0" width="1681" height="1600"/>
  </clipPath>
</defs>
<path clip-path="url(#clip910)" d="M192.941 1486.45 L2352.76 1486.45 L2352.76 47.2441 L192.941 47.2441  Z" fill="#ffffff" fill-rule="evenodd" fill-opacity="1"/>
<defs>
  <clipPath id="clip912">
    <rect x="192" y="47" width="2161" height="1440"/>
  </clipPath>
</defs>
<polyline clip-path="url(#clip912)" style="stroke:#000000; stroke-linecap:round; stroke-linejoin:round; stroke-width:2; stroke-opacity:0.1; fill:none" points="254.067,1486.45 254.067,47.2441 "/>
<polyline clip-path="url(#clip912)" style="stroke:#000000; stroke-linecap:round; stroke-linejoin:round; stroke-width:2; stroke-opacity:0.1; fill:none" points="763.458,1486.45 763.458,47.2441 "/>
<polyline clip-path="url(#clip912)" style="stroke:#000000; stroke-linecap:round; stroke-linejoin:round; stroke-width:2; stroke-opacity:0.1; fill:none" points="1272.85,1486.45 1272.85,47.2441 "/>
<polyline clip-path="url(#clip912)" style="stroke:#000000; stroke-linecap:round; stroke-linejoin:round; stroke-width:2; stroke-opacity:0.1; fill:none" points="1782.24,1486.45 1782.24,47.2441 "/>
<polyline clip-path="url(#clip912)" style="stroke:#000000; stroke-linecap:round; stroke-linejoin:round; stroke-width:2; stroke-opacity:0.1; fill:none" points="2291.63,1486.45 2291.63,47.2441 "/>
<polyline clip-path="url(#clip912)" style="stroke:#000000; stroke-linecap:round; stroke-linejoin:round; stroke-width:2; stroke-opacity:0.1; fill:none" points="192.941,1140.12 2352.76,1140.12 "/>
<polyline clip-path="url(#clip912)" style="stroke:#000000; stroke-linecap:round; stroke-linejoin:round; stroke-width:2; stroke-opacity:0.1; fill:none" points="192.941,789.408 2352.76,789.408 "/>
<polyline clip-path="url(#clip912)" style="stroke:#000000; stroke-linecap:round; stroke-linejoin:round; stroke-width:2; stroke-opacity:0.1; fill:none" points="192.941,438.692 2352.76,438.692 "/>
<polyline clip-path="url(#clip912)" style="stroke:#000000; stroke-linecap:round; stroke-linejoin:round; stroke-width:2; stroke-opacity:0.1; fill:none" points="192.941,87.9763 2352.76,87.9763 "/>
<polyline clip-path="url(#clip910)" style="stroke:#000000; stroke-linecap:round; stroke-linejoin:round; stroke-width:4; stroke-opacity:1; fill:none" points="192.941,1486.45 2352.76,1486.45 "/>
<polyline clip-path="url(#clip910)" style="stroke:#000000; stroke-linecap:round; stroke-linejoin:round; stroke-width:4; stroke-opacity:1; fill:none" points="254.067,1486.45 254.067,1467.55 "/>
<polyline clip-path="url(#clip910)" style="stroke:#000000; stroke-linecap:round; stroke-linejoin:round; stroke-width:4; stroke-opacity:1; fill:none" points="763.458,1486.45 763.458,1467.55 "/>
<polyline clip-path="url(#clip910)" style="stroke:#000000; stroke-linecap:round; stroke-linejoin:round; stroke-width:4; stroke-opacity:1; fill:none" points="1272.85,1486.45 1272.85,1467.55 "/>
<polyline clip-path="url(#clip910)" style="stroke:#000000; stroke-linecap:round; stroke-linejoin:round; stroke-width:4; stroke-opacity:1; fill:none" points="1782.24,1486.45 1782.24,1467.55 "/>
<polyline clip-path="url(#clip910)" style="stroke:#000000; stroke-linecap:round; stroke-linejoin:round; stroke-width:4; stroke-opacity:1; fill:none" points="2291.63,1486.45 2291.63,1467.55 "/>
<path clip-path="url(#clip910)" d="M231.452 1517.37 Q227.841 1517.37 226.012 1520.93 Q224.207 1524.47 224.207 1531.6 Q224.207 1538.71 226.012 1542.27 Q227.841 1545.82 231.452 1545.82 Q235.086 1545.82 236.892 1542.27 Q238.72 1538.71 238.72 1531.6 Q238.72 1524.47 236.892 1520.93 Q235.086 1517.37 231.452 1517.37 M231.452 1513.66 Q237.262 1513.66 240.318 1518.27 Q243.396 1522.85 243.396 1531.6 Q243.396 1540.33 240.318 1544.94 Q237.262 1549.52 231.452 1549.52 Q225.642 1549.52 222.563 1544.94 Q219.507 1540.33 219.507 1531.6 Q219.507 1522.85 222.563 1518.27 Q225.642 1513.66 231.452 1513.66 Z" fill="#000000" fill-rule="nonzero" fill-opacity="1" /><path clip-path="url(#clip910)" d="M251.614 1542.97 L256.498 1542.97 L256.498 1548.85 L251.614 1548.85 L251.614 1542.97 Z" fill="#000000" fill-rule="nonzero" fill-opacity="1" /><path clip-path="url(#clip910)" d="M276.683 1517.37 Q273.072 1517.37 271.243 1520.93 Q269.438 1524.47 269.438 1531.6 Q269.438 1538.71 271.243 1542.27 Q273.072 1545.82 276.683 1545.82 Q280.317 1545.82 282.123 1542.27 Q283.952 1538.71 283.952 1531.6 Q283.952 1524.47 282.123 1520.93 Q280.317 1517.37 276.683 1517.37 M276.683 1513.66 Q282.493 1513.66 285.549 1518.27 Q288.627 1522.85 288.627 1531.6 Q288.627 1540.33 285.549 1544.94 Q282.493 1549.52 276.683 1549.52 Q270.873 1549.52 267.794 1544.94 Q264.739 1540.33 264.739 1531.6 Q264.739 1522.85 267.794 1518.27 Q270.873 1513.66 276.683 1513.66 Z" fill="#000000" fill-rule="nonzero" fill-opacity="1" /><path clip-path="url(#clip910)" d="M735.194 1544.91 L751.513 1544.91 L751.513 1548.85 L729.569 1548.85 L729.569 1544.91 Q732.231 1542.16 736.814 1537.53 Q741.421 1532.88 742.602 1531.53 Q744.847 1529.01 745.726 1527.27 Q746.629 1525.51 746.629 1523.82 Q746.629 1521.07 744.685 1519.33 Q742.764 1517.6 739.662 1517.6 Q737.463 1517.6 735.009 1518.36 Q732.578 1519.13 729.801 1520.68 L729.801 1515.95 Q732.625 1514.82 735.078 1514.24 Q737.532 1513.66 739.569 1513.66 Q744.939 1513.66 748.134 1516.35 Q751.328 1519.03 751.328 1523.52 Q751.328 1525.65 750.518 1527.57 Q749.731 1529.47 747.625 1532.07 Q747.046 1532.74 743.944 1535.95 Q740.842 1539.15 735.194 1544.91 Z" fill="#000000" fill-rule="nonzero" fill-opacity="1" /><path clip-path="url(#clip910)" d="M761.328 1542.97 L766.212 1542.97 L766.212 1548.85 L761.328 1548.85 L761.328 1542.97 Z" fill="#000000" fill-rule="nonzero" fill-opacity="1" /><path clip-path="url(#clip910)" d="M776.444 1514.29 L794.8 1514.29 L794.8 1518.22 L780.726 1518.22 L780.726 1526.7 Q781.745 1526.35 782.763 1526.19 Q783.782 1526 784.8 1526 Q790.587 1526 793.967 1529.17 Q797.347 1532.34 797.347 1537.76 Q797.347 1543.34 793.874 1546.44 Q790.402 1549.52 784.083 1549.52 Q781.907 1549.52 779.638 1549.15 Q777.393 1548.78 774.986 1548.04 L774.986 1543.34 Q777.069 1544.47 779.291 1545.03 Q781.513 1545.58 783.99 1545.58 Q787.995 1545.58 790.333 1543.48 Q792.671 1541.37 792.671 1537.76 Q792.671 1534.15 790.333 1532.04 Q787.995 1529.94 783.99 1529.94 Q782.115 1529.94 780.24 1530.35 Q778.388 1530.77 776.444 1531.65 L776.444 1514.29 Z" fill="#000000" fill-rule="nonzero" fill-opacity="1" /><path clip-path="url(#clip910)" d="M1240.01 1514.29 L1258.37 1514.29 L1258.37 1518.22 L1244.3 1518.22 L1244.3 1526.7 Q1245.31 1526.35 1246.33 1526.19 Q1247.35 1526 1248.37 1526 Q1254.16 1526 1257.54 1529.17 Q1260.92 1532.34 1260.92 1537.76 Q1260.92 1543.34 1257.44 1546.44 Q1253.97 1549.52 1247.65 1549.52 Q1245.48 1549.52 1243.21 1549.15 Q1240.96 1548.78 1238.55 1548.04 L1238.55 1543.34 Q1240.64 1544.47 1242.86 1545.03 Q1245.08 1545.58 1247.56 1545.58 Q1251.56 1545.58 1253.9 1543.48 Q1256.24 1541.37 1256.24 1537.76 Q1256.24 1534.15 1253.9 1532.04 Q1251.56 1529.94 1247.56 1529.94 Q1245.68 1529.94 1243.81 1530.35 Q1241.96 1530.77 1240.01 1531.65 L1240.01 1514.29 Z" fill="#000000" fill-rule="nonzero" fill-opacity="1" /><path clip-path="url(#clip910)" d="M1270.13 1542.97 L1275.01 1542.97 L1275.01 1548.85 L1270.13 1548.85 L1270.13 1542.97 Z" fill="#000000" fill-rule="nonzero" fill-opacity="1" /><path clip-path="url(#clip910)" d="M1295.2 1517.37 Q1291.59 1517.37 1289.76 1520.93 Q1287.95 1524.47 1287.95 1531.6 Q1287.95 1538.71 1289.76 1542.27 Q1291.59 1545.82 1295.2 1545.82 Q1298.83 1545.82 1300.64 1542.27 Q1302.47 1538.71 1302.47 1531.6 Q1302.47 1524.47 1300.64 1520.93 Q1298.83 1517.37 1295.2 1517.37 M1295.2 1513.66 Q1301.01 1513.66 1304.06 1518.27 Q1307.14 1522.85 1307.14 1531.6 Q1307.14 1540.33 1304.06 1544.94 Q1301.01 1549.52 1295.2 1549.52 Q1289.39 1549.52 1286.31 1544.94 Q1283.25 1540.33 1283.25 1531.6 Q1283.25 1522.85 1286.31 1518.27 Q1289.39 1513.66 1295.2 1513.66 Z" fill="#000000" fill-rule="nonzero" fill-opacity="1" /><path clip-path="url(#clip910)" d="M1748.56 1514.29 L1770.78 1514.29 L1770.78 1516.28 L1758.23 1548.85 L1753.35 1548.85 L1765.16 1518.22 L1748.56 1518.22 L1748.56 1514.29 Z" fill="#000000" fill-rule="nonzero" fill-opacity="1" /><path clip-path="url(#clip910)" d="M1779.9 1542.97 L1784.78 1542.97 L1784.78 1548.85 L1779.9 1548.85 L1779.9 1542.97 Z" fill="#000000" fill-rule="nonzero" fill-opacity="1" /><path clip-path="url(#clip910)" d="M1795.02 1514.29 L1813.37 1514.29 L1813.37 1518.22 L1799.3 1518.22 L1799.3 1526.7 Q1800.32 1526.35 1801.34 1526.19 Q1802.35 1526 1803.37 1526 Q1809.16 1526 1812.54 1529.17 Q1815.92 1532.34 1815.92 1537.76 Q1815.92 1543.34 1812.45 1546.44 Q1808.97 1549.52 1802.66 1549.52 Q1800.48 1549.52 1798.21 1549.15 Q1795.97 1548.78 1793.56 1548.04 L1793.56 1543.34 Q1795.64 1544.47 1797.86 1545.03 Q1800.09 1545.58 1802.56 1545.58 Q1806.57 1545.58 1808.91 1543.48 Q1811.24 1541.37 1811.24 1537.76 Q1811.24 1534.15 1808.91 1532.04 Q1806.57 1529.94 1802.56 1529.94 Q1800.69 1529.94 1798.81 1530.35 Q1796.96 1530.77 1795.02 1531.65 L1795.02 1514.29 Z" fill="#000000" fill-rule="nonzero" fill-opacity="1" /><path clip-path="url(#clip910)" d="M2243.7 1544.91 L2251.34 1544.91 L2251.34 1518.55 L2243.03 1520.21 L2243.03 1515.95 L2251.29 1514.29 L2255.97 1514.29 L2255.97 1544.91 L2263.61 1544.91 L2263.61 1548.85 L2243.7 1548.85 L2243.7 1544.91 Z" fill="#000000" fill-rule="nonzero" fill-opacity="1" /><path clip-path="url(#clip910)" d="M2283.05 1517.37 Q2279.44 1517.37 2277.61 1520.93 Q2275.81 1524.47 2275.81 1531.6 Q2275.81 1538.71 2277.61 1542.27 Q2279.44 1545.82 2283.05 1545.82 Q2286.69 1545.82 2288.49 1542.27 Q2290.32 1538.71 2290.32 1531.6 Q2290.32 1524.47 2288.49 1520.93 Q2286.69 1517.37 2283.05 1517.37 M2283.05 1513.66 Q2288.86 1513.66 2291.92 1518.27 Q2295 1522.85 2295 1531.6 Q2295 1540.33 2291.92 1544.94 Q2288.86 1549.52 2283.05 1549.52 Q2277.24 1549.52 2274.16 1544.94 Q2271.11 1540.33 2271.11 1531.6 Q2271.11 1522.85 2274.16 1518.27 Q2277.24 1513.66 2283.05 1513.66 Z" fill="#000000" fill-rule="nonzero" fill-opacity="1" /><path clip-path="url(#clip910)" d="M2303.21 1542.97 L2308.1 1542.97 L2308.1 1548.85 L2303.21 1548.85 L2303.21 1542.97 Z" fill="#000000" fill-rule="nonzero" fill-opacity="1" /><path clip-path="url(#clip910)" d="M2328.28 1517.37 Q2324.67 1517.37 2322.84 1520.93 Q2321.04 1524.47 2321.04 1531.6 Q2321.04 1538.71 2322.84 1542.27 Q2324.67 1545.82 2328.28 1545.82 Q2331.92 1545.82 2333.72 1542.27 Q2335.55 1538.71 2335.55 1531.6 Q2335.55 1524.47 2333.72 1520.93 Q2331.92 1517.37 2328.28 1517.37 M2328.28 1513.66 Q2334.09 1513.66 2337.15 1518.27 Q2340.23 1522.85 2340.23 1531.6 Q2340.23 1540.33 2337.15 1544.94 Q2334.09 1549.52 2328.28 1549.52 Q2322.47 1549.52 2319.4 1544.94 Q2316.34 1540.33 2316.34 1531.6 Q2316.34 1522.85 2319.4 1518.27 Q2322.47 1513.66 2328.28 1513.66 Z" fill="#000000" fill-rule="nonzero" fill-opacity="1" /><polyline clip-path="url(#clip910)" style="stroke:#000000; stroke-linecap:round; stroke-linejoin:round; stroke-width:4; stroke-opacity:1; fill:none" points="192.941,1486.45 192.941,47.2441 "/>
<polyline clip-path="url(#clip910)" style="stroke:#000000; stroke-linecap:round; stroke-linejoin:round; stroke-width:4; stroke-opacity:1; fill:none" points="192.941,1140.12 211.838,1140.12 "/>
<polyline clip-path="url(#clip910)" style="stroke:#000000; stroke-linecap:round; stroke-linejoin:round; stroke-width:4; stroke-opacity:1; fill:none" points="192.941,789.408 211.838,789.408 "/>
<polyline clip-path="url(#clip910)" style="stroke:#000000; stroke-linecap:round; stroke-linejoin:round; stroke-width:4; stroke-opacity:1; fill:none" points="192.941,438.692 211.838,438.692 "/>
<polyline clip-path="url(#clip910)" style="stroke:#000000; stroke-linecap:round; stroke-linejoin:round; stroke-width:4; stroke-opacity:1; fill:none" points="192.941,87.9763 211.838,87.9763 "/>
<path clip-path="url(#clip910)" d="M50.9921 1140.58 L80.6679 1140.58 L80.6679 1144.51 L50.9921 1144.51 L50.9921 1140.58 Z" fill="#000000" fill-rule="nonzero" fill-opacity="1" /><path clip-path="url(#clip910)" d="M100.76 1125.92 Q97.1493 1125.92 95.3206 1129.49 Q93.515 1133.03 93.515 1140.16 Q93.515 1147.26 95.3206 1150.83 Q97.1493 1154.37 100.76 1154.37 Q104.395 1154.37 106.2 1150.83 Q108.029 1147.26 108.029 1140.16 Q108.029 1133.03 106.2 1129.49 Q104.395 1125.92 100.76 1125.92 M100.76 1122.22 Q106.571 1122.22 109.626 1126.83 Q112.705 1131.41 112.705 1140.16 Q112.705 1148.89 109.626 1153.49 Q106.571 1158.08 100.76 1158.08 Q94.9502 1158.08 91.8715 1153.49 Q88.816 1148.89 88.816 1140.16 Q88.816 1131.41 91.8715 1126.83 Q94.9502 1122.22 100.76 1122.22 Z" fill="#000000" fill-rule="nonzero" fill-opacity="1" /><path clip-path="url(#clip910)" d="M120.922 1151.52 L125.807 1151.52 L125.807 1157.4 L120.922 1157.4 L120.922 1151.52 Z" fill="#000000" fill-rule="nonzero" fill-opacity="1" /><path clip-path="url(#clip910)" d="M136.038 1122.84 L154.394 1122.84 L154.394 1126.78 L140.32 1126.78 L140.32 1135.25 Q141.339 1134.9 142.357 1134.74 Q143.376 1134.56 144.394 1134.56 Q150.181 1134.56 153.561 1137.73 Q156.941 1140.9 156.941 1146.32 Q156.941 1151.89 153.468 1155 Q149.996 1158.08 143.677 1158.08 Q141.501 1158.08 139.232 1157.7 Q136.987 1157.33 134.58 1156.59 L134.58 1151.89 Q136.663 1153.03 138.885 1153.58 Q141.107 1154.14 143.584 1154.14 Q147.589 1154.14 149.927 1152.03 Q152.265 1149.93 152.265 1146.32 Q152.265 1142.7 149.927 1140.6 Q147.589 1138.49 143.584 1138.49 Q141.709 1138.49 139.834 1138.91 Q137.982 1139.33 136.038 1140.2 L136.038 1122.84 Z" fill="#000000" fill-rule="nonzero" fill-opacity="1" /><path clip-path="url(#clip910)" d="M99.765 775.207 Q96.1539 775.207 94.3252 778.771 Q92.5197 782.313 92.5197 789.443 Q92.5197 796.549 94.3252 800.114 Q96.1539 803.656 99.765 803.656 Q103.399 803.656 105.205 800.114 Q107.033 796.549 107.033 789.443 Q107.033 782.313 105.205 778.771 Q103.399 775.207 99.765 775.207 M99.765 771.503 Q105.575 771.503 108.631 776.109 Q111.709 780.693 111.709 789.443 Q111.709 798.169 108.631 802.776 Q105.575 807.359 99.765 807.359 Q93.9549 807.359 90.8762 802.776 Q87.8206 798.169 87.8206 789.443 Q87.8206 780.693 90.8762 776.109 Q93.9549 771.503 99.765 771.503 Z" fill="#000000" fill-rule="nonzero" fill-opacity="1" /><path clip-path="url(#clip910)" d="M119.927 800.808 L124.811 800.808 L124.811 806.688 L119.927 806.688 L119.927 800.808 Z" fill="#000000" fill-rule="nonzero" fill-opacity="1" /><path clip-path="url(#clip910)" d="M144.996 775.207 Q141.385 775.207 139.556 778.771 Q137.751 782.313 137.751 789.443 Q137.751 796.549 139.556 800.114 Q141.385 803.656 144.996 803.656 Q148.63 803.656 150.436 800.114 Q152.265 796.549 152.265 789.443 Q152.265 782.313 150.436 778.771 Q148.63 775.207 144.996 775.207 M144.996 771.503 Q150.806 771.503 153.862 776.109 Q156.941 780.693 156.941 789.443 Q156.941 798.169 153.862 802.776 Q150.806 807.359 144.996 807.359 Q139.186 807.359 136.107 802.776 Q133.052 798.169 133.052 789.443 Q133.052 780.693 136.107 776.109 Q139.186 771.503 144.996 771.503 Z" fill="#000000" fill-rule="nonzero" fill-opacity="1" /><path clip-path="url(#clip910)" d="M100.76 424.491 Q97.1493 424.491 95.3206 428.056 Q93.515 431.597 93.515 438.727 Q93.515 445.833 95.3206 449.398 Q97.1493 452.94 100.76 452.94 Q104.395 452.94 106.2 449.398 Q108.029 445.833 108.029 438.727 Q108.029 431.597 106.2 428.056 Q104.395 424.491 100.76 424.491 M100.76 420.787 Q106.571 420.787 109.626 425.394 Q112.705 429.977 112.705 438.727 Q112.705 447.454 109.626 452.06 Q106.571 456.643 100.76 456.643 Q94.9502 456.643 91.8715 452.06 Q88.816 447.454 88.816 438.727 Q88.816 429.977 91.8715 425.394 Q94.9502 420.787 100.76 420.787 Z" fill="#000000" fill-rule="nonzero" fill-opacity="1" /><path clip-path="url(#clip910)" d="M120.922 450.092 L125.807 450.092 L125.807 455.972 L120.922 455.972 L120.922 450.092 Z" fill="#000000" fill-rule="nonzero" fill-opacity="1" /><path clip-path="url(#clip910)" d="M136.038 421.412 L154.394 421.412 L154.394 425.347 L140.32 425.347 L140.32 433.819 Q141.339 433.472 142.357 433.31 Q143.376 433.125 144.394 433.125 Q150.181 433.125 153.561 436.296 Q156.941 439.468 156.941 444.884 Q156.941 450.463 153.468 453.565 Q149.996 456.643 143.677 456.643 Q141.501 456.643 139.232 456.273 Q136.987 455.903 134.58 455.162 L134.58 450.463 Q136.663 451.597 138.885 452.153 Q141.107 452.708 143.584 452.708 Q147.589 452.708 149.927 450.602 Q152.265 448.495 152.265 444.884 Q152.265 441.273 149.927 439.167 Q147.589 437.06 143.584 437.06 Q141.709 437.06 139.834 437.477 Q137.982 437.893 136.038 438.773 L136.038 421.412 Z" fill="#000000" fill-rule="nonzero" fill-opacity="1" /><path clip-path="url(#clip910)" d="M90.5752 101.321 L98.2141 101.321 L98.2141 74.9555 L89.904 76.6222 L89.904 72.3629 L98.1678 70.6963 L102.844 70.6963 L102.844 101.321 L110.483 101.321 L110.483 105.256 L90.5752 105.256 L90.5752 101.321 Z" fill="#000000" fill-rule="nonzero" fill-opacity="1" /><path clip-path="url(#clip910)" d="M119.927 99.3767 L124.811 99.3767 L124.811 105.256 L119.927 105.256 L119.927 99.3767 Z" fill="#000000" fill-rule="nonzero" fill-opacity="1" /><path clip-path="url(#clip910)" d="M144.996 73.775 Q141.385 73.775 139.556 77.3398 Q137.751 80.8814 137.751 88.011 Q137.751 95.1174 139.556 98.6822 Q141.385 102.224 144.996 102.224 Q148.63 102.224 150.436 98.6822 Q152.265 95.1174 152.265 88.011 Q152.265 80.8814 150.436 77.3398 Q148.63 73.775 144.996 73.775 M144.996 70.0713 Q150.806 70.0713 153.862 74.6777 Q156.941 79.261 156.941 88.011 Q156.941 96.7378 153.862 101.344 Q150.806 105.928 144.996 105.928 Q139.186 105.928 136.107 101.344 Q133.052 96.7378 133.052 88.011 Q133.052 79.261 136.107 74.6777 Q139.186 70.0713 144.996 70.0713 Z" fill="#000000" fill-rule="nonzero" fill-opacity="1" /><polyline clip-path="url(#clip912)" style="stroke:#009af9; stroke-linecap:round; stroke-linejoin:round; stroke-width:8; stroke-opacity:1; fill:none" points="254.067,87.9763 256.105,92.4845 258.143,103.151 260.18,119.857 262.218,142.43 264.255,170.646 266.293,204.234 268.33,242.873 270.368,286.202 272.406,333.818 274.443,385.281 276.481,440.12 278.518,497.835 280.556,557.904 282.593,619.785 284.631,682.923 286.668,746.752 288.706,810.704 290.744,874.212 292.781,936.715 294.819,997.663 296.856,1056.52 298.894,1112.78 300.931,1165.95 302.969,1215.56 305.007,1261.21 307.044,1302.48 309.082,1339.05 311.119,1370.6 313.157,1396.88 315.194,1417.66 317.232,1432.79 319.269,1442.17 321.307,1445.72 323.345,1443.43 325.382,1435.37 327.42,1421.61 329.457,1402.3 331.495,1377.63 333.532,1347.86 335.57,1313.25 337.608,1274.14 339.645,1230.88 341.683,1183.89 343.72,1133.59 345.758,1080.44 347.795,1024.93 349.833,967.544 351.87,908.812 353.908,849.256 355.946,789.408 357.983,729.798 360.021,670.955 362.058,613.397 364.096,557.628 366.133,504.136 368.171,453.385 370.208,405.815 372.246,361.835 374.284,321.819 376.321,286.107 378.359,254.998 380.396,228.749 382.434,207.574 384.471,191.64 386.509,181.067 388.547,175.928 390.584,176.245 392.622,181.996 394.659,193.107 396.697,209.458 398.734,230.884 400.772,257.173 402.809,288.075 404.847,323.296 406.885,362.508 408.922,405.346 410.96,451.417 412.997,500.3 415.035,551.549 417.072,604.702 419.11,659.28 421.148,714.793 423.185,770.745 425.223,826.64 427.26,881.982 429.298,936.282 431.335,989.064 433.373,1039.87 435.41,1088.24 437.448,1133.78 439.486,1176.09 441.523,1214.79 443.561,1249.58 445.598,1280.15 447.636,1306.24 449.673,1327.65 451.711,1344.21 453.749,1355.78 455.786,1362.29 457.824,1363.69 459.861,1360 461.899,1351.27 463.936,1337.59 465.974,1319.11 468.011,1296.01 470.049,1268.51 472.087,1236.87 474.124,1201.4 476.162,1162.41 478.199,1120.28 480.237,1075.38 482.274,1028.13 484.312,978.947 486.349,928.283 488.387,876.591 490.425,824.332 492.462,771.972 494.5,719.976 496.537,668.803 498.575,618.903 500.612,570.713 502.65,524.654 504.688,481.125 506.725,440.502 508.763,403.133 510.8,369.336 512.838,339.398 514.875,313.567 516.913,292.056 518.95,275.039 520.988,262.648 523.026,254.975 525.063,252.069 527.101,253.936 529.138,260.542 531.176,271.808 533.213,287.616 535.251,307.809 537.289,332.189 539.326,360.523 541.364,392.546 543.401,427.957 545.439,466.431 547.476,507.613 549.514,551.128 551.551,596.582 553.589,643.562 555.627,691.648 557.664,740.408 559.702,789.408 561.739,838.212 563.777,886.389 565.814,933.514 567.852,979.173 569.89,1022.97 571.927,1064.52 573.965,1103.47 576.002,1139.48 578.04,1172.24 580.077,1201.48 582.115,1226.95 584.152,1248.44 586.19,1265.77 588.228,1278.82 590.265,1287.48 592.303,1291.68 594.34,1291.42 596.378,1286.71 598.415,1277.62 600.453,1264.23 602.491,1246.69 604.528,1225.16 606.566,1199.86 608.603,1171.03 610.641,1138.92 612.678,1103.85 614.716,1066.13 616.753,1026.11 618.791,984.15 620.829,940.632 622.866,895.948 624.904,850.498 626.941,804.688 628.979,758.925 631.016,713.615 633.054,669.158 635.091,625.944 637.129,584.351 639.167,544.741 641.204,507.458 643.242,472.822 645.279,441.131 647.317,412.652 649.354,387.626 651.392,366.261 653.43,348.731 655.467,335.176 657.505,325.701 659.542,320.374 661.58,319.224 663.617,322.246 665.655,329.396 667.692,340.594 669.73,355.726 671.768,374.64 673.805,397.154 675.843,423.055 677.88,452.099 679.918,484.017 681.955,518.513 683.993,555.273 686.031,593.961 688.068,634.226 690.106,675.707 692.143,718.029 694.181,760.815 696.218,803.683 698.256,846.254 700.293,888.151 702.331,929.006 704.369,968.46 706.406,1006.17 708.444,1041.81 710.481,1075.07 712.519,1105.66 714.556,1133.33 716.594,1157.85 718.632,1178.99 720.669,1196.61 722.707,1210.54 724.744,1220.68 726.782,1226.96 728.819,1229.34 730.857,1227.82 732.894,1222.41 734.932,1213.18 736.97,1200.24 739.007,1183.71 741.045,1163.75 743.082,1140.55 745.12,1114.33 747.157,1085.34 749.195,1053.84 751.233,1020.12 753.27,984.495 755.308,947.281 757.345,908.816 759.383,869.447 761.42,829.525 763.458,789.408 765.495,749.45 767.533,710.007 769.571,671.424 771.608,634.041 773.646,598.184 775.683,564.165 777.721,532.278 779.758,502.797 781.796,475.974 783.833,452.035 785.871,431.182 787.909,413.587 789.946,399.393 791.984,388.712 794.021,381.625 796.059,378.18 798.096,378.393 800.134,382.248 802.172,389.695 804.209,400.656 806.247,415.018 808.284,432.64 810.322,453.354 812.359,476.964 814.397,503.248 816.434,531.964 818.472,562.846 820.51,595.613 822.547,629.966 824.585,665.596 826.622,702.18 828.66,739.392 830.697,776.898 832.735,814.365 834.773,851.462 836.81,887.86 838.848,923.241 840.885,957.295 842.923,989.724 844.96,1020.25 846.998,1048.61 849.035,1074.55 851.073,1097.87 853.111,1118.36 855.148,1135.85 857.186,1150.2 859.223,1161.3 861.261,1169.06 863.298,1173.42 865.336,1174.36 867.374,1171.89 869.411,1166.03 871.449,1156.87 873.486,1144.48 875.524,1128.99 877.561,1110.56 879.599,1089.35 881.636,1065.57 883.674,1039.44 885.712,1011.2 887.749,981.101 889.787,949.426 891.824,916.46 893.862,882.499 895.899,847.848 897.937,812.818 899.975,777.72 902.012,742.866 904.05,708.564 906.087,675.115 908.125,642.812 910.162,611.938 912.2,582.76 914.237,555.529 916.275,530.48 918.313,507.826 920.35,487.757 922.388,470.442 924.425,456.023 926.463,444.616 928.5,436.31 930.538,431.167 932.575,429.219 934.613,430.47 936.651,434.898 938.688,442.45 940.726,453.047 942.763,466.582 944.801,482.925 946.838,501.918 948.876,523.383 950.914,547.12 952.951,572.91 954.989,600.515 957.026,629.684 959.064,660.153 961.101,691.645 963.139,723.878 965.176,756.562 967.214,789.408 969.252,822.122 971.289,854.416 973.327,886.005 975.364,916.612 977.402,945.969 979.439,973.821 981.477,999.928 983.515,1024.07 985.552,1046.03 987.59,1065.63 989.627,1082.7 991.665,1097.1 993.702,1108.72 995.74,1117.47 997.777,1123.27 999.815,1126.09 1001.85,1125.92 1003.89,1122.76 1005.93,1116.66 1007.97,1107.69 1010,1095.93 1012.04,1081.5 1014.08,1064.55 1016.12,1045.22 1018.15,1023.7 1020.19,1000.19 1022.23,974.901 1024.27,948.074 1026.3,919.948 1028.34,890.777 1030.38,860.824 1032.42,830.358 1034.45,799.65 1036.49,768.974 1038.53,738.602 1040.57,708.802 1042.6,679.834 1044.64,651.954 1046.68,625.403 1048.72,600.411 1050.75,577.194 1052.79,555.951 1054.83,536.861 1056.87,520.086 1058.9,505.764 1060.94,494.013 1062.98,484.927 1065.02,478.576 1067.05,475.005 1069.09,474.234 1071.13,476.26 1073.17,481.053 1075.2,488.559 1077.24,498.702 1079.28,511.38 1081.32,526.472 1083.36,543.834 1085.39,563.303 1087.43,584.698 1089.47,607.822 1091.51,632.463 1093.54,658.396 1095.58,685.387 1097.62,713.192 1099.66,741.561 1101.69,770.241 1103.73,798.977 1105.77,827.513 1107.81,855.597 1109.84,882.983 1111.88,909.43 1113.92,934.708 1115.96,958.597 1117.99,980.892 1120.03,1001.4 1122.07,1019.95 1124.11,1036.38 1126.14,1050.56 1128.18,1062.36 1130.22,1071.7 1132.26,1078.5 1134.29,1082.71 1136.33,1084.31 1138.37,1083.28 1140.41,1079.66 1142.44,1073.47 1144.48,1064.8 1146.52,1053.72 1148.56,1040.34 1150.59,1024.78 1152.63,1007.21 1154.67,987.776 1156.71,966.661 1158.74,944.06 1160.78,920.178 1162.82,895.233 1164.86,869.45 1166.9,843.06 1168.93,816.3 1170.97,789.408 1173.01,762.624 1175.05,736.184 1177.08,710.321 1179.12,685.262 1181.16,661.227 1183.2,638.423 1185.23,617.049 1187.27,597.287 1189.31,579.307 1191.35,563.26 1193.38,549.282 1195.42,537.488 1197.46,527.973 1199.5,520.813 1201.53,516.063 1203.57,513.753 1205.61,513.896 1207.65,516.48 1209.68,521.473 1211.72,528.82 1213.76,538.447 1215.8,550.26 1217.83,564.145 1219.87,579.97 1221.91,597.589 1223.95,616.838 1225.98,637.539 1228.02,659.503 1230.06,682.531 1232.1,706.414 1234.13,730.938 1236.17,755.881 1238.21,781.022 1240.25,806.137 1242.28,831.004 1244.32,855.403 1246.36,879.119 1248.4,901.946 1250.44,923.684 1252.47,944.145 1254.51,963.154 1256.55,980.547 1258.59,996.176 1260.62,1009.91 1262.66,1021.64 1264.7,1031.26 1266.74,1038.7 1268.77,1043.9 1270.81,1046.82 1272.85,1047.45 1274.89,1045.79 1276.92,1041.87 1278.96,1035.72 1281,1027.42 1283.04,1017.04 1285.07,1004.68 1287.11,990.467 1289.15,974.527 1291.19,957.01 1293.22,938.078 1295.26,917.904 1297.3,896.671 1299.34,874.573 1301.37,851.809 1303.41,828.582 1305.45,805.1 1307.49,781.574 1309.52,758.21 1311.56,735.217 1313.6,712.795 1315.64,691.142 1317.67,670.446 1319.71,650.887 1321.75,632.634 1323.79,615.843 1325.82,600.658 1327.86,587.205 1329.9,575.599 1331.94,565.933 1333.98,558.287 1336.01,552.719 1338.05,549.272 1340.09,547.966 1342.13,548.805 1344.16,551.773 1346.2,556.835 1348.24,563.938 1350.28,573.011 1352.31,583.966 1354.35,596.698 1356.39,611.086 1358.43,626.998 1360.46,644.285 1362.5,662.789 1364.54,682.342 1366.58,702.765 1368.61,723.875 1370.65,745.482 1372.69,767.391 1374.73,789.408 1376.76,811.337 1378.8,832.984 1380.84,854.159 1382.88,874.675 1384.91,894.354 1386.95,913.024 1388.99,930.524 1391.03,946.703 1393.06,961.424 1395.1,974.562 1397.14,986.006 1399.18,995.663 1401.21,1003.45 1403.25,1009.31 1405.29,1013.2 1407.33,1015.09 1409.36,1014.98 1411.4,1012.86 1413.44,1008.77 1415.48,1002.76 1417.52,994.878 1419.55,985.206 1421.59,973.838 1423.63,960.881 1425.67,946.456 1427.7,930.696 1429.74,913.748 1431.78,895.765 1433.82,876.911 1435.85,857.357 1437.89,837.279 1439.93,816.857 1441.97,796.273 1444,775.711 1446.04,755.352 1448.08,735.376 1450.12,715.959 1452.15,697.27 1454.19,679.472 1456.23,662.72 1458.27,647.157 1460.3,632.917 1462.34,620.121 1464.38,608.876 1466.42,599.276 1468.45,591.399 1470.49,585.308 1472.53,581.051 1474.57,578.657 1476.6,578.141 1478.64,579.499 1480.68,582.711 1482.72,587.743 1484.75,594.542 1486.79,603.041 1488.83,613.157 1490.87,624.795 1492.9,637.845 1494.94,652.187 1496.98,667.687 1499.02,684.204 1501.06,701.588 1503.09,719.68 1505.13,738.319 1507.17,757.335 1509.21,776.56 1511.24,795.822 1513.28,814.95 1515.32,833.776 1517.36,852.133 1519.39,869.861 1521.43,886.805 1523.47,902.819 1525.51,917.763 1527.54,931.511 1529.58,943.944 1531.62,954.957 1533.66,964.46 1535.69,972.374 1537.73,978.634 1539.77,983.192 1541.81,986.015 1543.84,987.084 1545.88,986.397 1547.92,983.967 1549.96,979.822 1551.99,974.007 1554.03,966.578 1556.07,957.609 1558.11,947.186 1560.14,935.405 1562.18,922.378 1564.22,908.225 1566.26,893.074 1568.29,877.066 1570.33,860.345 1572.37,843.061 1574.41,825.372 1576.44,807.434 1578.48,789.408 1580.52,771.454 1582.56,753.731 1584.6,736.394 1586.63,719.597 1588.67,703.486 1590.71,688.2 1592.75,673.872 1594.78,660.625 1596.82,648.573 1598.86,637.817 1600.9,628.447 1602.93,620.541 1604.97,614.163 1607.01,609.364 1609.05,606.179 1611.08,604.631 1613.12,604.727 1615.16,606.459 1617.2,609.806 1619.23,614.73 1621.27,621.184 1623.31,629.102 1625.35,638.409 1627.38,649.018 1629.42,660.828 1631.46,673.731 1633.5,687.607 1635.53,702.33 1637.57,717.766 1639.61,733.776 1641.65,750.214 1643.68,766.934 1645.72,783.787 1647.76,800.622 1649.8,817.291 1651.83,833.645 1653.87,849.543 1655.91,864.844 1657.95,879.416 1659.98,893.132 1662.02,905.873 1664.06,917.532 1666.1,928.009 1668.14,937.215 1670.17,945.075 1672.21,951.524 1674.25,956.51 1676.29,959.996 1678.32,961.956 1680.36,962.379 1682.4,961.267 1684.44,958.637 1686.47,954.517 1688.51,948.951 1690.55,941.993 1692.59,933.71 1694.62,924.182 1696.66,913.497 1698.7,901.755 1700.74,889.064 1702.77,875.541 1704.81,861.309 1706.85,846.496 1708.89,831.236 1710.92,815.667 1712.96,799.927 1715,784.156 1717.04,768.495 1719.07,753.082 1721.11,738.053 1723.15,723.538 1725.19,709.666 1727.22,696.555 1729.26,684.319 1731.3,673.064 1733.34,662.885 1735.37,653.867 1737.41,646.087 1739.45,639.608 1741.49,634.483 1743.52,630.751 1745.56,628.44 1747.6,627.564 1749.64,628.127 1751.68,630.116 1753.71,633.51 1755.75,638.271 1757.79,644.353 1759.83,651.696 1761.86,660.23 1763.9,669.875 1765.94,680.541 1767.98,692.129 1770.01,704.533 1772.05,717.639 1774.09,731.33 1776.13,745.48 1778.16,759.963 1780.2,774.649 1782.24,789.408 1784.28,804.107 1786.31,818.618 1788.35,832.812 1790.39,846.564 1792.43,859.755 1794.46,872.27 1796.5,884.001 1798.54,894.846 1800.58,904.714 1802.61,913.52 1804.65,921.192 1806.69,927.665 1808.73,932.886 1810.76,936.816 1812.8,939.423 1814.84,940.69 1816.88,940.612 1818.91,939.194 1820.95,936.454 1822.99,932.422 1825.03,927.138 1827.07,920.655 1829.1,913.035 1831.14,904.35 1833.18,894.68 1835.22,884.116 1837.25,872.755 1839.29,860.701 1841.33,848.063 1843.37,834.956 1845.4,821.497 1847.44,807.808 1849.48,794.01 1851.52,780.227 1853.55,766.58 1855.59,753.189 1857.63,740.173 1859.67,727.646 1861.7,715.716 1863.74,704.486 1865.78,694.054 1867.82,684.509 1869.85,675.931 1871.89,668.394 1873.93,661.958 1875.97,656.679 1878,652.596 1880.04,649.742 1882.08,648.138 1884.12,647.791 1886.15,648.701 1888.19,650.855 1890.23,654.228 1892.27,658.785 1894.3,664.482 1896.34,671.263 1898.38,679.065 1900.42,687.812 1902.45,697.426 1904.49,707.816 1906.53,718.888 1908.57,730.54 1910.61,742.668 1912.64,755.162 1914.68,767.909 1916.72,780.796 1918.76,793.707 1920.79,806.53 1922.83,819.149 1924.87,831.454 1926.91,843.337 1928.94,854.695 1930.98,865.43 1933.02,875.447 1935.06,884.662 1937.09,892.996 1939.13,900.379 1941.17,906.749 1943.21,912.053 1945.24,916.25 1947.28,919.305 1949.32,921.198 1951.36,921.914 1953.39,921.454 1955.43,919.825 1957.47,917.046 1959.51,913.148 1961.54,908.169 1963.58,902.157 1965.62,895.17 1967.66,887.273 1969.69,878.541 1971.73,869.053 1973.77,858.898 1975.81,848.167 1977.84,836.958 1979.88,825.373 1981.92,813.515 1983.96,801.491 1985.99,789.408 1988.03,777.373 1990.07,765.493 1992.11,753.872 1994.15,742.612 1996.18,731.812 1998.22,721.566 2000.26,711.962 2002.3,703.082 2004.33,695.003 2006.37,687.793 2008.41,681.512 2010.45,676.213 2012.48,671.938 2014.52,668.721 2016.56,666.586 2018.6,665.548 2020.63,665.613 2022.67,666.774 2024.71,669.017 2026.75,672.318 2028.78,676.644 2030.82,681.952 2032.86,688.191 2034.9,695.302 2036.93,703.218 2038.97,711.867 2041.01,721.169 2043.05,731.038 2045.08,741.385 2047.12,752.116 2049.16,763.135 2051.2,774.343 2053.23,785.64 2055.27,796.925 2057.31,808.098 2059.35,819.061 2061.38,829.718 2063.42,839.974 2065.46,849.742 2067.5,858.936 2069.53,867.477 2071.57,875.292 2073.61,882.315 2075.65,888.486 2077.69,893.755 2079.72,898.078 2081.76,901.42 2083.8,903.757 2085.84,905.07 2087.87,905.354 2089.91,904.609 2091.95,902.845 2093.99,900.084 2096.02,896.353 2098.06,891.688 2100.1,886.137 2102.14,879.749 2104.17,872.587 2106.21,864.716 2108.25,856.21 2110.29,847.145 2112.32,837.605 2114.36,827.675 2116.4,817.446 2118.44,807.01 2120.47,796.459 2122.51,785.888 2124.55,775.39 2126.59,765.058 2128.62,754.984 2130.66,745.254 2132.7,735.955 2134.74,727.167 2136.77,718.965 2138.81,711.42 2140.85,704.597 2142.89,698.552 2144.92,693.337 2146.96,688.994 2149,685.559 2151.04,683.057 2153.07,681.508 2155.11,680.921 2157.15,681.298 2159.19,682.632 2161.23,684.906 2163.26,688.098 2165.3,692.175 2167.34,697.097 2169.38,702.818 2171.41,709.283 2173.45,716.432 2175.49,724.2 2177.53,732.515 2179.56,741.3 2181.6,750.477 2183.64,759.962 2185.68,769.671 2187.71,779.515 2189.75,789.408 2191.79,799.261 2193.83,808.988 2195.86,818.502 2197.9,827.721 2199.94,836.563 2201.98,844.952 2204.01,852.815 2206.05,860.085 2208.09,866.7 2210.13,872.603 2212.16,877.745 2214.2,882.084 2216.24,885.584 2218.28,888.218 2220.31,889.966 2222.35,890.816 2224.39,890.763 2226.43,889.812 2228.46,887.976 2230.5,885.273 2232.54,881.731 2234.58,877.386 2236.61,872.278 2238.65,866.456 2240.69,859.974 2242.73,852.893 2244.77,845.277 2246.8,837.197 2248.84,828.726 2250.88,819.94 2252.92,810.918 2254.95,801.742 2256.99,792.493 2259.03,783.253 2261.07,774.106 2263.1,765.13 2265.14,756.405 2267.18,748.008 2269.22,740.011 2271.25,732.483 2273.29,725.49 2275.33,719.092 2277.37,713.342 2279.4,708.29 2281.44,703.976 2283.48,700.437 2285.52,697.7 2287.55,695.787 2289.59,694.712 2291.63,694.479 "/>
<polyline clip-path="url(#clip912)" style="stroke:#e26f46; stroke-linecap:round; stroke-linejoin:round; stroke-width:8; stroke-opacity:1; fill:none" points="254.067,789.408 256.105,723.529 258.143,658.497 260.18,594.885 262.218,533.251 264.255,474.133 266.293,418.045 268.33,365.472 270.368,316.866 272.406,272.642 274.443,233.174 276.481,198.794 278.518,169.784 280.556,146.382 282.593,128.772 284.631,117.087 286.668,111.407 288.706,111.759 290.744,118.114 292.781,130.393 294.819,148.464 296.856,172.143 298.894,201.198 300.931,235.349 302.969,274.275 305.007,317.61 307.044,364.954 309.082,415.87 311.119,469.894 313.157,526.533 315.194,585.276 317.232,645.594 319.269,706.945 321.307,768.783 323.345,830.556 325.382,891.718 327.42,951.729 329.457,1010.06 331.495,1066.21 333.532,1119.67 335.57,1170 337.608,1216.75 339.645,1259.53 341.683,1297.98 343.72,1331.76 345.758,1360.6 347.795,1384.26 349.833,1402.56 351.87,1415.35 353.908,1422.54 355.946,1424.09 357.983,1420.01 360.021,1410.36 362.058,1395.24 364.096,1374.82 366.133,1349.29 368.171,1318.9 370.208,1283.93 372.246,1244.73 374.284,1201.64 376.321,1155.08 378.359,1105.46 380.396,1053.23 382.434,998.881 384.471,942.889 386.509,885.76 388.547,828.005 390.584,770.138 392.622,712.674 394.659,656.119 396.697,600.971 398.734,547.713 400.772,496.809 402.809,448.702 404.847,403.807 406.885,362.508 408.922,325.157 410.96,292.07 412.997,263.522 415.035,239.749 417.072,220.942 419.11,207.248 421.148,198.768 423.185,195.556 425.223,197.62 427.26,204.92 429.298,217.372 431.335,234.843 433.373,257.159 435.41,284.103 437.448,315.417 439.486,350.807 441.523,389.943 443.561,432.463 445.598,477.976 447.636,526.068 449.673,576.302 451.711,628.224 453.749,681.367 455.786,735.255 457.824,789.408 459.861,843.345 461.899,896.588 463.936,948.669 465.974,999.131 468.011,1047.53 470.049,1093.45 472.087,1136.5 474.124,1176.29 476.162,1212.5 478.199,1244.81 480.237,1272.96 482.274,1296.71 484.312,1315.87 486.349,1330.29 488.387,1339.86 490.425,1344.51 492.462,1344.22 494.5,1339.02 496.537,1328.96 498.575,1314.17 500.612,1294.78 502.65,1270.99 504.688,1243.03 506.725,1211.16 508.763,1175.68 510.8,1136.92 512.838,1095.23 514.875,1051 516.913,1004.63 518.95,956.537 520.988,907.153 523.026,856.923 525.063,806.294 527.101,755.719 529.138,705.644 531.176,656.511 533.213,608.752 535.251,562.785 537.289,519.009 539.326,477.805 541.364,439.527 543.401,404.502 545.439,373.028 547.476,345.37 549.514,321.758 551.551,302.384 553.589,287.404 555.627,276.933 557.664,271.045 559.702,269.775 561.739,273.114 563.777,281.016 565.814,293.392 567.852,310.115 569.89,331.018 571.927,355.9 573.965,384.525 576.002,416.624 578.04,451.898 580.077,490.023 582.115,530.649 584.152,573.406 586.19,617.906 588.228,663.749 590.265,710.522 592.303,757.807 594.34,805.184 596.378,852.232 598.415,898.536 600.453,943.687 602.491,987.291 604.528,1028.97 606.566,1068.35 608.603,1105.11 610.641,1138.92 612.678,1169.5 614.716,1196.59 616.753,1219.97 618.791,1239.43 620.829,1254.83 622.866,1266.04 624.904,1272.98 626.941,1275.61 628.979,1273.92 631.016,1267.95 633.054,1257.75 635.091,1243.45 637.129,1225.18 639.167,1203.12 641.204,1177.48 643.242,1148.5 645.279,1116.46 647.317,1081.65 649.354,1044.39 651.392,1005.01 653.43,963.884 655.467,921.374 657.505,877.865 659.542,833.745 661.58,789.408 663.617,745.248 665.655,701.656 667.692,659.016 669.73,617.701 671.768,578.073 673.805,540.476 675.843,505.235 677.88,472.654 679.918,443.01 681.955,416.553 683.993,393.507 686.031,374.062 688.068,358.375 690.106,346.571 692.143,338.738 694.181,334.93 696.218,335.166 698.256,339.426 700.293,347.657 702.331,359.77 704.369,375.643 706.406,395.119 708.444,418.011 710.481,444.104 712.519,473.153 714.556,504.888 716.594,539.018 718.632,575.231 720.669,613.198 722.707,652.574 724.744,693.007 726.782,734.132 728.819,775.582 730.857,816.99 732.894,857.988 734.932,898.215 736.97,937.317 739.007,974.951 741.045,1010.79 743.082,1044.53 745.12,1075.87 747.157,1104.54 749.195,1130.31 751.233,1152.96 753.27,1172.29 755.308,1188.15 757.345,1200.41 759.383,1208.99 761.42,1213.81 763.458,1214.85 765.495,1212.11 767.533,1205.64 769.571,1195.51 771.608,1181.82 773.646,1164.71 775.683,1144.33 777.721,1120.9 779.758,1094.62 781.796,1065.74 783.833,1034.52 785.871,1001.26 787.909,966.256 789.946,929.822 791.984,892.289 794.021,853.994 796.059,815.28 798.096,776.491 800.134,737.972 802.172,700.062 804.209,663.095 806.247,627.395 808.284,593.273 810.322,561.026 812.359,530.932 814.397,503.248 816.434,478.211 818.472,456.032 820.51,436.896 822.547,420.96 824.585,408.354 826.622,399.174 828.66,393.49 830.697,391.337 832.735,392.721 834.773,397.614 836.81,405.96 838.848,417.672 840.885,432.631 842.923,450.692 844.96,471.682 846.998,495.405 849.035,521.639 851.073,550.141 853.111,580.649 855.148,612.886 857.186,646.559 859.223,681.363 861.261,716.986 863.298,753.108 865.336,789.408 867.374,825.563 869.411,861.253 871.449,896.164 873.486,929.99 875.524,962.434 877.561,993.216 879.599,1022.07 881.636,1048.74 883.674,1073.01 885.712,1094.68 887.749,1113.54 889.787,1129.46 891.824,1142.31 893.862,1151.97 895.899,1158.39 897.937,1161.5 899.975,1161.31 902.012,1157.82 904.05,1151.08 906.087,1141.17 908.125,1128.17 910.162,1112.22 912.2,1093.48 914.237,1072.12 916.275,1048.34 918.313,1022.35 920.35,994.41 922.388,964.761 924.425,933.677 926.463,901.438 928.5,868.335 930.538,834.664 932.575,800.727 934.613,766.825 936.651,733.259 938.688,700.324 940.726,668.311 942.763,637.498 944.801,608.154 946.838,580.534 948.876,554.876 950.914,531.398 952.951,510.3 954.989,491.761 957.026,475.933 959.064,462.946 961.101,452.905 963.139,445.886 965.176,441.939 967.214,441.087 969.252,443.326 971.289,448.623 973.327,456.919 975.364,468.128 977.402,482.14 979.439,498.819 981.477,518.007 983.515,539.523 985.552,563.169 987.59,588.724 989.627,615.956 991.665,644.617 993.702,674.447 995.74,705.176 997.777,736.529 999.815,768.225 1001.85,799.983 1003.89,831.52 1005.93,862.558 1007.97,892.824 1010,922.053 1012.04,949.989 1014.08,976.391 1016.12,1001.03 1018.15,1023.7 1020.19,1044.19 1022.23,1062.35 1024.27,1078.02 1026.3,1091.07 1028.34,1101.39 1030.38,1108.9 1032.42,1113.56 1034.45,1115.32 1036.49,1114.19 1038.53,1110.18 1040.57,1103.35 1042.6,1093.76 1044.64,1081.51 1046.68,1066.73 1048.72,1049.54 1050.75,1030.12 1052.79,1008.64 1054.83,985.303 1056.87,960.325 1058.9,933.932 1060.94,906.363 1062.98,877.868 1065.02,848.702 1067.05,819.128 1069.09,789.408 1071.13,759.807 1073.17,730.586 1075.2,702.003 1077.24,674.309 1079.28,647.746 1081.32,622.544 1083.36,598.921 1085.39,577.081 1087.43,557.21 1089.47,539.476 1091.51,524.028 1093.54,510.993 1095.58,500.478 1097.62,492.565 1099.66,487.315 1101.69,484.763 1103.73,484.92 1105.77,487.776 1107.81,493.294 1109.84,501.413 1111.88,512.053 1113.92,525.108 1115.96,540.453 1117.99,557.944 1120.03,577.416 1122.07,598.689 1124.11,621.567 1126.14,645.841 1128.18,671.291 1130.22,697.686 1132.26,724.788 1134.29,752.355 1136.33,780.14 1138.37,807.897 1140.41,835.379 1142.44,862.343 1144.48,888.554 1146.52,913.781 1148.56,937.806 1150.59,960.419 1152.63,981.427 1154.67,1000.65 1156.71,1017.92 1158.74,1033.1 1160.78,1046.06 1162.82,1056.69 1164.86,1064.91 1166.9,1070.66 1168.93,1073.89 1170.97,1074.59 1173.01,1072.76 1175.05,1068.42 1177.08,1061.63 1179.12,1052.45 1181.16,1040.98 1183.2,1027.32 1185.23,1011.61 1187.27,993.996 1189.31,974.637 1191.35,953.714 1193.38,931.418 1195.42,907.953 1197.46,883.53 1199.5,858.371 1201.53,832.702 1203.57,806.751 1205.61,780.75 1207.65,754.929 1209.68,729.517 1211.72,704.738 1213.76,680.807 1215.8,657.935 1217.83,636.319 1219.87,616.146 1221.91,597.589 1223.95,580.807 1225.98,565.939 1228.02,553.112 1230.06,542.43 1232.1,533.98 1234.13,527.827 1236.17,524.016 1238.21,522.573 1240.25,523.5 1242.28,526.781 1244.32,532.375 1246.36,540.226 1248.4,550.253 1250.44,562.36 1252.47,576.43 1254.51,592.332 1256.55,609.917 1258.59,629.022 1260.62,649.473 1262.66,671.082 1264.7,693.653 1266.74,716.983 1268.77,740.862 1270.81,765.075 1272.85,789.408 1274.89,813.643 1276.92,837.567 1278.96,860.969 1281,883.643 1283.04,905.391 1285.07,926.025 1287.11,945.365 1289.15,963.246 1291.19,979.515 1293.22,994.035 1295.26,1006.68 1297.3,1017.35 1299.34,1025.96 1301.37,1032.44 1303.41,1036.74 1305.45,1038.83 1307.49,1038.7 1309.52,1036.36 1311.56,1031.85 1313.6,1025.2 1315.64,1016.49 1317.67,1005.8 1319.71,993.235 1321.75,978.915 1323.79,962.972 1325.82,945.556 1327.86,926.825 1329.9,906.951 1331.94,886.114 1333.98,864.504 1336.01,842.314 1338.05,819.744 1340.09,796.996 1342.13,774.27 1344.16,751.77 1346.2,729.693 1348.24,708.234 1350.28,687.579 1352.31,667.91 1354.35,649.396 1356.39,632.196 1358.43,616.459 1360.46,602.316 1362.5,589.889 1364.54,579.279 1366.58,570.574 1368.61,563.843 1370.65,559.138 1372.69,556.492 1374.73,555.922 1376.76,557.422 1378.8,560.973 1380.84,566.534 1382.88,574.048 1384.91,583.44 1386.95,594.62 1388.99,607.482 1391.03,621.905 1393.06,637.755 1395.1,654.886 1397.14,673.14 1399.18,692.352 1401.21,712.347 1403.25,732.946 1405.29,753.962 1407.33,775.209 1409.36,796.497 1411.4,817.637 1413.44,838.442 1415.48,858.73 1417.52,878.323 1419.55,897.049 1421.59,914.746 1423.63,931.263 1425.67,946.456 1427.7,960.196 1429.74,972.368 1431.78,982.871 1433.82,991.616 1435.85,998.535 1437.89,1003.57 1439.93,1006.69 1441.97,1007.87 1444,1007.11 1446.04,1004.43 1448.08,999.848 1450.12,993.421 1452.15,985.211 1454.19,975.299 1456.23,963.779 1458.27,950.76 1460.3,936.363 1462.34,920.721 1464.38,903.977 1466.42,886.285 1468.45,867.805 1470.49,848.704 1472.53,829.154 1474.57,809.33 1476.6,789.408 1478.64,769.566 1480.68,749.978 1482.72,730.819 1484.75,712.255 1486.79,694.449 1488.83,677.556 1490.87,661.721 1492.9,647.081 1494.94,633.761 1496.98,621.874 1499.02,611.518 1501.06,602.781 1503.09,595.732 1505.13,590.428 1507.17,586.909 1509.21,585.198 1511.24,585.304 1513.28,587.218 1515.32,590.917 1517.36,596.359 1519.39,603.491 1521.43,612.242 1523.47,622.529 1525.51,634.253 1527.54,647.305 1529.58,661.565 1531.62,676.901 1533.66,693.172 1535.69,710.232 1537.73,727.925 1539.77,746.092 1541.81,764.571 1543.84,783.196 1545.88,801.801 1547.92,820.223 1549.96,838.298 1551.99,855.868 1554.03,872.778 1556.07,888.882 1558.11,904.04 1560.14,918.122 1562.18,931.007 1564.22,942.585 1566.26,952.76 1568.29,961.447 1570.33,968.574 1572.37,974.085 1574.41,977.937 1576.44,980.103 1578.48,980.57 1580.52,979.342 1582.56,976.435 1584.6,971.882 1586.63,965.73 1588.67,958.04 1590.71,948.886 1592.75,938.356 1594.78,926.547 1596.82,913.571 1598.86,899.545 1600.9,884.6 1602.93,868.871 1604.97,852.5 1607.01,835.635 1609.05,818.428 1611.08,801.033 1613.12,783.604 1615.16,766.296 1617.2,749.262 1619.23,732.652 1621.27,716.611 1623.31,701.279 1625.35,686.789 1627.38,673.267 1629.42,660.828 1631.46,649.578 1633.5,639.613 1635.53,631.014 1637.57,623.854 1639.61,618.189 1641.65,614.065 1643.68,611.511 1645.72,610.543 1647.76,611.165 1649.8,613.364 1651.83,617.114 1653.87,622.376 1655.91,629.097 1657.95,637.213 1659.98,646.645 1662.02,657.304 1664.06,669.091 1666.1,681.898 1668.14,695.607 1670.17,710.092 1672.21,725.222 1674.25,740.86 1676.29,756.866 1678.32,773.097 1680.36,789.408 1682.4,805.653 1684.44,821.69 1686.47,837.377 1688.51,852.575 1690.55,867.154 1692.59,880.985 1694.62,893.949 1696.66,905.935 1698.7,916.841 1700.74,926.573 1702.77,935.052 1704.81,942.205 1706.85,947.976 1708.89,952.319 1710.92,955.2 1712.96,956.601 1715,956.514 1717.04,954.947 1719.07,951.919 1721.11,947.463 1723.15,941.624 1725.19,934.459 1727.22,926.037 1729.26,916.438 1731.3,905.752 1733.34,894.077 1735.37,881.521 1737.41,868.199 1739.45,854.232 1741.49,839.746 1743.52,824.872 1745.56,809.743 1747.6,794.494 1749.64,779.261 1751.68,764.179 1753.71,749.38 1755.75,734.995 1757.79,721.15 1759.83,707.965 1761.86,695.555 1763.9,684.026 1765.94,673.476 1767.98,663.997 1770.01,655.666 1772.05,648.554 1774.09,642.719 1776.13,638.207 1778.16,635.053 1780.2,633.28 1782.24,632.897 1784.28,633.903 1786.31,636.283 1788.35,640.011 1790.39,645.048 1792.43,651.344 1794.46,658.838 1796.5,667.46 1798.54,677.128 1800.58,687.752 1802.61,699.235 1804.65,711.471 1806.69,724.349 1808.73,737.752 1810.76,751.56 1812.8,765.648 1814.84,779.89 1816.88,794.16 1818.91,808.33 1820.95,822.277 1822.99,835.876 1825.03,849.009 1827.07,861.562 1829.1,873.425 1831.14,884.496 1833.18,894.68 1835.22,903.891 1837.25,912.05 1839.29,919.09 1841.33,924.952 1843.37,929.59 1845.4,932.967 1847.44,935.058 1849.48,935.85 1851.52,935.341 1853.55,933.541 1855.59,930.47 1857.63,926.162 1859.67,920.659 1861.7,914.015 1863.74,906.293 1865.78,897.566 1867.82,887.915 1869.85,877.429 1871.89,866.206 1873.93,854.347 1875.97,841.959 1878,829.155 1880.04,816.051 1882.08,802.762 1884.12,789.408 1886.15,776.107 1888.19,762.978 1890.23,750.134 1892.27,737.691 1894.3,725.755 1896.34,714.431 1898.38,703.817 1900.42,694.003 1902.45,685.075 1904.49,677.106 1906.53,670.165 1908.57,664.308 1910.61,659.583 1912.64,656.028 1914.68,653.669 1916.72,652.522 1918.76,652.593 1920.79,653.876 1922.83,656.355 1924.87,660.004 1926.91,664.784 1928.94,670.65 1930.98,677.545 1933.02,685.404 1935.06,694.154 1937.09,703.712 1939.13,713.992 1941.17,724.899 1943.21,736.334 1945.24,748.194 1947.28,760.372 1949.32,772.759 1951.36,785.244 1953.39,797.716 1955.43,810.064 1957.47,822.18 1959.51,833.957 1961.54,845.293 1963.58,856.087 1965.62,866.248 1967.66,875.688 1969.69,884.325 1971.73,892.086 1973.77,898.906 1975.81,904.729 1977.84,909.506 1979.88,913.2 1981.92,915.783 1983.96,917.235 1985.99,917.548 1988.03,916.724 1990.07,914.776 1992.11,911.724 1994.15,907.6 1996.18,902.445 1998.22,896.31 2000.26,889.251 2002.3,881.335 2004.33,872.637 2006.37,863.235 2008.41,853.217 2010.45,842.673 2012.48,831.7 2014.52,820.395 2016.56,808.861 2018.6,797.2 2020.63,785.517 2022.67,773.916 2024.71,762.497 2026.75,751.363 2028.78,740.611 2030.82,730.333 2032.86,720.621 2034.9,711.556 2036.93,703.218 2038.97,695.677 2041.01,688.997 2043.05,683.233 2045.08,678.434 2047.12,674.637 2049.16,671.872 2051.2,670.16 2053.23,669.511 2055.27,669.928 2057.31,671.402 2059.35,673.916 2061.38,677.443 2063.42,681.949 2065.46,687.389 2067.5,693.711 2069.53,700.856 2071.57,708.757 2073.61,717.342 2075.65,726.531 2077.69,736.241 2079.72,746.383 2081.76,756.865 2083.8,767.595 2085.84,778.475 2087.87,789.408 2089.91,800.298 2091.95,811.047 2093.99,821.562 2096.02,831.75 2098.06,841.522 2100.1,850.794 2102.14,859.484 2104.17,867.518 2106.21,874.829 2108.25,881.353 2110.29,887.036 2112.32,891.831 2114.36,895.699 2116.4,898.61 2118.44,900.542 2120.47,901.481 2122.51,901.423 2124.55,900.372 2126.59,898.342 2128.62,895.355 2130.66,891.441 2132.7,886.638 2134.74,880.993 2136.77,874.559 2138.81,867.396 2140.85,859.57 2142.89,851.153 2144.92,842.223 2146.96,832.861 2149,823.151 2151.04,813.18 2153.07,803.039 2155.11,792.817 2157.15,782.606 2159.19,772.496 2161.23,762.576 2163.26,752.934 2165.3,743.653 2167.34,734.815 2169.38,726.496 2171.41,718.768 2173.45,711.697 2175.49,705.342 2177.53,699.758 2179.56,694.991 2181.6,691.08 2183.64,688.055 2185.68,685.941 2187.71,684.752 2189.75,684.496 2191.79,685.17 2193.83,686.765 2195.86,689.264 2197.9,692.64 2199.94,696.861 2201.98,701.884 2204.01,707.664 2206.05,714.144 2208.09,721.266 2210.13,728.963 2212.16,737.165 2214.2,745.798 2216.24,754.782 2218.28,764.038 2220.31,773.481 2222.35,783.028 2224.39,792.593 2226.43,802.092 2228.46,811.44 2230.5,820.556 2232.54,829.36 2234.58,837.774 2236.61,845.726 2238.65,853.147 2240.69,859.974 2242.73,866.148 2244.77,871.617 2246.8,876.336 2248.84,880.266 2250.88,883.375 2252.92,885.638 2254.95,887.04 2256.99,887.571 2259.03,887.23 2261.07,886.023 2263.1,883.965 2265.14,881.077 2267.18,877.388 2269.22,872.934 2271.25,867.758 2273.29,861.908 2275.33,855.439 2277.37,848.411 2279.4,840.887 2281.44,832.938 2283.48,824.634 2285.52,816.051 2287.55,807.267 2289.59,798.359 2291.63,789.408 "/>
<path clip-path="url(#clip910)" d="M1719.16 250.738 L2280.76 250.738 L2280.76 95.2176 L1719.16 95.2176  Z" fill="#ffffff" fill-rule="evenodd" fill-opacity="1"/>
<polyline clip-path="url(#clip910)" style="stroke:#000000; stroke-linecap:round; stroke-linejoin:round; stroke-width:4; stroke-opacity:1; fill:none" points="1719.16,250.738 2280.76,250.738 2280.76,95.2176 1719.16,95.2176 1719.16,250.738 "/>
<polyline clip-path="url(#clip910)" style="stroke:#009af9; stroke-linecap:round; stroke-linejoin:round; stroke-width:8; stroke-opacity:1; fill:none" points="1743.16,147.058 1887.14,147.058 "/>
<path clip-path="url(#clip910)" d="M1927.53 148.134 Q1929.03 148.643 1930.45 150.31 Q1931.88 151.977 1933.32 154.893 L1938.06 164.338 L1933.04 164.338 L1928.62 155.472 Q1926.9 152 1925.28 150.865 Q1923.69 149.731 1920.91 149.731 L1915.82 149.731 L1915.82 164.338 L1911.14 164.338 L1911.14 129.778 L1921.7 129.778 Q1927.62 129.778 1930.54 132.254 Q1933.46 134.731 1933.46 139.731 Q1933.46 142.995 1931.93 145.148 Q1930.42 147.301 1927.53 148.134 M1915.82 133.62 L1915.82 145.889 L1921.7 145.889 Q1925.08 145.889 1926.79 144.338 Q1928.53 142.764 1928.53 139.731 Q1928.53 136.699 1926.79 135.171 Q1925.08 133.62 1921.7 133.62 L1915.82 133.62 Z" fill="#000000" fill-rule="nonzero" fill-opacity="1" /><path clip-path="url(#clip910)" d="M1963.94 150.31 L1963.94 152.393 L1944.36 152.393 Q1944.64 156.791 1947 159.106 Q1949.38 161.398 1953.62 161.398 Q1956.07 161.398 1958.36 160.796 Q1960.68 160.194 1962.95 158.99 L1962.95 163.018 Q1960.65 163.99 1958.25 164.5 Q1955.84 165.009 1953.36 165.009 Q1947.16 165.009 1943.53 161.398 Q1939.91 157.787 1939.91 151.629 Q1939.91 145.264 1943.34 141.537 Q1946.79 137.787 1952.62 137.787 Q1957.85 137.787 1960.89 141.166 Q1963.94 144.523 1963.94 150.31 M1959.68 149.06 Q1959.64 145.565 1957.71 143.481 Q1955.82 141.398 1952.67 141.398 Q1949.1 141.398 1946.95 143.412 Q1944.82 145.426 1944.5 149.083 L1959.68 149.06 Z" fill="#000000" fill-rule="nonzero" fill-opacity="1" /><path clip-path="url(#clip910)" d="M1982.71 151.305 Q1977.55 151.305 1975.56 152.486 Q1973.57 153.666 1973.57 156.514 Q1973.57 158.782 1975.05 160.125 Q1976.56 161.444 1979.13 161.444 Q1982.67 161.444 1984.8 158.944 Q1986.95 156.421 1986.95 152.254 L1986.95 151.305 L1982.71 151.305 M1991.21 149.546 L1991.21 164.338 L1986.95 164.338 L1986.95 160.402 Q1985.49 162.763 1983.32 163.898 Q1981.14 165.009 1977.99 165.009 Q1974.01 165.009 1971.65 162.787 Q1969.31 160.541 1969.31 156.791 Q1969.31 152.416 1972.23 150.194 Q1975.17 147.972 1980.98 147.972 L1986.95 147.972 L1986.95 147.555 Q1986.95 144.615 1985.01 143.018 Q1983.09 141.398 1979.59 141.398 Q1977.37 141.398 1975.26 141.93 Q1973.15 142.463 1971.21 143.527 L1971.21 139.592 Q1973.55 138.69 1975.75 138.25 Q1977.95 137.787 1980.03 137.787 Q1985.65 137.787 1988.43 140.703 Q1991.21 143.62 1991.21 149.546 Z" fill="#000000" fill-rule="nonzero" fill-opacity="1" /><path clip-path="url(#clip910)" d="M1999.98 128.319 L2004.24 128.319 L2004.24 164.338 L1999.98 164.338 L1999.98 128.319 Z" fill="#000000" fill-rule="nonzero" fill-opacity="1" /><path clip-path="url(#clip910)" d="M2032.34 160.449 L2032.34 174.199 L2028.06 174.199 L2028.06 138.412 L2032.34 138.412 L2032.34 142.347 Q2033.69 140.032 2035.72 138.921 Q2037.78 137.787 2040.63 137.787 Q2045.35 137.787 2048.29 141.537 Q2051.26 145.287 2051.26 151.398 Q2051.26 157.509 2048.29 161.259 Q2045.35 165.009 2040.63 165.009 Q2037.78 165.009 2035.72 163.898 Q2033.69 162.763 2032.34 160.449 M2046.83 151.398 Q2046.83 146.699 2044.89 144.037 Q2042.97 141.352 2039.59 141.352 Q2036.21 141.352 2034.27 144.037 Q2032.34 146.699 2032.34 151.398 Q2032.34 156.097 2034.27 158.782 Q2036.21 161.444 2039.59 161.444 Q2042.97 161.444 2044.89 158.782 Q2046.83 156.097 2046.83 151.398 Z" fill="#000000" fill-rule="nonzero" fill-opacity="1" /><path clip-path="url(#clip910)" d="M2070.1 151.305 Q2064.94 151.305 2062.95 152.486 Q2060.95 153.666 2060.95 156.514 Q2060.95 158.782 2062.44 160.125 Q2063.94 161.444 2066.51 161.444 Q2070.05 161.444 2072.18 158.944 Q2074.33 156.421 2074.33 152.254 L2074.33 151.305 L2070.1 151.305 M2078.59 149.546 L2078.59 164.338 L2074.33 164.338 L2074.33 160.402 Q2072.88 162.763 2070.7 163.898 Q2068.52 165.009 2065.38 165.009 Q2061.39 165.009 2059.03 162.787 Q2056.7 160.541 2056.7 156.791 Q2056.7 152.416 2059.61 150.194 Q2062.55 147.972 2068.36 147.972 L2074.33 147.972 L2074.33 147.555 Q2074.33 144.615 2072.39 143.018 Q2070.47 141.398 2066.97 141.398 Q2064.75 141.398 2062.64 141.93 Q2060.54 142.463 2058.59 143.527 L2058.59 139.592 Q2060.93 138.69 2063.13 138.25 Q2065.33 137.787 2067.41 137.787 Q2073.04 137.787 2075.82 140.703 Q2078.59 143.62 2078.59 149.546 Z" fill="#000000" fill-rule="nonzero" fill-opacity="1" /><path clip-path="url(#clip910)" d="M2102.39 142.393 Q2101.67 141.977 2100.82 141.791 Q2099.98 141.583 2098.96 141.583 Q2095.35 141.583 2093.41 143.944 Q2091.49 146.282 2091.49 150.68 L2091.49 164.338 L2087.2 164.338 L2087.2 138.412 L2091.49 138.412 L2091.49 142.44 Q2092.83 140.078 2094.98 138.944 Q2097.14 137.787 2100.21 137.787 Q2100.65 137.787 2101.19 137.856 Q2101.72 137.903 2102.37 138.018 L2102.39 142.393 Z" fill="#000000" fill-rule="nonzero" fill-opacity="1" /><path clip-path="url(#clip910)" d="M2111.07 131.051 L2111.07 138.412 L2119.84 138.412 L2119.84 141.722 L2111.07 141.722 L2111.07 155.796 Q2111.07 158.967 2111.93 159.87 Q2112.81 160.773 2115.47 160.773 L2119.84 160.773 L2119.84 164.338 L2115.47 164.338 Q2110.54 164.338 2108.66 162.509 Q2106.79 160.657 2106.79 155.796 L2106.79 141.722 L2103.66 141.722 L2103.66 138.412 L2106.79 138.412 L2106.79 131.051 L2111.07 131.051 Z" fill="#000000" fill-rule="nonzero" fill-opacity="1" /><polyline clip-path="url(#clip910)" style="stroke:#e26f46; stroke-linecap:round; stroke-linejoin:round; stroke-width:8; stroke-opacity:1; fill:none" points="1743.16,198.898 1887.14,198.898 "/>
<path clip-path="url(#clip910)" d="M1911.14 181.618 L1915.82 181.618 L1915.82 216.178 L1911.14 216.178 L1911.14 181.618 Z" fill="#000000" fill-rule="nonzero" fill-opacity="1" /><path clip-path="url(#clip910)" d="M1945.12 195.229 Q1946.72 192.358 1948.94 190.993 Q1951.16 189.627 1954.17 189.627 Q1958.22 189.627 1960.42 192.474 Q1962.62 195.298 1962.62 200.529 L1962.62 216.178 L1958.34 216.178 L1958.34 200.668 Q1958.34 196.942 1957.02 195.136 Q1955.7 193.33 1952.99 193.33 Q1949.68 193.33 1947.76 195.53 Q1945.84 197.729 1945.84 201.525 L1945.84 216.178 L1941.56 216.178 L1941.56 200.668 Q1941.56 196.918 1940.24 195.136 Q1938.92 193.33 1936.16 193.33 Q1932.9 193.33 1930.98 195.553 Q1929.06 197.752 1929.06 201.525 L1929.06 216.178 L1924.78 216.178 L1924.78 190.252 L1929.06 190.252 L1929.06 194.28 Q1930.52 191.895 1932.55 190.761 Q1934.59 189.627 1937.39 189.627 Q1940.21 189.627 1942.18 191.062 Q1944.17 192.497 1945.12 195.229 Z" fill="#000000" fill-rule="nonzero" fill-opacity="1" /><path clip-path="url(#clip910)" d="M1982.9 203.145 Q1977.74 203.145 1975.75 204.326 Q1973.76 205.506 1973.76 208.354 Q1973.76 210.622 1975.24 211.965 Q1976.74 213.284 1979.31 213.284 Q1982.85 213.284 1984.98 210.784 Q1987.14 208.261 1987.14 204.094 L1987.14 203.145 L1982.9 203.145 M1991.4 201.386 L1991.4 216.178 L1987.14 216.178 L1987.14 212.242 Q1985.68 214.603 1983.5 215.738 Q1981.33 216.849 1978.18 216.849 Q1974.2 216.849 1971.84 214.627 Q1969.5 212.381 1969.5 208.631 Q1969.5 204.256 1972.41 202.034 Q1975.35 199.812 1981.16 199.812 L1987.14 199.812 L1987.14 199.395 Q1987.14 196.455 1985.19 194.858 Q1983.27 193.238 1979.77 193.238 Q1977.55 193.238 1975.45 193.77 Q1973.34 194.303 1971.4 195.367 L1971.4 191.432 Q1973.73 190.53 1975.93 190.09 Q1978.13 189.627 1980.21 189.627 Q1985.84 189.627 1988.62 192.543 Q1991.4 195.46 1991.4 201.386 Z" fill="#000000" fill-rule="nonzero" fill-opacity="1" /><path clip-path="url(#clip910)" d="M2017.23 202.914 Q2017.23 198.284 2015.31 195.738 Q2013.41 193.192 2009.96 193.192 Q2006.53 193.192 2004.61 195.738 Q2002.71 198.284 2002.71 202.914 Q2002.71 207.52 2004.61 210.066 Q2006.53 212.613 2009.96 212.613 Q2013.41 212.613 2015.31 210.066 Q2017.23 207.52 2017.23 202.914 M2021.49 212.96 Q2021.49 219.58 2018.55 222.798 Q2015.61 226.039 2009.54 226.039 Q2007.3 226.039 2005.31 225.691 Q2003.32 225.367 2001.44 224.673 L2001.44 220.529 Q2003.32 221.548 2005.15 222.034 Q2006.97 222.52 2008.87 222.52 Q2013.06 222.52 2015.15 220.321 Q2017.23 218.145 2017.23 213.724 L2017.23 211.617 Q2015.91 213.909 2013.85 215.043 Q2011.79 216.178 2008.92 216.178 Q2004.15 216.178 2001.23 212.543 Q1998.32 208.909 1998.32 202.914 Q1998.32 196.895 2001.23 193.261 Q2004.15 189.627 2008.92 189.627 Q2011.79 189.627 2013.85 190.761 Q2015.91 191.895 2017.23 194.187 L2017.23 190.252 L2021.49 190.252 L2021.49 212.96 Z" fill="#000000" fill-rule="nonzero" fill-opacity="1" /><path clip-path="url(#clip910)" d="M2030.26 190.252 L2034.52 190.252 L2034.52 216.178 L2030.26 216.178 L2030.26 190.252 M2030.26 180.159 L2034.52 180.159 L2034.52 185.553 L2030.26 185.553 L2030.26 180.159 Z" fill="#000000" fill-rule="nonzero" fill-opacity="1" /><path clip-path="url(#clip910)" d="M2064.98 200.529 L2064.98 216.178 L2060.72 216.178 L2060.72 200.668 Q2060.72 196.988 2059.29 195.159 Q2057.85 193.33 2054.98 193.33 Q2051.53 193.33 2049.54 195.53 Q2047.55 197.729 2047.55 201.525 L2047.55 216.178 L2043.27 216.178 L2043.27 190.252 L2047.55 190.252 L2047.55 194.28 Q2049.08 191.942 2051.14 190.784 Q2053.22 189.627 2055.93 189.627 Q2060.4 189.627 2062.69 192.405 Q2064.98 195.159 2064.98 200.529 Z" fill="#000000" fill-rule="nonzero" fill-opacity="1" /><path clip-path="url(#clip910)" d="M2085.26 203.145 Q2080.1 203.145 2078.11 204.326 Q2076.12 205.506 2076.12 208.354 Q2076.12 210.622 2077.6 211.965 Q2079.1 213.284 2081.67 213.284 Q2085.21 213.284 2087.34 210.784 Q2089.5 208.261 2089.5 204.094 L2089.5 203.145 L2085.26 203.145 M2093.76 201.386 L2093.76 216.178 L2089.5 216.178 L2089.5 212.242 Q2088.04 214.603 2085.86 215.738 Q2083.69 216.849 2080.54 216.849 Q2076.56 216.849 2074.2 214.627 Q2071.86 212.381 2071.86 208.631 Q2071.86 204.256 2074.77 202.034 Q2077.71 199.812 2083.52 199.812 L2089.5 199.812 L2089.5 199.395 Q2089.5 196.455 2087.55 194.858 Q2085.63 193.238 2082.14 193.238 Q2079.91 193.238 2077.81 193.77 Q2075.7 194.303 2073.76 195.367 L2073.76 191.432 Q2076.09 190.53 2078.29 190.09 Q2080.49 189.627 2082.58 189.627 Q2088.2 189.627 2090.98 192.543 Q2093.76 195.46 2093.76 201.386 Z" fill="#000000" fill-rule="nonzero" fill-opacity="1" /><path clip-path="url(#clip910)" d="M2117.55 194.233 Q2116.83 193.817 2115.98 193.631 Q2115.14 193.423 2114.13 193.423 Q2110.51 193.423 2108.57 195.784 Q2106.65 198.122 2106.65 202.52 L2106.65 216.178 L2102.37 216.178 L2102.37 190.252 L2106.65 190.252 L2106.65 194.28 Q2107.99 191.918 2110.14 190.784 Q2112.3 189.627 2115.38 189.627 Q2115.82 189.627 2116.35 189.696 Q2116.88 189.743 2117.53 189.858 L2117.55 194.233 Z" fill="#000000" fill-rule="nonzero" fill-opacity="1" /><path clip-path="url(#clip910)" d="M2132.81 218.585 Q2131 223.215 2129.29 224.627 Q2127.57 226.039 2124.7 226.039 L2121.3 226.039 L2121.3 222.474 L2123.8 222.474 Q2125.56 222.474 2126.53 221.64 Q2127.51 220.807 2128.69 217.705 L2129.45 215.761 L2118.96 190.252 L2123.48 190.252 L2131.58 210.529 L2139.68 190.252 L2144.2 190.252 L2132.81 218.585 Z" fill="#000000" fill-rule="nonzero" fill-opacity="1" /><path clip-path="url(#clip910)" d="M2169.26 212.289 L2169.26 226.039 L2164.98 226.039 L2164.98 190.252 L2169.26 190.252 L2169.26 194.187 Q2170.61 191.872 2172.64 190.761 Q2174.7 189.627 2177.55 189.627 Q2182.27 189.627 2185.21 193.377 Q2188.18 197.127 2188.18 203.238 Q2188.18 209.349 2185.21 213.099 Q2182.27 216.849 2177.55 216.849 Q2174.7 216.849 2172.64 215.738 Q2170.61 214.603 2169.26 212.289 M2183.76 203.238 Q2183.76 198.539 2181.81 195.877 Q2179.89 193.192 2176.51 193.192 Q2173.13 193.192 2171.19 195.877 Q2169.26 198.539 2169.26 203.238 Q2169.26 207.937 2171.19 210.622 Q2173.13 213.284 2176.51 213.284 Q2179.89 213.284 2181.81 210.622 Q2183.76 207.937 2183.76 203.238 Z" fill="#000000" fill-rule="nonzero" fill-opacity="1" /><path clip-path="url(#clip910)" d="M2207.02 203.145 Q2201.86 203.145 2199.87 204.326 Q2197.88 205.506 2197.88 208.354 Q2197.88 210.622 2199.36 211.965 Q2200.86 213.284 2203.43 213.284 Q2206.97 213.284 2209.1 210.784 Q2211.26 208.261 2211.26 204.094 L2211.26 203.145 L2207.02 203.145 M2215.51 201.386 L2215.51 216.178 L2211.26 216.178 L2211.26 212.242 Q2209.8 214.603 2207.62 215.738 Q2205.44 216.849 2202.3 216.849 Q2198.32 216.849 2195.95 214.627 Q2193.62 212.381 2193.62 208.631 Q2193.62 204.256 2196.53 202.034 Q2199.47 199.812 2205.28 199.812 L2211.26 199.812 L2211.26 199.395 Q2211.26 196.455 2209.31 194.858 Q2207.39 193.238 2203.89 193.238 Q2201.67 193.238 2199.57 193.77 Q2197.46 194.303 2195.51 195.367 L2195.51 191.432 Q2197.85 190.53 2200.05 190.09 Q2202.25 189.627 2204.33 189.627 Q2209.96 189.627 2212.74 192.543 Q2215.51 195.46 2215.51 201.386 Z" fill="#000000" fill-rule="nonzero" fill-opacity="1" /><path clip-path="url(#clip910)" d="M2239.31 194.233 Q2238.59 193.817 2237.74 193.631 Q2236.9 193.423 2235.88 193.423 Q2232.27 193.423 2230.33 195.784 Q2228.41 198.122 2228.41 202.52 L2228.41 216.178 L2224.13 216.178 L2224.13 190.252 L2228.41 190.252 L2228.41 194.28 Q2229.75 191.918 2231.9 190.784 Q2234.06 189.627 2237.13 189.627 Q2237.57 189.627 2238.11 189.696 Q2238.64 189.743 2239.29 189.858 L2239.31 194.233 Z" fill="#000000" fill-rule="nonzero" fill-opacity="1" /><path clip-path="url(#clip910)" d="M2247.99 182.891 L2247.99 190.252 L2256.76 190.252 L2256.76 193.562 L2247.99 193.562 L2247.99 207.636 Q2247.99 210.807 2248.85 211.71 Q2249.73 212.613 2252.39 212.613 L2256.76 212.613 L2256.76 216.178 L2252.39 216.178 Q2247.46 216.178 2245.58 214.349 Q2243.71 212.497 2243.71 207.636 L2243.71 193.562 L2240.58 193.562 L2240.58 190.252 L2243.71 190.252 L2243.71 182.891 L2247.99 182.891 Z" fill="#000000" fill-rule="nonzero" fill-opacity="1" /></svg>