<?xml version="1.0" encoding="utf-8"?>
<svg xmlns="http://www.w3.org/2000/svg" xmlns:xlink="http://www.w3.org/1999/xlink" width="600" height="400" viewBox="0 0 2400 1600">
<defs>
  <clipPath id="clip580">
    <rect x="0" y="0" width="2400" height="1600"/>
  </clipPath>
</defs>
<path clip-path="url(#clip580)" d="M0 1600 L2400 1600 L2400 8.88178e-14 L0 8.88178e-14  Z" fill="#ffffff" fill-rule="evenodd" fill-opacity="1"/>
<defs>
  <clipPath id="clip581">
    <rect x="480" y="0" width="1681" height="1600"/>
  </clipPath>
</defs>
<path clip-path="url(#clip580)" d="M178.867 1486.45 L2352.76 1486.45 L2352.76 47.2441 L178.867 47.2441  Z" fill="#ffffff" fill-rule="evenodd" fill-opacity="1"/>
<defs>
  <clipPath id="clip582">
    <rect x="178" y="47" width="2175" height="1440"/>
  </clipPath>
</defs>
<polyline clip-path="url(#clip582)" style="stroke:#000000; stroke-linecap:round; stroke-linejoin:round; stroke-width:2; stroke-opacity:0.1; fill:none" points="240.392,1486.45 240.392,47.2441 "/>
<polyline clip-path="url(#clip582)" style="stroke:#000000; stroke-linecap:round; stroke-linejoin:round; stroke-width:2; stroke-opacity:0.1; fill:none" points="753.102,1486.45 753.102,47.2441 "/>
<polyline clip-path="url(#clip582)" style="stroke:#000000; stroke-linecap:round; stroke-linejoin:round; stroke-width:2; stroke-opacity:0.1; fill:none" points="1265.81,1486.45 1265.81,47.2441 "/>
<polyline clip-path="url(#clip582)" style="stroke:#000000; stroke-linecap:round; stroke-linejoin:round; stroke-width:2; stroke-opacity:0.1; fill:none" points="1778.52,1486.45 1778.52,47.2441 "/>
<polyline clip-path="url(#clip582)" style="stroke:#000000; stroke-linecap:round; stroke-linejoin:round; stroke-width:2; stroke-opacity:0.1; fill:none" points="2291.23,1486.45 2291.23,47.2441 "/>
<polyline clip-path="url(#clip582)" style="stroke:#000000; stroke-linecap:round; stroke-linejoin:round; stroke-width:2; stroke-opacity:0.1; fill:none" points="178.867,1445.72 2352.76,1445.72 "/>
<polyline clip-path="url(#clip582)" style="stroke:#000000; stroke-linecap:round; stroke-linejoin:round; stroke-width:2; stroke-opacity:0.1; fill:none" points="178.867,1106.28 2352.76,1106.28 "/>
<polyline clip-path="url(#clip582)" style="stroke:#000000; stroke-linecap:round; stroke-linejoin:round; stroke-width:2; stroke-opacity:0.1; fill:none" points="178.867,766.846 2352.76,766.846 "/>
<polyline clip-path="url(#clip582)" style="stroke:#000000; stroke-linecap:round; stroke-linejoin:round; stroke-width:2; stroke-opacity:0.1; fill:none" points="178.867,427.411 2352.76,427.411 "/>
<polyline clip-path="url(#clip582)" style="stroke:#000000; stroke-linecap:round; stroke-linejoin:round; stroke-width:2; stroke-opacity:0.1; fill:none" points="178.867,87.9763 2352.76,87.9763 "/>
<polyline clip-path="url(#clip580)" style="stroke:#000000; stroke-linecap:round; stroke-linejoin:round; stroke-width:4; stroke-opacity:1; fill:none" points="178.867,1486.45 2352.76,1486.45 "/>
<polyline clip-path="url(#clip580)" style="stroke:#000000; stroke-linecap:round; stroke-linejoin:round; stroke-width:4; stroke-opacity:1; fill:none" points="240.392,1486.45 240.392,1467.55 "/>
<polyline clip-path="url(#clip580)" style="stroke:#000000; stroke-linecap:round; stroke-linejoin:round; stroke-width:4; stroke-opacity:1; fill:none" points="753.102,1486.45 753.102,1467.55 "/>
<polyline clip-path="url(#clip580)" style="stroke:#000000; stroke-linecap:round; stroke-linejoin:round; stroke-width:4; stroke-opacity:1; fill:none" points="1265.81,1486.45 1265.81,1467.55 "/>
<polyline clip-path="url(#clip580)" style="stroke:#000000; stroke-linecap:round; stroke-linejoin:round; stroke-width:4; stroke-opacity:1; fill:none" points="1778.52,1486.45 1778.52,1467.55 "/>
<polyline clip-path="url(#clip580)" style="stroke:#000000; stroke-linecap:round; stroke-linejoin:round; stroke-width:4; stroke-opacity:1; fill:none" points="2291.23,1486.45 2291.23,1467.55 "/>
<path clip-path="url(#clip580)" d="M194.455 1532.02 L224.13 1532.02 L224.13 1535.95 L194.455 1535.95 L194.455 1532.02 Z" fill="#000000" fill-rule="nonzero" fill-opacity="1" /><path clip-path="url(#clip580)" d="M235.033 1544.91 L242.672 1544.91 L242.672 1518.55 L234.362 1520.21 L234.362 1515.95 L242.626 1514.29 L247.301 1514.29 L247.301 1544.91 L254.94 1544.91 L254.94 1548.85 L235.033 1548.85 L235.033 1544.91 Z" fill="#000000" fill-rule="nonzero" fill-opacity="1" /><path clip-path="url(#clip580)" d="M274.385 1517.37 Q270.774 1517.37 268.945 1520.93 Q267.139 1524.47 267.139 1531.6 Q267.139 1538.71 268.945 1542.27 Q270.774 1545.82 274.385 1545.82 Q278.019 1545.82 279.824 1542.27 Q281.653 1538.71 281.653 1531.6 Q281.653 1524.47 279.824 1520.93 Q278.019 1517.37 274.385 1517.37 M274.385 1513.66 Q280.195 1513.66 283.25 1518.27 Q286.329 1522.85 286.329 1531.6 Q286.329 1540.33 283.25 1544.94 Q280.195 1549.52 274.385 1549.52 Q268.575 1549.52 265.496 1544.94 Q262.44 1540.33 262.44 1531.6 Q262.44 1522.85 265.496 1518.27 Q268.575 1513.66 274.385 1513.66 Z" fill="#000000" fill-rule="nonzero" fill-opacity="1" /><path clip-path="url(#clip580)" d="M722.743 1532.02 L752.419 1532.02 L752.419 1535.95 L722.743 1535.95 L722.743 1532.02 Z" fill="#000000" fill-rule="nonzero" fill-opacity="1" /><path clip-path="url(#clip580)" d="M762.558 1514.29 L780.914 1514.29 L780.914 1518.22 L766.84 1518.22 L766.84 1526.7 Q767.858 1526.35 768.877 1526.19 Q769.895 1526 770.914 1526 Q776.701 1526 780.081 1529.17 Q783.46 1532.34 783.46 1537.76 Q783.46 1543.34 779.988 1546.44 Q776.516 1549.52 770.196 1549.52 Q768.02 1549.52 765.752 1549.15 Q763.507 1548.78 761.099 1548.04 L761.099 1543.34 Q763.183 1544.47 765.405 1545.03 Q767.627 1545.58 770.104 1545.58 Q774.108 1545.58 776.446 1543.48 Q778.784 1541.37 778.784 1537.76 Q778.784 1534.15 776.446 1532.04 Q774.108 1529.94 770.104 1529.94 Q768.229 1529.94 766.354 1530.35 Q764.502 1530.77 762.558 1531.65 L762.558 1514.29 Z" fill="#000000" fill-rule="nonzero" fill-opacity="1" /><path clip-path="url(#clip580)" d="M1265.81 1517.37 Q1262.2 1517.37 1260.37 1520.93 Q1258.57 1524.47 1258.57 1531.6 Q1258.57 1538.71 1260.37 1542.27 Q1262.2 1545.82 1265.81 1545.82 Q1269.45 1545.82 1271.25 1542.27 Q1273.08 1538.71 1273.08 1531.6 Q1273.08 1524.47 1271.25 1520.93 Q1269.45 1517.37 1265.81 1517.37 M1265.81 1513.66 Q1271.62 1513.66 1274.68 1518.27 Q1277.76 1522.85 1277.76 1531.6 Q1277.76 1540.33 1274.68 1544.94 Q1271.62 1549.52 1265.81 1549.52 Q1260 1549.52 1256.92 1544.94 Q1253.87 1540.33 1253.87 1531.6 Q1253.87 1522.85 1256.92 1518.27 Q1260 1513.66 1265.81 1513.66 Z" fill="#000000" fill-rule="nonzero" fill-opacity="1" /><path clip-path="url(#clip580)" d="M1768.8 1514.29 L1787.16 1514.29 L1787.16 1518.22 L1773.08 1518.22 L1773.08 1526.7 Q1774.1 1526.35 1775.12 1526.19 Q1776.14 1526 1777.16 1526 Q1782.94 1526 1786.32 1529.17 Q1789.7 1532.34 1789.7 1537.76 Q1789.7 1543.34 1786.23 1546.44 Q1782.76 1549.52 1776.44 1549.52 Q1774.26 1549.52 1771.99 1549.15 Q1769.75 1548.78 1767.34 1548.04 L1767.34 1543.34 Q1769.42 1544.47 1771.65 1545.03 Q1773.87 1545.58 1776.35 1545.58 Q1780.35 1545.58 1782.69 1543.48 Q1785.03 1541.37 1785.03 1537.76 Q1785.03 1534.15 1782.69 1532.04 Q1780.35 1529.94 1776.35 1529.94 Q1774.47 1529.94 1772.6 1530.35 Q1770.74 1530.77 1768.8 1531.65 L1768.8 1514.29 Z" fill="#000000" fill-rule="nonzero" fill-opacity="1" /><path clip-path="url(#clip580)" d="M2265.92 1544.91 L2273.56 1544.91 L2273.56 1518.55 L2265.25 1520.21 L2265.25 1515.95 L2273.51 1514.29 L2278.19 1514.29 L2278.19 1544.91 L2285.83 1544.91 L2285.83 1548.85 L2265.92 1548.85 L2265.92 1544.91 Z" fill="#000000" fill-rule="nonzero" fill-opacity="1" /><path clip-path="url(#clip580)" d="M2305.27 1517.37 Q2301.66 1517.37 2299.83 1520.93 Q2298.02 1524.47 2298.02 1531.6 Q2298.02 1538.71 2299.83 1542.27 Q2301.66 1545.82 2305.27 1545.82 Q2308.9 1545.82 2310.71 1542.27 Q2312.54 1538.71 2312.54 1531.6 Q2312.54 1524.47 2310.71 1520.93 Q2308.9 1517.37 2305.27 1517.37 M2305.27 1513.66 Q2311.08 1513.66 2314.14 1518.27 Q2317.21 1522.85 2317.21 1531.6 Q2317.21 1540.33 2314.14 1544.94 Q2311.08 1549.52 2305.27 1549.52 Q2299.46 1549.52 2296.38 1544.94 Q2293.33 1540.33 2293.33 1531.6 Q2293.33 1522.85 2296.38 1518.27 Q2299.46 1513.66 2305.27 1513.66 Z" fill="#000000" fill-rule="nonzero" fill-opacity="1" /><polyline clip-path="url(#clip580)" style="stroke:#000000; stroke-linecap:round; stroke-linejoin:round; stroke-width:4; stroke-opacity:1; fill:none" points="178.867,1486.45 178.867,47.2441 "/>
<polyline clip-path="url(#clip580)" style="stroke:#000000; stroke-linecap:round; stroke-linejoin:round; stroke-width:4; stroke-opacity:1; fill:none" points="178.867,1445.72 197.764,1445.72 "/>
<polyline clip-path="url(#clip580)" style="stroke:#000000; stroke-linecap:round; stroke-linejoin:round; stroke-width:4; stroke-opacity:1; fill:none" points="178.867,1106.28 197.764,1106.28 "/>
<polyline clip-path="url(#clip580)" style="stroke:#000000; stroke-linecap:round; stroke-linejoin:round; stroke-width:4; stroke-opacity:1; fill:none" points="178.867,766.846 197.764,766.846 "/>
<polyline clip-path="url(#clip580)" style="stroke:#000000; stroke-linecap:round; stroke-linejoin:round; stroke-width:4; stroke-opacity:1; fill:none" points="178.867,427.411 197.764,427.411 "/>
<polyline clip-path="url(#clip580)" style="stroke:#000000; stroke-linecap:round; stroke-linejoin:round; stroke-width:4; stroke-opacity:1; fill:none" points="178.867,87.9763 197.764,87.9763 "/>
<path clip-path="url(#clip580)" d="M50.9921 1446.17 L80.6679 1446.17 L80.6679 1450.1 L50.9921 1450.1 L50.9921 1446.17 Z" fill="#000000" fill-rule="nonzero" fill-opacity="1" /><path clip-path="url(#clip580)" d="M91.5706 1459.06 L99.2095 1459.06 L99.2095 1432.69 L90.8993 1434.36 L90.8993 1430.1 L99.1632 1428.44 L103.839 1428.44 L103.839 1459.06 L111.478 1459.06 L111.478 1463 L91.5706 1463 L91.5706 1459.06 Z" fill="#000000" fill-rule="nonzero" fill-opacity="1" /><path clip-path="url(#clip580)" d="M130.922 1431.51 Q127.311 1431.51 125.482 1435.08 Q123.677 1438.62 123.677 1445.75 Q123.677 1452.86 125.482 1456.42 Q127.311 1459.96 130.922 1459.96 Q134.556 1459.96 136.362 1456.42 Q138.191 1452.86 138.191 1445.75 Q138.191 1438.62 136.362 1435.08 Q134.556 1431.51 130.922 1431.51 M130.922 1427.81 Q136.732 1427.81 139.788 1432.42 Q142.867 1437 142.867 1445.75 Q142.867 1454.48 139.788 1459.08 Q136.732 1463.67 130.922 1463.67 Q125.112 1463.67 122.033 1459.08 Q118.978 1454.48 118.978 1445.75 Q118.978 1437 122.033 1432.42 Q125.112 1427.81 130.922 1427.81 Z" fill="#000000" fill-rule="nonzero" fill-opacity="1" /><path clip-path="url(#clip580)" d="M82.1494 1106.73 L111.825 1106.73 L111.825 1110.67 L82.1494 1110.67 L82.1494 1106.73 Z" fill="#000000" fill-rule="nonzero" fill-opacity="1" /><path clip-path="url(#clip580)" d="M121.964 1089 L140.32 1089 L140.32 1092.94 L126.246 1092.94 L126.246 1101.41 Q127.265 1101.06 128.283 1100.9 Q129.302 1100.71 130.32 1100.71 Q136.107 1100.71 139.487 1103.89 Q142.867 1107.06 142.867 1112.47 Q142.867 1118.05 139.394 1121.15 Q135.922 1124.23 129.603 1124.23 Q127.427 1124.23 125.158 1123.86 Q122.913 1123.49 120.506 1122.75 L120.506 1118.05 Q122.589 1119.19 124.811 1119.74 Q127.033 1120.3 129.51 1120.3 Q133.515 1120.3 135.853 1118.19 Q138.191 1116.08 138.191 1112.47 Q138.191 1108.86 135.853 1106.76 Q133.515 1104.65 129.51 1104.65 Q127.635 1104.65 125.76 1105.07 Q123.908 1105.48 121.964 1106.36 L121.964 1089 Z" fill="#000000" fill-rule="nonzero" fill-opacity="1" /><path clip-path="url(#clip580)" d="M130.922 752.645 Q127.311 752.645 125.482 756.209 Q123.677 759.751 123.677 766.881 Q123.677 773.987 125.482 777.552 Q127.311 781.094 130.922 781.094 Q134.556 781.094 136.362 777.552 Q138.191 773.987 138.191 766.881 Q138.191 759.751 136.362 756.209 Q134.556 752.645 130.922 752.645 M130.922 748.941 Q136.732 748.941 139.788 753.547 Q142.867 758.131 142.867 766.881 Q142.867 775.608 139.788 780.214 Q136.732 784.797 130.922 784.797 Q125.112 784.797 122.033 780.214 Q118.978 775.608 118.978 766.881 Q118.978 758.131 122.033 753.547 Q125.112 748.941 130.922 748.941 Z" fill="#000000" fill-rule="nonzero" fill-opacity="1" /><path clip-path="url(#clip580)" d="M121.964 410.131 L140.32 410.131 L140.32 414.066 L126.246 414.066 L126.246 422.538 Q127.265 422.191 128.283 422.029 Q129.302 421.844 130.32 421.844 Q136.107 421.844 139.487 425.015 Q142.867 428.187 142.867 433.603 Q142.867 439.182 139.394 442.284 Q135.922 445.362 129.603 445.362 Q127.427 445.362 125.158 444.992 Q122.913 444.622 120.506 443.881 L120.506 439.182 Q122.589 440.316 124.811 440.872 Q127.033 441.427 129.51 441.427 Q133.515 441.427 135.853 439.321 Q138.191 437.214 138.191 433.603 Q138.191 429.992 135.853 427.886 Q133.515 425.779 129.51 425.779 Q127.635 425.779 125.76 426.196 Q123.908 426.613 121.964 427.492 L121.964 410.131 Z" fill="#000000" fill-rule="nonzero" fill-opacity="1" /><path clip-path="url(#clip580)" d="M91.5706 101.321 L99.2095 101.321 L99.2095 74.9555 L90.8993 76.6222 L90.8993 72.3629 L99.1632 70.6963 L103.839 70.6963 L103.839 101.321 L111.478 101.321 L111.478 105.256 L91.5706 105.256 L91.5706 101.321 Z" fill="#000000" fill-rule="nonzero" fill-opacity="1" /><path clip-path="url(#clip580)" d="M130.922 73.775 Q127.311 73.775 125.482 77.3398 Q123.677 80.8814 123.677 88.011 Q123.677 95.1174 125.482 98.6822 Q127.311 102.224 130.922 102.224 Q134.556 102.224 136.362 98.6822 Q138.191 95.1174 138.191 88.011 Q138.191 80.8814 136.362 77.3398 Q134.556 73.775 130.922 73.775 M130.922 70.0713 Q136.732 70.0713 139.788 74.6777 Q142.867 79.261 142.867 88.011 Q142.867 96.7378 139.788 101.344 Q136.732 105.928 130.922 105.928 Q125.112 105.928 122.033 101.344 Q118.978 96.7378 118.978 88.011 Q118.978 79.261 122.033 74.6777 Q125.112 70.0713 130.922 70.0713 Z" fill="#000000" fill-rule="nonzero" fill-opacity="1" /><polyline clip-path="url(#clip582)" style="stroke:#009af9; stroke-linecap:round; stroke-linejoin:round; stroke-width:4; stroke-opacity:1; fill:none" points="240.392,729.914 241.417,730.485 242.443,731.061 243.468,731.639 244.493,732.221 245.519,732.807 246.544,733.396 247.57,733.989 248.595,734.584 249.621,735.183 250.646,735.785 251.671,736.39 252.697,736.999 253.722,737.61 254.748,738.224 255.773,738.841 256.799,739.461 257.824,740.083 258.849,740.709 259.875,741.336 260.9,741.967 261.926,742.6 262.951,743.235 263.976,743.873 265.002,744.513 266.027,745.155 267.053,745.799 268.078,746.446 269.104,747.094 270.129,747.745 271.154,748.397 272.18,749.051 273.205,749.707 274.231,750.365 275.256,751.024 276.281,751.685 277.307,752.348 278.332,753.012 279.358,753.677 280.383,754.344 281.409,755.011 282.434,755.681 283.459,756.351 284.485,757.022 285.51,757.694 286.536,758.367 287.561,759.041 288.587,759.716 289.612,760.391 290.637,761.068 291.663,761.744 292.688,762.421 293.714,763.099 294.739,763.777 295.764,764.455 296.79,765.134 297.815,765.813 298.841,766.491 299.866,767.17 300.892,767.849 301.917,768.528 302.942,769.206 303.968,769.885 304.993,770.563 306.019,771.24 307.044,771.918 308.069,772.594 309.095,773.271 310.12,773.946 311.146,774.621 312.171,775.295 313.197,775.968 314.222,776.64 315.247,777.311 316.273,777.982 317.298,778.651 318.324,779.319 319.349,779.985 320.375,780.651 321.4,781.315 322.425,781.977 323.451,782.638 324.476,783.298 325.502,783.956 326.527,784.612 327.552,785.266 328.578,785.918 329.603,786.569 330.629,787.218 331.654,787.864 332.68,788.509 333.705,789.151 334.73,789.791 335.756,790.429 336.781,791.064 337.807,791.697 338.832,792.328 339.857,792.956 340.883,793.581 341.908,794.204 342.934,794.823 343.959,795.441 344.985,796.055 346.01,796.666 347.035,797.275 348.061,797.88 349.086,798.482 350.112,799.081 351.137,799.677 352.163,800.27 353.188,800.859 354.213,801.445 355.239,802.027 356.264,802.606 357.29,803.181 358.315,803.753 359.34,804.321 360.366,804.885 361.391,805.445 362.417,806.002 363.442,806.554 364.468,807.103 365.493,807.647 366.518,808.188 367.544,808.724 368.569,809.257 369.595,809.785 370.62,810.308 371.645,810.828 372.671,811.342 373.696,811.853 374.722,812.359 375.747,812.86 376.773,813.357 377.798,813.849 378.823,814.337 379.849,814.82 380.874,815.297 381.9,815.771 382.925,816.239 383.951,816.702 384.976,817.16 386.001,817.613 387.027,818.062 388.052,818.505 389.078,818.943 390.103,819.375 391.128,819.803 392.154,820.225 393.179,820.641 394.205,821.053 395.23,821.459 396.256,821.859 397.281,822.254 398.306,822.644 399.332,823.028 400.357,823.406 401.383,823.779 402.408,824.146 403.433,824.507 404.459,824.862 405.484,825.212 406.51,825.556 407.535,825.893 408.561,826.225 409.586,826.552 410.611,826.872 411.637,827.186 412.662,827.494 413.688,827.796 414.713,828.092 415.739,828.381 416.764,828.665 417.789,828.943 418.815,829.214 419.84,829.479 420.866,829.738 421.891,829.99 422.916,830.236 423.942,830.476 424.967,830.709 425.993,830.936 427.018,831.157 428.044,831.371 429.069,831.579 430.094,831.78 431.12,831.975 432.145,832.163 433.171,832.345 434.196,832.52 435.222,832.689 436.247,832.851 437.272,833.006 438.298,833.155 439.323,833.297 440.349,833.433 441.374,833.562 442.399,833.684 443.425,833.8 444.45,833.908 445.476,834.011 446.501,834.106 447.527,834.195 448.552,834.277 449.577,834.352 450.603,834.42 451.628,834.482 452.654,834.537 453.679,834.585 454.704,834.626 455.73,834.661 456.755,834.689 457.781,834.71 458.806,834.724 459.832,834.732 460.857,834.732 461.882,834.726 462.908,834.713 463.933,834.694 464.959,834.667 465.984,834.634 467.01,834.594 468.035,834.547 469.06,834.494 470.086,834.433 471.111,834.366 472.137,834.292 473.162,834.212 474.187,834.125 475.213,834.03 476.238,833.93 477.264,833.822 478.289,833.708 479.315,833.587 480.34,833.46 481.365,833.326 482.391,833.185 483.416,833.037 484.442,832.883 485.467,832.722 486.492,832.555 487.518,832.381 488.543,832.201 489.569,832.014 490.594,831.82 491.62,831.62 492.645,831.414 493.67,831.201 494.696,830.982 495.721,830.756 496.747,830.524 497.772,830.285 498.798,830.041 499.823,829.789 500.848,829.532 501.874,829.268 502.899,828.998 503.925,828.722 504.95,828.44 505.975,828.151 507.001,827.857 508.026,827.556 509.052,827.249 510.077,826.936 511.103,826.617 512.128,826.292 513.153,825.962 514.179,825.625 515.204,825.282 516.23,824.934 517.255,824.58 518.28,824.22 519.306,823.854 520.331,823.482 521.357,823.105 522.382,822.722 523.408,822.334 524.433,821.94 525.458,821.541 526.484,821.136 527.509,820.726 528.535,820.31 529.56,819.889 530.586,819.463 531.611,819.031 532.636,818.594 533.662,818.152 534.687,817.705 535.713,817.253 536.738,816.796 537.763,816.333 538.789,815.866 539.814,815.394 540.84,814.917 541.865,814.436 542.891,813.949 543.916,813.458 544.941,812.962 545.967,812.461 546.992,811.956 548.018,811.447 549.043,810.933 550.068,810.414 551.094,809.892 552.119,809.364 553.145,808.833 554.17,808.298 555.196,807.758 556.221,807.214 557.246,806.666 558.272,806.115 559.297,805.559 560.323,804.999 561.348,804.436 562.374,803.869 563.399,803.298 564.424,802.723 565.45,802.145 566.475,801.563 567.501,800.978 568.526,800.39 569.551,799.798 570.577,799.203 571.602,798.604 572.628,798.003 573.653,797.398 574.679,796.79 575.704,796.18 576.729,795.566 577.755,794.949 578.78,794.33 579.806,793.708 580.831,793.083 581.856,792.456 582.882,791.826 583.907,791.193 584.933,790.558 585.958,789.921 586.984,789.281 588.009,788.64 589.034,787.996 590.06,787.349 591.085,786.701 592.111,786.051 593.136,785.399 594.162,784.745 595.187,784.089 596.212,783.432 597.238,782.773 598.263,782.112 599.289,781.45 600.314,780.786 601.339,780.121 602.365,779.455 603.39,778.787 604.416,778.118 605.441,777.448 606.467,776.777 607.492,776.105 608.517,775.432 609.543,774.758 610.568,774.084 611.594,773.408 612.619,772.732 613.644,772.056 614.67,771.378 615.695,770.701 616.721,770.023 617.746,769.345 618.772,768.666 619.797,767.987 620.822,767.309 621.848,766.63 622.873,765.951 623.899,765.272 624.924,764.594 625.95,763.915 626.975,763.237 628,762.559 629.026,761.882 630.051,761.205 631.077,760.529 632.102,759.853 633.127,759.179 634.153,758.504 635.178,757.831 636.204,757.159 637.229,756.487 638.255,755.817 639.28,755.148 640.305,754.48 641.331,753.813 642.356,753.147 643.382,752.483 644.407,751.82 645.432,751.159 646.458,750.499 647.483,749.841 648.509,749.185 649.534,748.53 650.56,747.877 651.585,747.226 652.61,746.578 653.636,745.931 654.661,745.286 655.687,744.643 656.712,744.003 657.738,743.365 658.763,742.729 659.788,742.096 660.814,741.465 661.839,740.836 662.865,740.211 663.89,739.587 664.915,738.967 665.941,738.349 666.966,737.735 667.992,737.123 669.017,736.514 670.043,735.908 671.068,735.306 672.093,734.706 673.119,734.11 674.144,733.517 675.17,732.927 676.195,732.34 677.22,731.758 678.246,731.178 679.271,730.602 680.297,730.03 681.322,729.462 682.348,728.897 683.373,728.336 684.398,727.779 685.424,727.225 686.449,726.676 687.475,726.131 688.5,725.59 689.526,725.053 690.551,724.52 691.576,723.991 692.602,723.467 693.627,722.947 694.653,722.431 695.678,721.92 696.703,721.413 697.729,720.911 698.754,720.414 699.78,719.921 700.805,719.432 701.831,718.949 702.856,718.47 703.881,717.996 704.907,717.527 705.932,717.063 706.958,716.604 707.983,716.15 709.008,715.701 710.034,715.258 711.059,714.819 712.085,714.385 713.11,713.957 714.136,713.534 715.161,713.117 716.186,712.704 717.212,712.297 718.237,711.896 719.263,711.5 720.288,711.11 721.314,710.725 722.339,710.346 723.364,709.972 724.39,709.605 725.415,709.242 726.441,708.886 727.466,708.536 728.491,708.191 729.517,707.852 730.542,707.519 731.568,707.192 732.593,706.871 733.619,706.556 734.644,706.247 735.669,705.944 736.695,705.647 737.72,705.356 738.746,705.072 739.771,704.793 740.797,704.521 741.822,704.255 742.847,703.995 743.873,703.742 744.898,703.495 745.924,703.254 746.949,703.019 747.974,702.791 749,702.57 750.025,702.354 751.051,702.146 752.076,701.943 753.102,701.748 754.127,701.558 755.152,701.375 756.178,701.199 757.203,701.03 758.229,700.866 759.254,700.71 760.279,700.56 761.305,700.417 762.33,700.28 763.356,700.15 764.381,700.027 765.407,699.91 766.432,699.8 767.457,699.697 768.483,699.601 769.508,699.511 770.534,699.428 771.559,699.352 772.585,699.282 773.61,699.219 774.635,699.163 775.661,699.114 776.686,699.072 777.712,699.036 778.737,699.007 779.762,698.985 780.788,698.97 781.813,698.961 782.839,698.959 783.864,698.964 784.89,698.976 785.915,698.995 786.94,699.02 787.966,699.052 788.991,699.091 790.017,699.137 791.042,699.189 792.067,699.249 793.093,699.315 794.118,699.387 795.144,699.467 796.169,699.553 797.195,699.646 798.22,699.746 799.245,699.852 800.271,699.965 801.296,700.085 802.322,700.212 803.347,700.345 804.373,700.484 805.398,700.631 806.423,700.784 807.449,700.944 808.474,701.11 809.5,701.283 810.525,701.462 811.55,701.648 812.576,701.84 813.601,702.039 814.627,702.245 815.652,702.456 816.678,702.675 817.703,702.899 818.728,703.131 819.754,703.368 820.779,703.612 821.805,703.862 822.83,704.119 823.855,704.381 824.881,704.65 825.906,704.925 826.932,705.207 827.957,705.494 828.983,705.788 830.008,706.088 831.033,706.394 832.059,706.706 833.084,707.024 834.11,707.347 835.135,707.677 836.161,708.013 837.186,708.355 838.211,708.702 839.237,709.056 840.262,709.415 841.288,709.78 842.313,710.15 843.338,710.526 844.364,710.908 845.389,711.296 846.415,711.689 847.44,712.087 848.466,712.491 849.491,712.901 850.516,713.315 851.542,713.736 852.567,714.161 853.593,714.592 854.618,715.028 855.643,715.469 856.669,715.915 857.694,716.367 858.72,716.823 859.745,717.285 860.771,717.751 861.796,718.222 862.821,718.698 863.847,719.179 864.872,719.665 865.898,720.156 866.923,720.651 867.949,721.151 868.974,721.655 869.999,722.164 871.025,722.677 872.05,723.195 873.076,723.717 874.101,724.243 875.126,724.774 876.152,725.309 877.177,725.848 878.203,726.391 879.228,726.938 880.254,727.489 881.279,728.044 882.304,728.603 883.33,729.166 884.355,729.733 885.381,730.303 886.406,730.877 887.431,731.455 888.457,732.036 889.482,732.62 890.508,733.208 891.533,733.8 892.559,734.394 893.584,734.992 894.609,735.593 895.635,736.197 896.66,736.805 897.686,737.415 898.711,738.028 899.737,738.644 900.762,739.263 901.787,739.885 902.813,740.509 903.838,741.136 904.864,741.766 905.889,742.398 906.914,743.032 907.94,743.669 908.965,744.309 909.991,744.95 911.016,745.594 912.042,746.239 913.067,746.887 914.092,747.537 915.118,748.189 916.143,748.843 917.169,749.498 918.194,750.155 919.219,750.814 920.245,751.475 921.27,752.137 922.296,752.8 923.321,753.465 924.347,754.131 925.372,754.799 926.397,755.467 927.423,756.137 928.448,756.808 929.474,757.48 930.499,758.153 931.525,758.826 932.55,759.501 933.575,760.176 934.601,760.852 935.626,761.529 936.652,762.206 937.677,762.883 938.702,763.561 939.728,764.239 940.753,764.918 941.779,765.596 942.804,766.275 943.83,766.954 944.855,767.633 945.88,768.312 946.906,768.99 947.931,769.669 948.957,770.347 949.982,771.025 951.007,771.702 952.033,772.379 953.058,773.055 954.084,773.731 955.109,774.406 956.135,775.08 957.16,775.754 958.185,776.426 959.211,777.098 960.236,777.768 961.262,778.438 962.287,779.106 963.313,779.773 964.338,780.439 965.363,781.103 966.389,781.766 967.414,782.428 968.44,783.088 969.465,783.746 970.49,784.403 971.516,785.058 972.541,785.711 973.567,786.362 974.592,787.011 975.618,787.658 976.643,788.304 977.668,788.947 978.694,789.587 979.719,790.226 980.745,790.862 981.77,791.496 982.795,792.127 983.821,792.756 984.846,793.382 985.872,794.005 986.897,794.626 987.923,795.244 988.948,795.86 989.973,796.472 990.999,797.081 992.024,797.687 993.05,798.291 994.075,798.891 995.101,799.488 996.126,800.081 997.151,800.671 998.177,801.258 999.202,801.842 1000.23,802.422 1001.25,802.998 1002.28,803.571 1003.3,804.14 1004.33,804.705 1005.35,805.267 1006.38,805.825 1007.41,806.379 1008.43,806.929 1009.46,807.474 1010.48,808.016 1011.51,808.554 1012.53,809.088 1013.56,809.617 1014.58,810.142 1015.61,810.663 1016.63,811.179 1017.66,811.691 1018.69,812.198 1019.71,812.701 1020.74,813.199 1021.76,813.693 1022.79,814.182 1023.81,814.666 1024.84,815.146 1025.86,815.62 1026.89,816.09 1027.91,816.555 1028.94,817.015 1029.96,817.47 1030.99,817.919 1032.02,818.364 1033.04,818.804 1034.07,819.238 1035.09,819.667 1036.12,820.091 1037.14,820.509 1038.17,820.922 1039.19,821.33 1040.22,821.732 1041.24,822.129 1042.27,822.52 1043.3,822.906 1044.32,823.286 1045.35,823.661 1046.37,824.029 1047.4,824.392 1048.42,824.75 1049.45,825.101 1050.47,825.447 1051.5,825.786 1052.52,826.12 1053.55,826.448 1054.57,826.77 1055.6,827.086 1056.63,827.396 1057.65,827.7 1058.68,827.998 1059.7,828.29 1060.73,828.575 1061.75,828.855 1062.78,829.128 1063.8,829.395 1064.83,829.656 1065.85,829.91 1066.88,830.158 1067.91,830.4 1068.93,830.636 1069.96,830.865 1070.98,831.087 1072.01,831.304 1073.03,831.513 1074.06,831.717 1075.08,831.914 1076.11,832.104 1077.13,832.288 1078.16,832.465 1079.18,832.636 1080.21,832.8 1081.24,832.958 1082.26,833.108 1083.29,833.253 1084.31,833.39 1085.34,833.521 1086.36,833.646 1087.39,833.763 1088.41,833.874 1089.44,833.979 1090.46,834.076 1091.49,834.167 1092.52,834.251 1093.54,834.329 1094.57,834.399 1095.59,834.463 1096.62,834.52 1097.64,834.57 1098.67,834.614 1099.69,834.651 1100.72,834.681 1101.74,834.704 1102.77,834.72 1103.79,834.73 1104.82,834.733 1105.85,834.729 1106.87,834.718 1107.9,834.701 1108.92,834.676 1109.95,834.645 1110.97,834.608 1112,834.563 1113.02,834.511 1114.05,834.453 1115.07,834.388 1116.1,834.317 1117.13,834.238 1118.15,834.153 1119.18,834.061 1120.2,833.963 1121.23,833.857 1122.25,833.745 1123.28,833.626 1124.3,833.501 1125.33,833.369 1126.35,833.23 1127.38,833.085 1128.41,832.933 1129.43,832.774 1130.46,832.609 1131.48,832.437 1132.51,832.259 1133.53,832.074 1134.56,831.883 1135.58,831.685 1136.61,831.481 1137.63,831.27 1138.66,831.052 1139.68,830.829 1140.71,830.599 1141.74,830.362 1142.76,830.119 1143.79,829.87 1144.81,829.615 1145.84,829.353 1146.86,829.085 1147.89,828.811 1148.91,828.53 1149.94,828.244 1150.96,827.951 1151.99,827.652 1153.02,827.347 1154.04,827.036 1155.07,826.719 1156.09,826.396 1157.12,826.068 1158.14,825.733 1159.17,825.392 1160.19,825.045 1161.22,824.693 1162.24,824.335 1163.27,823.971 1164.29,823.601 1165.32,823.226 1166.35,822.845 1167.37,822.458 1168.4,822.066 1169.42,821.669 1170.45,821.266 1171.47,820.857 1172.5,820.443 1173.52,820.024 1174.55,819.599 1175.57,819.169 1176.6,818.734 1177.63,818.294 1178.65,817.848 1179.68,817.398 1180.7,816.942 1181.73,816.481 1182.75,816.016 1183.78,815.545 1184.8,815.07 1185.83,814.589 1186.85,814.104 1187.88,813.615 1188.9,813.12 1189.93,812.621 1190.96,812.118 1191.98,811.61 1193.01,811.097 1194.03,810.58 1195.06,810.059 1196.08,809.533 1197.11,809.003 1198.13,808.469 1199.16,807.93 1200.18,807.388 1201.21,806.841 1202.24,806.291 1203.26,805.736 1204.29,805.178 1205.31,804.616 1206.34,804.05 1207.36,803.48 1208.39,802.907 1209.41,802.33 1210.44,801.749 1211.46,801.165 1212.49,800.578 1213.51,799.987 1214.54,799.393 1215.57,798.795 1216.59,798.195 1217.62,797.591 1218.64,796.984 1219.67,796.374 1220.69,795.762 1221.72,795.146 1222.74,794.528 1223.77,793.906 1224.79,793.282 1225.82,792.656 1226.85,792.027 1227.87,791.395 1228.9,790.761 1229.92,790.124 1230.95,789.485 1231.97,788.844 1233,788.201 1234.02,787.555 1235.05,786.908 1236.07,786.258 1237.1,785.607 1238.12,784.954 1239.15,784.298 1240.18,783.641 1241.2,782.983 1242.23,782.323 1243.25,781.661 1244.28,780.998 1245.3,780.333 1246.33,779.667 1247.35,779 1248.38,778.331 1249.4,777.662 1250.43,776.991 1251.46,776.319 1252.48,775.646 1253.51,774.973 1254.53,774.299 1255.56,773.623 1256.58,772.948 1257.61,772.271 1258.63,771.594 1259.66,770.917 1260.68,770.239 1261.71,769.561 1262.74,768.882 1263.76,768.204 1264.79,767.525 1265.81,766.846 1266.84,766.167 1267.86,765.488 1268.89,764.81 1269.91,764.131 1270.94,763.453 1271.96,762.775 1272.99,762.098 1274.01,761.421 1275.04,760.744 1276.07,760.069 1277.09,759.393 1278.12,758.719 1279.14,758.046 1280.17,757.373 1281.19,756.701 1282.22,756.03 1283.24,755.361 1284.27,754.692 1285.29,754.025 1286.32,753.359 1287.35,752.694 1288.37,752.031 1289.4,751.369 1290.42,750.709 1291.45,750.05 1292.47,749.394 1293.5,748.738 1294.52,748.085 1295.55,747.434 1296.57,746.784 1297.6,746.136 1298.62,745.491 1299.65,744.848 1300.68,744.207 1301.7,743.568 1302.73,742.931 1303.75,742.297 1304.78,741.665 1305.8,741.036 1306.83,740.41 1307.85,739.786 1308.88,739.164 1309.9,738.546 1310.93,737.93 1311.96,737.317 1312.98,736.708 1314.01,736.101 1315.03,735.497 1316.06,734.897 1317.08,734.299 1318.11,733.705 1319.13,733.114 1320.16,732.527 1321.18,731.943 1322.21,731.362 1323.23,730.785 1324.26,730.212 1325.29,729.642 1326.31,729.076 1327.34,728.514 1328.36,727.956 1329.39,727.401 1330.41,726.851 1331.44,726.304 1332.46,725.762 1333.49,725.223 1334.51,724.689 1335.54,724.159 1336.57,723.633 1337.59,723.112 1338.62,722.595 1339.64,722.082 1340.67,721.574 1341.69,721.071 1342.72,720.572 1343.74,720.077 1344.77,719.587 1345.79,719.102 1346.82,718.622 1347.84,718.147 1348.87,717.676 1349.9,717.211 1350.92,716.75 1351.95,716.294 1352.97,715.844 1354,715.398 1355.02,714.958 1356.05,714.523 1357.07,714.093 1358.1,713.668 1359.12,713.249 1360.15,712.835 1361.18,712.426 1362.2,712.023 1363.23,711.626 1364.25,711.234 1365.28,710.847 1366.3,710.466 1367.33,710.091 1368.35,709.721 1369.38,709.357 1370.4,708.999 1371.43,708.647 1372.45,708.3 1373.48,707.959 1374.51,707.624 1375.53,707.295 1376.56,706.973 1377.58,706.656 1378.61,706.345 1379.63,706.04 1380.66,705.741 1381.68,705.448 1382.71,705.162 1383.73,704.881 1384.76,704.607 1385.79,704.339 1386.81,704.077 1387.84,703.822 1388.86,703.573 1389.89,703.33 1390.91,703.093 1391.94,702.863 1392.96,702.64 1393.99,702.422 1395.01,702.211 1396.04,702.007 1397.06,701.809 1398.09,701.618 1399.12,701.433 1400.14,701.255 1401.17,701.083 1402.19,700.918 1403.22,700.759 1404.24,700.607 1405.27,700.462 1406.29,700.323 1407.32,700.191 1408.34,700.066 1409.37,699.947 1410.4,699.835 1411.42,699.729 1412.45,699.631 1413.47,699.539 1414.5,699.454 1415.52,699.375 1416.55,699.304 1417.57,699.239 1418.6,699.18 1419.62,699.129 1420.65,699.084 1421.68,699.047 1422.7,699.015 1423.73,698.991 1424.75,698.974 1425.78,698.963 1426.8,698.959 1427.83,698.962 1428.85,698.972 1429.88,698.988 1430.9,699.011 1431.93,699.041 1432.95,699.078 1433.98,699.122 1435.01,699.172 1436.03,699.229 1437.06,699.293 1438.08,699.363 1439.11,699.441 1440.13,699.525 1441.16,699.616 1442.18,699.713 1443.21,699.818 1444.23,699.928 1445.26,700.046 1446.29,700.171 1447.31,700.302 1448.34,700.439 1449.36,700.583 1450.39,700.734 1451.41,700.892 1452.44,701.056 1453.46,701.227 1454.49,701.404 1455.51,701.588 1456.54,701.778 1457.56,701.975 1458.59,702.178 1459.62,702.388 1460.64,702.605 1461.67,702.827 1462.69,703.056 1463.72,703.292 1464.74,703.534 1465.77,703.782 1466.79,704.036 1467.82,704.297 1468.84,704.564 1469.87,704.837 1470.9,705.117 1471.92,705.402 1472.95,705.694 1473.97,705.992 1475,706.296 1476.02,706.606 1477.05,706.922 1478.07,707.244 1479.1,707.572 1480.12,707.906 1481.15,708.245 1482.17,708.591 1483.2,708.942 1484.23,709.3 1485.25,709.663 1486.28,710.031 1487.3,710.406 1488.33,710.786 1489.35,711.172 1490.38,711.563 1491.4,711.96 1492.43,712.362 1493.45,712.77 1494.48,713.183 1495.51,713.601 1496.53,714.025 1497.56,714.454 1498.58,714.888 1499.61,715.328 1500.63,715.773 1501.66,716.222 1502.68,716.677 1503.71,717.137 1504.73,717.602 1505.76,718.072 1506.78,718.546 1507.81,719.026 1508.84,719.51 1509.86,719.999 1510.89,720.493 1511.91,720.991 1512.94,721.494 1513.96,722.001 1514.99,722.513 1516.01,723.029 1517.04,723.55 1518.06,724.075 1519.09,724.604 1520.12,725.138 1521.14,725.676 1522.17,726.218 1523.19,726.763 1524.22,727.313 1525.24,727.867 1526.27,728.425 1527.29,728.987 1528.32,729.552 1529.34,730.121 1530.37,730.694 1531.39,731.27 1532.42,731.85 1533.45,732.434 1534.47,733.021 1535.5,733.611 1536.52,734.204 1537.55,734.801 1538.57,735.401 1539.6,736.005 1540.62,736.611 1541.65,737.22 1542.67,737.832 1543.7,738.448 1544.73,739.066 1545.75,739.686 1546.78,740.31 1547.8,740.936 1548.83,741.565 1549.85,742.196 1550.88,742.83 1551.9,743.466 1552.93,744.105 1553.95,744.745 1554.98,745.388 1556,746.034 1557.03,746.681 1558.06,747.33 1559.08,747.981 1560.11,748.634 1561.13,749.289 1562.16,749.946 1563.18,750.604 1564.21,751.264 1565.23,751.926 1566.26,752.589 1567.28,753.253 1568.31,753.919 1569.34,754.586 1570.36,755.254 1571.39,755.924 1572.41,756.594 1573.44,757.266 1574.46,757.938 1575.49,758.612 1576.51,759.286 1577.54,759.961 1578.56,760.637 1579.59,761.313 1580.62,761.99 1581.64,762.667 1582.67,763.345 1583.69,764.023 1584.72,764.702 1585.74,765.38 1586.77,766.059 1587.79,766.738 1588.82,767.417 1589.84,768.096 1590.87,768.774 1591.89,769.453 1592.92,770.131 1593.95,770.809 1594.97,771.486 1596,772.163 1597.02,772.84 1598.05,773.516 1599.07,774.191 1600.1,774.866 1601.12,775.539 1602.15,776.212 1603.17,776.884 1604.2,777.555 1605.23,778.225 1606.25,778.893 1607.28,779.561 1608.3,780.227 1609.33,780.892 1610.35,781.555 1611.38,782.217 1612.4,782.878 1613.43,783.537 1614.45,784.194 1615.48,784.849 1616.5,785.503 1617.53,786.155 1618.56,786.805 1619.58,787.452 1620.61,788.098 1621.63,788.742 1622.66,789.383 1623.68,790.023 1624.71,790.66 1625.73,791.294 1626.76,791.926 1627.78,792.556 1628.81,793.183 1629.84,793.807 1630.86,794.429 1631.89,795.048 1632.91,795.664 1633.94,796.277 1634.96,796.887 1635.99,797.495 1637.01,798.099 1638.04,798.7 1639.06,799.298 1640.09,799.892 1641.11,800.484 1642.14,801.072 1643.17,801.656 1644.19,802.237 1645.22,802.815 1646.24,803.389 1647.27,803.959 1648.29,804.526 1649.32,805.089 1650.34,805.648 1651.37,806.203 1652.39,806.754 1653.42,807.301 1654.45,807.844 1655.47,808.383 1656.5,808.918 1657.52,809.449 1658.55,809.975 1659.57,810.497 1660.6,811.015 1661.62,811.528 1662.65,812.037 1663.67,812.541 1664.7,813.041 1665.72,813.536 1666.75,814.027 1667.78,814.513 1668.8,814.994 1669.83,815.47 1670.85,815.941 1671.88,816.407 1672.9,816.869 1673.93,817.325 1674.95,817.777 1675.98,818.223 1677,818.664 1678.03,819.1 1679.06,819.531 1680.08,819.956 1681.11,820.377 1682.13,820.791 1683.16,821.201 1684.18,821.605 1685.21,822.003 1686.23,822.396 1687.26,822.784 1688.28,823.166 1689.31,823.542 1690.33,823.912 1691.36,824.277 1692.39,824.636 1693.41,824.99 1694.44,825.337 1695.46,825.679 1696.49,826.015 1697.51,826.344 1698.54,826.668 1699.56,826.986 1700.59,827.298 1701.61,827.604 1702.64,827.904 1703.67,828.198 1704.69,828.485 1705.72,828.767 1706.74,829.042 1707.77,829.311 1708.79,829.573 1709.82,829.83 1710.84,830.08 1711.87,830.324 1712.89,830.561 1713.92,830.792 1714.94,831.017 1715.97,831.236 1717,831.447 1718.02,831.653 1719.05,831.852 1720.07,832.044 1721.1,832.23 1722.12,832.409 1723.15,832.582 1724.17,832.748 1725.2,832.908 1726.22,833.061 1727.25,833.208 1728.28,833.347 1729.3,833.48 1730.33,833.607 1731.35,833.727 1732.38,833.84 1733.4,833.946 1734.43,834.046 1735.45,834.139 1736.48,834.225 1737.5,834.305 1738.53,834.377 1739.56,834.443 1740.58,834.503 1741.61,834.555 1742.63,834.601 1743.66,834.64 1744.68,834.672 1745.71,834.697 1746.73,834.716 1747.76,834.728 1748.78,834.733 1749.81,834.731 1750.83,834.722 1751.86,834.707 1752.89,834.685 1753.91,834.656 1754.94,834.62 1755.96,834.578 1756.99,834.529 1758.01,834.473 1759.04,834.41 1760.06,834.34 1761.09,834.264 1762.11,834.181 1763.14,834.091 1764.17,833.995 1765.19,833.892 1766.22,833.782 1767.24,833.665 1768.27,833.542 1769.29,833.412 1770.32,833.275 1771.34,833.132 1772.37,832.982 1773.39,832.826 1774.42,832.662 1775.44,832.493 1776.47,832.317 1777.5,832.134 1778.52,831.944 1779.55,831.749 1780.57,831.546 1781.6,831.338 1782.62,831.122 1783.65,830.901 1784.67,830.673 1785.7,830.438 1786.72,830.197 1787.75,829.95 1788.78,829.697 1789.8,829.437 1790.83,829.171 1791.85,828.899 1792.88,828.62 1793.9,828.336 1794.93,828.045 1795.95,827.748 1796.98,827.445 1798,827.136 1799.03,826.821 1800.05,826.5 1801.08,826.173 1802.11,825.84 1803.13,825.501 1804.16,825.156 1805.18,824.806 1806.21,824.45 1807.23,824.087 1808.26,823.72 1809.28,823.346 1810.31,822.967 1811.33,822.582 1812.36,822.192 1813.39,821.796 1814.41,821.395 1815.44,820.988 1816.46,820.575 1817.49,820.158 1818.51,819.735 1819.54,819.307 1820.56,818.873 1821.59,818.434 1822.61,817.991 1823.64,817.542 1824.66,817.088 1825.69,816.629 1826.72,816.164 1827.74,815.696 1828.77,815.222 1829.79,814.743 1830.82,814.259 1831.84,813.771 1832.87,813.278 1833.89,812.781 1834.92,812.279 1835.94,811.772 1836.97,811.261 1838,810.745 1839.02,810.225 1840.05,809.701 1841.07,809.172 1842.1,808.639 1843.12,808.102 1844.15,807.561 1845.17,807.016 1846.2,806.466 1847.22,805.913 1848.25,805.356 1849.27,804.795 1850.3,804.23 1851.33,803.662 1852.35,803.09 1853.38,802.514 1854.4,801.934 1855.43,801.352 1856.45,800.765 1857.48,800.175 1858.5,799.582 1859.53,798.986 1860.55,798.386 1861.58,797.784 1862.61,797.178 1863.63,796.569 1864.66,795.957 1865.68,795.342 1866.71,794.725 1867.73,794.105 1868.76,793.481 1869.78,792.856 1870.81,792.227 1871.83,791.596 1872.86,790.963 1873.89,790.327 1874.91,789.689 1875.94,789.049 1876.96,788.406 1877.99,787.761 1879.01,787.114 1880.04,786.466 1881.06,785.815 1882.09,785.162 1883.11,784.507 1884.14,783.851 1885.16,783.193 1886.19,782.533 1887.22,781.872 1888.24,781.209 1889.27,780.545 1890.29,779.879 1891.32,779.212 1892.34,778.544 1893.37,777.875 1894.39,777.205 1895.42,776.533 1896.44,775.861 1897.47,775.188 1898.5,774.513 1899.52,773.838 1900.55,773.163 1901.57,772.487 1902.6,771.81 1903.62,771.133 1904.65,770.455 1905.67,769.777 1906.7,769.098 1907.72,768.42 1908.75,767.741 1909.77,767.062 1910.8,766.383 1911.83,765.705 1912.85,765.026 1913.88,764.347 1914.9,763.669 1915.93,762.991 1916.95,762.314 1917.98,761.636 1919,760.96 1920.03,760.284 1921.05,759.608 1922.08,758.934 1923.11,758.26 1924.13,757.587 1925.16,756.915 1926.18,756.244 1927.21,755.574 1928.23,754.905 1929.26,754.237 1930.28,753.571 1931.31,752.906 1932.33,752.242 1933.36,751.58 1934.38,750.919 1935.41,750.26 1936.44,749.603 1937.46,748.947 1938.49,748.293 1939.51,747.641 1940.54,746.991 1941.56,746.343 1942.59,745.696 1943.61,745.052 1944.64,744.411 1945.66,743.771 1946.69,743.134 1947.72,742.499 1948.74,741.866 1949.77,741.236 1950.79,740.609 1951.82,739.984 1952.84,739.362 1953.87,738.743 1954.89,738.126 1955.92,737.512 1956.94,736.902 1957.97,736.294 1958.99,735.689 1960.02,735.088 1961.05,734.489 1962.07,733.894 1963.1,733.302 1964.12,732.714 1965.15,732.128 1966.17,731.547 1967.2,730.969 1968.22,730.394 1969.25,729.823 1970.27,729.256 1971.3,728.693 1972.33,728.133 1973.35,727.577 1974.38,727.026 1975.4,726.478 1976.43,725.934 1977.45,725.394 1978.48,724.859 1979.5,724.327 1980.53,723.8 1981.55,723.278 1982.58,722.759 1983.6,722.245 1984.63,721.736 1985.66,721.231 1986.68,720.73 1987.71,720.234 1988.73,719.743 1989.76,719.256 1990.78,718.775 1991.81,718.298 1992.83,717.826 1993.86,717.358 1994.88,716.896 1995.91,716.439 1996.94,715.987 1997.96,715.54 1998.99,715.098 2000.01,714.661 2001.04,714.229 2002.06,713.803 2003.09,713.382 2004.11,712.966 2005.14,712.556 2006.16,712.151 2007.19,711.752 2008.21,711.358 2009.24,710.97 2010.27,710.587 2011.29,710.21 2012.32,709.838 2013.34,709.472 2014.37,709.112 2015.39,708.758 2016.42,708.41 2017.44,708.067 2018.47,707.73 2019.49,707.4 2020.52,707.075 2021.55,706.756 2022.57,706.443 2023.6,706.136 2024.62,705.835 2025.65,705.541 2026.67,705.252 2027.7,704.97 2028.72,704.694 2029.75,704.424 2030.77,704.16 2031.8,703.903 2032.83,703.651 2033.85,703.407 2034.88,703.168 2035.9,702.936 2036.93,702.71 2037.95,702.491 2038.98,702.278 2040,702.071 2041.03,701.872 2042.05,701.678 2043.08,701.491 2044.1,701.311 2045.13,701.137 2046.16,700.97 2047.18,700.809 2048.21,700.655 2049.23,700.507 2050.26,700.366 2051.28,700.232 2052.31,700.105 2053.33,699.984 2054.36,699.87 2055.38,699.762 2056.41,699.661 2057.44,699.567 2058.46,699.48 2059.49,699.4 2060.51,699.326 2061.54,699.259 2062.56,699.198 2063.59,699.145 2064.61,699.098 2065.64,699.058 2066.66,699.025 2067.69,698.998 2068.71,698.979 2069.74,698.966 2070.77,698.96 2071.79,698.96 2072.82,698.968 2073.84,698.982 2074.87,699.003 2075.89,699.031 2076.92,699.066 2077.94,699.107 2078.97,699.155 2079.99,699.21 2081.02,699.272 2082.05,699.34 2083.07,699.415 2084.1,699.497 2085.12,699.586 2086.15,699.681 2087.17,699.784 2088.2,699.892 2089.22,700.008 2090.25,700.13 2091.27,700.259 2092.3,700.395 2093.32,700.537 2094.35,700.686 2095.38,700.841 2096.4,701.003 2097.43,701.172 2098.45,701.347 2099.48,701.529 2100.5,701.717 2101.53,701.912 2102.55,702.113 2103.58,702.321 2104.6,702.535 2105.63,702.756 2106.66,702.983 2107.68,703.216 2108.71,703.456 2109.73,703.702 2110.76,703.954 2111.78,704.213 2112.81,704.478 2113.83,704.749 2114.86,705.027 2115.88,705.31 2116.91,705.6 2117.93,705.896 2118.96,706.198 2119.99,706.506 2121.01,706.82 2122.04,707.14 2123.06,707.467 2124.09,707.799 2125.11,708.136 2126.14,708.48 2127.16,708.83 2128.19,709.185 2129.21,709.546 2130.24,709.913 2131.27,710.286 2132.29,710.664 2133.32,711.048 2134.34,711.438 2135.37,711.833 2136.39,712.233 2137.42,712.639 2138.44,713.051 2139.47,713.467 2140.49,713.889 2141.52,714.317 2142.54,714.749 2143.57,715.187 2144.6,715.63 2145.62,716.078 2146.65,716.532 2147.67,716.99 2148.7,717.453 2149.72,717.921 2150.75,718.395 2151.77,718.872 2152.8,719.355 2153.82,719.843 2154.85,720.335 2155.88,720.832 2156.9,721.333 2157.93,721.839 2158.95,722.349 2159.98,722.864 2161,723.384 2162.03,723.907 2163.05,724.435 2164.08,724.968 2165.1,725.504 2166.13,726.044 2167.15,726.589 2168.18,727.138 2169.21,727.69 2170.23,728.247 2171.26,728.807 2172.28,729.371 2173.31,729.939 2174.33,730.511 2175.36,731.086 2176.38,731.665 2177.41,732.247 2178.43,732.833 2179.46,733.422 2180.49,734.015 2181.51,734.611 2182.54,735.21 2183.56,735.812 2184.59,736.417 2185.61,737.026 2186.64,737.637 2187.66,738.251 2188.69,738.869 2189.71,739.488 2190.74,740.111 2191.77,740.736 2192.79,741.364 2193.82,741.995 2194.84,742.628 2195.87,743.263 2196.89,743.901 2197.92,744.541 2198.94,745.183 2199.97,745.828 2200.99,746.474 2202.02,747.123 2203.04,747.774 2204.07,748.426 2205.1,749.08 2206.12,749.736 2207.15,750.394 2208.17,751.054 2209.2,751.715 2210.22,752.377 2211.25,753.041 2212.27,753.707 2213.3,754.373 2214.32,755.041 2215.35,755.71 2216.38,756.38 2217.4,757.052 2218.43,757.724 2219.45,758.397 2220.48,759.071 2221.5,759.746 2222.53,760.421 2223.55,761.098 2224.58,761.774 2225.6,762.451 2226.63,763.129 2227.65,763.807 2228.68,764.485 2229.71,765.164 2230.73,765.843 2231.76,766.522 2232.78,767.2 2233.81,767.879 2234.83,768.558 2235.86,769.237 2236.88,769.915 2237.91,770.593 2238.93,771.271 2239.96,771.948 2240.99,772.624 2242.01,773.301 2243.04,773.976 2244.06,774.651 2245.09,775.325 2246.11,775.998 2247.14,776.67 2248.16,777.341 2249.19,778.011 2250.21,778.681 2251.24,779.348 2252.26,780.015 2253.29,780.68 2254.32,781.344 2255.34,782.007 2256.37,782.668 2257.39,783.327 2258.42,783.985 2259.44,784.641 2260.47,785.295 2261.49,785.947 2262.52,786.598 2263.54,787.246 2264.57,787.893 2265.6,788.537 2266.62,789.179 2267.65,789.819 2268.67,790.457 2269.7,791.092 2270.72,791.725 2271.75,792.356 2272.77,792.983 2273.8,793.609 2274.82,794.231 2275.85,794.851 2276.87,795.468 2277.9,796.082 2278.93,796.693 2279.95,797.302 2280.98,797.907 2282,798.509 2283.03,799.108 2284.05,799.703 2285.08,800.296 2286.1,800.885 2287.13,801.471 2288.15,802.053 2289.18,802.631 2290.21,803.206 2291.23,803.778 "/>
<polyline clip-path="url(#clip582)" style="stroke:#e26f46; stroke-linecap:round; stroke-linejoin:round; stroke-width:4; stroke-opacity:1; fill:none" points="240.392,1445.72 241.417,1445.04 242.443,1444.36 243.468,1443.68 244.493,1443 245.519,1442.32 246.544,1441.64 247.57,1440.96 248.595,1440.28 249.621,1439.61 250.646,1438.93 251.671,1438.25 252.697,1437.57 253.722,1436.89 254.748,1436.21 255.773,1435.53 256.799,1434.85 257.824,1434.17 258.849,1433.5 259.875,1432.82 260.9,1432.14 261.926,1431.46 262.951,1430.78 263.976,1430.1 265.002,1429.42 266.027,1428.74 267.053,1428.07 268.078,1427.39 269.104,1426.71 270.129,1426.03 271.154,1425.35 272.18,1424.67 273.205,1423.99 274.231,1423.31 275.256,1422.63 276.281,1421.96 277.307,1421.28 278.332,1420.6 279.358,1419.92 280.383,1419.24 281.409,1418.56 282.434,1417.88 283.459,1417.2 284.485,1416.52 285.51,1415.85 286.536,1415.17 287.561,1414.49 288.587,1413.81 289.612,1413.13 290.637,1412.45 291.663,1411.77 292.688,1411.09 293.714,1410.41 294.739,1409.74 295.764,1409.06 296.79,1408.38 297.815,1407.7 298.841,1407.02 299.866,1406.34 300.892,1405.66 301.917,1404.98 302.942,1404.3 303.968,1403.63 304.993,1402.95 306.019,1402.27 307.044,1401.59 308.069,1400.91 309.095,1400.23 310.12,1399.55 311.146,1398.87 312.171,1398.19 313.197,1397.52 314.222,1396.84 315.247,1396.16 316.273,1395.48 317.298,1394.8 318.324,1394.12 319.349,1393.44 320.375,1392.76 321.4,1392.08 322.425,1391.41 323.451,1390.73 324.476,1390.05 325.502,1389.37 326.527,1388.69 327.552,1388.01 328.578,1387.33 329.603,1386.65 330.629,1385.98 331.654,1385.3 332.68,1384.62 333.705,1383.94 334.73,1383.26 335.756,1382.58 336.781,1381.9 337.807,1381.22 338.832,1380.54 339.857,1379.87 340.883,1379.19 341.908,1378.51 342.934,1377.83 343.959,1377.15 344.985,1376.47 346.01,1375.79 347.035,1375.11 348.061,1374.43 349.086,1373.76 350.112,1373.08 351.137,1372.4 352.163,1371.72 353.188,1371.04 354.213,1370.36 355.239,1369.68 356.264,1369 357.29,1368.32 358.315,1367.65 359.34,1366.97 360.366,1366.29 361.391,1365.61 362.417,1364.93 363.442,1364.25 364.468,1363.57 365.493,1362.89 366.518,1362.21 367.544,1361.54 368.569,1360.86 369.595,1360.18 370.62,1359.5 371.645,1358.82 372.671,1358.14 373.696,1357.46 374.722,1356.78 375.747,1356.1 376.773,1355.43 377.798,1354.75 378.823,1354.07 379.849,1353.39 380.874,1352.71 381.9,1352.03 382.925,1351.35 383.951,1350.67 384.976,1350 386.001,1349.32 387.027,1348.64 388.052,1347.96 389.078,1347.28 390.103,1346.6 391.128,1345.92 392.154,1345.24 393.179,1344.56 394.205,1343.89 395.23,1343.21 396.256,1342.53 397.281,1341.85 398.306,1341.17 399.332,1340.49 400.357,1339.81 401.383,1339.13 402.408,1338.45 403.433,1337.78 404.459,1337.1 405.484,1336.42 406.51,1335.74 407.535,1335.06 408.561,1334.38 409.586,1333.7 410.611,1333.02 411.637,1332.34 412.662,1331.67 413.688,1330.99 414.713,1330.31 415.739,1329.63 416.764,1328.95 417.789,1328.27 418.815,1327.59 419.84,1326.91 420.866,1326.23 421.891,1325.56 422.916,1324.88 423.942,1324.2 424.967,1323.52 425.993,1322.84 427.018,1322.16 428.044,1321.48 429.069,1320.8 430.094,1320.12 431.12,1319.45 432.145,1318.77 433.171,1318.09 434.196,1317.41 435.222,1316.73 436.247,1316.05 437.272,1315.37 438.298,1314.69 439.323,1314.01 440.349,1313.34 441.374,1312.66 442.399,1311.98 443.425,1311.3 444.45,1310.62 445.476,1309.94 446.501,1309.26 447.527,1308.58 448.552,1307.91 449.577,1307.23 450.603,1306.55 451.628,1305.87 452.654,1305.19 453.679,1304.51 454.704,1303.83 455.73,1303.15 456.755,1302.47 457.781,1301.8 458.806,1301.12 459.832,1300.44 460.857,1299.76 461.882,1299.08 462.908,1298.4 463.933,1297.72 464.959,1297.04 465.984,1296.36 467.01,1295.69 468.035,1295.01 469.06,1294.33 470.086,1293.65 471.111,1292.97 472.137,1292.29 473.162,1291.61 474.187,1290.93 475.213,1290.25 476.238,1289.58 477.264,1288.9 478.289,1288.22 479.315,1287.54 480.34,1286.86 481.365,1286.18 482.391,1285.5 483.416,1284.82 484.442,1284.14 485.467,1283.47 486.492,1282.79 487.518,1282.11 488.543,1281.43 489.569,1280.75 490.594,1280.07 491.62,1279.39 492.645,1278.71 493.67,1278.03 494.696,1277.36 495.721,1276.68 496.747,1276 497.772,1275.32 498.798,1274.64 499.823,1273.96 500.848,1273.28 501.874,1272.6 502.899,1271.93 503.925,1271.25 504.95,1270.57 505.975,1269.89 507.001,1269.21 508.026,1268.53 509.052,1267.85 510.077,1267.17 511.103,1266.49 512.128,1265.82 513.153,1265.14 514.179,1264.46 515.204,1263.78 516.23,1263.1 517.255,1262.42 518.28,1261.74 519.306,1261.06 520.331,1260.38 521.357,1259.71 522.382,1259.03 523.408,1258.35 524.433,1257.67 525.458,1256.99 526.484,1256.31 527.509,1255.63 528.535,1254.95 529.56,1254.27 530.586,1253.6 531.611,1252.92 532.636,1252.24 533.662,1251.56 534.687,1250.88 535.713,1250.2 536.738,1249.52 537.763,1248.84 538.789,1248.16 539.814,1247.49 540.84,1246.81 541.865,1246.13 542.891,1245.45 543.916,1244.77 544.941,1244.09 545.967,1243.41 546.992,1242.73 548.018,1242.05 549.043,1241.38 550.068,1240.7 551.094,1240.02 552.119,1239.34 553.145,1238.66 554.17,1237.98 555.196,1237.3 556.221,1236.62 557.246,1235.94 558.272,1235.27 559.297,1234.59 560.323,1233.91 561.348,1233.23 562.374,1232.55 563.399,1231.87 564.424,1231.19 565.45,1230.51 566.475,1229.84 567.501,1229.16 568.526,1228.48 569.551,1227.8 570.577,1227.12 571.602,1226.44 572.628,1225.76 573.653,1225.08 574.679,1224.4 575.704,1223.73 576.729,1223.05 577.755,1222.37 578.78,1221.69 579.806,1221.01 580.831,1220.33 581.856,1219.65 582.882,1218.97 583.907,1218.29 584.933,1217.62 585.958,1216.94 586.984,1216.26 588.009,1215.58 589.034,1214.9 590.06,1214.22 591.085,1213.54 592.111,1212.86 593.136,1212.18 594.162,1211.51 595.187,1210.83 596.212,1210.15 597.238,1209.47 598.263,1208.79 599.289,1208.11 600.314,1207.43 601.339,1206.75 602.365,1206.07 603.39,1205.4 604.416,1204.72 605.441,1204.04 606.467,1203.36 607.492,1202.68 608.517,1202 609.543,1201.32 610.568,1200.64 611.594,1199.96 612.619,1199.29 613.644,1198.61 614.67,1197.93 615.695,1197.25 616.721,1196.57 617.746,1195.89 618.772,1195.21 619.797,1194.53 620.822,1193.86 621.848,1193.18 622.873,1192.5 623.899,1191.82 624.924,1191.14 625.95,1190.46 626.975,1189.78 628,1189.1 629.026,1188.42 630.051,1187.75 631.077,1187.07 632.102,1186.39 633.127,1185.71 634.153,1185.03 635.178,1184.35 636.204,1183.67 637.229,1182.99 638.255,1182.31 639.28,1181.64 640.305,1180.96 641.331,1180.28 642.356,1179.6 643.382,1178.92 644.407,1178.24 645.432,1177.56 646.458,1176.88 647.483,1176.2 648.509,1175.53 649.534,1174.85 650.56,1174.17 651.585,1173.49 652.61,1172.81 653.636,1172.13 654.661,1171.45 655.687,1170.77 656.712,1170.09 657.738,1169.42 658.763,1168.74 659.788,1168.06 660.814,1167.38 661.839,1166.7 662.865,1166.02 663.89,1165.34 664.915,1164.66 665.941,1163.98 666.966,1163.31 667.992,1162.63 669.017,1161.95 670.043,1161.27 671.068,1160.59 672.093,1159.91 673.119,1159.23 674.144,1158.55 675.17,1157.87 676.195,1157.2 677.22,1156.52 678.246,1155.84 679.271,1155.16 680.297,1154.48 681.322,1153.8 682.348,1153.12 683.373,1152.44 684.398,1151.77 685.424,1151.09 686.449,1150.41 687.475,1149.73 688.5,1149.05 689.526,1148.37 690.551,1147.69 691.576,1147.01 692.602,1146.33 693.627,1145.66 694.653,1144.98 695.678,1144.3 696.703,1143.62 697.729,1142.94 698.754,1142.26 699.78,1141.58 700.805,1140.9 701.831,1140.22 702.856,1139.55 703.881,1138.87 704.907,1138.19 705.932,1137.51 706.958,1136.83 707.983,1136.15 709.008,1135.47 710.034,1134.79 711.059,1134.11 712.085,1133.44 713.11,1132.76 714.136,1132.08 715.161,1131.4 716.186,1130.72 717.212,1130.04 718.237,1129.36 719.263,1128.68 720.288,1128 721.314,1127.33 722.339,1126.65 723.364,1125.97 724.39,1125.29 725.415,1124.61 726.441,1123.93 727.466,1123.25 728.491,1122.57 729.517,1121.89 730.542,1121.22 731.568,1120.54 732.593,1119.86 733.619,1119.18 734.644,1118.5 735.669,1117.82 736.695,1117.14 737.72,1116.46 738.746,1115.79 739.771,1115.11 740.797,1114.43 741.822,1113.75 742.847,1113.07 743.873,1112.39 744.898,1111.71 745.924,1111.03 746.949,1110.35 747.974,1109.68 749,1109 750.025,1108.32 751.051,1107.64 752.076,1106.96 753.102,1106.28 754.127,1105.6 755.152,1104.92 756.178,1104.24 757.203,1103.57 758.229,1102.89 759.254,1102.21 760.279,1101.53 761.305,1100.85 762.33,1100.17 763.356,1099.49 764.381,1098.81 765.407,1098.13 766.432,1097.46 767.457,1096.78 768.483,1096.1 769.508,1095.42 770.534,1094.74 771.559,1094.06 772.585,1093.38 773.61,1092.7 774.635,1092.02 775.661,1091.35 776.686,1090.67 777.712,1089.99 778.737,1089.31 779.762,1088.63 780.788,1087.95 781.813,1087.27 782.839,1086.59 783.864,1085.91 784.89,1085.24 785.915,1084.56 786.94,1083.88 787.966,1083.2 788.991,1082.52 790.017,1081.84 791.042,1081.16 792.067,1080.48 793.093,1079.8 794.118,1079.13 795.144,1078.45 796.169,1077.77 797.195,1077.09 798.22,1076.41 799.245,1075.73 800.271,1075.05 801.296,1074.37 802.322,1073.7 803.347,1073.02 804.373,1072.34 805.398,1071.66 806.423,1070.98 807.449,1070.3 808.474,1069.62 809.5,1068.94 810.525,1068.26 811.55,1067.59 812.576,1066.91 813.601,1066.23 814.627,1065.55 815.652,1064.87 816.678,1064.19 817.703,1063.51 818.728,1062.83 819.754,1062.15 820.779,1061.48 821.805,1060.8 822.83,1060.12 823.855,1059.44 824.881,1058.76 825.906,1058.08 826.932,1057.4 827.957,1056.72 828.983,1056.04 830.008,1055.37 831.033,1054.69 832.059,1054.01 833.084,1053.33 834.11,1052.65 835.135,1051.97 836.161,1051.29 837.186,1050.61 838.211,1049.93 839.237,1049.26 840.262,1048.58 841.288,1047.9 842.313,1047.22 843.338,1046.54 844.364,1045.86 845.389,1045.18 846.415,1044.5 847.44,1043.82 848.466,1043.15 849.491,1042.47 850.516,1041.79 851.542,1041.11 852.567,1040.43 853.593,1039.75 854.618,1039.07 855.643,1038.39 856.669,1037.71 857.694,1037.04 858.72,1036.36 859.745,1035.68 860.771,1035 861.796,1034.32 862.821,1033.64 863.847,1032.96 864.872,1032.28 865.898,1031.61 866.923,1030.93 867.949,1030.25 868.974,1029.57 869.999,1028.89 871.025,1028.21 872.05,1027.53 873.076,1026.85 874.101,1026.17 875.126,1025.5 876.152,1024.82 877.177,1024.14 878.203,1023.46 879.228,1022.78 880.254,1022.1 881.279,1021.42 882.304,1020.74 883.33,1020.06 884.355,1019.39 885.381,1018.71 886.406,1018.03 887.431,1017.35 888.457,1016.67 889.482,1015.99 890.508,1015.31 891.533,1014.63 892.559,1013.95 893.584,1013.28 894.609,1012.6 895.635,1011.92 896.66,1011.24 897.686,1010.56 898.711,1009.88 899.737,1009.2 900.762,1008.52 901.787,1007.84 902.813,1007.17 903.838,1006.49 904.864,1005.81 905.889,1005.13 906.914,1004.45 907.94,1003.77 908.965,1003.09 909.991,1002.41 911.016,1001.73 912.042,1001.06 913.067,1000.38 914.092,999.698 915.118,999.019 916.143,998.341 917.169,997.662 918.194,996.983 919.219,996.304 920.245,995.625 921.27,994.946 922.296,994.267 923.321,993.588 924.347,992.91 925.372,992.231 926.397,991.552 927.423,990.873 928.448,990.194 929.474,989.515 930.499,988.836 931.525,988.158 932.55,987.479 933.575,986.8 934.601,986.121 935.626,985.442 936.652,984.763 937.677,984.084 938.702,983.405 939.728,982.727 940.753,982.048 941.779,981.369 942.804,980.69 943.83,980.011 944.855,979.332 945.88,978.653 946.906,977.974 947.931,977.296 948.957,976.617 949.982,975.938 951.007,975.259 952.033,974.58 953.058,973.901 954.084,973.222 955.109,972.544 956.135,971.865 957.16,971.186 958.185,970.507 959.211,969.828 960.236,969.149 961.262,968.47 962.287,967.791 963.313,967.113 964.338,966.434 965.363,965.755 966.389,965.076 967.414,964.397 968.44,963.718 969.465,963.039 970.49,962.36 971.516,961.682 972.541,961.003 973.567,960.324 974.592,959.645 975.618,958.966 976.643,958.287 977.668,957.608 978.694,956.93 979.719,956.251 980.745,955.572 981.77,954.893 982.795,954.214 983.821,953.535 984.846,952.856 985.872,952.177 986.897,951.499 987.923,950.82 988.948,950.141 989.973,949.462 990.999,948.783 992.024,948.104 993.05,947.425 994.075,946.746 995.101,946.068 996.126,945.389 997.151,944.71 998.177,944.031 999.202,943.352 1000.23,942.673 1001.25,941.994 1002.28,941.315 1003.3,940.637 1004.33,939.958 1005.35,939.279 1006.38,938.6 1007.41,937.921 1008.43,937.242 1009.46,936.563 1010.48,935.885 1011.51,935.206 1012.53,934.527 1013.56,933.848 1014.58,933.169 1015.61,932.49 1016.63,931.811 1017.66,931.132 1018.69,930.454 1019.71,929.775 1020.74,929.096 1021.76,928.417 1022.79,927.738 1023.81,927.059 1024.84,926.38 1025.86,925.701 1026.89,925.023 1027.91,924.344 1028.94,923.665 1029.96,922.986 1030.99,922.307 1032.02,921.628 1033.04,920.949 1034.07,920.271 1035.09,919.592 1036.12,918.913 1037.14,918.234 1038.17,917.555 1039.19,916.876 1040.22,916.197 1041.24,915.518 1042.27,914.84 1043.3,914.161 1044.32,913.482 1045.35,912.803 1046.37,912.124 1047.4,911.445 1048.42,910.766 1049.45,910.087 1050.47,909.409 1051.5,908.73 1052.52,908.051 1053.55,907.372 1054.57,906.693 1055.6,906.014 1056.63,905.335 1057.65,904.657 1058.68,903.978 1059.7,903.299 1060.73,902.62 1061.75,901.941 1062.78,901.262 1063.8,900.583 1064.83,899.904 1065.85,899.226 1066.88,898.547 1067.91,897.868 1068.93,897.189 1069.96,896.51 1070.98,895.831 1072.01,895.152 1073.03,894.473 1074.06,893.795 1075.08,893.116 1076.11,892.437 1077.13,891.758 1078.16,891.079 1079.18,890.4 1080.21,889.721 1081.24,889.043 1082.26,888.364 1083.29,887.685 1084.31,887.006 1085.34,886.327 1086.36,885.648 1087.39,884.969 1088.41,884.29 1089.44,883.612 1090.46,882.933 1091.49,882.254 1092.52,881.575 1093.54,880.896 1094.57,880.217 1095.59,879.538 1096.62,878.859 1097.64,878.181 1098.67,877.502 1099.69,876.823 1100.72,876.144 1101.74,875.465 1102.77,874.786 1103.79,874.107 1104.82,873.429 1105.85,872.75 1106.87,872.071 1107.9,871.392 1108.92,870.713 1109.95,870.034 1110.97,869.355 1112,868.676 1113.02,867.998 1114.05,867.319 1115.07,866.64 1116.1,865.961 1117.13,865.282 1118.15,864.603 1119.18,863.924 1120.2,863.245 1121.23,862.567 1122.25,861.888 1123.28,861.209 1124.3,860.53 1125.33,859.851 1126.35,859.172 1127.38,858.493 1128.41,857.815 1129.43,857.136 1130.46,856.457 1131.48,855.778 1132.51,855.099 1133.53,854.42 1134.56,853.741 1135.58,853.062 1136.61,852.384 1137.63,851.705 1138.66,851.026 1139.68,850.347 1140.71,849.668 1141.74,848.989 1142.76,848.31 1143.79,847.631 1144.81,846.953 1145.84,846.274 1146.86,845.595 1147.89,844.916 1148.91,844.237 1149.94,843.558 1150.96,842.879 1151.99,842.201 1153.02,841.522 1154.04,840.843 1155.07,840.164 1156.09,839.485 1157.12,838.806 1158.14,838.127 1159.17,837.448 1160.19,836.77 1161.22,836.091 1162.24,835.412 1163.27,834.733 1164.29,834.054 1165.32,833.375 1166.35,832.696 1167.37,832.017 1168.4,831.339 1169.42,830.66 1170.45,829.981 1171.47,829.302 1172.5,828.623 1173.52,827.944 1174.55,827.265 1175.57,826.587 1176.6,825.908 1177.63,825.229 1178.65,824.55 1179.68,823.871 1180.7,823.192 1181.73,822.513 1182.75,821.834 1183.78,821.156 1184.8,820.477 1185.83,819.798 1186.85,819.119 1187.88,818.44 1188.9,817.761 1189.93,817.082 1190.96,816.403 1191.98,815.725 1193.01,815.046 1194.03,814.367 1195.06,813.688 1196.08,813.009 1197.11,812.33 1198.13,811.651 1199.16,810.973 1200.18,810.294 1201.21,809.615 1202.24,808.936 1203.26,808.257 1204.29,807.578 1205.31,806.899 1206.34,806.22 1207.36,805.542 1208.39,804.863 1209.41,804.184 1210.44,803.505 1211.46,802.826 1212.49,802.147 1213.51,801.468 1214.54,800.789 1215.57,800.111 1216.59,799.432 1217.62,798.753 1218.64,798.074 1219.67,797.395 1220.69,796.716 1221.72,796.037 1222.74,795.359 1223.77,794.68 1224.79,794.001 1225.82,793.322 1226.85,792.643 1227.87,791.964 1228.9,791.285 1229.92,790.606 1230.95,789.928 1231.97,789.249 1233,788.57 1234.02,787.891 1235.05,787.212 1236.07,786.533 1237.1,785.854 1238.12,785.175 1239.15,784.497 1240.18,783.818 1241.2,783.139 1242.23,782.46 1243.25,781.781 1244.28,781.102 1245.3,780.423 1246.33,779.745 1247.35,779.066 1248.38,778.387 1249.4,777.708 1250.43,777.029 1251.46,776.35 1252.48,775.671 1253.51,774.992 1254.53,774.314 1255.56,773.635 1256.58,772.956 1257.61,772.277 1258.63,771.598 1259.66,770.919 1260.68,770.24 1261.71,769.561 1262.74,768.883 1263.76,768.204 1264.79,767.525 1265.81,766.846 1266.84,766.167 1267.86,765.488 1268.89,764.809 1269.91,764.131 1270.94,763.452 1271.96,762.773 1272.99,762.094 1274.01,761.415 1275.04,760.736 1276.07,760.057 1277.09,759.378 1278.12,758.7 1279.14,758.021 1280.17,757.342 1281.19,756.663 1282.22,755.984 1283.24,755.305 1284.27,754.626 1285.29,753.947 1286.32,753.269 1287.35,752.59 1288.37,751.911 1289.4,751.232 1290.42,750.553 1291.45,749.874 1292.47,749.195 1293.5,748.517 1294.52,747.838 1295.55,747.159 1296.57,746.48 1297.6,745.801 1298.62,745.122 1299.65,744.443 1300.68,743.764 1301.7,743.086 1302.73,742.407 1303.75,741.728 1304.78,741.049 1305.8,740.37 1306.83,739.691 1307.85,739.012 1308.88,738.333 1309.9,737.655 1310.93,736.976 1311.96,736.297 1312.98,735.618 1314.01,734.939 1315.03,734.26 1316.06,733.581 1317.08,732.902 1318.11,732.224 1319.13,731.545 1320.16,730.866 1321.18,730.187 1322.21,729.508 1323.23,728.829 1324.26,728.15 1325.29,727.472 1326.31,726.793 1327.34,726.114 1328.36,725.435 1329.39,724.756 1330.41,724.077 1331.44,723.398 1332.46,722.719 1333.49,722.041 1334.51,721.362 1335.54,720.683 1336.57,720.004 1337.59,719.325 1338.62,718.646 1339.64,717.967 1340.67,717.288 1341.69,716.61 1342.72,715.931 1343.74,715.252 1344.77,714.573 1345.79,713.894 1346.82,713.215 1347.84,712.536 1348.87,711.858 1349.9,711.179 1350.92,710.5 1351.95,709.821 1352.97,709.142 1354,708.463 1355.02,707.784 1356.05,707.105 1357.07,706.427 1358.1,705.748 1359.12,705.069 1360.15,704.39 1361.18,703.711 1362.2,703.032 1363.23,702.353 1364.25,701.674 1365.28,700.996 1366.3,700.317 1367.33,699.638 1368.35,698.959 1369.38,698.28 1370.4,697.601 1371.43,696.922 1372.45,696.244 1373.48,695.565 1374.51,694.886 1375.53,694.207 1376.56,693.528 1377.58,692.849 1378.61,692.17 1379.63,691.491 1380.66,690.813 1381.68,690.134 1382.71,689.455 1383.73,688.776 1384.76,688.097 1385.79,687.418 1386.81,686.739 1387.84,686.06 1388.86,685.382 1389.89,684.703 1390.91,684.024 1391.94,683.345 1392.96,682.666 1393.99,681.987 1395.01,681.308 1396.04,680.63 1397.06,679.951 1398.09,679.272 1399.12,678.593 1400.14,677.914 1401.17,677.235 1402.19,676.556 1403.22,675.877 1404.24,675.199 1405.27,674.52 1406.29,673.841 1407.32,673.162 1408.34,672.483 1409.37,671.804 1410.4,671.125 1411.42,670.446 1412.45,669.768 1413.47,669.089 1414.5,668.41 1415.52,667.731 1416.55,667.052 1417.57,666.373 1418.6,665.694 1419.62,665.016 1420.65,664.337 1421.68,663.658 1422.7,662.979 1423.73,662.3 1424.75,661.621 1425.78,660.942 1426.8,660.263 1427.83,659.585 1428.85,658.906 1429.88,658.227 1430.9,657.548 1431.93,656.869 1432.95,656.19 1433.98,655.511 1435.01,654.832 1436.03,654.154 1437.06,653.475 1438.08,652.796 1439.11,652.117 1440.13,651.438 1441.16,650.759 1442.18,650.08 1443.21,649.402 1444.23,648.723 1445.26,648.044 1446.29,647.365 1447.31,646.686 1448.34,646.007 1449.36,645.328 1450.39,644.649 1451.41,643.971 1452.44,643.292 1453.46,642.613 1454.49,641.934 1455.51,641.255 1456.54,640.576 1457.56,639.897 1458.59,639.218 1459.62,638.54 1460.64,637.861 1461.67,637.182 1462.69,636.503 1463.72,635.824 1464.74,635.145 1465.77,634.466 1466.79,633.788 1467.82,633.109 1468.84,632.43 1469.87,631.751 1470.9,631.072 1471.92,630.393 1472.95,629.714 1473.97,629.035 1475,628.357 1476.02,627.678 1477.05,626.999 1478.07,626.32 1479.1,625.641 1480.12,624.962 1481.15,624.283 1482.17,623.604 1483.2,622.926 1484.23,622.247 1485.25,621.568 1486.28,620.889 1487.3,620.21 1488.33,619.531 1489.35,618.852 1490.38,618.174 1491.4,617.495 1492.43,616.816 1493.45,616.137 1494.48,615.458 1495.51,614.779 1496.53,614.1 1497.56,613.421 1498.58,612.743 1499.61,612.064 1500.63,611.385 1501.66,610.706 1502.68,610.027 1503.71,609.348 1504.73,608.669 1505.76,607.99 1506.78,607.312 1507.81,606.633 1508.84,605.954 1509.86,605.275 1510.89,604.596 1511.91,603.917 1512.94,603.238 1513.96,602.56 1514.99,601.881 1516.01,601.202 1517.04,600.523 1518.06,599.844 1519.09,599.165 1520.12,598.486 1521.14,597.807 1522.17,597.129 1523.19,596.45 1524.22,595.771 1525.24,595.092 1526.27,594.413 1527.29,593.734 1528.32,593.055 1529.34,592.376 1530.37,591.698 1531.39,591.019 1532.42,590.34 1533.45,589.661 1534.47,588.982 1535.5,588.303 1536.52,587.624 1537.55,586.946 1538.57,586.267 1539.6,585.588 1540.62,584.909 1541.65,584.23 1542.67,583.551 1543.7,582.872 1544.73,582.193 1545.75,581.515 1546.78,580.836 1547.8,580.157 1548.83,579.478 1549.85,578.799 1550.88,578.12 1551.9,577.441 1552.93,576.762 1553.95,576.084 1554.98,575.405 1556,574.726 1557.03,574.047 1558.06,573.368 1559.08,572.689 1560.11,572.01 1561.13,571.332 1562.16,570.653 1563.18,569.974 1564.21,569.295 1565.23,568.616 1566.26,567.937 1567.28,567.258 1568.31,566.579 1569.34,565.901 1570.36,565.222 1571.39,564.543 1572.41,563.864 1573.44,563.185 1574.46,562.506 1575.49,561.827 1576.51,561.148 1577.54,560.47 1578.56,559.791 1579.59,559.112 1580.62,558.433 1581.64,557.754 1582.67,557.075 1583.69,556.396 1584.72,555.718 1585.74,555.039 1586.77,554.36 1587.79,553.681 1588.82,553.002 1589.84,552.323 1590.87,551.644 1591.89,550.965 1592.92,550.287 1593.95,549.608 1594.97,548.929 1596,548.25 1597.02,547.571 1598.05,546.892 1599.07,546.213 1600.1,545.534 1601.12,544.856 1602.15,544.177 1603.17,543.498 1604.2,542.819 1605.23,542.14 1606.25,541.461 1607.28,540.782 1608.3,540.104 1609.33,539.425 1610.35,538.746 1611.38,538.067 1612.4,537.388 1613.43,536.709 1614.45,536.03 1615.48,535.351 1616.5,534.673 1617.53,533.994 1618.56,533.315 1619.58,532.636 1620.61,531.957 1621.63,531.278 1622.66,530.599 1623.68,529.92 1624.71,529.242 1625.73,528.563 1626.76,527.884 1627.78,527.205 1628.81,526.526 1629.84,525.847 1630.86,525.168 1631.89,524.489 1632.91,523.811 1633.94,523.132 1634.96,522.453 1635.99,521.774 1637.01,521.095 1638.04,520.416 1639.06,519.737 1640.09,519.059 1641.11,518.38 1642.14,517.701 1643.17,517.022 1644.19,516.343 1645.22,515.664 1646.24,514.985 1647.27,514.306 1648.29,513.628 1649.32,512.949 1650.34,512.27 1651.37,511.591 1652.39,510.912 1653.42,510.233 1654.45,509.554 1655.47,508.875 1656.5,508.197 1657.52,507.518 1658.55,506.839 1659.57,506.16 1660.6,505.481 1661.62,504.802 1662.65,504.123 1663.67,503.445 1664.7,502.766 1665.72,502.087 1666.75,501.408 1667.78,500.729 1668.8,500.05 1669.83,499.371 1670.85,498.692 1671.88,498.014 1672.9,497.335 1673.93,496.656 1674.95,495.977 1675.98,495.298 1677,494.619 1678.03,493.94 1679.06,493.261 1680.08,492.583 1681.11,491.904 1682.13,491.225 1683.16,490.546 1684.18,489.867 1685.21,489.188 1686.23,488.509 1687.26,487.831 1688.28,487.152 1689.31,486.473 1690.33,485.794 1691.36,485.115 1692.39,484.436 1693.41,483.757 1694.44,483.078 1695.46,482.4 1696.49,481.721 1697.51,481.042 1698.54,480.363 1699.56,479.684 1700.59,479.005 1701.61,478.326 1702.64,477.647 1703.67,476.969 1704.69,476.29 1705.72,475.611 1706.74,474.932 1707.77,474.253 1708.79,473.574 1709.82,472.895 1710.84,472.217 1711.87,471.538 1712.89,470.859 1713.92,470.18 1714.94,469.501 1715.97,468.822 1717,468.143 1718.02,467.464 1719.05,466.786 1720.07,466.107 1721.1,465.428 1722.12,464.749 1723.15,464.07 1724.17,463.391 1725.2,462.712 1726.22,462.033 1727.25,461.355 1728.28,460.676 1729.3,459.997 1730.33,459.318 1731.35,458.639 1732.38,457.96 1733.4,457.281 1734.43,456.603 1735.45,455.924 1736.48,455.245 1737.5,454.566 1738.53,453.887 1739.56,453.208 1740.58,452.529 1741.61,451.85 1742.63,451.172 1743.66,450.493 1744.68,449.814 1745.71,449.135 1746.73,448.456 1747.76,447.777 1748.78,447.098 1749.81,446.419 1750.83,445.741 1751.86,445.062 1752.89,444.383 1753.91,443.704 1754.94,443.025 1755.96,442.346 1756.99,441.667 1758.01,440.989 1759.04,440.31 1760.06,439.631 1761.09,438.952 1762.11,438.273 1763.14,437.594 1764.17,436.915 1765.19,436.236 1766.22,435.558 1767.24,434.879 1768.27,434.2 1769.29,433.521 1770.32,432.842 1771.34,432.163 1772.37,431.484 1773.39,430.805 1774.42,430.127 1775.44,429.448 1776.47,428.769 1777.5,428.09 1778.52,427.411 1779.55,426.732 1780.57,426.053 1781.6,425.375 1782.62,424.696 1783.65,424.017 1784.67,423.338 1785.7,422.659 1786.72,421.98 1787.75,421.301 1788.78,420.622 1789.8,419.944 1790.83,419.265 1791.85,418.586 1792.88,417.907 1793.9,417.228 1794.93,416.549 1795.95,415.87 1796.98,415.191 1798,414.513 1799.03,413.834 1800.05,413.155 1801.08,412.476 1802.11,411.797 1803.13,411.118 1804.16,410.439 1805.18,409.761 1806.21,409.082 1807.23,408.403 1808.26,407.724 1809.28,407.045 1810.31,406.366 1811.33,405.687 1812.36,405.008 1813.39,404.33 1814.41,403.651 1815.44,402.972 1816.46,402.293 1817.49,401.614 1818.51,400.935 1819.54,400.256 1820.56,399.577 1821.59,398.899 1822.61,398.22 1823.64,397.541 1824.66,396.862 1825.69,396.183 1826.72,395.504 1827.74,394.825 1828.77,394.147 1829.79,393.468 1830.82,392.789 1831.84,392.11 1832.87,391.431 1833.89,390.752 1834.92,390.073 1835.94,389.394 1836.97,388.716 1838,388.037 1839.02,387.358 1840.05,386.679 1841.07,386 1842.1,385.321 1843.12,384.642 1844.15,383.963 1845.17,383.285 1846.2,382.606 1847.22,381.927 1848.25,381.248 1849.27,380.569 1850.3,379.89 1851.33,379.211 1852.35,378.533 1853.38,377.854 1854.4,377.175 1855.43,376.496 1856.45,375.817 1857.48,375.138 1858.5,374.459 1859.53,373.78 1860.55,373.102 1861.58,372.423 1862.61,371.744 1863.63,371.065 1864.66,370.386 1865.68,369.707 1866.71,369.028 1867.73,368.349 1868.76,367.671 1869.78,366.992 1870.81,366.313 1871.83,365.634 1872.86,364.955 1873.89,364.276 1874.91,363.597 1875.94,362.919 1876.96,362.24 1877.99,361.561 1879.01,360.882 1880.04,360.203 1881.06,359.524 1882.09,358.845 1883.11,358.166 1884.14,357.488 1885.16,356.809 1886.19,356.13 1887.22,355.451 1888.24,354.772 1889.27,354.093 1890.29,353.414 1891.32,352.735 1892.34,352.057 1893.37,351.378 1894.39,350.699 1895.42,350.02 1896.44,349.341 1897.47,348.662 1898.5,347.983 1899.52,347.305 1900.55,346.626 1901.57,345.947 1902.6,345.268 1903.62,344.589 1904.65,343.91 1905.67,343.231 1906.7,342.552 1907.72,341.874 1908.75,341.195 1909.77,340.516 1910.8,339.837 1911.83,339.158 1912.85,338.479 1913.88,337.8 1914.9,337.121 1915.93,336.443 1916.95,335.764 1917.98,335.085 1919,334.406 1920.03,333.727 1921.05,333.048 1922.08,332.369 1923.11,331.691 1924.13,331.012 1925.16,330.333 1926.18,329.654 1927.21,328.975 1928.23,328.296 1929.26,327.617 1930.28,326.938 1931.31,326.26 1932.33,325.581 1933.36,324.902 1934.38,324.223 1935.41,323.544 1936.44,322.865 1937.46,322.186 1938.49,321.507 1939.51,320.829 1940.54,320.15 1941.56,319.471 1942.59,318.792 1943.61,318.113 1944.64,317.434 1945.66,316.755 1946.69,316.076 1947.72,315.398 1948.74,314.719 1949.77,314.04 1950.79,313.361 1951.82,312.682 1952.84,312.003 1953.87,311.324 1954.89,310.646 1955.92,309.967 1956.94,309.288 1957.97,308.609 1958.99,307.93 1960.02,307.251 1961.05,306.572 1962.07,305.893 1963.1,305.215 1964.12,304.536 1965.15,303.857 1966.17,303.178 1967.2,302.499 1968.22,301.82 1969.25,301.141 1970.27,300.462 1971.3,299.784 1972.33,299.105 1973.35,298.426 1974.38,297.747 1975.4,297.068 1976.43,296.389 1977.45,295.71 1978.48,295.032 1979.5,294.353 1980.53,293.674 1981.55,292.995 1982.58,292.316 1983.6,291.637 1984.63,290.958 1985.66,290.279 1986.68,289.601 1987.71,288.922 1988.73,288.243 1989.76,287.564 1990.78,286.885 1991.81,286.206 1992.83,285.527 1993.86,284.848 1994.88,284.17 1995.91,283.491 1996.94,282.812 1997.96,282.133 1998.99,281.454 2000.01,280.775 2001.04,280.096 2002.06,279.418 2003.09,278.739 2004.11,278.06 2005.14,277.381 2006.16,276.702 2007.19,276.023 2008.21,275.344 2009.24,274.665 2010.27,273.987 2011.29,273.308 2012.32,272.629 2013.34,271.95 2014.37,271.271 2015.39,270.592 2016.42,269.913 2017.44,269.234 2018.47,268.556 2019.49,267.877 2020.52,267.198 2021.55,266.519 2022.57,265.84 2023.6,265.161 2024.62,264.482 2025.65,263.804 2026.67,263.125 2027.7,262.446 2028.72,261.767 2029.75,261.088 2030.77,260.409 2031.8,259.73 2032.83,259.051 2033.85,258.373 2034.88,257.694 2035.9,257.015 2036.93,256.336 2037.95,255.657 2038.98,254.978 2040,254.299 2041.03,253.62 2042.05,252.942 2043.08,252.263 2044.1,251.584 2045.13,250.905 2046.16,250.226 2047.18,249.547 2048.21,248.868 2049.23,248.19 2050.26,247.511 2051.28,246.832 2052.31,246.153 2053.33,245.474 2054.36,244.795 2055.38,244.116 2056.41,243.437 2057.44,242.759 2058.46,242.08 2059.49,241.401 2060.51,240.722 2061.54,240.043 2062.56,239.364 2063.59,238.685 2064.61,238.006 2065.64,237.328 2066.66,236.649 2067.69,235.97 2068.71,235.291 2069.74,234.612 2070.77,233.933 2071.79,233.254 2072.82,232.576 2073.84,231.897 2074.87,231.218 2075.89,230.539 2076.92,229.86 2077.94,229.181 2078.97,228.502 2079.99,227.823 2081.02,227.145 2082.05,226.466 2083.07,225.787 2084.1,225.108 2085.12,224.429 2086.15,223.75 2087.17,223.071 2088.2,222.392 2089.22,221.714 2090.25,221.035 2091.27,220.356 2092.3,219.677 2093.32,218.998 2094.35,218.319 2095.38,217.64 2096.4,216.962 2097.43,216.283 2098.45,215.604 2099.48,214.925 2100.5,214.246 2101.53,213.567 2102.55,212.888 2103.58,212.209 2104.6,211.531 2105.63,210.852 2106.66,210.173 2107.68,209.494 2108.71,208.815 2109.73,208.136 2110.76,207.457 2111.78,206.778 2112.81,206.1 2113.83,205.421 2114.86,204.742 2115.88,204.063 2116.91,203.384 2117.93,202.705 2118.96,202.026 2119.99,201.348 2121.01,200.669 2122.04,199.99 2123.06,199.311 2124.09,198.632 2125.11,197.953 2126.14,197.274 2127.16,196.595 2128.19,195.917 2129.21,195.238 2130.24,194.559 2131.27,193.88 2132.29,193.201 2133.32,192.522 2134.34,191.843 2135.37,191.164 2136.39,190.486 2137.42,189.807 2138.44,189.128 2139.47,188.449 2140.49,187.77 2141.52,187.091 2142.54,186.412 2143.57,185.734 2144.6,185.055 2145.62,184.376 2146.65,183.697 2147.67,183.018 2148.7,182.339 2149.72,181.66 2150.75,180.981 2151.77,180.303 2152.8,179.624 2153.82,178.945 2154.85,178.266 2155.88,177.587 2156.9,176.908 2157.93,176.229 2158.95,175.55 2159.98,174.872 2161,174.193 2162.03,173.514 2163.05,172.835 2164.08,172.156 2165.1,171.477 2166.13,170.798 2167.15,170.12 2168.18,169.441 2169.21,168.762 2170.23,168.083 2171.26,167.404 2172.28,166.725 2173.31,166.046 2174.33,165.367 2175.36,164.689 2176.38,164.01 2177.41,163.331 2178.43,162.652 2179.46,161.973 2180.49,161.294 2181.51,160.615 2182.54,159.936 2183.56,159.258 2184.59,158.579 2185.61,157.9 2186.64,157.221 2187.66,156.542 2188.69,155.863 2189.71,155.184 2190.74,154.506 2191.77,153.827 2192.79,153.148 2193.82,152.469 2194.84,151.79 2195.87,151.111 2196.89,150.432 2197.92,149.753 2198.94,149.075 2199.97,148.396 2200.99,147.717 2202.02,147.038 2203.04,146.359 2204.07,145.68 2205.1,145.001 2206.12,144.322 2207.15,143.644 2208.17,142.965 2209.2,142.286 2210.22,141.607 2211.25,140.928 2212.27,140.249 2213.3,139.57 2214.32,138.892 2215.35,138.213 2216.38,137.534 2217.4,136.855 2218.43,136.176 2219.45,135.497 2220.48,134.818 2221.5,134.139 2222.53,133.461 2223.55,132.782 2224.58,132.103 2225.6,131.424 2226.63,130.745 2227.65,130.066 2228.68,129.387 2229.71,128.708 2230.73,128.03 2231.76,127.351 2232.78,126.672 2233.81,125.993 2234.83,125.314 2235.86,124.635 2236.88,123.956 2237.91,123.278 2238.93,122.599 2239.96,121.92 2240.99,121.241 2242.01,120.562 2243.04,119.883 2244.06,119.204 2245.09,118.525 2246.11,117.847 2247.14,117.168 2248.16,116.489 2249.19,115.81 2250.21,115.131 2251.24,114.452 2252.26,113.773 2253.29,113.094 2254.32,112.416 2255.34,111.737 2256.37,111.058 2257.39,110.379 2258.42,109.7 2259.44,109.021 2260.47,108.342 2261.49,107.663 2262.52,106.985 2263.54,106.306 2264.57,105.627 2265.6,104.948 2266.62,104.269 2267.65,103.59 2268.67,102.911 2269.7,102.233 2270.72,101.554 2271.75,100.875 2272.77,100.196 2273.8,99.5171 2274.82,98.8382 2275.85,98.1593 2276.87,97.4805 2277.9,96.8016 2278.93,96.1227 2279.95,95.4438 2280.98,94.765 2282,94.0861 2283.03,93.4072 2284.05,92.7284 2285.08,92.0495 2286.1,91.3706 2287.13,90.6918 2288.15,90.0129 2289.18,89.334 2290.21,88.6551 2291.23,87.9763 "/>
<path clip-path="url(#clip580)" d="M251.33 250.738 L521.149 250.738 L521.149 95.2176 L251.33 95.2176  Z" fill="#ffffff" fill-rule="evenodd" fill-opacity="1"/>
<polyline clip-path="url(#clip580)" style="stroke:#000000; stroke-linecap:round; stroke-linejoin:round; stroke-width:4; stroke-opacity:1; fill:none" points="251.33,250.738 521.149,250.738 521.149,95.2176 251.33,95.2176 251.33,250.738 "/>
<polyline clip-path="url(#clip580)" style="stroke:#009af9; stroke-linecap:round; stroke-linejoin:round; stroke-width:4; stroke-opacity:1; fill:none" points="275.484,147.058 420.41,147.058 "/>
<path clip-path="url(#clip580)" d="M458.407 166.745 Q456.601 171.375 454.888 172.787 Q453.175 174.199 450.305 174.199 L446.902 174.199 L446.902 170.634 L449.402 170.634 Q451.161 170.634 452.134 169.8 Q453.106 168.967 454.286 165.865 L455.05 163.921 L444.564 138.412 L449.078 138.412 L457.18 158.689 L465.282 138.412 L469.796 138.412 L458.407 166.745 Z" fill="#000000" fill-rule="nonzero" fill-opacity="1" /><path clip-path="url(#clip580)" d="M477.087 160.402 L484.726 160.402 L484.726 134.037 L476.416 135.703 L476.416 131.444 L484.68 129.778 L489.356 129.778 L489.356 160.402 L496.994 160.402 L496.994 164.338 L477.087 164.338 L477.087 160.402 Z" fill="#000000" fill-rule="nonzero" fill-opacity="1" /><polyline clip-path="url(#clip580)" style="stroke:#e26f46; stroke-linecap:round; stroke-linejoin:round; stroke-width:4; stroke-opacity:1; fill:none" points="275.484,198.898 420.41,198.898 "/>
<path clip-path="url(#clip580)" d="M458.407 218.585 Q456.601 223.215 454.888 224.627 Q453.175 226.039 450.305 226.039 L446.902 226.039 L446.902 222.474 L449.402 222.474 Q451.161 222.474 452.134 221.64 Q453.106 220.807 454.286 217.705 L455.05 215.761 L444.564 190.252 L449.078 190.252 L457.18 210.529 L465.282 190.252 L469.796 190.252 L458.407 218.585 Z" fill="#000000" fill-rule="nonzero" fill-opacity="1" /><path clip-path="url(#clip580)" d="M480.305 212.242 L496.624 212.242 L496.624 216.178 L474.68 216.178 L474.68 212.242 Q477.342 209.488 481.925 204.858 Q486.532 200.205 487.712 198.863 Q489.957 196.34 490.837 194.604 Q491.74 192.844 491.74 191.155 Q491.74 188.4 489.795 186.664 Q487.874 184.928 484.772 184.928 Q482.573 184.928 480.12 185.692 Q477.689 186.455 474.911 188.006 L474.911 183.284 Q477.735 182.15 480.189 181.571 Q482.643 180.993 484.68 180.993 Q490.05 180.993 493.245 183.678 Q496.439 186.363 496.439 190.854 Q496.439 192.983 495.629 194.905 Q494.842 196.803 492.735 199.395 Q492.157 200.067 489.055 203.284 Q485.953 206.479 480.305 212.242 Z" fill="#000000" fill-rule="nonzero" fill-opacity="1" /></svg>