<?xml version="1.0" encoding="utf-8"?>
<svg xmlns="http://www.w3.org/2000/svg" xmlns:xlink="http://www.w3.org/1999/xlink" width="600" height="400" viewBox="0 0 2400 1600">
<defs>
  <clipPath id="clip410">
    <rect x="0" y="0" width="2400" height="1600"/>
  </clipPath>
</defs>
<path clip-path="url(#clip410)" d="M0 1600 L2400 1600 L2400 8.88178e-14 L0 8.88178e-14  Z" fill="#ffffff" fill-rule="evenodd" fill-opacity="1"/>
<defs>
  <clipPath id="clip411">
    <rect x="480" y="0" width="1681" height="1600"/>
  </clipPath>
</defs>
<path clip-path="url(#clip410)" d="M140.696 1486.45 L2352.76 1486.45 L2352.76 47.2441 L140.696 47.2441  Z" fill="#ffffff" fill-rule="evenodd" fill-opacity="1"/>
<defs>
  <clipPath id="clip412">
    <rect x="140" y="47" width="2213" height="1440"/>
  </clipPath>
</defs>
<polyline clip-path="url(#clip412)" style="stroke:#000000; stroke-linecap:round; stroke-linejoin:round; stroke-width:2; stroke-opacity:0.1; fill:none" points="203.301,1486.45 203.301,47.2441 "/>
<polyline clip-path="url(#clip412)" style="stroke:#000000; stroke-linecap:round; stroke-linejoin:round; stroke-width:2; stroke-opacity:0.1; fill:none" points="725.013,1486.45 725.013,47.2441 "/>
<polyline clip-path="url(#clip412)" style="stroke:#000000; stroke-linecap:round; stroke-linejoin:round; stroke-width:2; stroke-opacity:0.1; fill:none" points="1246.73,1486.45 1246.73,47.2441 "/>
<polyline clip-path="url(#clip412)" style="stroke:#000000; stroke-linecap:round; stroke-linejoin:round; stroke-width:2; stroke-opacity:0.1; fill:none" points="1768.44,1486.45 1768.44,47.2441 "/>
<polyline clip-path="url(#clip412)" style="stroke:#000000; stroke-linecap:round; stroke-linejoin:round; stroke-width:2; stroke-opacity:0.1; fill:none" points="2290.15,1486.45 2290.15,47.2441 "/>
<polyline clip-path="url(#clip412)" style="stroke:#000000; stroke-linecap:round; stroke-linejoin:round; stroke-width:2; stroke-opacity:0.1; fill:none" points="140.696,1445.72 2352.76,1445.72 "/>
<polyline clip-path="url(#clip412)" style="stroke:#000000; stroke-linecap:round; stroke-linejoin:round; stroke-width:2; stroke-opacity:0.1; fill:none" points="140.696,1021.42 2352.76,1021.42 "/>
<polyline clip-path="url(#clip412)" style="stroke:#000000; stroke-linecap:round; stroke-linejoin:round; stroke-width:2; stroke-opacity:0.1; fill:none" points="140.696,597.129 2352.76,597.129 "/>
<polyline clip-path="url(#clip412)" style="stroke:#000000; stroke-linecap:round; stroke-linejoin:round; stroke-width:2; stroke-opacity:0.1; fill:none" points="140.696,172.835 2352.76,172.835 "/>
<polyline clip-path="url(#clip410)" style="stroke:#000000; stroke-linecap:round; stroke-linejoin:round; stroke-width:4; stroke-opacity:1; fill:none" points="140.696,1486.45 2352.76,1486.45 "/>
<polyline clip-path="url(#clip410)" style="stroke:#000000; stroke-linecap:round; stroke-linejoin:round; stroke-width:4; stroke-opacity:1; fill:none" points="203.301,1486.45 203.301,1467.55 "/>
<polyline clip-path="url(#clip410)" style="stroke:#000000; stroke-linecap:round; stroke-linejoin:round; stroke-width:4; stroke-opacity:1; fill:none" points="725.013,1486.45 725.013,1467.55 "/>
<polyline clip-path="url(#clip410)" style="stroke:#000000; stroke-linecap:round; stroke-linejoin:round; stroke-width:4; stroke-opacity:1; fill:none" points="1246.73,1486.45 1246.73,1467.55 "/>
<polyline clip-path="url(#clip410)" style="stroke:#000000; stroke-linecap:round; stroke-linejoin:round; stroke-width:4; stroke-opacity:1; fill:none" points="1768.44,1486.45 1768.44,1467.55 "/>
<polyline clip-path="url(#clip410)" style="stroke:#000000; stroke-linecap:round; stroke-linejoin:round; stroke-width:4; stroke-opacity:1; fill:none" points="2290.15,1486.45 2290.15,1467.55 "/>
<path clip-path="url(#clip410)" d="M203.301 1517.37 Q199.69 1517.37 197.861 1520.93 Q196.056 1524.47 196.056 1531.6 Q196.056 1538.71 197.861 1542.27 Q199.69 1545.82 203.301 1545.82 Q206.935 1545.82 208.741 1542.27 Q210.57 1538.71 210.57 1531.6 Q210.57 1524.47 208.741 1520.93 Q206.935 1517.37 203.301 1517.37 M203.301 1513.66 Q209.111 1513.66 212.167 1518.27 Q215.245 1522.85 215.245 1531.6 Q215.245 1540.33 212.167 1544.94 Q209.111 1549.52 203.301 1549.52 Q197.491 1549.52 194.412 1544.94 Q191.357 1540.33 191.357 1531.6 Q191.357 1522.85 194.412 1518.27 Q197.491 1513.66 203.301 1513.66 Z" fill="#000000" fill-rule="nonzero" fill-opacity="1" /><path clip-path="url(#clip410)" d="M715.395 1544.91 L723.034 1544.91 L723.034 1518.55 L714.724 1520.21 L714.724 1515.95 L722.988 1514.29 L727.664 1514.29 L727.664 1544.91 L735.303 1544.91 L735.303 1548.85 L715.395 1548.85 L715.395 1544.91 Z" fill="#000000" fill-rule="nonzero" fill-opacity="1" /><path clip-path="url(#clip410)" d="M1241.38 1544.91 L1257.7 1544.91 L1257.7 1548.85 L1235.75 1548.85 L1235.75 1544.91 Q1238.42 1542.16 1243 1537.53 Q1247.61 1532.88 1248.79 1531.53 Q1251.03 1529.01 1251.91 1527.27 Q1252.81 1525.51 1252.81 1523.82 Q1252.81 1521.07 1250.87 1519.33 Q1248.95 1517.6 1245.85 1517.6 Q1243.65 1517.6 1241.19 1518.36 Q1238.76 1519.13 1235.99 1520.68 L1235.99 1515.95 Q1238.81 1514.82 1241.26 1514.24 Q1243.72 1513.66 1245.75 1513.66 Q1251.12 1513.66 1254.32 1516.35 Q1257.51 1519.03 1257.51 1523.52 Q1257.51 1525.65 1256.7 1527.57 Q1255.92 1529.47 1253.81 1532.07 Q1253.23 1532.74 1250.13 1535.95 Q1247.03 1539.15 1241.38 1544.91 Z" fill="#000000" fill-rule="nonzero" fill-opacity="1" /><path clip-path="url(#clip410)" d="M1772.69 1530.21 Q1776.04 1530.93 1777.92 1533.2 Q1779.82 1535.47 1779.82 1538.8 Q1779.82 1543.92 1776.3 1546.72 Q1772.78 1549.52 1766.3 1549.52 Q1764.12 1549.52 1761.81 1549.08 Q1759.51 1548.66 1757.06 1547.81 L1757.06 1543.29 Q1759.01 1544.43 1761.32 1545.01 Q1763.63 1545.58 1766.16 1545.58 Q1770.56 1545.58 1772.85 1543.85 Q1775.16 1542.11 1775.16 1538.8 Q1775.16 1535.75 1773.01 1534.03 Q1770.88 1532.3 1767.06 1532.3 L1763.03 1532.3 L1763.03 1528.45 L1767.25 1528.45 Q1770.7 1528.45 1772.52 1527.09 Q1774.35 1525.7 1774.35 1523.11 Q1774.35 1520.45 1772.45 1519.03 Q1770.58 1517.6 1767.06 1517.6 Q1765.14 1517.6 1762.94 1518.01 Q1760.74 1518.43 1758.1 1519.31 L1758.1 1515.14 Q1760.76 1514.4 1763.08 1514.03 Q1765.42 1513.66 1767.48 1513.66 Q1772.8 1513.66 1775.9 1516.09 Q1779.01 1518.5 1779.01 1522.62 Q1779.01 1525.49 1777.36 1527.48 Q1775.72 1529.45 1772.69 1530.21 Z" fill="#000000" fill-rule="nonzero" fill-opacity="1" /><path clip-path="url(#clip410)" d="M2293.16 1518.36 L2281.35 1536.81 L2293.16 1536.81 L2293.16 1518.36 M2291.93 1514.29 L2297.81 1514.29 L2297.81 1536.81 L2302.74 1536.81 L2302.74 1540.7 L2297.81 1540.7 L2297.81 1548.85 L2293.16 1548.85 L2293.16 1540.7 L2277.56 1540.7 L2277.56 1536.19 L2291.93 1514.29 Z" fill="#000000" fill-rule="nonzero" fill-opacity="1" /><polyline clip-path="url(#clip410)" style="stroke:#000000; stroke-linecap:round; stroke-linejoin:round; stroke-width:4; stroke-opacity:1; fill:none" points="140.696,1486.45 140.696,47.2441 "/>
<polyline clip-path="url(#clip410)" style="stroke:#000000; stroke-linecap:round; stroke-linejoin:round; stroke-width:4; stroke-opacity:1; fill:none" points="140.696,1445.72 159.593,1445.72 "/>
<polyline clip-path="url(#clip410)" style="stroke:#000000; stroke-linecap:round; stroke-linejoin:round; stroke-width:4; stroke-opacity:1; fill:none" points="140.696,1021.42 159.593,1021.42 "/>
<polyline clip-path="url(#clip410)" style="stroke:#000000; stroke-linecap:round; stroke-linejoin:round; stroke-width:4; stroke-opacity:1; fill:none" points="140.696,597.129 159.593,597.129 "/>
<polyline clip-path="url(#clip410)" style="stroke:#000000; stroke-linecap:round; stroke-linejoin:round; stroke-width:4; stroke-opacity:1; fill:none" points="140.696,172.835 159.593,172.835 "/>
<path clip-path="url(#clip410)" d="M92.7512 1431.51 Q89.1401 1431.51 87.3114 1435.08 Q85.5058 1438.62 85.5058 1445.75 Q85.5058 1452.86 87.3114 1456.42 Q89.1401 1459.96 92.7512 1459.96 Q96.3854 1459.96 98.1909 1456.42 Q100.02 1452.86 100.02 1445.75 Q100.02 1438.62 98.1909 1435.08 Q96.3854 1431.51 92.7512 1431.51 M92.7512 1427.81 Q98.5613 1427.81 101.617 1432.42 Q104.696 1437 104.696 1445.75 Q104.696 1454.48 101.617 1459.08 Q98.5613 1463.67 92.7512 1463.67 Q86.941 1463.67 83.8623 1459.08 Q80.8068 1454.48 80.8068 1445.75 Q80.8068 1437 83.8623 1432.42 Q86.941 1427.81 92.7512 1427.81 Z" fill="#000000" fill-rule="nonzero" fill-opacity="1" /><path clip-path="url(#clip410)" d="M53.3995 1034.77 L61.0384 1034.77 L61.0384 1008.4 L52.7282 1010.07 L52.7282 1005.81 L60.9921 1004.14 L65.668 1004.14 L65.668 1034.77 L73.3068 1034.77 L73.3068 1038.7 L53.3995 1038.7 L53.3995 1034.77 Z" fill="#000000" fill-rule="nonzero" fill-opacity="1" /><path clip-path="url(#clip410)" d="M92.7512 1007.22 Q89.1401 1007.22 87.3114 1010.79 Q85.5058 1014.33 85.5058 1021.46 Q85.5058 1028.56 87.3114 1032.13 Q89.1401 1035.67 92.7512 1035.67 Q96.3854 1035.67 98.1909 1032.13 Q100.02 1028.56 100.02 1021.46 Q100.02 1014.33 98.1909 1010.79 Q96.3854 1007.22 92.7512 1007.22 M92.7512 1003.52 Q98.5613 1003.52 101.617 1008.12 Q104.696 1012.71 104.696 1021.46 Q104.696 1030.18 101.617 1034.79 Q98.5613 1039.37 92.7512 1039.37 Q86.941 1039.37 83.8623 1034.79 Q80.8068 1030.18 80.8068 1021.46 Q80.8068 1012.71 83.8623 1008.12 Q86.941 1003.52 92.7512 1003.52 Z" fill="#000000" fill-rule="nonzero" fill-opacity="1" /><path clip-path="url(#clip410)" d="M56.6171 610.473 L72.9365 610.473 L72.9365 614.409 L50.9921 614.409 L50.9921 610.473 Q53.6541 607.719 58.2375 603.089 Q62.8439 598.436 64.0245 597.094 Q66.2698 594.571 67.1494 592.835 Q68.0522 591.075 68.0522 589.386 Q68.0522 586.631 66.1078 584.895 Q64.1865 583.159 61.0847 583.159 Q58.8856 583.159 56.4319 583.923 Q54.0014 584.686 51.2236 586.237 L51.2236 581.515 Q54.0477 580.381 56.5014 579.802 Q58.955 579.224 60.9921 579.224 Q66.3624 579.224 69.5568 581.909 Q72.7513 584.594 72.7513 589.085 Q72.7513 591.214 71.9411 593.136 Q71.1541 595.034 69.0476 597.626 Q68.4689 598.298 65.367 601.515 Q62.2652 604.71 56.6171 610.473 Z" fill="#000000" fill-rule="nonzero" fill-opacity="1" /><path clip-path="url(#clip410)" d="M92.7512 582.927 Q89.1401 582.927 87.3114 586.492 Q85.5058 590.034 85.5058 597.163 Q85.5058 604.27 87.3114 607.835 Q89.1401 611.376 92.7512 611.376 Q96.3854 611.376 98.1909 607.835 Q100.02 604.27 100.02 597.163 Q100.02 590.034 98.1909 586.492 Q96.3854 582.927 92.7512 582.927 M92.7512 579.224 Q98.5613 579.224 101.617 583.83 Q104.696 588.413 104.696 597.163 Q104.696 605.89 101.617 610.497 Q98.5613 615.08 92.7512 615.08 Q86.941 615.08 83.8623 610.497 Q80.8068 605.89 80.8068 597.163 Q80.8068 588.413 83.8623 583.83 Q86.941 579.224 92.7512 579.224 Z" fill="#000000" fill-rule="nonzero" fill-opacity="1" /><path clip-path="url(#clip410)" d="M66.7559 171.481 Q70.1124 172.198 71.9874 174.467 Q73.8855 176.735 73.8855 180.069 Q73.8855 185.184 70.367 187.985 Q66.8485 190.786 60.3671 190.786 Q58.1912 190.786 55.8764 190.346 Q53.5847 189.93 51.131 189.073 L51.131 184.559 Q53.0754 185.694 55.3903 186.272 Q57.7051 186.851 60.2282 186.851 Q64.6263 186.851 66.918 185.115 Q69.2328 183.379 69.2328 180.069 Q69.2328 177.013 67.08 175.3 Q64.9504 173.564 61.131 173.564 L57.1032 173.564 L57.1032 169.722 L61.3161 169.722 Q64.7652 169.722 66.5939 168.356 Q68.4226 166.967 68.4226 164.374 Q68.4226 161.712 66.5245 160.3 Q64.6495 158.865 61.131 158.865 Q59.2097 158.865 57.0106 159.282 Q54.8115 159.698 52.1727 160.578 L52.1727 156.411 Q54.8347 155.671 57.1495 155.3 Q59.4875 154.93 61.5476 154.93 Q66.8717 154.93 69.9735 157.361 Q73.0753 159.768 73.0753 163.888 Q73.0753 166.759 71.4318 168.749 Q69.7883 170.717 66.7559 171.481 Z" fill="#000000" fill-rule="nonzero" fill-opacity="1" /><path clip-path="url(#clip410)" d="M92.7512 158.634 Q89.1401 158.634 87.3114 162.198 Q85.5058 165.74 85.5058 172.87 Q85.5058 179.976 87.3114 183.541 Q89.1401 187.083 92.7512 187.083 Q96.3854 187.083 98.1909 183.541 Q100.02 179.976 100.02 172.87 Q100.02 165.74 98.1909 162.198 Q96.3854 158.634 92.7512 158.634 M92.7512 154.93 Q98.5613 154.93 101.617 159.536 Q104.696 164.12 104.696 172.87 Q104.696 181.597 101.617 186.203 Q98.5613 190.786 92.7512 190.786 Q86.941 190.786 83.8623 186.203 Q80.8068 181.597 80.8068 172.87 Q80.8068 164.12 83.8623 159.536 Q86.941 154.93 92.7512 154.93 Z" fill="#000000" fill-rule="nonzero" fill-opacity="1" /><polyline clip-path="url(#clip412)" style="stroke:#009af9; stroke-linecap:round; stroke-linejoin:round; stroke-width:4; stroke-opacity:1; fill:none" points="203.301,1445.72 208.518,1445.71 213.735,1445.68 218.952,1445.64 224.17,1445.58 229.387,1445.5 234.604,1445.41 239.821,1445.3 245.038,1445.17 250.255,1445.03 255.472,1444.87 260.689,1444.69 265.907,1444.49 271.124,1444.28 276.341,1444.05 281.558,1443.81 286.775,1443.54 291.992,1443.26 297.209,1442.97 302.426,1442.65 307.643,1442.32 312.861,1441.97 318.078,1441.61 323.295,1441.23 328.512,1440.83 333.729,1440.41 338.946,1439.98 344.163,1439.53 349.38,1439.06 354.598,1438.58 359.815,1438.08 365.032,1437.56 370.249,1437.03 375.466,1436.47 380.683,1435.91 385.9,1435.32 391.117,1434.72 396.335,1434.1 401.552,1433.46 406.769,1432.81 411.986,1432.14 417.203,1431.45 422.42,1430.75 427.637,1430.03 432.854,1429.29 438.072,1428.53 443.289,1427.76 448.506,1426.97 453.723,1426.16 458.94,1425.34 464.157,1424.5 469.374,1423.64 474.591,1422.77 479.809,1421.88 485.026,1420.97 490.243,1420.05 495.46,1419.1 500.677,1418.15 505.894,1417.17 511.111,1416.18 516.328,1415.17 521.546,1414.14 526.763,1413.1 531.98,1412.04 537.197,1410.96 542.414,1409.86 547.631,1408.75 552.848,1407.62 558.065,1406.48 563.283,1405.31 568.5,1404.13 573.717,1402.94 578.934,1401.72 584.151,1400.49 589.368,1399.25 594.585,1397.98 599.802,1396.7 605.02,1395.4 610.237,1394.09 615.454,1392.76 620.671,1391.41 625.888,1390.04 631.105,1388.66 636.322,1387.26 641.539,1385.84 646.757,1384.41 651.974,1382.95 657.191,1381.49 662.408,1380 667.625,1378.5 672.842,1376.98 678.059,1375.44 683.276,1373.89 688.494,1372.32 693.711,1370.73 698.928,1369.13 704.145,1367.51 709.362,1365.87 714.579,1364.22 719.796,1362.55 725.013,1360.86 730.23,1359.15 735.448,1357.43 740.665,1355.69 745.882,1353.93 751.099,1352.16 756.316,1350.37 761.533,1348.56 766.75,1346.74 771.967,1344.9 777.185,1343.04 782.402,1341.16 787.619,1339.27 792.836,1337.36 798.053,1335.43 803.27,1333.49 808.487,1331.53 813.704,1329.55 818.922,1327.56 824.139,1325.55 829.356,1323.52 834.573,1321.47 839.79,1319.41 845.007,1317.33 850.224,1315.24 855.441,1313.12 860.659,1310.99 865.876,1308.85 871.093,1306.68 876.31,1304.5 881.527,1302.3 886.744,1300.09 891.961,1297.86 897.178,1295.61 902.396,1293.34 907.613,1291.06 912.83,1288.76 918.047,1286.44 923.264,1284.11 928.481,1281.76 933.698,1279.39 938.915,1277.01 944.133,1274.61 949.35,1272.19 954.567,1269.75 959.784,1267.3 965.001,1264.83 970.218,1262.34 975.435,1259.84 980.652,1257.32 985.87,1254.78 991.087,1252.23 996.304,1249.66 1001.52,1247.07 1006.74,1244.46 1011.96,1241.84 1017.17,1239.2 1022.39,1236.55 1027.61,1233.87 1032.82,1231.18 1038.04,1228.48 1043.26,1225.75 1048.48,1223.01 1053.69,1220.25 1058.91,1217.48 1064.13,1214.69 1069.34,1211.88 1074.56,1209.05 1079.78,1206.21 1084.99,1203.35 1090.21,1200.47 1095.43,1197.58 1100.65,1194.67 1105.86,1191.74 1111.08,1188.8 1116.3,1185.84 1121.51,1182.86 1126.73,1179.86 1131.95,1176.85 1137.17,1173.82 1142.38,1170.77 1147.6,1167.71 1152.82,1164.63 1158.03,1161.53 1163.25,1158.42 1168.47,1155.29 1173.69,1152.14 1178.9,1148.97 1184.12,1145.79 1189.34,1142.59 1194.55,1139.38 1199.77,1136.14 1204.99,1132.89 1210.21,1129.63 1215.42,1126.34 1220.64,1123.04 1225.86,1119.72 1231.07,1116.39 1236.29,1113.04 1241.51,1109.67 1246.73,1106.28 1251.94,1102.88 1257.16,1099.46 1262.38,1096.02 1267.59,1092.57 1272.81,1089.1 1278.03,1085.61 1283.25,1082.1 1288.46,1078.58 1293.68,1075.04 1298.9,1071.49 1304.11,1067.92 1309.33,1064.33 1314.55,1060.72 1319.77,1057.1 1324.98,1053.46 1330.2,1049.8 1335.42,1046.12 1340.63,1042.43 1345.85,1038.72 1351.07,1035 1356.29,1031.26 1361.5,1027.5 1366.72,1023.72 1371.94,1019.93 1377.15,1016.12 1382.37,1012.29 1387.59,1008.45 1392.81,1004.59 1398.02,1000.71 1403.24,996.813 1408.46,992.901 1413.67,988.972 1418.89,985.026 1424.11,981.063 1429.33,977.083 1434.54,973.087 1439.76,969.073 1444.98,965.042 1450.19,960.994 1455.41,956.93 1460.63,952.848 1465.84,948.749 1471.06,944.633 1476.28,940.501 1481.5,936.351 1486.71,932.185 1491.93,928.001 1497.15,923.801 1502.36,919.583 1507.58,915.349 1512.8,911.097 1518.02,906.829 1523.23,902.544 1528.45,898.241 1533.67,893.922 1538.88,889.586 1544.1,885.232 1549.32,880.862 1554.54,876.475 1559.75,872.071 1564.97,867.65 1570.19,863.212 1575.4,858.756 1580.62,854.284 1585.84,849.795 1591.06,845.289 1596.27,840.766 1601.49,836.226 1606.71,831.67 1611.92,827.096 1617.14,822.505 1622.36,817.897 1627.58,813.272 1632.79,808.63 1638.01,803.972 1643.23,799.296 1648.44,794.603 1653.66,789.894 1658.88,785.167 1664.1,780.423 1669.31,775.663 1674.53,770.885 1679.75,766.091 1684.96,761.279 1690.18,756.451 1695.4,751.605 1700.62,746.743 1705.83,741.864 1711.05,736.967 1716.27,732.054 1721.48,727.124 1726.7,722.176 1731.92,717.212 1737.14,712.231 1742.35,707.233 1747.57,702.218 1752.79,697.185 1758,692.136 1763.22,687.07 1768.44,681.987 1773.66,676.887 1778.87,671.77 1784.09,666.636 1789.31,661.485 1794.52,656.318 1799.74,651.133 1804.96,645.931 1810.18,640.712 1815.39,635.476 1820.61,630.223 1825.83,624.954 1831.04,619.667 1836.26,614.363 1841.48,609.043 1846.69,603.705 1851.91,598.351 1857.13,592.979 1862.35,587.59 1867.56,582.185 1872.78,576.762 1878,571.323 1883.21,565.867 1888.43,560.393 1893.65,554.903 1898.87,549.396 1904.08,543.871 1909.3,538.33 1914.52,532.772 1919.73,527.196 1924.95,521.604 1930.17,515.995 1935.39,510.369 1940.6,504.726 1945.82,499.066 1951.04,493.389 1956.25,487.695 1961.47,481.984 1966.69,476.256 1971.91,470.511 1977.12,464.749 1982.34,458.97 1987.56,453.174 1992.77,447.361 1997.99,441.532 2003.21,435.685 2008.43,429.821 2013.64,423.94 2018.86,418.043 2024.08,412.128 2029.29,406.196 2034.51,400.248 2039.73,394.282 2044.95,388.3 2050.16,382.3 2055.38,376.284 2060.6,370.25 2065.81,364.2 2071.03,358.132 2076.25,352.048 2081.47,345.947 2086.68,339.828 2091.9,333.693 2097.12,327.541 2102.33,321.372 2107.55,315.185 2112.77,308.982 2117.99,302.762 2123.2,296.525 2128.42,290.271 2133.64,284 2138.85,277.712 2144.07,271.407 2149.29,265.085 2154.51,258.746 2159.72,252.39 2164.94,246.017 2170.16,239.627 2175.37,233.22 2180.59,226.797 2185.81,220.356 2191.03,213.898 2196.24,207.423 2201.46,200.932 2206.68,194.423 2211.89,187.897 2217.11,181.355 2222.33,174.795 2227.54,168.219 2232.76,161.625 2237.98,155.015 2243.2,148.387 2248.41,141.743 2253.63,135.081 2258.85,128.403 2264.06,121.708 2269.28,114.995 2274.5,108.266 2279.72,101.52 2284.93,94.7565 2290.15,87.9763 "/>
<polyline clip-path="url(#clip412)" style="stroke:#e26f46; stroke-linecap:round; stroke-linejoin:round; stroke-width:4; stroke-opacity:1; fill:none" points="725.013,1276 1246.73,1106.28 1768.44,936.563 2290.15,766.846 "/>
<path clip-path="url(#clip410)" d="M214.431 250.738 L824.987 250.738 L824.987 95.2176 L214.431 95.2176  Z" fill="#ffffff" fill-rule="evenodd" fill-opacity="1"/>
<polyline clip-path="url(#clip410)" style="stroke:#000000; stroke-linecap:round; stroke-linejoin:round; stroke-width:4; stroke-opacity:1; fill:none" points="214.431,250.738 824.987,250.738 824.987,95.2176 214.431,95.2176 214.431,250.738 "/>
<polyline clip-path="url(#clip410)" style="stroke:#009af9; stroke-linecap:round; stroke-linejoin:round; stroke-width:4; stroke-opacity:1; fill:none" points="239.009,147.058 386.48,147.058 "/>
<path clip-path="url(#clip410)" d="M427.563 128.319 L427.563 131.861 L423.489 131.861 Q421.197 131.861 420.295 132.787 Q419.415 133.713 419.415 136.12 L419.415 138.412 L426.429 138.412 L426.429 141.722 L419.415 141.722 L419.415 164.338 L415.133 164.338 L415.133 141.722 L411.058 141.722 L411.058 138.412 L415.133 138.412 L415.133 136.606 Q415.133 132.278 417.146 130.31 Q419.16 128.319 423.535 128.319 L427.563 128.319 Z" fill="#000000" fill-rule="nonzero" fill-opacity="1" /><path clip-path="url(#clip410)" d="M441.359 128.366 Q438.257 133.69 436.753 138.898 Q435.248 144.106 435.248 149.453 Q435.248 154.801 436.753 160.055 Q438.281 165.287 441.359 170.588 L437.656 170.588 Q434.183 165.148 432.447 159.893 Q430.734 154.639 430.734 149.453 Q430.734 144.291 432.447 139.06 Q434.16 133.828 437.656 128.366 L441.359 128.366 Z" fill="#000000" fill-rule="nonzero" fill-opacity="1" /><path clip-path="url(#clip410)" d="M471.174 138.412 L461.799 151.027 L471.66 164.338 L466.637 164.338 L459.091 154.152 L451.544 164.338 L446.521 164.338 L456.591 150.773 L447.378 138.412 L452.401 138.412 L459.276 147.648 L466.151 138.412 L471.174 138.412 Z" fill="#000000" fill-rule="nonzero" fill-opacity="1" /><path clip-path="url(#clip410)" d="M477.007 128.366 L480.711 128.366 Q484.183 133.828 485.896 139.06 Q487.632 144.291 487.632 149.453 Q487.632 154.639 485.896 159.893 Q484.183 165.148 480.711 170.588 L477.007 170.588 Q480.086 165.287 481.591 160.055 Q483.118 154.801 483.118 149.453 Q483.118 144.106 481.591 138.898 Q480.086 133.69 477.007 128.366 Z" fill="#000000" fill-rule="nonzero" fill-opacity="1" /><path clip-path="url(#clip410)" d="M511.799 142.81 L541.474 142.81 L541.474 146.699 L511.799 146.699 L511.799 142.81 M511.799 152.254 L541.474 152.254 L541.474 156.189 L511.799 156.189 L511.799 152.254 Z" fill="#000000" fill-rule="nonzero" fill-opacity="1" /><path clip-path="url(#clip410)" d="M587.585 138.412 L578.21 151.027 L588.071 164.338 L583.048 164.338 L575.502 154.152 L567.956 164.338 L562.933 164.338 L573.002 150.773 L563.789 138.412 L568.812 138.412 L575.687 147.648 L582.562 138.412 L587.585 138.412 Z" fill="#000000" fill-rule="nonzero" fill-opacity="1" /><path clip-path="url(#clip410)" d="M611.752 129.778 L624.321 142.671 L619.668 142.671 L609.483 133.528 L599.298 142.671 L594.645 142.671 L607.215 129.778 L611.752 129.778 Z" fill="#000000" fill-rule="nonzero" fill-opacity="1" /><path clip-path="url(#clip410)" d="M638.442 160.402 L654.761 160.402 L654.761 164.338 L632.817 164.338 L632.817 160.402 Q635.479 157.648 640.062 153.018 Q644.668 148.365 645.849 147.023 Q648.094 144.5 648.974 142.764 Q649.877 141.004 649.877 139.315 Q649.877 136.56 647.932 134.824 Q646.011 133.088 642.909 133.088 Q640.71 133.088 638.256 133.852 Q635.826 134.615 633.048 136.166 L633.048 131.444 Q635.872 130.31 638.326 129.731 Q640.779 129.153 642.816 129.153 Q648.187 129.153 651.381 131.838 Q654.576 134.523 654.576 139.014 Q654.576 141.143 653.766 143.065 Q652.978 144.963 650.872 147.555 Q650.293 148.227 647.191 151.444 Q644.09 154.639 638.442 160.402 Z" fill="#000000" fill-rule="nonzero" fill-opacity="1" /><polyline clip-path="url(#clip410)" style="stroke:#e26f46; stroke-linecap:round; stroke-linejoin:round; stroke-width:4; stroke-opacity:1; fill:none" points="239.009,198.898 386.48,198.898 "/>
<path clip-path="url(#clip410)" d="M411.058 181.618 L440.294 181.618 L440.294 185.553 L428.026 185.553 L428.026 216.178 L423.327 216.178 L423.327 185.553 L411.058 185.553 L411.058 181.618 Z" fill="#000000" fill-rule="nonzero" fill-opacity="1" /><path clip-path="url(#clip410)" d="M448.558 203.145 Q443.396 203.145 441.406 204.326 Q439.415 205.506 439.415 208.354 Q439.415 210.622 440.896 211.965 Q442.401 213.284 444.97 213.284 Q448.512 213.284 450.642 210.784 Q452.794 208.261 452.794 204.094 L452.794 203.145 L448.558 203.145 M457.054 201.386 L457.054 216.178 L452.794 216.178 L452.794 212.242 Q451.336 214.603 449.16 215.738 Q446.984 216.849 443.836 216.849 Q439.855 216.849 437.494 214.627 Q435.156 212.381 435.156 208.631 Q435.156 204.256 438.072 202.034 Q441.012 199.812 446.822 199.812 L452.794 199.812 L452.794 199.395 Q452.794 196.455 450.85 194.858 Q448.929 193.238 445.433 193.238 Q443.211 193.238 441.105 193.77 Q438.998 194.303 437.054 195.367 L437.054 191.432 Q439.392 190.53 441.591 190.09 Q443.79 189.627 445.873 189.627 Q451.498 189.627 454.276 192.543 Q457.054 195.46 457.054 201.386 Z" fill="#000000" fill-rule="nonzero" fill-opacity="1" /><path clip-path="url(#clip410)" d="M487.378 200.529 L487.378 216.178 L483.118 216.178 L483.118 200.668 Q483.118 196.988 481.683 195.159 Q480.248 193.33 477.378 193.33 Q473.929 193.33 471.938 195.53 Q469.947 197.729 469.947 201.525 L469.947 216.178 L465.665 216.178 L465.665 190.252 L469.947 190.252 L469.947 194.28 Q471.475 191.942 473.535 190.784 Q475.618 189.627 478.327 189.627 Q482.794 189.627 485.086 192.405 Q487.378 195.159 487.378 200.529 Z" fill="#000000" fill-rule="nonzero" fill-opacity="1" /><path clip-path="url(#clip410)" d="M512.933 202.914 Q512.933 198.284 511.012 195.738 Q509.114 193.192 505.664 193.192 Q502.239 193.192 500.317 195.738 Q498.419 198.284 498.419 202.914 Q498.419 207.52 500.317 210.066 Q502.239 212.613 505.664 212.613 Q509.114 212.613 511.012 210.066 Q512.933 207.52 512.933 202.914 M517.192 212.96 Q517.192 219.58 514.252 222.798 Q511.313 226.039 505.248 226.039 Q503.002 226.039 501.012 225.691 Q499.021 225.367 497.146 224.673 L497.146 220.529 Q499.021 221.548 500.85 222.034 Q502.678 222.52 504.576 222.52 Q508.766 222.52 510.85 220.321 Q512.933 218.145 512.933 213.724 L512.933 211.617 Q511.613 213.909 509.553 215.043 Q507.493 216.178 504.623 216.178 Q499.854 216.178 496.938 212.543 Q494.021 208.909 494.021 202.914 Q494.021 196.895 496.938 193.261 Q499.854 189.627 504.623 189.627 Q507.493 189.627 509.553 190.761 Q511.613 191.895 512.933 194.187 L512.933 190.252 L517.192 190.252 L517.192 212.96 Z" fill="#000000" fill-rule="nonzero" fill-opacity="1" /><path clip-path="url(#clip410)" d="M548.141 202.15 L548.141 204.233 L528.558 204.233 Q528.836 208.631 531.197 210.946 Q533.581 213.238 537.817 213.238 Q540.271 213.238 542.562 212.636 Q544.877 212.034 547.146 210.83 L547.146 214.858 Q544.854 215.83 542.447 216.34 Q540.039 216.849 537.562 216.849 Q531.359 216.849 527.725 213.238 Q524.113 209.627 524.113 203.469 Q524.113 197.104 527.539 193.377 Q530.988 189.627 536.822 189.627 Q542.053 189.627 545.086 193.006 Q548.141 196.363 548.141 202.15 M543.882 200.9 Q543.836 197.405 541.914 195.321 Q540.016 193.238 536.868 193.238 Q533.303 193.238 531.15 195.252 Q529.021 197.266 528.697 200.923 L543.882 200.9 Z" fill="#000000" fill-rule="nonzero" fill-opacity="1" /><path clip-path="url(#clip410)" d="M576.683 200.529 L576.683 216.178 L572.423 216.178 L572.423 200.668 Q572.423 196.988 570.988 195.159 Q569.553 193.33 566.683 193.33 Q563.234 193.33 561.243 195.53 Q559.252 197.729 559.252 201.525 L559.252 216.178 L554.97 216.178 L554.97 190.252 L559.252 190.252 L559.252 194.28 Q560.78 191.942 562.84 190.784 Q564.923 189.627 567.632 189.627 Q572.099 189.627 574.391 192.405 Q576.683 195.159 576.683 200.529 Z" fill="#000000" fill-rule="nonzero" fill-opacity="1" /><path clip-path="url(#clip410)" d="M589.391 182.891 L589.391 190.252 L598.164 190.252 L598.164 193.562 L589.391 193.562 L589.391 207.636 Q589.391 210.807 590.247 211.71 Q591.127 212.613 593.789 212.613 L598.164 212.613 L598.164 216.178 L593.789 216.178 Q588.858 216.178 586.983 214.349 Q585.108 212.497 585.108 207.636 L585.108 193.562 L581.983 193.562 L581.983 190.252 L585.108 190.252 L585.108 182.891 L589.391 182.891 Z" fill="#000000" fill-rule="nonzero" fill-opacity="1" /><path clip-path="url(#clip410)" d="M630.617 203.145 Q625.455 203.145 623.465 204.326 Q621.474 205.506 621.474 208.354 Q621.474 210.622 622.955 211.965 Q624.46 213.284 627.03 213.284 Q630.571 213.284 632.701 210.784 Q634.854 208.261 634.854 204.094 L634.854 203.145 L630.617 203.145 M639.113 201.386 L639.113 216.178 L634.854 216.178 L634.854 212.242 Q633.395 214.603 631.219 215.738 Q629.043 216.849 625.895 216.849 Q621.914 216.849 619.553 214.627 Q617.215 212.381 617.215 208.631 Q617.215 204.256 620.131 202.034 Q623.071 199.812 628.881 199.812 L634.854 199.812 L634.854 199.395 Q634.854 196.455 632.909 194.858 Q630.988 193.238 627.493 193.238 Q625.27 193.238 623.164 193.77 Q621.057 194.303 619.113 195.367 L619.113 191.432 Q621.451 190.53 623.65 190.09 Q625.849 189.627 627.932 189.627 Q633.557 189.627 636.335 192.543 Q639.113 195.46 639.113 201.386 Z" fill="#000000" fill-rule="nonzero" fill-opacity="1" /><path clip-path="url(#clip410)" d="M652.099 182.891 L652.099 190.252 L660.872 190.252 L660.872 193.562 L652.099 193.562 L652.099 207.636 Q652.099 210.807 652.955 211.71 Q653.835 212.613 656.497 212.613 L660.872 212.613 L660.872 216.178 L656.497 216.178 Q651.566 216.178 649.691 214.349 Q647.816 212.497 647.816 207.636 L647.816 193.562 L644.691 193.562 L644.691 190.252 L647.816 190.252 L647.816 182.891 L652.099 182.891 Z" fill="#000000" fill-rule="nonzero" fill-opacity="1" /><path clip-path="url(#clip410)" d="M703.094 190.252 L693.719 202.867 L703.58 216.178 L698.557 216.178 L691.011 205.992 L683.464 216.178 L678.441 216.178 L688.511 202.613 L679.298 190.252 L684.321 190.252 L691.196 199.488 L698.071 190.252 L703.094 190.252 Z" fill="#000000" fill-rule="nonzero" fill-opacity="1" /><path clip-path="url(#clip410)" d="M725.223 194.65 L754.899 194.65 L754.899 198.539 L725.223 198.539 L725.223 194.65 M725.223 204.094 L754.899 204.094 L754.899 208.029 L725.223 208.029 L725.223 204.094 Z" fill="#000000" fill-rule="nonzero" fill-opacity="1" /><path clip-path="url(#clip410)" d="M784.089 212.242 L800.408 212.242 L800.408 216.178 L778.464 216.178 L778.464 212.242 Q781.126 209.488 785.709 204.858 Q790.316 200.205 791.496 198.863 Q793.742 196.34 794.621 194.604 Q795.524 192.844 795.524 191.155 Q795.524 188.4 793.58 186.664 Q791.658 184.928 788.556 184.928 Q786.357 184.928 783.904 185.692 Q781.473 186.455 778.695 188.006 L778.695 183.284 Q781.519 182.15 783.973 181.571 Q786.427 180.993 788.464 180.993 Q793.834 180.993 797.029 183.678 Q800.223 186.363 800.223 190.854 Q800.223 192.983 799.413 194.905 Q798.626 196.803 796.519 199.395 Q795.941 200.067 792.839 203.284 Q789.737 206.479 784.089 212.242 Z" fill="#000000" fill-rule="nonzero" fill-opacity="1" /></svg>