<?xml version="1.0" encoding="utf-8"?>
<svg xmlns="http://www.w3.org/2000/svg" xmlns:xlink="http://www.w3.org/1999/xlink" width="600" height="400" viewBox="0 0 2400 1600">
<defs>
  <clipPath id="clip320">
    <rect x="0" y="0" width="2400" height="1600"/>
  </clipPath>
</defs>
<path clip-path="url(#clip320)" d="M0 1600 L2400 1600 L2400 8.88178e-14 L0 8.88178e-14  Z" fill="#ffffff" fill-rule="evenodd" fill-opacity="1"/>
<defs>
  <clipPath id="clip321">
    <rect x="480" y="0" width="1681" height="1600"/>
  </clipPath>
</defs>
<path clip-path="url(#clip320)" d="M172.015 1486.45 L2352.76 1486.45 L2352.76 47.2441 L172.015 47.2441  Z" fill="#ffffff" fill-rule="evenodd" fill-opacity="1"/>
<defs>
  <clipPath id="clip322">
    <rect x="172" y="47" width="2182" height="1440"/>
  </clipPath>
</defs>
<polyline clip-path="url(#clip322)" style="stroke:#000000; stroke-linecap:round; stroke-linejoin:round; stroke-width:2; stroke-opacity:0.1; fill:none" points="666.85,1486.45 666.85,47.2441 "/>
<polyline clip-path="url(#clip322)" style="stroke:#000000; stroke-linecap:round; stroke-linejoin:round; stroke-width:2; stroke-opacity:0.1; fill:none" points="1208.25,1486.45 1208.25,47.2441 "/>
<polyline clip-path="url(#clip322)" style="stroke:#000000; stroke-linecap:round; stroke-linejoin:round; stroke-width:2; stroke-opacity:0.1; fill:none" points="1749.64,1486.45 1749.64,47.2441 "/>
<polyline clip-path="url(#clip322)" style="stroke:#000000; stroke-linecap:round; stroke-linejoin:round; stroke-width:2; stroke-opacity:0.1; fill:none" points="2291.04,1486.45 2291.04,47.2441 "/>
<polyline clip-path="url(#clip320)" style="stroke:#000000; stroke-linecap:round; stroke-linejoin:round; stroke-width:4; stroke-opacity:1; fill:none" points="172.015,1486.45 2352.76,1486.45 "/>
<polyline clip-path="url(#clip320)" style="stroke:#000000; stroke-linecap:round; stroke-linejoin:round; stroke-width:4; stroke-opacity:1; fill:none" points="666.85,1486.45 666.85,1467.55 "/>
<polyline clip-path="url(#clip320)" style="stroke:#000000; stroke-linecap:round; stroke-linejoin:round; stroke-width:4; stroke-opacity:1; fill:none" points="1208.25,1486.45 1208.25,1467.55 "/>
<polyline clip-path="url(#clip320)" style="stroke:#000000; stroke-linecap:round; stroke-linejoin:round; stroke-width:4; stroke-opacity:1; fill:none" points="1749.64,1486.45 1749.64,1467.55 "/>
<polyline clip-path="url(#clip320)" style="stroke:#000000; stroke-linecap:round; stroke-linejoin:round; stroke-width:4; stroke-opacity:1; fill:none" points="2291.04,1486.45 2291.04,1467.55 "/>
<path clip-path="url(#clip320)" d="M657.128 1514.29 L675.485 1514.29 L675.485 1518.22 L661.411 1518.22 L661.411 1526.7 Q662.429 1526.35 663.448 1526.19 Q664.466 1526 665.485 1526 Q671.272 1526 674.651 1529.17 Q678.031 1532.34 678.031 1537.76 Q678.031 1543.34 674.559 1546.44 Q671.086 1549.52 664.767 1549.52 Q662.591 1549.52 660.323 1549.15 Q658.077 1548.78 655.67 1548.04 L655.67 1543.34 Q657.753 1544.47 659.975 1545.03 Q662.198 1545.58 664.674 1545.58 Q668.679 1545.58 671.017 1543.48 Q673.355 1541.37 673.355 1537.76 Q673.355 1534.15 671.017 1532.04 Q668.679 1529.94 664.674 1529.94 Q662.799 1529.94 660.924 1530.35 Q659.073 1530.77 657.128 1531.65 L657.128 1514.29 Z" fill="#000000" fill-rule="nonzero" fill-opacity="1" /><path clip-path="url(#clip320)" d="M1182.93 1544.91 L1190.57 1544.91 L1190.57 1518.55 L1182.26 1520.21 L1182.26 1515.95 L1190.53 1514.29 L1195.2 1514.29 L1195.2 1544.91 L1202.84 1544.91 L1202.84 1548.85 L1182.93 1548.85 L1182.93 1544.91 Z" fill="#000000" fill-rule="nonzero" fill-opacity="1" /><path clip-path="url(#clip320)" d="M1222.29 1517.37 Q1218.67 1517.37 1216.85 1520.93 Q1215.04 1524.47 1215.04 1531.6 Q1215.04 1538.71 1216.85 1542.27 Q1218.67 1545.82 1222.29 1545.82 Q1225.92 1545.82 1227.72 1542.27 Q1229.55 1538.71 1229.55 1531.6 Q1229.55 1524.47 1227.72 1520.93 Q1225.92 1517.37 1222.29 1517.37 M1222.29 1513.66 Q1228.1 1513.66 1231.15 1518.27 Q1234.23 1522.85 1234.23 1531.6 Q1234.23 1540.33 1231.15 1544.94 Q1228.1 1549.52 1222.29 1549.52 Q1216.47 1549.52 1213.4 1544.94 Q1210.34 1540.33 1210.34 1531.6 Q1210.34 1522.85 1213.4 1518.27 Q1216.47 1513.66 1222.29 1513.66 Z" fill="#000000" fill-rule="nonzero" fill-opacity="1" /><path clip-path="url(#clip320)" d="M1724.83 1544.91 L1732.47 1544.91 L1732.47 1518.55 L1724.16 1520.21 L1724.16 1515.95 L1732.42 1514.29 L1737.1 1514.29 L1737.1 1544.91 L1744.73 1544.91 L1744.73 1548.85 L1724.83 1548.85 L1724.83 1544.91 Z" fill="#000000" fill-rule="nonzero" fill-opacity="1" /><path clip-path="url(#clip320)" d="M1754.22 1514.29 L1772.58 1514.29 L1772.58 1518.22 L1758.51 1518.22 L1758.51 1526.7 Q1759.53 1526.35 1760.54 1526.19 Q1761.56 1526 1762.58 1526 Q1768.37 1526 1771.75 1529.17 Q1775.13 1532.34 1775.13 1537.76 Q1775.13 1543.34 1771.66 1546.44 Q1768.18 1549.52 1761.86 1549.52 Q1759.69 1549.52 1757.42 1549.15 Q1755.17 1548.78 1752.77 1548.04 L1752.77 1543.34 Q1754.85 1544.47 1757.07 1545.03 Q1759.29 1545.58 1761.77 1545.58 Q1765.78 1545.58 1768.11 1543.48 Q1770.45 1541.37 1770.45 1537.76 Q1770.45 1534.15 1768.11 1532.04 Q1765.78 1529.94 1761.77 1529.94 Q1759.9 1529.94 1758.02 1530.35 Q1756.17 1530.77 1754.22 1531.65 L1754.22 1514.29 Z" fill="#000000" fill-rule="nonzero" fill-opacity="1" /><path clip-path="url(#clip320)" d="M2269.81 1544.91 L2286.13 1544.91 L2286.13 1548.85 L2264.19 1548.85 L2264.19 1544.91 Q2266.85 1542.16 2271.43 1537.53 Q2276.04 1532.88 2277.22 1531.53 Q2279.46 1529.01 2280.34 1527.27 Q2281.25 1525.51 2281.25 1523.82 Q2281.25 1521.07 2279.3 1519.33 Q2277.38 1517.6 2274.28 1517.6 Q2272.08 1517.6 2269.62 1518.36 Q2267.19 1519.13 2264.42 1520.68 L2264.42 1515.95 Q2267.24 1514.82 2269.69 1514.24 Q2272.15 1513.66 2274.19 1513.66 Q2279.56 1513.66 2282.75 1516.35 Q2285.94 1519.03 2285.94 1523.52 Q2285.94 1525.65 2285.13 1527.57 Q2284.35 1529.47 2282.24 1532.07 Q2281.66 1532.74 2278.56 1535.95 Q2275.46 1539.15 2269.81 1544.91 Z" fill="#000000" fill-rule="nonzero" fill-opacity="1" /><path clip-path="url(#clip320)" d="M2305.94 1517.37 Q2302.33 1517.37 2300.5 1520.93 Q2298.7 1524.47 2298.7 1531.6 Q2298.7 1538.71 2300.5 1542.27 Q2302.33 1545.82 2305.94 1545.82 Q2309.58 1545.82 2311.38 1542.27 Q2313.21 1538.71 2313.21 1531.6 Q2313.21 1524.47 2311.38 1520.93 Q2309.58 1517.37 2305.94 1517.37 M2305.94 1513.66 Q2311.75 1513.66 2314.81 1518.27 Q2317.89 1522.85 2317.89 1531.6 Q2317.89 1540.33 2314.81 1544.94 Q2311.75 1549.52 2305.94 1549.52 Q2300.13 1549.52 2297.06 1544.94 Q2294 1540.33 2294 1531.6 Q2294 1522.85 2297.06 1518.27 Q2300.13 1513.66 2305.94 1513.66 Z" fill="#000000" fill-rule="nonzero" fill-opacity="1" /><polyline clip-path="url(#clip322)" style="stroke:#000000; stroke-linecap:round; stroke-linejoin:round; stroke-width:2; stroke-opacity:0.1; fill:none" points="172.015,1449.12 2352.76,1449.12 "/>
<polyline clip-path="url(#clip322)" style="stroke:#000000; stroke-linecap:round; stroke-linejoin:round; stroke-width:2; stroke-opacity:0.1; fill:none" points="172.015,1108.83 2352.76,1108.83 "/>
<polyline clip-path="url(#clip322)" style="stroke:#000000; stroke-linecap:round; stroke-linejoin:round; stroke-width:2; stroke-opacity:0.1; fill:none" points="172.015,768.547 2352.76,768.547 "/>
<polyline clip-path="url(#clip322)" style="stroke:#000000; stroke-linecap:round; stroke-linejoin:round; stroke-width:2; stroke-opacity:0.1; fill:none" points="172.015,428.262 2352.76,428.262 "/>
<polyline clip-path="url(#clip322)" style="stroke:#000000; stroke-linecap:round; stroke-linejoin:round; stroke-width:2; stroke-opacity:0.1; fill:none" points="172.015,87.9763 2352.76,87.9763 "/>
<polyline clip-path="url(#clip320)" style="stroke:#000000; stroke-linecap:round; stroke-linejoin:round; stroke-width:4; stroke-opacity:1; fill:none" points="172.015,1486.45 172.015,47.2441 "/>
<polyline clip-path="url(#clip320)" style="stroke:#000000; stroke-linecap:round; stroke-linejoin:round; stroke-width:4; stroke-opacity:1; fill:none" points="172.015,1449.12 190.912,1449.12 "/>
<polyline clip-path="url(#clip320)" style="stroke:#000000; stroke-linecap:round; stroke-linejoin:round; stroke-width:4; stroke-opacity:1; fill:none" points="172.015,1108.83 190.912,1108.83 "/>
<polyline clip-path="url(#clip320)" style="stroke:#000000; stroke-linecap:round; stroke-linejoin:round; stroke-width:4; stroke-opacity:1; fill:none" points="172.015,768.547 190.912,768.547 "/>
<polyline clip-path="url(#clip320)" style="stroke:#000000; stroke-linecap:round; stroke-linejoin:round; stroke-width:4; stroke-opacity:1; fill:none" points="172.015,428.262 190.912,428.262 "/>
<polyline clip-path="url(#clip320)" style="stroke:#000000; stroke-linecap:round; stroke-linejoin:round; stroke-width:4; stroke-opacity:1; fill:none" points="172.015,87.9763 190.912,87.9763 "/>
<path clip-path="url(#clip320)" d="M124.07 1434.92 Q120.459 1434.92 118.631 1438.48 Q116.825 1442.02 116.825 1449.15 Q116.825 1456.26 118.631 1459.82 Q120.459 1463.37 124.07 1463.37 Q127.705 1463.37 129.51 1459.82 Q131.339 1456.26 131.339 1449.15 Q131.339 1442.02 129.51 1438.48 Q127.705 1434.92 124.07 1434.92 M124.07 1431.21 Q129.881 1431.21 132.936 1435.82 Q136.015 1440.4 136.015 1449.15 Q136.015 1457.88 132.936 1462.49 Q129.881 1467.07 124.07 1467.07 Q118.26 1467.07 115.182 1462.49 Q112.126 1457.88 112.126 1449.15 Q112.126 1440.4 115.182 1435.82 Q118.26 1431.21 124.07 1431.21 Z" fill="#000000" fill-rule="nonzero" fill-opacity="1" /><path clip-path="url(#clip320)" d="M54.5569 1122.18 L62.1958 1122.18 L62.1958 1095.81 L53.8856 1097.48 L53.8856 1093.22 L62.1495 1091.55 L66.8254 1091.55 L66.8254 1122.18 L74.4642 1122.18 L74.4642 1126.11 L54.5569 1126.11 L54.5569 1122.18 Z" fill="#000000" fill-rule="nonzero" fill-opacity="1" /><path clip-path="url(#clip320)" d="M93.9086 1094.63 Q90.2975 1094.63 88.4688 1098.2 Q86.6632 1101.74 86.6632 1108.87 Q86.6632 1115.97 88.4688 1119.54 Q90.2975 1123.08 93.9086 1123.08 Q97.5428 1123.08 99.3483 1119.54 Q101.177 1115.97 101.177 1108.87 Q101.177 1101.74 99.3483 1098.2 Q97.5428 1094.63 93.9086 1094.63 M93.9086 1090.93 Q99.7187 1090.93 102.774 1095.53 Q105.853 1100.12 105.853 1108.87 Q105.853 1117.59 102.774 1122.2 Q99.7187 1126.78 93.9086 1126.78 Q88.0984 1126.78 85.0197 1122.2 Q81.9642 1117.59 81.9642 1108.87 Q81.9642 1100.12 85.0197 1095.53 Q88.0984 1090.93 93.9086 1090.93 Z" fill="#000000" fill-rule="nonzero" fill-opacity="1" /><path clip-path="url(#clip320)" d="M124.07 1094.63 Q120.459 1094.63 118.631 1098.2 Q116.825 1101.74 116.825 1108.87 Q116.825 1115.97 118.631 1119.54 Q120.459 1123.08 124.07 1123.08 Q127.705 1123.08 129.51 1119.54 Q131.339 1115.97 131.339 1108.87 Q131.339 1101.74 129.51 1098.2 Q127.705 1094.63 124.07 1094.63 M124.07 1090.93 Q129.881 1090.93 132.936 1095.53 Q136.015 1100.12 136.015 1108.87 Q136.015 1117.59 132.936 1122.2 Q129.881 1126.78 124.07 1126.78 Q118.26 1126.78 115.182 1122.2 Q112.126 1117.59 112.126 1108.87 Q112.126 1100.12 115.182 1095.53 Q118.26 1090.93 124.07 1090.93 Z" fill="#000000" fill-rule="nonzero" fill-opacity="1" /><path clip-path="url(#clip320)" d="M57.7745 781.892 L74.0939 781.892 L74.0939 785.827 L52.1495 785.827 L52.1495 781.892 Q54.8115 779.138 59.3949 774.508 Q64.0013 769.855 65.1819 768.513 Q67.4272 765.99 68.3068 764.253 Q69.2096 762.494 69.2096 760.804 Q69.2096 758.05 67.2652 756.314 Q65.3439 754.578 62.2421 754.578 Q60.043 754.578 57.5893 755.341 Q55.1588 756.105 52.381 757.656 L52.381 752.934 Q55.2051 751.8 57.6588 751.221 Q60.1124 750.642 62.1495 750.642 Q67.5198 750.642 70.7142 753.328 Q73.9087 756.013 73.9087 760.503 Q73.9087 762.633 73.0985 764.554 Q72.3115 766.453 70.205 769.045 Q69.6263 769.716 66.5245 772.934 Q63.4226 776.128 57.7745 781.892 Z" fill="#000000" fill-rule="nonzero" fill-opacity="1" /><path clip-path="url(#clip320)" d="M93.9086 754.346 Q90.2975 754.346 88.4688 757.911 Q86.6632 761.453 86.6632 768.582 Q86.6632 775.689 88.4688 779.253 Q90.2975 782.795 93.9086 782.795 Q97.5428 782.795 99.3483 779.253 Q101.177 775.689 101.177 768.582 Q101.177 761.453 99.3483 757.911 Q97.5428 754.346 93.9086 754.346 M93.9086 750.642 Q99.7187 750.642 102.774 755.249 Q105.853 759.832 105.853 768.582 Q105.853 777.309 102.774 781.915 Q99.7187 786.499 93.9086 786.499 Q88.0984 786.499 85.0197 781.915 Q81.9642 777.309 81.9642 768.582 Q81.9642 759.832 85.0197 755.249 Q88.0984 750.642 93.9086 750.642 Z" fill="#000000" fill-rule="nonzero" fill-opacity="1" /><path clip-path="url(#clip320)" d="M124.07 754.346 Q120.459 754.346 118.631 757.911 Q116.825 761.453 116.825 768.582 Q116.825 775.689 118.631 779.253 Q120.459 782.795 124.07 782.795 Q127.705 782.795 129.51 779.253 Q131.339 775.689 131.339 768.582 Q131.339 761.453 129.51 757.911 Q127.705 754.346 124.07 754.346 M124.07 750.642 Q129.881 750.642 132.936 755.249 Q136.015 759.832 136.015 768.582 Q136.015 777.309 132.936 781.915 Q129.881 786.499 124.07 786.499 Q118.26 786.499 115.182 781.915 Q112.126 777.309 112.126 768.582 Q112.126 759.832 115.182 755.249 Q118.26 750.642 124.07 750.642 Z" fill="#000000" fill-rule="nonzero" fill-opacity="1" /><path clip-path="url(#clip320)" d="M67.9133 426.908 Q71.2698 427.625 73.1448 429.894 Q75.0429 432.162 75.0429 435.496 Q75.0429 440.611 71.5244 443.412 Q68.0059 446.213 61.5245 446.213 Q59.3486 446.213 57.0338 445.773 Q54.7421 445.357 52.2884 444.5 L52.2884 439.986 Q54.2328 441.121 56.5477 441.699 Q58.8625 442.278 61.3856 442.278 Q65.7837 442.278 68.0754 440.542 Q70.3902 438.806 70.3902 435.496 Q70.3902 432.44 68.2374 430.727 Q66.1078 428.991 62.2884 428.991 L58.2606 428.991 L58.2606 425.148 L62.4735 425.148 Q65.9226 425.148 67.7513 423.783 Q69.58 422.394 69.58 419.801 Q69.58 417.139 67.6819 415.727 Q65.8069 414.292 62.2884 414.292 Q60.3671 414.292 58.168 414.709 Q55.969 415.125 53.3301 416.005 L53.3301 411.838 Q55.9921 411.098 58.3069 410.727 Q60.6449 410.357 62.705 410.357 Q68.0291 410.357 71.1309 412.787 Q74.2327 415.195 74.2327 419.315 Q74.2327 422.185 72.5892 424.176 Q70.9457 426.144 67.9133 426.908 Z" fill="#000000" fill-rule="nonzero" fill-opacity="1" /><path clip-path="url(#clip320)" d="M93.9086 414.061 Q90.2975 414.061 88.4688 417.625 Q86.6632 421.167 86.6632 428.297 Q86.6632 435.403 88.4688 438.968 Q90.2975 442.509 93.9086 442.509 Q97.5428 442.509 99.3483 438.968 Q101.177 435.403 101.177 428.297 Q101.177 421.167 99.3483 417.625 Q97.5428 414.061 93.9086 414.061 M93.9086 410.357 Q99.7187 410.357 102.774 414.963 Q105.853 419.547 105.853 428.297 Q105.853 437.023 102.774 441.63 Q99.7187 446.213 93.9086 446.213 Q88.0984 446.213 85.0197 441.63 Q81.9642 437.023 81.9642 428.297 Q81.9642 419.547 85.0197 414.963 Q88.0984 410.357 93.9086 410.357 Z" fill="#000000" fill-rule="nonzero" fill-opacity="1" /><path clip-path="url(#clip320)" d="M124.07 414.061 Q120.459 414.061 118.631 417.625 Q116.825 421.167 116.825 428.297 Q116.825 435.403 118.631 438.968 Q120.459 442.509 124.07 442.509 Q127.705 442.509 129.51 438.968 Q131.339 435.403 131.339 428.297 Q131.339 421.167 129.51 417.625 Q127.705 414.061 124.07 414.061 M124.07 410.357 Q129.881 410.357 132.936 414.963 Q136.015 419.547 136.015 428.297 Q136.015 437.023 132.936 441.63 Q129.881 446.213 124.07 446.213 Q118.26 446.213 115.182 441.63 Q112.126 437.023 112.126 428.297 Q112.126 419.547 115.182 414.963 Q118.26 410.357 124.07 410.357 Z" fill="#000000" fill-rule="nonzero" fill-opacity="1" /><path clip-path="url(#clip320)" d="M66.5939 74.7703 L54.7884 93.2193 L66.5939 93.2193 L66.5939 74.7703 M65.367 70.6963 L71.2466 70.6963 L71.2466 93.2193 L76.1772 93.2193 L76.1772 97.1082 L71.2466 97.1082 L71.2466 105.256 L66.5939 105.256 L66.5939 97.1082 L50.9921 97.1082 L50.9921 92.5943 L65.367 70.6963 Z" fill="#000000" fill-rule="nonzero" fill-opacity="1" /><path clip-path="url(#clip320)" d="M93.9086 73.775 Q90.2975 73.775 88.4688 77.3398 Q86.6632 80.8814 86.6632 88.011 Q86.6632 95.1174 88.4688 98.6822 Q90.2975 102.224 93.9086 102.224 Q97.5428 102.224 99.3483 98.6822 Q101.177 95.1174 101.177 88.011 Q101.177 80.8814 99.3483 77.3398 Q97.5428 73.775 93.9086 73.775 M93.9086 70.0713 Q99.7187 70.0713 102.774 74.6777 Q105.853 79.261 105.853 88.011 Q105.853 96.7378 102.774 101.344 Q99.7187 105.928 93.9086 105.928 Q88.0984 105.928 85.0197 101.344 Q81.9642 96.7378 81.9642 88.011 Q81.9642 79.261 85.0197 74.6777 Q88.0984 70.0713 93.9086 70.0713 Z" fill="#000000" fill-rule="nonzero" fill-opacity="1" /><path clip-path="url(#clip320)" d="M124.07 73.775 Q120.459 73.775 118.631 77.3398 Q116.825 80.8814 116.825 88.011 Q116.825 95.1174 118.631 98.6822 Q120.459 102.224 124.07 102.224 Q127.705 102.224 129.51 98.6822 Q131.339 95.1174 131.339 88.011 Q131.339 80.8814 129.51 77.3398 Q127.705 73.775 124.07 73.775 M124.07 70.0713 Q129.881 70.0713 132.936 74.6777 Q136.015 79.261 136.015 88.011 Q136.015 96.7378 132.936 101.344 Q129.881 105.928 124.07 105.928 Q118.26 105.928 115.182 101.344 Q112.126 96.7378 112.126 88.011 Q112.126 79.261 115.182 74.6777 Q118.26 70.0713 124.07 70.0713 Z" fill="#000000" fill-rule="nonzero" fill-opacity="1" /><polyline clip-path="url(#clip322)" style="stroke:#009af9; stroke-linecap:round; stroke-linejoin:round; stroke-width:4; stroke-opacity:1; fill:none" points="233.734,1445.72 342.013,1435.51 450.292,1418.49 558.571,1394.67 666.85,1364.05 775.129,1326.62 883.409,1282.38 991.688,1231.34 1099.97,1173.49 1208.25,1108.83 1316.52,1037.37 1424.8,959.107 1533.08,874.036 1641.36,782.159 1749.64,683.476 1857.92,577.987 1966.2,465.693 2074.48,346.593 2182.76,220.688 2291.04,87.9763 "/>
<path clip-path="url(#clip320)" d="M244.706 198.898 L539.354 198.898 L539.354 95.2176 L244.706 95.2176  Z" fill="#ffffff" fill-rule="evenodd" fill-opacity="1"/>
<polyline clip-path="url(#clip320)" style="stroke:#000000; stroke-linecap:round; stroke-linejoin:round; stroke-width:4; stroke-opacity:1; fill:none" points="244.706,198.898 539.354,198.898 539.354,95.2176 244.706,95.2176 244.706,198.898 "/>
<polyline clip-path="url(#clip320)" style="stroke:#009af9; stroke-linecap:round; stroke-linejoin:round; stroke-width:4; stroke-opacity:1; fill:none" points="268.937,147.058 414.319,147.058 "/>
<path clip-path="url(#clip320)" d="M455.054 128.319 L455.054 131.861 L450.98 131.861 Q448.689 131.861 447.786 132.787 Q446.906 133.713 446.906 136.12 L446.906 138.412 L453.92 138.412 L453.92 141.722 L446.906 141.722 L446.906 164.338 L442.624 164.338 L442.624 141.722 L438.55 141.722 L438.55 138.412 L442.624 138.412 L442.624 136.606 Q442.624 132.278 444.638 130.31 Q446.652 128.319 451.027 128.319 L455.054 128.319 Z" fill="#000000" fill-rule="nonzero" fill-opacity="1" /><path clip-path="url(#clip320)" d="M468.851 128.366 Q465.749 133.69 464.244 138.898 Q462.74 144.106 462.74 149.453 Q462.74 154.801 464.244 160.055 Q465.772 165.287 468.851 170.588 L465.147 170.588 Q461.675 165.148 459.939 159.893 Q458.226 154.639 458.226 149.453 Q458.226 144.291 459.939 139.06 Q461.652 133.828 465.147 128.366 L468.851 128.366 Z" fill="#000000" fill-rule="nonzero" fill-opacity="1" /><path clip-path="url(#clip320)" d="M498.665 138.412 L489.29 151.027 L499.151 164.338 L494.128 164.338 L486.582 154.152 L479.036 164.338 L474.013 164.338 L484.082 150.773 L474.869 138.412 L479.892 138.412 L486.767 147.648 L493.642 138.412 L498.665 138.412 Z" fill="#000000" fill-rule="nonzero" fill-opacity="1" /><path clip-path="url(#clip320)" d="M504.499 128.366 L508.202 128.366 Q511.674 133.828 513.387 139.06 Q515.124 144.291 515.124 149.453 Q515.124 154.639 513.387 159.893 Q511.674 165.148 508.202 170.588 L504.499 170.588 Q507.577 165.287 509.082 160.055 Q510.61 154.801 510.61 149.453 Q510.61 144.106 509.082 138.898 Q507.577 133.69 504.499 128.366 Z" fill="#000000" fill-rule="nonzero" fill-opacity="1" /></svg>