<?xml version="1.0" encoding="utf-8"?>
<svg xmlns="http://www.w3.org/2000/svg" xmlns:xlink="http://www.w3.org/1999/xlink" width="600" height="400" viewBox="0 0 2400 1600">
<defs>
  <clipPath id="clip230">
    <rect x="0" y="0" width="2400" height="1600"/>
  </clipPath>
</defs>
<path clip-path="url(#clip230)" d="M0 1600 L2400 1600 L2400 8.88178e-14 L0 8.88178e-14  Z" fill="#ffffff" fill-rule="evenodd" fill-opacity="1"/>
<defs>
  <clipPath id="clip231">
    <rect x="480" y="0" width="1681" height="1600"/>
  </clipPath>
</defs>
<path clip-path="url(#clip230)" d="M193.936 1486.45 L2352.76 1486.45 L2352.76 47.2441 L193.936 47.2441  Z" fill="#ffffff" fill-rule="evenodd" fill-opacity="1"/>
<defs>
  <clipPath id="clip232">
    <rect x="193" y="47" width="2160" height="1440"/>
  </clipPath>
</defs>
<polyline clip-path="url(#clip232)" style="stroke:#000000; stroke-linecap:round; stroke-linejoin:round; stroke-width:2; stroke-opacity:0.1; fill:none" points="255.035,1486.45 255.035,47.2441 "/>
<polyline clip-path="url(#clip232)" style="stroke:#000000; stroke-linecap:round; stroke-linejoin:round; stroke-width:2; stroke-opacity:0.1; fill:none" points="764.19,1486.45 764.19,47.2441 "/>
<polyline clip-path="url(#clip232)" style="stroke:#000000; stroke-linecap:round; stroke-linejoin:round; stroke-width:2; stroke-opacity:0.1; fill:none" points="1273.35,1486.45 1273.35,47.2441 "/>
<polyline clip-path="url(#clip232)" style="stroke:#000000; stroke-linecap:round; stroke-linejoin:round; stroke-width:2; stroke-opacity:0.1; fill:none" points="1782.5,1486.45 1782.5,47.2441 "/>
<polyline clip-path="url(#clip232)" style="stroke:#000000; stroke-linecap:round; stroke-linejoin:round; stroke-width:2; stroke-opacity:0.1; fill:none" points="2291.66,1486.45 2291.66,47.2441 "/>
<polyline clip-path="url(#clip232)" style="stroke:#000000; stroke-linecap:round; stroke-linejoin:round; stroke-width:2; stroke-opacity:0.1; fill:none" points="193.936,1445.72 2352.76,1445.72 "/>
<polyline clip-path="url(#clip232)" style="stroke:#000000; stroke-linecap:round; stroke-linejoin:round; stroke-width:2; stroke-opacity:0.1; fill:none" points="193.936,1106.28 2352.76,1106.28 "/>
<polyline clip-path="url(#clip232)" style="stroke:#000000; stroke-linecap:round; stroke-linejoin:round; stroke-width:2; stroke-opacity:0.1; fill:none" points="193.936,766.846 2352.76,766.846 "/>
<polyline clip-path="url(#clip232)" style="stroke:#000000; stroke-linecap:round; stroke-linejoin:round; stroke-width:2; stroke-opacity:0.1; fill:none" points="193.936,427.411 2352.76,427.411 "/>
<polyline clip-path="url(#clip232)" style="stroke:#000000; stroke-linecap:round; stroke-linejoin:round; stroke-width:2; stroke-opacity:0.1; fill:none" points="193.936,87.9761 2352.76,87.9761 "/>
<polyline clip-path="url(#clip230)" style="stroke:#000000; stroke-linecap:round; stroke-linejoin:round; stroke-width:4; stroke-opacity:1; fill:none" points="193.936,1486.45 2352.76,1486.45 "/>
<polyline clip-path="url(#clip230)" style="stroke:#000000; stroke-linecap:round; stroke-linejoin:round; stroke-width:4; stroke-opacity:1; fill:none" points="255.035,1486.45 255.035,1467.55 "/>
<polyline clip-path="url(#clip230)" style="stroke:#000000; stroke-linecap:round; stroke-linejoin:round; stroke-width:4; stroke-opacity:1; fill:none" points="764.19,1486.45 764.19,1467.55 "/>
<polyline clip-path="url(#clip230)" style="stroke:#000000; stroke-linecap:round; stroke-linejoin:round; stroke-width:4; stroke-opacity:1; fill:none" points="1273.35,1486.45 1273.35,1467.55 "/>
<polyline clip-path="url(#clip230)" style="stroke:#000000; stroke-linecap:round; stroke-linejoin:round; stroke-width:4; stroke-opacity:1; fill:none" points="1782.5,1486.45 1782.5,1467.55 "/>
<polyline clip-path="url(#clip230)" style="stroke:#000000; stroke-linecap:round; stroke-linejoin:round; stroke-width:4; stroke-opacity:1; fill:none" points="2291.66,1486.45 2291.66,1467.55 "/>
<path clip-path="url(#clip230)" d="M209.097 1532.02 L238.773 1532.02 L238.773 1535.95 L209.097 1535.95 L209.097 1532.02 Z" fill="#000000" fill-rule="nonzero" fill-opacity="1" /><path clip-path="url(#clip230)" d="M249.676 1544.91 L257.315 1544.91 L257.315 1518.55 L249.005 1520.21 L249.005 1515.95 L257.268 1514.29 L261.944 1514.29 L261.944 1544.91 L269.583 1544.91 L269.583 1548.85 L249.676 1548.85 L249.676 1544.91 Z" fill="#000000" fill-rule="nonzero" fill-opacity="1" /><path clip-path="url(#clip230)" d="M289.028 1517.37 Q285.416 1517.37 283.588 1520.93 Q281.782 1524.47 281.782 1531.6 Q281.782 1538.71 283.588 1542.27 Q285.416 1545.82 289.028 1545.82 Q292.662 1545.82 294.467 1542.27 Q296.296 1538.71 296.296 1531.6 Q296.296 1524.47 294.467 1520.93 Q292.662 1517.37 289.028 1517.37 M289.028 1513.66 Q294.838 1513.66 297.893 1518.27 Q300.972 1522.85 300.972 1531.6 Q300.972 1540.33 297.893 1544.94 Q294.838 1549.52 289.028 1549.52 Q283.217 1549.52 280.139 1544.94 Q277.083 1540.33 277.083 1531.6 Q277.083 1522.85 280.139 1518.27 Q283.217 1513.66 289.028 1513.66 Z" fill="#000000" fill-rule="nonzero" fill-opacity="1" /><path clip-path="url(#clip230)" d="M733.832 1532.02 L763.507 1532.02 L763.507 1535.95 L733.832 1535.95 L733.832 1532.02 Z" fill="#000000" fill-rule="nonzero" fill-opacity="1" /><path clip-path="url(#clip230)" d="M773.646 1514.29 L792.003 1514.29 L792.003 1518.22 L777.929 1518.22 L777.929 1526.7 Q778.947 1526.35 779.966 1526.19 Q780.984 1526 782.003 1526 Q787.79 1526 791.169 1529.17 Q794.549 1532.34 794.549 1537.76 Q794.549 1543.34 791.077 1546.44 Q787.605 1549.52 781.285 1549.52 Q779.109 1549.52 776.841 1549.15 Q774.595 1548.78 772.188 1548.04 L772.188 1543.34 Q774.271 1544.47 776.493 1545.03 Q778.716 1545.58 781.193 1545.58 Q785.197 1545.58 787.535 1543.48 Q789.873 1541.37 789.873 1537.76 Q789.873 1534.15 787.535 1532.04 Q785.197 1529.94 781.193 1529.94 Q779.318 1529.94 777.443 1530.35 Q775.591 1530.77 773.646 1531.65 L773.646 1514.29 Z" fill="#000000" fill-rule="nonzero" fill-opacity="1" /><path clip-path="url(#clip230)" d="M1273.35 1517.37 Q1269.73 1517.37 1267.91 1520.93 Q1266.1 1524.47 1266.1 1531.6 Q1266.1 1538.71 1267.91 1542.27 Q1269.73 1545.82 1273.35 1545.82 Q1276.98 1545.82 1278.79 1542.27 Q1280.61 1538.71 1280.61 1531.6 Q1280.61 1524.47 1278.79 1520.93 Q1276.98 1517.37 1273.35 1517.37 M1273.35 1513.66 Q1279.16 1513.66 1282.21 1518.27 Q1285.29 1522.85 1285.29 1531.6 Q1285.29 1540.33 1282.21 1544.94 Q1279.16 1549.52 1273.35 1549.52 Q1267.54 1549.52 1264.46 1544.94 Q1261.4 1540.33 1261.4 1531.6 Q1261.4 1522.85 1264.46 1518.27 Q1267.54 1513.66 1273.35 1513.66 Z" fill="#000000" fill-rule="nonzero" fill-opacity="1" /><path clip-path="url(#clip230)" d="M1772.78 1514.29 L1791.14 1514.29 L1791.14 1518.22 L1777.06 1518.22 L1777.06 1526.7 Q1778.08 1526.35 1779.1 1526.19 Q1780.12 1526 1781.14 1526 Q1786.92 1526 1790.3 1529.17 Q1793.68 1532.34 1793.68 1537.76 Q1793.68 1543.34 1790.21 1546.44 Q1786.74 1549.52 1780.42 1549.52 Q1778.24 1549.52 1775.97 1549.15 Q1773.73 1548.78 1771.32 1548.04 L1771.32 1543.34 Q1773.4 1544.47 1775.63 1545.03 Q1777.85 1545.58 1780.33 1545.58 Q1784.33 1545.58 1786.67 1543.48 Q1789.01 1541.37 1789.01 1537.76 Q1789.01 1534.15 1786.67 1532.04 Q1784.33 1529.94 1780.33 1529.94 Q1778.45 1529.94 1776.58 1530.35 Q1774.72 1530.77 1772.78 1531.65 L1772.78 1514.29 Z" fill="#000000" fill-rule="nonzero" fill-opacity="1" /><path clip-path="url(#clip230)" d="M2266.34 1544.91 L2273.98 1544.91 L2273.98 1518.55 L2265.67 1520.21 L2265.67 1515.95 L2273.94 1514.29 L2278.61 1514.29 L2278.61 1544.91 L2286.25 1544.91 L2286.25 1548.85 L2266.34 1548.85 L2266.34 1544.91 Z" fill="#000000" fill-rule="nonzero" fill-opacity="1" /><path clip-path="url(#clip230)" d="M2305.7 1517.37 Q2302.09 1517.37 2300.26 1520.93 Q2298.45 1524.47 2298.45 1531.6 Q2298.45 1538.71 2300.26 1542.27 Q2302.09 1545.82 2305.7 1545.82 Q2309.33 1545.82 2311.14 1542.27 Q2312.96 1538.71 2312.96 1531.6 Q2312.96 1524.47 2311.14 1520.93 Q2309.33 1517.37 2305.7 1517.37 M2305.7 1513.66 Q2311.51 1513.66 2314.56 1518.27 Q2317.64 1522.85 2317.64 1531.6 Q2317.64 1540.33 2314.56 1544.94 Q2311.51 1549.52 2305.7 1549.52 Q2299.89 1549.52 2296.81 1544.94 Q2293.75 1540.33 2293.75 1531.6 Q2293.75 1522.85 2296.81 1518.27 Q2299.89 1513.66 2305.7 1513.66 Z" fill="#000000" fill-rule="nonzero" fill-opacity="1" /><polyline clip-path="url(#clip230)" style="stroke:#000000; stroke-linecap:round; stroke-linejoin:round; stroke-width:4; stroke-opacity:1; fill:none" points="193.936,1486.45 193.936,47.2441 "/>
<polyline clip-path="url(#clip230)" style="stroke:#000000; stroke-linecap:round; stroke-linejoin:round; stroke-width:4; stroke-opacity:1; fill:none" points="193.936,1445.72 212.834,1445.72 "/>
<polyline clip-path="url(#clip230)" style="stroke:#000000; stroke-linecap:round; stroke-linejoin:round; stroke-width:4; stroke-opacity:1; fill:none" points="193.936,1106.28 212.834,1106.28 "/>
<polyline clip-path="url(#clip230)" style="stroke:#000000; stroke-linecap:round; stroke-linejoin:round; stroke-width:4; stroke-opacity:1; fill:none" points="193.936,766.846 212.834,766.846 "/>
<polyline clip-path="url(#clip230)" style="stroke:#000000; stroke-linecap:round; stroke-linejoin:round; stroke-width:4; stroke-opacity:1; fill:none" points="193.936,427.411 212.834,427.411 "/>
<polyline clip-path="url(#clip230)" style="stroke:#000000; stroke-linecap:round; stroke-linejoin:round; stroke-width:4; stroke-opacity:1; fill:none" points="193.936,87.9761 212.834,87.9761 "/>
<path clip-path="url(#clip230)" d="M50.9921 1446.17 L80.6679 1446.17 L80.6679 1450.1 L50.9921 1450.1 L50.9921 1446.17 Z" fill="#000000" fill-rule="nonzero" fill-opacity="1" /><path clip-path="url(#clip230)" d="M91.5706 1459.06 L99.2095 1459.06 L99.2095 1432.7 L90.8993 1434.36 L90.8993 1430.1 L99.1632 1428.44 L103.839 1428.44 L103.839 1459.06 L111.478 1459.06 L111.478 1463 L91.5706 1463 L91.5706 1459.06 Z" fill="#000000" fill-rule="nonzero" fill-opacity="1" /><path clip-path="url(#clip230)" d="M120.922 1457.12 L125.807 1457.12 L125.807 1463 L120.922 1463 L120.922 1457.12 Z" fill="#000000" fill-rule="nonzero" fill-opacity="1" /><path clip-path="url(#clip230)" d="M145.992 1431.51 Q142.381 1431.51 140.552 1435.08 Q138.746 1438.62 138.746 1445.75 Q138.746 1452.86 140.552 1456.42 Q142.381 1459.96 145.992 1459.96 Q149.626 1459.96 151.431 1456.42 Q153.26 1452.86 153.26 1445.75 Q153.26 1438.62 151.431 1435.08 Q149.626 1431.51 145.992 1431.51 M145.992 1427.81 Q151.802 1427.81 154.857 1432.42 Q157.936 1437 157.936 1445.75 Q157.936 1454.48 154.857 1459.08 Q151.802 1463.67 145.992 1463.67 Q140.181 1463.67 137.103 1459.08 Q134.047 1454.48 134.047 1445.75 Q134.047 1437 137.103 1432.42 Q140.181 1427.81 145.992 1427.81 Z" fill="#000000" fill-rule="nonzero" fill-opacity="1" /><path clip-path="url(#clip230)" d="M51.9875 1106.73 L81.6633 1106.73 L81.6633 1110.67 L51.9875 1110.67 L51.9875 1106.73 Z" fill="#000000" fill-rule="nonzero" fill-opacity="1" /><path clip-path="url(#clip230)" d="M101.756 1092.08 Q98.1447 1092.08 96.316 1095.64 Q94.5104 1099.19 94.5104 1106.32 Q94.5104 1113.42 96.316 1116.99 Q98.1447 1120.53 101.756 1120.53 Q105.39 1120.53 107.196 1116.99 Q109.024 1113.42 109.024 1106.32 Q109.024 1099.19 107.196 1095.64 Q105.39 1092.08 101.756 1092.08 M101.756 1088.38 Q107.566 1088.38 110.621 1092.98 Q113.7 1097.57 113.7 1106.32 Q113.7 1115.04 110.621 1119.65 Q107.566 1124.23 101.756 1124.23 Q95.9456 1124.23 92.8669 1119.65 Q89.8114 1115.04 89.8114 1106.32 Q89.8114 1097.57 92.8669 1092.98 Q95.9456 1088.38 101.756 1088.38 Z" fill="#000000" fill-rule="nonzero" fill-opacity="1" /><path clip-path="url(#clip230)" d="M121.918 1117.68 L126.802 1117.68 L126.802 1123.56 L121.918 1123.56 L121.918 1117.68 Z" fill="#000000" fill-rule="nonzero" fill-opacity="1" /><path clip-path="url(#clip230)" d="M137.033 1089 L155.39 1089 L155.39 1092.94 L141.316 1092.94 L141.316 1101.41 Q142.334 1101.06 143.353 1100.9 Q144.371 1100.71 145.39 1100.71 Q151.177 1100.71 154.556 1103.89 Q157.936 1107.06 157.936 1112.47 Q157.936 1118.05 154.464 1121.15 Q150.992 1124.23 144.672 1124.23 Q142.496 1124.23 140.228 1123.86 Q137.982 1123.49 135.575 1122.75 L135.575 1118.05 Q137.658 1119.19 139.881 1119.74 Q142.103 1120.3 144.58 1120.3 Q148.584 1120.3 150.922 1118.19 Q153.26 1116.08 153.26 1112.47 Q153.26 1108.86 150.922 1106.76 Q148.584 1104.65 144.58 1104.65 Q142.705 1104.65 140.83 1105.07 Q138.978 1105.48 137.033 1106.36 L137.033 1089 Z" fill="#000000" fill-rule="nonzero" fill-opacity="1" /><path clip-path="url(#clip230)" d="M100.76 752.645 Q97.1493 752.645 95.3206 756.209 Q93.515 759.751 93.515 766.881 Q93.515 773.987 95.3206 777.552 Q97.1493 781.094 100.76 781.094 Q104.395 781.094 106.2 777.552 Q108.029 773.987 108.029 766.881 Q108.029 759.751 106.2 756.209 Q104.395 752.645 100.76 752.645 M100.76 748.941 Q106.571 748.941 109.626 753.547 Q112.705 758.131 112.705 766.881 Q112.705 775.608 109.626 780.214 Q106.571 784.797 100.76 784.797 Q94.9502 784.797 91.8715 780.214 Q88.816 775.608 88.816 766.881 Q88.816 758.131 91.8715 753.547 Q94.9502 748.941 100.76 748.941 Z" fill="#000000" fill-rule="nonzero" fill-opacity="1" /><path clip-path="url(#clip230)" d="M120.922 778.246 L125.807 778.246 L125.807 784.126 L120.922 784.126 L120.922 778.246 Z" fill="#000000" fill-rule="nonzero" fill-opacity="1" /><path clip-path="url(#clip230)" d="M145.992 752.645 Q142.381 752.645 140.552 756.209 Q138.746 759.751 138.746 766.881 Q138.746 773.987 140.552 777.552 Q142.381 781.094 145.992 781.094 Q149.626 781.094 151.431 777.552 Q153.26 773.987 153.26 766.881 Q153.26 759.751 151.431 756.209 Q149.626 752.645 145.992 752.645 M145.992 748.941 Q151.802 748.941 154.857 753.547 Q157.936 758.131 157.936 766.881 Q157.936 775.608 154.857 780.214 Q151.802 784.797 145.992 784.797 Q140.181 784.797 137.103 780.214 Q134.047 775.608 134.047 766.881 Q134.047 758.131 137.103 753.547 Q140.181 748.941 145.992 748.941 Z" fill="#000000" fill-rule="nonzero" fill-opacity="1" /><path clip-path="url(#clip230)" d="M101.756 413.21 Q98.1447 413.21 96.316 416.775 Q94.5104 420.316 94.5104 427.446 Q94.5104 434.552 96.316 438.117 Q98.1447 441.659 101.756 441.659 Q105.39 441.659 107.196 438.117 Q109.024 434.552 109.024 427.446 Q109.024 420.316 107.196 416.775 Q105.39 413.21 101.756 413.21 M101.756 409.506 Q107.566 409.506 110.621 414.112 Q113.7 418.696 113.7 427.446 Q113.7 436.173 110.621 440.779 Q107.566 445.362 101.756 445.362 Q95.9456 445.362 92.8669 440.779 Q89.8114 436.173 89.8114 427.446 Q89.8114 418.696 92.8669 414.112 Q95.9456 409.506 101.756 409.506 Z" fill="#000000" fill-rule="nonzero" fill-opacity="1" /><path clip-path="url(#clip230)" d="M121.918 438.811 L126.802 438.811 L126.802 444.691 L121.918 444.691 L121.918 438.811 Z" fill="#000000" fill-rule="nonzero" fill-opacity="1" /><path clip-path="url(#clip230)" d="M137.033 410.131 L155.39 410.131 L155.39 414.066 L141.316 414.066 L141.316 422.538 Q142.334 422.191 143.353 422.029 Q144.371 421.844 145.39 421.844 Q151.177 421.844 154.556 425.015 Q157.936 428.186 157.936 433.603 Q157.936 439.182 154.464 442.284 Q150.992 445.362 144.672 445.362 Q142.496 445.362 140.228 444.992 Q137.982 444.622 135.575 443.881 L135.575 439.182 Q137.658 440.316 139.881 440.872 Q142.103 441.427 144.58 441.427 Q148.584 441.427 150.922 439.321 Q153.26 437.214 153.26 433.603 Q153.26 429.992 150.922 427.886 Q148.584 425.779 144.58 425.779 Q142.705 425.779 140.83 426.196 Q138.978 426.612 137.033 427.492 L137.033 410.131 Z" fill="#000000" fill-rule="nonzero" fill-opacity="1" /><path clip-path="url(#clip230)" d="M91.5706 101.321 L99.2095 101.321 L99.2095 74.9553 L90.8993 76.622 L90.8993 72.3627 L99.1632 70.6961 L103.839 70.6961 L103.839 101.321 L111.478 101.321 L111.478 105.256 L91.5706 105.256 L91.5706 101.321 Z" fill="#000000" fill-rule="nonzero" fill-opacity="1" /><path clip-path="url(#clip230)" d="M120.922 99.3765 L125.807 99.3765 L125.807 105.256 L120.922 105.256 L120.922 99.3765 Z" fill="#000000" fill-rule="nonzero" fill-opacity="1" /><path clip-path="url(#clip230)" d="M145.992 73.7747 Q142.381 73.7747 140.552 77.3395 Q138.746 80.8812 138.746 88.0108 Q138.746 95.1172 140.552 98.682 Q142.381 102.224 145.992 102.224 Q149.626 102.224 151.431 98.682 Q153.26 95.1172 153.26 88.0108 Q153.26 80.8812 151.431 77.3395 Q149.626 73.7747 145.992 73.7747 M145.992 70.0711 Q151.802 70.0711 154.857 74.6775 Q157.936 79.2608 157.936 88.0108 Q157.936 96.7376 154.857 101.344 Q151.802 105.927 145.992 105.927 Q140.181 105.927 137.103 101.344 Q134.047 96.7376 134.047 88.0108 Q134.047 79.2608 137.103 74.6775 Q140.181 70.0711 145.992 70.0711 Z" fill="#000000" fill-rule="nonzero" fill-opacity="1" /><polyline clip-path="url(#clip232)" style="stroke:#009af9; stroke-linecap:round; stroke-linejoin:round; stroke-width:4; stroke-opacity:1; fill:none" points="255.035,397.526 256.053,403.241 257.071,408.992 258.09,414.779 259.108,420.601 260.126,426.457 261.145,432.348 262.163,438.272 263.181,444.229 264.199,450.218 265.218,456.239 266.236,462.291 267.254,468.373 268.273,474.485 269.291,480.626 270.309,486.796 271.328,492.995 272.346,499.22 273.364,505.472 274.383,511.75 275.401,518.054 276.419,524.383 277.438,530.736 278.456,537.113 279.474,543.512 280.492,549.934 281.511,556.378 282.529,562.842 283.547,569.327 284.566,575.832 285.584,582.356 286.602,588.898 287.621,595.458 288.639,602.036 289.657,608.629 290.676,615.239 291.694,621.864 292.712,628.503 293.731,635.156 294.749,641.822 295.767,648.501 296.785,655.191 297.804,661.893 298.822,668.605 299.84,675.327 300.859,682.059 301.877,688.798 302.895,695.546 303.914,702.3 304.932,709.061 305.95,715.828 306.969,722.6 307.987,729.376 309.005,736.157 310.023,742.94 311.042,749.725 312.06,756.513 313.078,763.301 314.097,770.09 315.115,776.878 316.133,783.665 317.152,790.451 318.17,797.234 319.188,804.014 320.207,810.791 321.225,817.563 322.243,824.33 323.262,831.092 324.28,837.847 325.298,844.594 326.316,851.334 327.335,858.066 328.353,864.788 329.371,871.501 330.39,878.203 331.408,884.894 332.426,891.574 333.445,898.24 334.463,904.894 335.481,911.534 336.5,918.159 337.518,924.769 338.536,931.364 339.555,937.942 340.573,944.503 341.591,951.046 342.609,957.571 343.628,964.076 344.646,970.562 345.664,977.028 346.683,983.472 347.701,989.895 348.719,996.296 349.738,1002.67 350.756,1009.03 351.774,1015.36 352.793,1021.66 353.811,1027.94 354.829,1034.19 355.847,1040.42 356.866,1046.62 357.884,1052.79 358.902,1058.93 359.921,1065.05 360.939,1071.13 361.957,1077.19 362.976,1083.21 363.994,1089.2 365.012,1095.16 366.031,1101.08 367.049,1106.97 368.067,1112.83 369.086,1118.66 370.104,1124.44 371.122,1130.2 372.14,1135.91 373.159,1141.59 374.177,1147.23 375.195,1152.84 376.214,1158.4 377.232,1163.93 378.25,1169.41 379.269,1174.86 380.287,1180.27 381.305,1185.63 382.324,1190.95 383.342,1196.23 384.36,1201.47 385.379,1206.66 386.397,1211.81 387.415,1216.92 388.433,1221.98 389.452,1226.99 390.47,1231.96 391.488,1236.88 392.507,1241.75 393.525,1246.58 394.543,1251.36 395.562,1256.09 396.58,1260.77 397.598,1265.41 398.617,1269.99 399.635,1274.52 400.653,1279 401.671,1283.43 402.69,1287.81 403.708,1292.14 404.726,1296.41 405.745,1300.63 406.763,1304.8 407.781,1308.91 408.8,1312.97 409.818,1316.98 410.836,1320.93 411.855,1324.82 412.873,1328.66 413.891,1332.45 414.91,1336.17 415.928,1339.84 416.946,1343.45 417.964,1347.01 418.983,1350.5 420.001,1353.94 421.019,1357.32 422.038,1360.64 423.056,1363.9 424.074,1367.1 425.093,1370.24 426.111,1373.32 427.129,1376.34 428.148,1379.3 429.166,1382.2 430.184,1385.04 431.203,1387.81 432.221,1390.52 433.239,1393.17 434.257,1395.76 435.276,1398.29 436.294,1400.75 437.312,1403.15 438.331,1405.48 439.349,1407.75 440.367,1409.96 441.386,1412.1 442.404,1414.18 443.422,1416.19 444.441,1418.14 445.459,1420.02 446.477,1421.84 447.496,1423.59 448.514,1425.28 449.532,1426.9 450.55,1428.45 451.569,1429.94 452.587,1431.36 453.605,1432.72 454.624,1434 455.642,1435.23 456.66,1436.38 457.679,1437.47 458.697,1438.49 459.715,1439.45 460.734,1440.33 461.752,1441.15 462.77,1441.9 463.788,1442.59 464.807,1443.21 465.825,1443.76 466.843,1444.24 467.862,1444.65 468.88,1445 469.898,1445.28 470.917,1445.49 471.935,1445.63 472.953,1445.7 473.972,1445.71 474.99,1445.65 476.008,1445.52 477.027,1445.32 478.045,1445.06 479.063,1444.73 480.081,1444.33 481.1,1443.86 482.118,1443.32 483.136,1442.72 484.155,1442.05 485.173,1441.31 486.191,1440.5 487.21,1439.63 488.228,1438.69 489.246,1437.68 490.265,1436.61 491.283,1435.47 492.301,1434.26 493.32,1432.98 494.338,1431.64 495.356,1430.23 496.374,1428.76 497.393,1427.22 498.411,1425.61 499.429,1423.94 500.448,1422.2 501.466,1420.39 502.484,1418.53 503.503,1416.59 504.521,1414.59 505.539,1412.53 506.558,1410.4 507.576,1408.2 508.594,1405.95 509.612,1403.63 510.631,1401.24 511.649,1398.79 512.667,1396.28 513.686,1393.71 514.704,1391.07 515.722,1388.37 516.741,1385.61 517.759,1382.78 518.777,1379.9 519.796,1376.95 520.814,1373.94 521.832,1370.88 522.851,1367.75 523.869,1364.56 524.887,1361.31 525.905,1358 526.924,1354.63 527.942,1351.21 528.96,1347.72 529.979,1344.18 530.997,1340.58 532.015,1336.92 533.034,1333.21 534.052,1329.44 535.07,1325.61 536.089,1321.73 537.107,1317.79 538.125,1313.79 539.144,1309.75 540.162,1305.64 541.18,1301.49 542.198,1297.28 543.217,1293.01 544.235,1288.7 545.253,1284.33 546.272,1279.91 547.29,1275.44 548.308,1270.92 549.327,1266.34 550.345,1261.72 551.363,1257.05 552.382,1252.33 553.4,1247.56 554.418,1242.74 555.437,1237.88 556.455,1232.96 557.473,1228.01 558.491,1223 559.51,1217.95 560.528,1212.85 561.546,1207.71 562.565,1202.53 563.583,1197.3 564.601,1192.03 565.62,1186.72 566.638,1181.36 567.656,1175.97 568.675,1170.53 569.693,1165.05 570.711,1159.53 571.729,1153.97 572.748,1148.38 573.766,1142.74 574.784,1137.07 575.803,1131.36 576.821,1125.62 577.839,1119.84 578.858,1114.02 579.876,1108.17 580.894,1102.28 581.913,1096.37 582.931,1090.41 583.949,1084.43 584.968,1078.41 585.986,1072.37 587.004,1066.29 588.022,1060.18 589.041,1054.05 590.059,1047.88 591.077,1041.69 592.096,1035.47 593.114,1029.22 594.132,1022.94 595.151,1016.64 596.169,1010.32 597.187,1003.97 598.206,997.597 599.224,991.201 600.242,984.782 601.261,978.342 602.279,971.881 603.297,965.399 604.315,958.897 605.334,952.376 606.352,945.837 607.37,939.28 608.389,932.705 609.407,926.114 610.425,919.507 611.444,912.884 612.462,906.248 613.48,899.597 614.499,892.932 615.517,886.256 616.535,879.567 617.553,872.867 618.572,866.156 619.59,859.436 620.608,852.706 621.627,845.968 622.645,839.221 623.663,832.468 624.682,825.708 625.7,818.942 626.718,812.171 627.737,805.395 628.755,798.615 629.773,791.833 630.792,785.047 631.81,778.26 632.828,771.472 633.846,764.684 634.865,757.895 635.883,751.108 636.901,744.322 637.92,737.538 638.938,730.757 639.956,723.98 640.975,717.207 641.993,710.439 643.011,703.677 644.03,696.921 645.048,690.172 646.066,683.431 647.085,676.698 648.103,669.974 649.121,663.259 650.139,656.555 651.158,649.863 652.176,643.181 653.194,636.513 654.213,629.857 655.231,623.215 656.249,616.587 657.268,609.974 658.286,603.377 659.304,596.797 660.323,590.233 661.341,583.687 662.359,577.159 663.377,570.65 664.396,564.161 665.414,557.693 666.432,551.245 667.451,544.818 668.469,538.414 669.487,532.033 670.506,525.675 671.524,519.341 672.542,513.032 673.561,506.749 674.579,500.491 675.597,494.26 676.616,488.057 677.634,481.881 678.652,475.734 679.67,469.615 680.689,463.527 681.707,457.469 682.725,451.442 683.744,445.446 684.762,439.482 685.78,433.552 686.799,427.654 687.817,421.791 688.835,415.962 689.854,410.168 690.872,404.409 691.89,398.687 692.909,393.002 693.927,387.354 694.945,381.744 695.963,376.173 696.982,370.641 698,365.148 699.018,359.696 700.037,354.284 701.055,348.913 702.073,343.584 703.092,338.298 704.11,333.054 705.128,327.854 706.147,322.698 707.165,317.586 708.183,312.519 709.202,307.498 710.22,302.522 711.238,297.593 712.256,292.711 713.275,287.876 714.293,283.089 715.311,278.35 716.33,273.661 717.348,269.02 718.366,264.43 719.385,259.889 720.403,255.4 721.421,250.961 722.44,246.574 723.458,242.239 724.476,237.957 725.494,233.727 726.513,229.551 727.531,225.429 728.549,221.36 729.568,217.346 730.586,213.388 731.604,209.484 732.623,205.636 733.641,201.845 734.659,198.109 735.678,194.431 736.696,190.81 737.714,187.247 738.733,183.741 739.751,180.294 740.769,176.905 741.787,173.576 742.806,170.306 743.824,167.095 744.842,163.945 745.861,160.854 746.879,157.825 747.897,154.856 748.916,151.948 749.934,149.102 750.952,146.318 751.971,143.596 752.989,140.936 754.007,138.338 755.026,135.804 756.044,133.332 757.062,130.924 758.08,128.58 759.099,126.299 760.117,124.083 761.135,121.93 762.154,119.842 763.172,117.819 764.19,115.861 765.209,113.968 766.227,112.14 767.245,110.378 768.264,108.681 769.282,107.05 770.3,105.485 771.318,103.987 772.337,102.554 773.355,101.188 774.373,99.8885 775.392,98.6556 776.41,97.4897 777.428,96.3906 778.447,95.3586 779.465,94.3937 780.483,93.4961 781.502,92.6658 782.52,91.903 783.538,91.2076 784.557,90.5798 785.575,90.0196 786.593,89.5271 787.611,89.1023 788.63,88.7454 789.648,88.4562 790.666,88.2348 791.685,88.0813 792.703,87.9957 793.721,87.978 794.74,88.0282 795.758,88.1462 796.776,88.3321 797.795,88.5859 798.813,88.9075 799.831,89.2968 800.85,89.754 801.868,90.2788 802.886,90.8713 803.904,91.5314 804.923,92.259 805.941,93.0541 806.959,93.9166 807.978,94.8464 808.996,95.8433 810.014,96.9074 811.033,98.0384 812.051,99.2363 813.069,100.501 814.088,101.832 815.106,103.23 816.124,104.694 817.142,106.225 818.161,107.821 819.179,109.484 820.197,111.212 821.216,113.005 822.234,114.864 823.252,116.789 824.271,118.778 825.289,120.832 826.307,122.951 827.326,125.134 828.344,127.381 829.362,129.692 830.381,132.067 831.399,134.505 832.417,137.007 833.435,139.571 834.454,142.199 835.472,144.888 836.49,147.64 837.509,150.454 838.527,153.33 839.545,156.267 840.564,159.265 841.582,162.323 842.6,165.442 843.619,168.622 844.637,171.861 845.655,175.159 846.674,178.517 847.692,181.934 848.71,185.409 849.728,188.942 850.747,192.533 851.765,196.182 852.783,199.887 853.802,203.649 854.82,207.468 855.838,211.342 856.857,215.272 857.875,219.257 858.893,223.297 859.912,227.392 860.93,231.54 861.948,235.742 862.967,239.997 863.985,244.304 865.003,248.664 866.021,253.076 867.04,257.539 868.058,262.052 869.076,266.617 870.095,271.231 871.113,275.895 872.131,280.608 873.15,285.37 874.168,290.18 875.186,295.038 876.205,299.942 877.223,304.894 878.241,309.891 879.259,314.935 880.278,320.023 881.296,325.156 882.314,330.333 883.333,335.554 884.351,340.819 885.369,346.125 886.388,351.474 887.406,356.864 888.424,362.296 889.443,367.767 890.461,373.279 891.479,378.83 892.498,384.42 893.516,390.048 894.534,395.714 895.552,401.417 896.571,407.156 897.589,412.932 898.607,418.742 899.626,424.588 900.644,430.468 901.662,436.381 902.681,442.328 903.699,448.307 904.717,454.317 905.736,460.359 906.754,466.432 907.772,472.535 908.791,478.667 909.809,484.828 910.827,491.017 911.845,497.234 912.864,503.478 913.882,509.748 914.9,516.044 915.919,522.364 916.937,528.71 917.955,535.079 918.974,541.471 919.992,547.886 921.01,554.323 922.029,560.781 923.047,567.259 924.065,573.758 925.083,580.276 926.102,586.812 927.12,593.367 928.138,599.939 929.157,606.527 930.175,613.132 931.193,619.752 932.212,626.386 933.23,633.035 934.248,639.697 935.267,646.372 936.285,653.059 937.303,659.757 938.322,666.466 939.34,673.185 940.358,679.913 941.376,686.65 942.395,693.396 943.413,700.148 944.431,706.907 945.45,713.672 946.468,720.443 947.486,727.218 948.505,733.997 949.523,740.779 950.541,747.564 951.56,754.35 952.578,761.139 953.596,767.927 954.615,774.716 955.633,781.503 956.651,788.29 957.669,795.074 958.688,801.855 959.706,808.633 960.724,815.407 961.743,822.175 962.761,828.939 963.779,835.696 964.798,842.446 965.816,849.188 966.834,855.923 967.853,862.648 968.871,869.364 969.889,876.07 970.908,882.764 971.926,889.447 972.944,896.118 973.962,902.776 974.981,909.42 975.999,916.05 977.017,922.666 978.036,929.265 979.054,935.848 980.072,942.415 981.091,948.964 982.109,955.494 983.127,962.006 984.146,968.498 985.164,974.971 986.182,981.422 987.2,987.852 988.219,994.259 989.237,1000.64 990.255,1007.01 991.274,1013.34 992.292,1019.66 993.31,1025.94 994.329,1032.21 995.347,1038.44 996.365,1044.65 997.384,1050.83 998.402,1056.98 999.42,1063.1 1000.44,1069.2 1001.46,1075.26 1002.48,1081.29 1003.49,1087.29 1004.51,1093.26 1005.53,1099.2 1006.55,1105.1 1007.57,1110.97 1008.59,1116.8 1009.6,1122.6 1010.62,1128.37 1011.64,1134.1 1012.66,1139.79 1013.68,1145.44 1014.69,1151.06 1015.71,1156.63 1016.73,1162.17 1017.75,1167.67 1018.77,1173.13 1019.79,1178.55 1020.8,1183.93 1021.82,1189.26 1022.84,1194.55 1023.86,1199.81 1024.88,1205.01 1025.9,1210.18 1026.91,1215.29 1027.93,1220.37 1028.95,1225.4 1029.97,1230.38 1030.99,1235.32 1032.01,1240.21 1033.02,1245.05 1034.04,1249.84 1035.06,1254.59 1036.08,1259.29 1037.1,1263.94 1038.12,1268.53 1039.13,1273.08 1040.15,1277.58 1041.17,1282.03 1042.19,1286.42 1043.21,1290.77 1044.23,1295.06 1045.24,1299.29 1046.26,1303.48 1047.28,1307.61 1048.3,1311.69 1049.32,1315.71 1050.34,1319.68 1051.35,1323.59 1052.37,1327.45 1053.39,1331.25 1054.41,1334.99 1055.43,1338.68 1056.45,1342.31 1057.46,1345.88 1058.48,1349.4 1059.5,1352.85 1060.52,1356.25 1061.54,1359.59 1062.56,1362.87 1063.57,1366.09 1064.59,1369.25 1065.61,1372.35 1066.63,1375.39 1067.65,1378.37 1068.67,1381.28 1069.68,1384.14 1070.7,1386.93 1071.72,1389.67 1072.74,1392.34 1073.76,1394.94 1074.78,1397.49 1075.79,1399.97 1076.81,1402.39 1077.83,1404.74 1078.85,1407.03 1079.87,1409.26 1080.89,1411.42 1081.9,1413.52 1082.92,1415.55 1083.94,1417.52 1084.96,1419.43 1085.98,1421.27 1086.99,1423.04 1088.01,1424.75 1089.03,1426.39 1090.05,1427.96 1091.07,1429.47 1092.09,1430.91 1093.1,1432.29 1094.12,1433.6 1095.14,1434.84 1096.16,1436.02 1097.18,1437.13 1098.2,1438.17 1099.21,1439.15 1100.23,1440.06 1101.25,1440.9 1102.27,1441.67 1103.29,1442.38 1104.31,1443.02 1105.32,1443.59 1106.34,1444.09 1107.36,1444.53 1108.38,1444.89 1109.4,1445.19 1110.42,1445.43 1111.43,1445.59 1112.45,1445.69 1113.47,1445.72 1114.49,1445.68 1115.51,1445.57 1116.53,1445.39 1117.54,1445.15 1118.56,1444.84 1119.58,1444.46 1120.6,1444.02 1121.62,1443.5 1122.64,1442.92 1123.65,1442.27 1124.67,1441.55 1125.69,1440.77 1126.71,1439.92 1127.73,1439 1128.75,1438.01 1129.76,1436.96 1130.78,1435.84 1131.8,1434.65 1132.82,1433.4 1133.84,1432.08 1134.86,1430.69 1135.87,1429.24 1136.89,1427.72 1137.91,1426.13 1138.93,1424.48 1139.95,1422.76 1140.97,1420.98 1141.98,1419.13 1143,1417.21 1144.02,1415.24 1145.04,1413.19 1146.06,1411.08 1147.08,1408.91 1148.09,1406.67 1149.11,1404.37 1150.13,1402.01 1151.15,1399.58 1152.17,1397.09 1153.19,1394.53 1154.2,1391.92 1155.22,1389.24 1156.24,1386.49 1157.26,1383.69 1158.28,1380.82 1159.3,1377.9 1160.31,1374.91 1161.33,1371.86 1162.35,1368.75 1163.37,1365.58 1164.39,1362.35 1165.4,1359.06 1166.42,1355.71 1167.44,1352.31 1168.46,1348.84 1169.48,1345.32 1170.5,1341.73 1171.51,1338.1 1172.53,1334.4 1173.55,1330.65 1174.57,1326.84 1175.59,1322.97 1176.61,1319.05 1177.62,1315.07 1178.64,1311.04 1179.66,1306.96 1180.68,1302.82 1181.7,1298.62 1182.72,1294.38 1183.73,1290.08 1184.75,1285.73 1185.77,1281.32 1186.79,1276.87 1187.81,1272.36 1188.83,1267.81 1189.84,1263.2 1190.86,1258.54 1191.88,1253.84 1192.9,1249.08 1193.92,1244.28 1194.94,1239.43 1195.95,1234.53 1196.97,1229.59 1197.99,1224.6 1199.01,1219.56 1200.03,1214.48 1201.05,1209.36 1202.06,1204.19 1203.08,1198.97 1204.1,1193.71 1205.12,1188.41 1206.14,1183.07 1207.16,1177.69 1208.17,1172.26 1209.19,1166.8 1210.21,1161.29 1211.23,1155.75 1212.25,1150.16 1213.27,1144.54 1214.28,1138.88 1215.3,1133.19 1216.32,1127.45 1217.34,1121.68 1218.36,1115.88 1219.38,1110.04 1220.39,1104.16 1221.41,1098.25 1222.43,1092.31 1223.45,1086.34 1224.47,1080.33 1225.49,1074.3 1226.5,1068.23 1227.52,1062.13 1228.54,1056 1229.56,1049.85 1230.58,1043.66 1231.6,1037.45 1232.61,1031.21 1233.63,1024.94 1234.65,1018.65 1235.67,1012.34 1236.69,1005.99 1237.71,999.629 1238.72,993.24 1239.74,986.829 1240.76,980.396 1241.78,973.941 1242.8,967.466 1243.81,960.97 1244.83,954.456 1245.85,947.922 1246.87,941.37 1247.89,934.801 1248.91,928.215 1249.92,921.613 1250.94,914.996 1251.96,908.363 1252.98,901.717 1254,895.057 1255.02,888.384 1256.03,881.699 1257.05,875.002 1258.07,868.295 1259.09,861.578 1260.11,854.851 1261.13,848.115 1262.14,841.371 1263.16,834.62 1264.18,827.862 1265.2,821.098 1266.22,814.328 1267.24,807.554 1268.25,800.775 1269.27,793.994 1270.29,787.209 1271.31,780.422 1272.33,773.635 1273.35,766.846 1274.36,760.057 1275.38,753.269 1276.4,746.483 1277.42,739.698 1278.44,732.917 1279.46,726.138 1280.47,719.364 1281.49,712.594 1282.51,705.83 1283.53,699.072 1284.55,692.321 1285.57,685.577 1286.58,678.841 1287.6,672.114 1288.62,665.397 1289.64,658.69 1290.66,651.993 1291.68,645.308 1292.69,638.635 1293.71,631.975 1294.73,625.329 1295.75,618.696 1296.77,612.079 1297.79,605.477 1298.8,598.891 1299.82,592.322 1300.84,585.77 1301.86,579.236 1302.88,572.722 1303.9,566.226 1304.91,559.751 1305.93,553.296 1306.95,546.863 1307.97,540.452 1308.99,534.063 1310.01,527.698 1311.02,521.356 1312.04,515.039 1313.06,508.748 1314.08,502.482 1315.1,496.242 1316.12,490.03 1317.13,483.845 1318.15,477.688 1319.17,471.561 1320.19,465.463 1321.21,459.395 1322.22,453.358 1323.24,447.352 1324.26,441.378 1325.28,435.437 1326.3,429.529 1327.32,423.655 1328.33,417.815 1329.35,412.009 1330.37,406.24 1331.39,400.506 1332.41,394.809 1333.43,389.149 1334.44,383.527 1335.46,377.943 1336.48,372.399 1337.5,366.893 1338.52,361.428 1339.54,356.003 1340.55,350.619 1341.57,345.277 1342.59,339.977 1343.61,334.72 1344.63,329.506 1345.65,324.336 1346.66,319.21 1347.68,314.128 1348.7,309.092 1349.72,304.102 1350.74,299.158 1351.76,294.261 1352.77,289.411 1353.79,284.609 1354.81,279.855 1355.83,275.149 1356.85,270.493 1357.87,265.887 1358.88,261.33 1359.9,256.824 1360.92,252.369 1361.94,247.966 1362.96,243.615 1363.98,239.315 1364.99,235.069 1366.01,230.876 1367.03,226.736 1368.05,222.65 1369.07,218.619 1370.09,214.643 1371.1,210.721 1372.12,206.856 1373.14,203.046 1374.16,199.293 1375.18,195.597 1376.2,191.957 1377.21,188.375 1378.23,184.851 1379.25,181.386 1380.27,177.978 1381.29,174.63 1382.31,171.341 1383.32,168.111 1384.34,164.942 1385.36,161.832 1386.38,158.783 1387.4,155.795 1388.42,152.868 1389.43,150.002 1390.45,147.198 1391.47,144.456 1392.49,141.776 1393.51,139.159 1394.52,136.604 1395.54,134.113 1396.56,131.684 1397.58,129.32 1398.6,127.019 1399.62,124.782 1400.63,122.609 1401.65,120.5 1402.67,118.457 1403.69,116.478 1404.71,114.564 1405.73,112.715 1406.74,110.932 1407.76,109.214 1408.78,107.563 1409.8,105.977 1410.82,104.457 1411.84,103.003 1412.85,101.616 1413.87,100.295 1414.89,99.0411 1415.91,97.8538 1416.93,96.7334 1417.95,95.68 1418.96,94.6938 1419.98,93.7747 1421,92.923 1422.02,92.1386 1423.04,91.4218 1424.06,90.7724 1425.07,90.1907 1426.09,89.6766 1427.11,89.2303 1428.13,88.8517 1429.15,88.5409 1430.17,88.298 1431.18,88.1229 1432.2,88.0156 1433.22,87.9763 1434.24,88.0048 1435.26,88.1012 1436.28,88.2655 1437.29,88.4977 1438.31,88.7977 1439.33,89.1655 1440.35,89.601 1441.37,90.1043 1442.39,90.6753 1443.4,91.3138 1444.42,92.02 1445.44,92.7936 1446.46,93.6346 1447.48,94.5429 1448.5,95.5185 1449.51,96.5612 1450.53,97.6709 1451.55,98.8475 1452.57,100.091 1453.59,101.401 1454.61,102.778 1455.62,104.221 1456.64,105.73 1457.66,107.306 1458.68,108.947 1459.7,110.654 1460.72,112.427 1461.73,114.265 1462.75,116.169 1463.77,118.137 1464.79,120.171 1465.81,122.269 1466.83,124.431 1467.84,126.658 1468.86,128.949 1469.88,131.304 1470.9,133.722 1471.92,136.203 1472.93,138.748 1473.95,141.355 1474.97,144.025 1475.99,146.757 1477.01,149.551 1478.03,152.407 1479.04,155.325 1480.06,158.303 1481.08,161.342 1482.1,164.442 1483.12,167.603 1484.14,170.823 1485.15,174.102 1486.17,177.441 1487.19,180.839 1488.21,184.296 1489.23,187.81 1490.25,191.383 1491.26,195.013 1492.28,198.701 1493.3,202.445 1494.32,206.245 1495.34,210.102 1496.36,214.014 1497.37,217.982 1498.39,222.005 1499.41,226.082 1500.43,230.213 1501.45,234.397 1502.47,238.635 1503.48,242.926 1504.5,247.27 1505.52,251.665 1506.54,256.111 1507.56,260.609 1508.58,265.158 1509.59,269.756 1510.61,274.404 1511.63,279.102 1512.65,283.848 1513.67,288.643 1514.69,293.485 1515.7,298.375 1516.72,303.311 1517.74,308.294 1518.76,313.323 1519.78,318.397 1520.8,323.516 1521.81,328.68 1522.83,333.887 1523.85,339.137 1524.87,344.43 1525.89,349.766 1526.91,355.143 1527.92,360.561 1528.94,366.02 1529.96,371.519 1530.98,377.058 1532,382.635 1533.02,388.251 1534.03,393.905 1535.05,399.596 1536.07,405.324 1537.09,411.088 1538.11,416.888 1539.13,422.722 1540.14,428.591 1541.16,434.494 1542.18,440.43 1543.2,446.399 1544.22,452.399 1545.24,458.432 1546.25,464.495 1547.27,470.588 1548.29,476.711 1549.31,482.863 1550.33,489.043 1551.34,495.251 1552.36,501.486 1553.38,507.748 1554.4,514.035 1555.42,520.348 1556.44,526.686 1557.45,533.048 1558.47,539.433 1559.49,545.84 1560.51,552.27 1561.53,558.721 1562.55,565.194 1563.56,571.686 1564.58,578.198 1565.6,584.728 1566.62,591.277 1567.64,597.843 1568.66,604.427 1569.67,611.026 1570.69,617.642 1571.71,624.272 1572.73,630.916 1573.75,637.574 1574.77,644.245 1575.78,650.928 1576.8,657.622 1577.82,664.328 1578.84,671.044 1579.86,677.769 1580.88,684.504 1581.89,691.246 1582.91,697.996 1583.93,704.753 1584.95,711.517 1585.97,718.285 1586.99,725.059 1588,731.837 1589.02,738.618 1590.04,745.402 1591.06,752.189 1592.08,758.976 1593.1,765.765 1594.11,772.553 1595.13,779.341 1596.15,786.128 1597.17,792.913 1598.19,799.695 1599.21,806.474 1600.22,813.249 1601.24,820.02 1602.26,826.785 1603.28,833.544 1604.3,840.296 1605.32,847.041 1606.33,853.779 1607.35,860.507 1608.37,867.226 1609.39,873.935 1610.41,880.633 1611.43,887.32 1612.44,893.995 1613.46,900.657 1614.48,907.306 1615.5,913.94 1616.52,920.56 1617.54,927.165 1618.55,933.753 1619.57,940.325 1620.59,946.88 1621.61,953.416 1622.63,959.934 1623.65,966.433 1624.66,972.911 1625.68,979.369 1626.7,985.806 1627.72,992.221 1628.74,998.613 1629.75,1004.98 1630.77,1011.33 1631.79,1017.65 1632.81,1023.94 1633.83,1030.21 1634.85,1036.46 1635.86,1042.67 1636.88,1048.86 1637.9,1055.02 1638.92,1061.16 1639.94,1067.26 1640.96,1073.33 1641.97,1079.37 1642.99,1085.39 1644.01,1091.36 1645.03,1097.31 1646.05,1103.22 1647.07,1109.1 1648.08,1114.95 1649.1,1120.76 1650.12,1126.54 1651.14,1132.28 1652.16,1137.98 1653.18,1143.64 1654.19,1149.27 1655.21,1154.86 1656.23,1160.41 1657.25,1165.92 1658.27,1171.4 1659.29,1176.83 1660.3,1182.22 1661.32,1187.57 1662.34,1192.87 1663.36,1198.14 1664.38,1203.36 1665.4,1208.54 1666.41,1213.67 1667.43,1218.76 1668.45,1223.8 1669.47,1228.8 1670.49,1233.75 1671.51,1238.65 1672.52,1243.51 1673.54,1248.32 1674.56,1253.08 1675.58,1257.8 1676.6,1262.46 1677.62,1267.08 1678.63,1271.64 1679.65,1276.15 1680.67,1280.62 1681.69,1285.03 1682.71,1289.39 1683.73,1293.7 1684.74,1297.95 1685.76,1302.15 1686.78,1306.3 1687.8,1310.39 1688.82,1314.43 1689.84,1318.42 1690.85,1322.35 1691.87,1326.22 1692.89,1330.04 1693.91,1333.8 1694.93,1337.51 1695.95,1341.16 1696.96,1344.75 1697.98,1348.28 1699,1351.76 1700.02,1355.17 1701.04,1358.53 1702.05,1361.83 1703.07,1365.07 1704.09,1368.25 1705.11,1371.37 1706.13,1374.43 1707.15,1377.43 1708.16,1380.36 1709.18,1383.24 1710.2,1386.05 1711.22,1388.8 1712.24,1391.49 1713.26,1394.12 1714.27,1396.69 1715.29,1399.19 1716.31,1401.63 1717.33,1404 1718.35,1406.31 1719.37,1408.56 1720.38,1410.74 1721.4,1412.86 1722.42,1414.91 1723.44,1416.9 1724.46,1418.83 1725.48,1420.69 1726.49,1422.48 1727.51,1424.21 1728.53,1425.87 1729.55,1427.47 1730.57,1429 1731.59,1430.46 1732.6,1431.86 1733.62,1433.19 1734.64,1434.46 1735.66,1435.65 1736.68,1436.78 1737.7,1437.85 1738.71,1438.85 1739.73,1439.78 1740.75,1440.64 1741.77,1441.43 1742.79,1442.16 1743.81,1442.82 1744.82,1443.41 1745.84,1443.94 1746.86,1444.4 1747.88,1444.78 1748.9,1445.11 1749.92,1445.36 1750.93,1445.55 1751.95,1445.66 1752.97,1445.71 1753.99,1445.7 1755.01,1445.61 1756.03,1445.46 1757.04,1445.24 1758.06,1444.95 1759.08,1444.59 1760.1,1444.16 1761.12,1443.67 1762.14,1443.11 1763.15,1442.48 1764.17,1441.79 1765.19,1441.03 1766.21,1440.2 1767.23,1439.3 1768.25,1438.33 1769.26,1437.3 1770.28,1436.2 1771.3,1435.04 1772.32,1433.8 1773.34,1432.5 1774.36,1431.14 1775.37,1429.71 1776.39,1428.21 1777.41,1426.64 1778.43,1425.01 1779.45,1423.31 1780.46,1421.55 1781.48,1419.72 1782.5,1417.83 1783.52,1415.87 1784.54,1413.85 1785.56,1411.76 1786.57,1409.61 1787.59,1407.39 1788.61,1405.11 1789.63,1402.77 1790.65,1400.36 1791.67,1397.89 1792.68,1395.35 1793.7,1392.76 1794.72,1390.1 1795.74,1387.37 1796.76,1384.59 1797.78,1381.74 1798.79,1378.84 1799.81,1375.87 1800.83,1372.84 1801.85,1369.75 1802.87,1366.6 1803.89,1363.39 1804.9,1360.12 1805.92,1356.79 1806.94,1353.4 1807.96,1349.95 1808.98,1346.45 1810,1342.88 1811.01,1339.26 1812.03,1335.58 1813.05,1331.85 1814.07,1328.06 1815.09,1324.21 1816.11,1320.3 1817.12,1316.35 1818.14,1312.33 1819.16,1308.26 1820.18,1304.14 1821.2,1299.96 1822.22,1295.73 1823.23,1291.45 1824.25,1287.12 1825.27,1282.73 1826.29,1278.29 1827.31,1273.8 1828.33,1269.26 1829.34,1264.67 1830.36,1260.03 1831.38,1255.34 1832.4,1250.6 1833.42,1245.82 1834.44,1240.98 1835.45,1236.1 1836.47,1231.17 1837.49,1226.19 1838.51,1221.17 1839.53,1216.11 1840.55,1210.99 1841.56,1205.84 1842.58,1200.64 1843.6,1195.39 1844.62,1190.11 1845.64,1184.78 1846.66,1179.41 1847.67,1174 1848.69,1168.54 1849.71,1163.05 1850.73,1157.52 1851.75,1151.95 1852.77,1146.34 1853.78,1140.69 1854.8,1135 1855.82,1129.28 1856.84,1123.52 1857.86,1117.73 1858.87,1111.9 1859.89,1106.04 1860.91,1100.14 1861.93,1094.21 1862.95,1088.25 1863.97,1082.25 1864.98,1076.22 1866,1070.17 1867.02,1064.08 1868.04,1057.96 1869.06,1051.81 1870.08,1045.64 1871.09,1039.43 1872.11,1033.2 1873.13,1026.94 1874.15,1020.66 1875.17,1014.35 1876.19,1008.02 1877.2,1001.66 1878.22,995.278 1879.24,988.874 1880.26,982.447 1881.28,975.999 1882.3,969.531 1883.31,963.041 1884.33,956.533 1885.35,950.005 1886.37,943.459 1887.39,936.895 1888.41,930.315 1889.42,923.718 1890.44,917.105 1891.46,910.477 1892.48,903.835 1893.5,897.179 1894.52,890.511 1895.53,883.829 1896.55,877.137 1897.57,870.433 1898.59,863.718 1899.61,856.994 1900.63,850.261 1901.64,843.52 1902.66,836.771 1903.68,830.015 1904.7,823.253 1905.72,816.485 1906.74,809.712 1907.75,802.935 1908.77,796.154 1909.79,789.37 1910.81,782.584 1911.83,775.797 1912.85,769.008 1913.86,762.22 1914.88,755.432 1915.9,748.644 1916.92,741.859 1917.94,735.077 1918.96,728.297 1919.97,721.521 1920.99,714.75 1922.01,707.984 1923.03,701.224 1924.05,694.471 1925.07,687.724 1926.08,680.986 1927.1,674.256 1928.12,667.536 1929.14,660.825 1930.16,654.125 1931.18,647.436 1932.19,640.76 1933.21,634.095 1934.23,627.444 1935.25,620.807 1936.27,614.185 1937.28,607.578 1938.3,600.987 1939.32,594.412 1940.34,587.855 1941.36,581.316 1942.38,574.795 1943.39,568.293 1944.41,561.811 1945.43,555.35 1946.45,548.91 1947.47,542.491 1948.49,536.095 1949.5,529.723 1950.52,523.373 1951.54,517.049 1952.56,510.749 1953.58,504.475 1954.6,498.227 1955.61,492.006 1956.63,485.812 1957.65,479.646 1958.67,473.51 1959.69,467.402 1960.71,461.325 1961.72,455.278 1962.74,449.262 1963.76,443.278 1964.78,437.326 1965.8,431.407 1966.82,425.522 1967.83,419.671 1968.85,413.855 1969.87,408.074 1970.89,402.328 1971.91,396.62 1972.93,390.948 1973.94,385.314 1974.96,379.718 1975.98,374.161 1977,368.643 1978.02,363.164 1979.04,357.727 1980.05,352.33 1981.07,346.974 1982.09,341.661 1983.11,336.39 1984.13,331.162 1985.15,325.978 1986.16,320.838 1987.18,315.742 1988.2,310.691 1989.22,305.686 1990.24,300.728 1991.26,295.816 1992.27,290.95 1993.29,286.133 1994.31,281.364 1995.33,276.643 1996.35,271.971 1997.37,267.348 1998.38,262.776 1999.4,258.254 2000.42,253.783 2001.44,249.363 2002.46,244.995 2003.48,240.679 2004.49,236.416 2005.51,232.206 2006.53,228.049 2007.55,223.946 2008.57,219.897 2009.59,215.903 2010.6,211.964 2011.62,208.081 2012.64,204.254 2013.66,200.482 2014.68,196.768 2015.69,193.11 2016.71,189.51 2017.73,185.968 2018.75,182.483 2019.77,179.057 2020.79,175.69 2021.8,172.382 2022.82,169.134 2023.84,165.945 2024.86,162.816 2025.88,159.748 2026.9,156.74 2027.91,153.793 2028.93,150.908 2029.95,148.084 2030.97,145.323 2031.99,142.623 2033.01,139.986 2034.02,137.411 2035.04,134.899 2036.06,132.451 2037.08,130.066 2038.1,127.745 2039.12,125.487 2040.13,123.294 2041.15,121.165 2042.17,119.101 2043.19,117.101 2044.21,115.167 2045.23,113.297 2046.24,111.493 2047.26,109.754 2048.28,108.082 2049.3,106.475 2050.32,104.934 2051.34,103.459 2052.35,102.051 2053.37,100.709 2054.39,99.4333 2055.41,98.2247 2056.43,97.083 2057.45,96.0083 2058.46,95.0006 2059.48,94.0602 2060.5,93.187 2061.52,92.3812 2062.54,91.6428 2063.56,90.9719 2064.57,90.3687 2065.59,89.833 2066.61,89.3651 2067.63,88.9649 2068.65,88.6326 2069.67,88.368 2070.68,88.1713 2071.7,88.0424 2072.72,87.9814 2073.74,87.9884 2074.76,88.0632 2075.78,88.2058 2076.79,88.4164 2077.81,88.6948 2078.83,89.0409 2079.85,89.4549 2080.87,89.9366 2081.89,90.486 2082.9,91.1031 2083.92,91.7877 2084.94,92.5398 2085.96,93.3594 2086.98,94.2463 2087.99,95.2004 2089.01,96.2217 2090.03,97.3101 2091.05,98.4655 2092.07,99.6876 2093.09,100.977 2094.1,102.332 2095.12,103.754 2096.14,105.242 2097.16,106.797 2098.18,108.417 2099.2,110.103 2100.21,111.855 2101.23,113.673 2102.25,115.555 2103.27,117.503 2104.29,119.516 2105.31,121.593 2106.32,123.735 2107.34,125.942 2108.36,128.212 2109.38,130.547 2110.4,132.945 2111.42,135.406 2112.43,137.93 2113.45,140.518 2114.47,143.168 2115.49,145.88 2116.51,148.655 2117.53,151.491 2118.54,154.389 2119.56,157.348 2120.58,160.368 2121.6,163.448 2122.62,166.589 2123.64,169.79 2124.65,173.051 2125.67,176.371 2126.69,179.75 2127.71,183.188 2128.73,186.684 2129.75,190.239 2130.76,193.851 2131.78,197.52 2132.8,201.246 2133.82,205.029 2134.84,208.868 2135.86,212.762 2136.87,216.712 2137.89,220.717 2138.91,224.777 2139.93,228.891 2140.95,233.059 2141.97,237.28 2142.98,241.554 2144,245.88 2145.02,250.259 2146.04,254.689 2147.06,259.171 2148.08,263.703 2149.09,268.286 2150.11,272.918 2151.13,277.6 2152.15,282.331 2153.17,287.11 2154.19,291.937 2155.2,296.812 2156.22,301.734 2157.24,306.702 2158.26,311.716 2159.28,316.776 2160.3,321.881 2161.31,327.03 2162.33,332.223 2163.35,337.46 2164.37,342.74 2165.39,348.062 2166.4,353.426 2167.42,358.831 2168.44,364.277 2169.46,369.763 2170.48,375.289 2171.5,380.855 2172.51,386.458 2173.53,392.1 2174.55,397.779 2175.57,403.496 2176.59,409.248 2177.61,415.036 2178.62,420.86 2179.64,426.718 2180.66,432.61 2181.68,438.536 2182.7,444.494 2183.72,450.485 2184.73,456.507 2185.75,462.56 2186.77,468.644 2187.79,474.757 2188.81,480.9 2189.83,487.071 2190.84,493.27 2191.86,499.497 2192.88,505.75 2193.9,512.03 2194.92,518.335 2195.94,524.665 2196.95,531.019 2197.97,537.396 2198.99,543.797 2200.01,550.22 2201.03,556.664 2202.05,563.13 2203.06,569.616 2204.08,576.121 2205.1,582.646 2206.12,589.189 2207.14,595.75 2208.16,602.328 2209.17,608.922 2210.19,615.533 2211.21,622.158 2212.23,628.798 2213.25,635.452 2214.27,642.118 2215.28,648.798 2216.3,655.489 2217.32,662.191 2218.34,668.904 2219.36,675.626 2220.38,682.358 2221.39,689.098 2222.41,695.845 2223.43,702.6 2224.45,709.362 2225.47,716.129 2226.49,722.901 2227.5,729.677 2228.52,736.458 2229.54,743.241 2230.56,750.027 2231.58,756.814 2232.6,763.602 2233.61,770.391 2234.63,777.179 2235.65,783.967 2236.67,790.752 2237.69,797.535 2238.71,804.316 2239.72,811.092 2240.74,817.864 2241.76,824.631 2242.78,831.392 2243.8,838.146 2244.81,844.894 2245.83,851.633 2246.85,858.365 2247.87,865.087 2248.89,871.799 2249.91,878.501 2250.92,885.191 2251.94,891.87 2252.96,898.536 2253.98,905.189 2255,911.828 2256.02,918.453 2257.03,925.063 2258.05,931.656 2259.07,938.234 2260.09,944.794 2261.11,951.336 2262.13,957.86 2263.14,964.365 2264.16,970.85 2265.18,977.314 2266.2,983.758 2267.22,990.18 2268.24,996.579 2269.25,1002.96 2270.27,1009.31 2271.29,1015.64 2272.31,1021.94 2273.33,1028.22 2274.35,1034.47 2275.36,1040.7 2276.38,1046.9 2277.4,1053.07 2278.42,1059.21 2279.44,1065.32 2280.46,1071.4 2281.47,1077.45 2282.49,1083.47 2283.51,1089.46 2284.53,1095.42 2285.55,1101.34 2286.57,1107.23 2287.58,1113.09 2288.6,1118.91 2289.62,1124.7 2290.64,1130.45 2291.66,1136.17 "/>
<path clip-path="url(#clip230)" d="M265.897 198.898 L623.167 198.898 L623.167 95.2176 L265.897 95.2176  Z" fill="#ffffff" fill-rule="evenodd" fill-opacity="1"/>
<polyline clip-path="url(#clip230)" style="stroke:#000000; stroke-linecap:round; stroke-linejoin:round; stroke-width:4; stroke-opacity:1; fill:none" points="265.897,198.898 623.167,198.898 623.167,95.2176 265.897,95.2176 265.897,198.898 "/>
<polyline clip-path="url(#clip230)" style="stroke:#009af9; stroke-linecap:round; stroke-linejoin:round; stroke-width:4; stroke-opacity:1; fill:none" points="289.884,147.058 433.805,147.058 "/>
<path clip-path="url(#clip230)" d="M476.218 139.176 L476.218 143.203 Q474.412 142.277 472.468 141.815 Q470.523 141.352 468.44 141.352 Q465.269 141.352 463.671 142.324 Q462.097 143.296 462.097 145.24 Q462.097 146.722 463.232 147.578 Q464.366 148.412 467.792 149.176 L469.25 149.5 Q473.787 150.472 475.685 152.254 Q477.606 154.014 477.606 157.185 Q477.606 160.796 474.736 162.902 Q471.889 165.009 466.889 165.009 Q464.806 165.009 462.537 164.592 Q460.292 164.199 457.792 163.388 L457.792 158.99 Q460.153 160.217 462.445 160.842 Q464.736 161.444 466.982 161.444 Q469.991 161.444 471.611 160.426 Q473.231 159.384 473.231 157.509 Q473.231 155.773 472.051 154.847 Q470.894 153.921 466.935 153.064 L465.454 152.717 Q461.495 151.884 459.736 150.171 Q457.977 148.435 457.977 145.426 Q457.977 141.768 460.57 139.778 Q463.162 137.787 467.931 137.787 Q470.292 137.787 472.375 138.134 Q474.458 138.481 476.218 139.176 Z" fill="#000000" fill-rule="nonzero" fill-opacity="1" /><path clip-path="url(#clip230)" d="M484.389 138.412 L488.648 138.412 L488.648 164.338 L484.389 164.338 L484.389 138.412 M484.389 128.319 L488.648 128.319 L488.648 133.713 L484.389 133.713 L484.389 128.319 Z" fill="#000000" fill-rule="nonzero" fill-opacity="1" /><path clip-path="url(#clip230)" d="M519.111 148.689 L519.111 164.338 L514.852 164.338 L514.852 148.828 Q514.852 145.148 513.416 143.319 Q511.981 141.49 509.111 141.49 Q505.662 141.49 503.671 143.69 Q501.68 145.889 501.68 149.685 L501.68 164.338 L497.398 164.338 L497.398 138.412 L501.68 138.412 L501.68 142.44 Q503.208 140.102 505.268 138.944 Q507.352 137.787 510.06 137.787 Q514.528 137.787 516.819 140.565 Q519.111 143.319 519.111 148.689 Z" fill="#000000" fill-rule="nonzero" fill-opacity="1" /><path clip-path="url(#clip230)" d="M552.907 128.366 Q549.805 133.69 548.301 138.898 Q546.796 144.106 546.796 149.453 Q546.796 154.801 548.301 160.055 Q549.828 165.287 552.907 170.588 L549.203 170.588 Q545.731 165.148 543.995 159.893 Q542.282 154.639 542.282 149.453 Q542.282 144.291 543.995 139.06 Q545.708 133.828 549.203 128.366 L552.907 128.366 Z" fill="#000000" fill-rule="nonzero" fill-opacity="1" /><path clip-path="url(#clip230)" d="M582.722 138.412 L573.347 151.027 L583.208 164.338 L578.185 164.338 L570.638 154.152 L563.092 164.338 L558.069 164.338 L568.138 150.773 L558.925 138.412 L563.949 138.412 L570.824 147.648 L577.699 138.412 L582.722 138.412 Z" fill="#000000" fill-rule="nonzero" fill-opacity="1" /><path clip-path="url(#clip230)" d="M588.555 128.366 L592.259 128.366 Q595.731 133.828 597.444 139.06 Q599.18 144.291 599.18 149.453 Q599.18 154.639 597.444 159.893 Q595.731 165.148 592.259 170.588 L588.555 170.588 Q591.634 165.287 593.138 160.055 Q594.666 154.801 594.666 149.453 Q594.666 144.106 593.138 138.898 Q591.634 133.69 588.555 128.366 Z" fill="#000000" fill-rule="nonzero" fill-opacity="1" /></svg>