<?xml version="1.0" encoding="utf-8"?>
<svg xmlns="http://www.w3.org/2000/svg" xmlns:xlink="http://www.w3.org/1999/xlink" width="600" height="400" viewBox="0 0 2400 1600">
<defs>
  <clipPath id="clip790">
    <rect x="0" y="0" width="2400" height="1600"/>
  </clipPath>
</defs>
<path clip-path="url(#clip790)" d="M0 1600 L2400 1600 L2400 8.88178e-14 L0 8.88178e-14  Z" fill="#ffffff" fill-rule="evenodd" fill-opacity="1"/>
<defs>
  <clipPath id="clip791">
    <rect x="480" y="0" width="1681" height="1600"/>
  </clipPath>
</defs>
<path clip-path="url(#clip790)" d="M138.959 1486.45 L2352.76 1486.45 L2352.76 47.2441 L138.959 47.2441  Z" fill="#ffffff" fill-rule="evenodd" fill-opacity="1"/>
<defs>
  <clipPath id="clip792">
    <rect x="138" y="47" width="2215" height="1440"/>
  </clipPath>
</defs>
<polyline clip-path="url(#clip792)" style="stroke:#000000; stroke-linecap:round; stroke-linejoin:round; stroke-width:2; stroke-opacity:0.1; fill:none" points="201.614,1486.45 201.614,47.2441 "/>
<polyline clip-path="url(#clip792)" style="stroke:#000000; stroke-linecap:round; stroke-linejoin:round; stroke-width:2; stroke-opacity:0.1; fill:none" points="723.736,1486.45 723.736,47.2441 "/>
<polyline clip-path="url(#clip792)" style="stroke:#000000; stroke-linecap:round; stroke-linejoin:round; stroke-width:2; stroke-opacity:0.1; fill:none" points="1245.86,1486.45 1245.86,47.2441 "/>
<polyline clip-path="url(#clip792)" style="stroke:#000000; stroke-linecap:round; stroke-linejoin:round; stroke-width:2; stroke-opacity:0.1; fill:none" points="1767.98,1486.45 1767.98,47.2441 "/>
<polyline clip-path="url(#clip792)" style="stroke:#000000; stroke-linecap:round; stroke-linejoin:round; stroke-width:2; stroke-opacity:0.1; fill:none" points="2290.1,1486.45 2290.1,47.2441 "/>
<polyline clip-path="url(#clip792)" style="stroke:#000000; stroke-linecap:round; stroke-linejoin:round; stroke-width:2; stroke-opacity:0.1; fill:none" points="138.959,1445.72 2352.76,1445.72 "/>
<polyline clip-path="url(#clip792)" style="stroke:#000000; stroke-linecap:round; stroke-linejoin:round; stroke-width:2; stroke-opacity:0.1; fill:none" points="138.959,1021.42 2352.76,1021.42 "/>
<polyline clip-path="url(#clip792)" style="stroke:#000000; stroke-linecap:round; stroke-linejoin:round; stroke-width:2; stroke-opacity:0.1; fill:none" points="138.959,597.129 2352.76,597.129 "/>
<polyline clip-path="url(#clip792)" style="stroke:#000000; stroke-linecap:round; stroke-linejoin:round; stroke-width:2; stroke-opacity:0.1; fill:none" points="138.959,172.835 2352.76,172.835 "/>
<polyline clip-path="url(#clip790)" style="stroke:#000000; stroke-linecap:round; stroke-linejoin:round; stroke-width:4; stroke-opacity:1; fill:none" points="138.959,1486.45 2352.76,1486.45 "/>
<polyline clip-path="url(#clip790)" style="stroke:#000000; stroke-linecap:round; stroke-linejoin:round; stroke-width:4; stroke-opacity:1; fill:none" points="201.614,1486.45 201.614,1467.55 "/>
<polyline clip-path="url(#clip790)" style="stroke:#000000; stroke-linecap:round; stroke-linejoin:round; stroke-width:4; stroke-opacity:1; fill:none" points="723.736,1486.45 723.736,1467.55 "/>
<polyline clip-path="url(#clip790)" style="stroke:#000000; stroke-linecap:round; stroke-linejoin:round; stroke-width:4; stroke-opacity:1; fill:none" points="1245.86,1486.45 1245.86,1467.55 "/>
<polyline clip-path="url(#clip790)" style="stroke:#000000; stroke-linecap:round; stroke-linejoin:round; stroke-width:4; stroke-opacity:1; fill:none" points="1767.98,1486.45 1767.98,1467.55 "/>
<polyline clip-path="url(#clip790)" style="stroke:#000000; stroke-linecap:round; stroke-linejoin:round; stroke-width:4; stroke-opacity:1; fill:none" points="2290.1,1486.45 2290.1,1467.55 "/>
<path clip-path="url(#clip790)" d="M201.614 1517.37 Q198.003 1517.37 196.174 1520.93 Q194.369 1524.47 194.369 1531.6 Q194.369 1538.71 196.174 1542.27 Q198.003 1545.82 201.614 1545.82 Q205.248 1545.82 207.054 1542.27 Q208.883 1538.71 208.883 1531.6 Q208.883 1524.47 207.054 1520.93 Q205.248 1517.37 201.614 1517.37 M201.614 1513.66 Q207.424 1513.66 210.48 1518.27 Q213.558 1522.85 213.558 1531.6 Q213.558 1540.33 210.48 1544.94 Q207.424 1549.52 201.614 1549.52 Q195.804 1549.52 192.725 1544.94 Q189.67 1540.33 189.67 1531.6 Q189.67 1522.85 192.725 1518.27 Q195.804 1513.66 201.614 1513.66 Z" fill="#000000" fill-rule="nonzero" fill-opacity="1" /><path clip-path="url(#clip790)" d="M714.118 1544.91 L721.757 1544.91 L721.757 1518.55 L713.447 1520.21 L713.447 1515.95 L721.71 1514.29 L726.386 1514.29 L726.386 1544.91 L734.025 1544.91 L734.025 1548.85 L714.118 1548.85 L714.118 1544.91 Z" fill="#000000" fill-rule="nonzero" fill-opacity="1" /><path clip-path="url(#clip790)" d="M1240.51 1544.91 L1256.83 1544.91 L1256.83 1548.85 L1234.89 1548.85 L1234.89 1544.91 Q1237.55 1542.16 1242.13 1537.53 Q1246.74 1532.88 1247.92 1531.53 Q1250.16 1529.01 1251.04 1527.27 Q1251.95 1525.51 1251.95 1523.82 Q1251.95 1521.07 1250 1519.33 Q1248.08 1517.6 1244.98 1517.6 Q1242.78 1517.6 1240.33 1518.36 Q1237.89 1519.13 1235.12 1520.68 L1235.12 1515.95 Q1237.94 1514.82 1240.39 1514.24 Q1242.85 1513.66 1244.89 1513.66 Q1250.26 1513.66 1253.45 1516.35 Q1256.64 1519.03 1256.64 1523.52 Q1256.64 1525.65 1255.83 1527.57 Q1255.05 1529.47 1252.94 1532.07 Q1252.36 1532.74 1249.26 1535.95 Q1246.16 1539.15 1240.51 1544.91 Z" fill="#000000" fill-rule="nonzero" fill-opacity="1" /><path clip-path="url(#clip790)" d="M1772.23 1530.21 Q1775.58 1530.93 1777.46 1533.2 Q1779.36 1535.47 1779.36 1538.8 Q1779.36 1543.92 1775.84 1546.72 Q1772.32 1549.52 1765.84 1549.52 Q1763.66 1549.52 1761.35 1549.08 Q1759.06 1548.66 1756.6 1547.81 L1756.6 1543.29 Q1758.55 1544.43 1760.86 1545.01 Q1763.18 1545.58 1765.7 1545.58 Q1770.1 1545.58 1772.39 1543.85 Q1774.7 1542.11 1774.7 1538.8 Q1774.7 1535.75 1772.55 1534.03 Q1770.42 1532.3 1766.6 1532.3 L1762.57 1532.3 L1762.57 1528.45 L1766.79 1528.45 Q1770.24 1528.45 1772.07 1527.09 Q1773.89 1525.7 1773.89 1523.11 Q1773.89 1520.45 1772 1519.03 Q1770.12 1517.6 1766.6 1517.6 Q1764.68 1517.6 1762.48 1518.01 Q1760.28 1518.43 1757.64 1519.31 L1757.64 1515.14 Q1760.31 1514.4 1762.62 1514.03 Q1764.96 1513.66 1767.02 1513.66 Q1772.34 1513.66 1775.44 1516.09 Q1778.55 1518.5 1778.55 1522.62 Q1778.55 1525.49 1776.9 1527.48 Q1775.26 1529.45 1772.23 1530.21 Z" fill="#000000" fill-rule="nonzero" fill-opacity="1" /><path clip-path="url(#clip790)" d="M2293.11 1518.36 L2281.31 1536.81 L2293.11 1536.81 L2293.11 1518.36 M2291.88 1514.29 L2297.76 1514.29 L2297.76 1536.81 L2302.69 1536.81 L2302.69 1540.7 L2297.76 1540.7 L2297.76 1548.85 L2293.11 1548.85 L2293.11 1540.7 L2277.51 1540.7 L2277.51 1536.19 L2291.88 1514.29 Z" fill="#000000" fill-rule="nonzero" fill-opacity="1" /><polyline clip-path="url(#clip790)" style="stroke:#000000; stroke-linecap:round; stroke-linejoin:round; stroke-width:4; stroke-opacity:1; fill:none" points="138.959,1486.45 138.959,47.2441 "/>
<polyline clip-path="url(#clip790)" style="stroke:#000000; stroke-linecap:round; stroke-linejoin:round; stroke-width:4; stroke-opacity:1; fill:none" points="138.959,1445.72 157.857,1445.72 "/>
<polyline clip-path="url(#clip790)" style="stroke:#000000; stroke-linecap:round; stroke-linejoin:round; stroke-width:4; stroke-opacity:1; fill:none" points="138.959,1021.42 157.857,1021.42 "/>
<polyline clip-path="url(#clip790)" style="stroke:#000000; stroke-linecap:round; stroke-linejoin:round; stroke-width:4; stroke-opacity:1; fill:none" points="138.959,597.129 157.857,597.129 "/>
<polyline clip-path="url(#clip790)" style="stroke:#000000; stroke-linecap:round; stroke-linejoin:round; stroke-width:4; stroke-opacity:1; fill:none" points="138.959,172.835 157.857,172.835 "/>
<path clip-path="url(#clip790)" d="M91.0151 1431.51 Q87.404 1431.51 85.5753 1435.08 Q83.7697 1438.62 83.7697 1445.75 Q83.7697 1452.86 85.5753 1456.42 Q87.404 1459.96 91.0151 1459.96 Q94.6493 1459.96 96.4548 1456.42 Q98.2835 1452.86 98.2835 1445.75 Q98.2835 1438.62 96.4548 1435.08 Q94.6493 1431.51 91.0151 1431.51 M91.0151 1427.81 Q96.8252 1427.81 99.8808 1432.42 Q102.959 1437 102.959 1445.75 Q102.959 1454.48 99.8808 1459.08 Q96.8252 1463.67 91.0151 1463.67 Q85.2049 1463.67 82.1262 1459.08 Q79.0707 1454.48 79.0707 1445.75 Q79.0707 1437 82.1262 1432.42 Q85.2049 1427.81 91.0151 1427.81 Z" fill="#000000" fill-rule="nonzero" fill-opacity="1" /><path clip-path="url(#clip790)" d="M82.0568 1004.14 L100.413 1004.14 L100.413 1008.08 L86.3392 1008.08 L86.3392 1016.55 Q87.3577 1016.2 88.3762 1016.04 Q89.3947 1015.86 90.4132 1015.86 Q96.2002 1015.86 99.5798 1019.03 Q102.959 1022.2 102.959 1027.61 Q102.959 1033.19 99.4872 1036.29 Q96.015 1039.37 89.6956 1039.37 Q87.5197 1039.37 85.2512 1039 Q83.0058 1038.63 80.5984 1037.89 L80.5984 1033.19 Q82.6818 1034.33 84.904 1034.88 Q87.1262 1035.44 89.603 1035.44 Q93.6076 1035.44 95.9456 1033.33 Q98.2835 1031.23 98.2835 1027.61 Q98.2835 1024 95.9456 1021.9 Q93.6076 1019.79 89.603 1019.79 Q87.728 1019.79 85.8531 1020.21 Q84.0012 1020.62 82.0568 1021.5 L82.0568 1004.14 Z" fill="#000000" fill-rule="nonzero" fill-opacity="1" /><path clip-path="url(#clip790)" d="M51.6634 610.473 L59.3023 610.473 L59.3023 584.108 L50.9921 585.774 L50.9921 581.515 L59.256 579.849 L63.9319 579.849 L63.9319 610.473 L71.5707 610.473 L71.5707 614.409 L51.6634 614.409 L51.6634 610.473 Z" fill="#000000" fill-rule="nonzero" fill-opacity="1" /><path clip-path="url(#clip790)" d="M91.0151 582.927 Q87.404 582.927 85.5753 586.492 Q83.7697 590.034 83.7697 597.163 Q83.7697 604.27 85.5753 607.835 Q87.404 611.376 91.0151 611.376 Q94.6493 611.376 96.4548 607.835 Q98.2835 604.27 98.2835 597.163 Q98.2835 590.034 96.4548 586.492 Q94.6493 582.927 91.0151 582.927 M91.0151 579.224 Q96.8252 579.224 99.8808 583.83 Q102.959 588.413 102.959 597.163 Q102.959 605.89 99.8808 610.497 Q96.8252 615.08 91.0151 615.08 Q85.2049 615.08 82.1262 610.497 Q79.0707 605.89 79.0707 597.163 Q79.0707 588.413 82.1262 583.83 Q85.2049 579.224 91.0151 579.224 Z" fill="#000000" fill-rule="nonzero" fill-opacity="1" /><path clip-path="url(#clip790)" d="M52.6588 186.18 L60.2976 186.18 L60.2976 159.814 L51.9875 161.481 L51.9875 157.222 L60.2513 155.555 L64.9272 155.555 L64.9272 186.18 L72.5661 186.18 L72.5661 190.115 L52.6588 190.115 L52.6588 186.18 Z" fill="#000000" fill-rule="nonzero" fill-opacity="1" /><path clip-path="url(#clip790)" d="M82.0568 155.555 L100.413 155.555 L100.413 159.49 L86.3392 159.49 L86.3392 167.962 Q87.3577 167.615 88.3762 167.453 Q89.3947 167.268 90.4132 167.268 Q96.2002 167.268 99.5798 170.439 Q102.959 173.61 102.959 179.027 Q102.959 184.606 99.4872 187.708 Q96.015 190.786 89.6956 190.786 Q87.5197 190.786 85.2512 190.416 Q83.0058 190.046 80.5984 189.305 L80.5984 184.606 Q82.6818 185.74 84.904 186.296 Q87.1262 186.851 89.603 186.851 Q93.6076 186.851 95.9456 184.745 Q98.2835 182.638 98.2835 179.027 Q98.2835 175.416 95.9456 173.31 Q93.6076 171.203 89.603 171.203 Q87.728 171.203 85.8531 171.62 Q84.0012 172.036 82.0568 172.916 L82.0568 155.555 Z" fill="#000000" fill-rule="nonzero" fill-opacity="1" /><polyline clip-path="url(#clip792)" style="stroke:#009af9; stroke-linecap:round; stroke-linejoin:round; stroke-width:4; stroke-opacity:1; fill:none" points="201.614,1445.72 206.835,1445.71 212.056,1445.68 217.278,1445.64 222.499,1445.58 227.72,1445.5 232.941,1445.41 238.163,1445.3 243.384,1445.17 248.605,1445.03 253.826,1444.87 259.047,1444.69 264.269,1444.49 269.49,1444.28 274.711,1444.05 279.932,1443.81 285.154,1443.54 290.375,1443.26 295.596,1442.97 300.817,1442.65 306.038,1442.32 311.26,1441.97 316.481,1441.61 321.702,1441.23 326.923,1440.83 332.145,1440.41 337.366,1439.98 342.587,1439.53 347.808,1439.06 353.029,1438.58 358.251,1438.08 363.472,1437.56 368.693,1437.03 373.914,1436.47 379.135,1435.91 384.357,1435.32 389.578,1434.72 394.799,1434.1 400.02,1433.46 405.242,1432.81 410.463,1432.14 415.684,1431.45 420.905,1430.75 426.126,1430.03 431.348,1429.29 436.569,1428.53 441.79,1427.76 447.011,1426.97 452.233,1426.16 457.454,1425.34 462.675,1424.5 467.896,1423.64 473.117,1422.77 478.339,1421.88 483.56,1420.97 488.781,1420.05 494.002,1419.1 499.223,1418.15 504.445,1417.17 509.666,1416.18 514.887,1415.17 520.108,1414.14 525.33,1413.1 530.551,1412.04 535.772,1410.96 540.993,1409.86 546.214,1408.75 551.436,1407.62 556.657,1406.48 561.878,1405.31 567.099,1404.13 572.321,1402.94 577.542,1401.72 582.763,1400.49 587.984,1399.25 593.205,1397.98 598.427,1396.7 603.648,1395.4 608.869,1394.09 614.09,1392.76 619.312,1391.41 624.533,1390.04 629.754,1388.66 634.975,1387.26 640.196,1385.84 645.418,1384.41 650.639,1382.95 655.86,1381.49 661.081,1380 666.302,1378.5 671.524,1376.98 676.745,1375.44 681.966,1373.89 687.187,1372.32 692.409,1370.73 697.63,1369.13 702.851,1367.51 708.072,1365.87 713.293,1364.22 718.515,1362.55 723.736,1360.86 728.957,1359.15 734.178,1357.43 739.4,1355.69 744.621,1353.93 749.842,1352.16 755.063,1350.37 760.284,1348.56 765.506,1346.74 770.727,1344.9 775.948,1343.04 781.169,1341.16 786.39,1339.27 791.612,1337.36 796.833,1335.43 802.054,1333.49 807.275,1331.53 812.497,1329.55 817.718,1327.56 822.939,1325.55 828.16,1323.52 833.381,1321.47 838.603,1319.41 843.824,1317.33 849.045,1315.24 854.266,1313.12 859.488,1310.99 864.709,1308.85 869.93,1306.68 875.151,1304.5 880.372,1302.3 885.594,1300.09 890.815,1297.86 896.036,1295.61 901.257,1293.34 906.478,1291.06 911.7,1288.76 916.921,1286.44 922.142,1284.11 927.363,1281.76 932.585,1279.39 937.806,1277.01 943.027,1274.61 948.248,1272.19 953.469,1269.75 958.691,1267.3 963.912,1264.83 969.133,1262.34 974.354,1259.84 979.576,1257.32 984.797,1254.78 990.018,1252.23 995.239,1249.66 1000.46,1247.07 1005.68,1244.46 1010.9,1241.84 1016.12,1239.2 1021.35,1236.55 1026.57,1233.87 1031.79,1231.18 1037.01,1228.48 1042.23,1225.75 1047.45,1223.01 1052.67,1220.25 1057.89,1217.48 1063.12,1214.69 1068.34,1211.88 1073.56,1209.05 1078.78,1206.21 1084,1203.35 1089.22,1200.47 1094.44,1197.58 1099.66,1194.67 1104.88,1191.74 1110.11,1188.8 1115.33,1185.84 1120.55,1182.86 1125.77,1179.86 1130.99,1176.85 1136.21,1173.82 1141.43,1170.77 1146.65,1167.71 1151.88,1164.63 1157.1,1161.53 1162.32,1158.42 1167.54,1155.29 1172.76,1152.14 1177.98,1148.97 1183.2,1145.79 1188.42,1142.59 1193.65,1139.38 1198.87,1136.14 1204.09,1132.89 1209.31,1129.63 1214.53,1126.34 1219.75,1123.04 1224.97,1119.72 1230.19,1116.39 1235.42,1113.04 1240.64,1109.67 1245.86,1106.28 1251.08,1102.88 1256.3,1099.46 1261.52,1096.02 1266.74,1092.57 1271.96,1089.1 1277.18,1085.61 1282.41,1082.1 1287.63,1078.58 1292.85,1075.04 1298.07,1071.49 1303.29,1067.92 1308.51,1064.33 1313.73,1060.72 1318.95,1057.1 1324.18,1053.46 1329.4,1049.8 1334.62,1046.12 1339.84,1042.43 1345.06,1038.72 1350.28,1035 1355.5,1031.26 1360.72,1027.5 1365.95,1023.72 1371.17,1019.93 1376.39,1016.12 1381.61,1012.29 1386.83,1008.45 1392.05,1004.59 1397.27,1000.71 1402.49,996.813 1407.72,992.901 1412.94,988.972 1418.16,985.026 1423.38,981.063 1428.6,977.083 1433.82,973.087 1439.04,969.073 1444.26,965.042 1449.49,960.994 1454.71,956.93 1459.93,952.848 1465.15,948.749 1470.37,944.633 1475.59,940.501 1480.81,936.351 1486.03,932.185 1491.25,928.001 1496.48,923.801 1501.7,919.583 1506.92,915.349 1512.14,911.097 1517.36,906.829 1522.58,902.544 1527.8,898.241 1533.02,893.922 1538.25,889.586 1543.47,885.232 1548.69,880.862 1553.91,876.475 1559.13,872.071 1564.35,867.65 1569.57,863.212 1574.79,858.756 1580.02,854.284 1585.24,849.795 1590.46,845.289 1595.68,840.766 1600.9,836.226 1606.12,831.67 1611.34,827.096 1616.56,822.505 1621.79,817.897 1627.01,813.272 1632.23,808.63 1637.45,803.972 1642.67,799.296 1647.89,794.603 1653.11,789.894 1658.33,785.167 1663.56,780.423 1668.78,775.663 1674,770.885 1679.22,766.091 1684.44,761.279 1689.66,756.451 1694.88,751.605 1700.1,746.743 1705.32,741.864 1710.55,736.967 1715.77,732.054 1720.99,727.124 1726.21,722.176 1731.43,717.212 1736.65,712.231 1741.87,707.233 1747.09,702.218 1752.32,697.185 1757.54,692.136 1762.76,687.07 1767.98,681.987 1773.2,676.887 1778.42,671.77 1783.64,666.636 1788.86,661.485 1794.09,656.318 1799.31,651.133 1804.53,645.931 1809.75,640.712 1814.97,635.476 1820.19,630.223 1825.41,624.954 1830.63,619.667 1835.86,614.363 1841.08,609.043 1846.3,603.705 1851.52,598.351 1856.74,592.979 1861.96,587.59 1867.18,582.185 1872.4,576.762 1877.63,571.323 1882.85,565.867 1888.07,560.393 1893.29,554.903 1898.51,549.396 1903.73,543.871 1908.95,538.33 1914.17,532.772 1919.39,527.196 1924.62,521.604 1929.84,515.995 1935.06,510.369 1940.28,504.726 1945.5,499.066 1950.72,493.389 1955.94,487.695 1961.16,481.984 1966.39,476.256 1971.61,470.511 1976.83,464.749 1982.05,458.97 1987.27,453.174 1992.49,447.361 1997.71,441.532 2002.93,435.685 2008.16,429.821 2013.38,423.94 2018.6,418.043 2023.82,412.128 2029.04,406.196 2034.26,400.248 2039.48,394.282 2044.7,388.3 2049.93,382.3 2055.15,376.284 2060.37,370.25 2065.59,364.2 2070.81,358.132 2076.03,352.048 2081.25,345.947 2086.47,339.828 2091.7,333.693 2096.92,327.541 2102.14,321.372 2107.36,315.185 2112.58,308.982 2117.8,302.762 2123.02,296.525 2128.24,290.271 2133.46,284 2138.69,277.712 2143.91,271.407 2149.13,265.085 2154.35,258.746 2159.57,252.39 2164.79,246.017 2170.01,239.627 2175.23,233.22 2180.46,226.797 2185.68,220.356 2190.9,213.898 2196.12,207.423 2201.34,200.932 2206.56,194.423 2211.78,187.897 2217,181.355 2222.23,174.795 2227.45,168.219 2232.67,161.625 2237.89,155.015 2243.11,148.387 2248.33,141.743 2253.55,135.081 2258.77,128.403 2264,121.708 2269.22,114.995 2274.44,108.266 2279.66,101.52 2284.88,94.7565 2290.1,87.9763 "/>
<polyline clip-path="url(#clip792)" style="stroke:#e26f46; stroke-linecap:round; stroke-linejoin:round; stroke-width:4; stroke-opacity:1; fill:none" points="723.736,1445.72 1245.86,1106.28 1767.98,766.846 2290.1,427.411 "/>
<path clip-path="url(#clip790)" d="M212.753 250.738 L823.482 250.738 L823.482 95.2176 L212.753 95.2176  Z" fill="#ffffff" fill-rule="evenodd" fill-opacity="1"/>
<polyline clip-path="url(#clip790)" style="stroke:#000000; stroke-linecap:round; stroke-linejoin:round; stroke-width:4; stroke-opacity:1; fill:none" points="212.753,250.738 823.482,250.738 823.482,95.2176 212.753,95.2176 212.753,250.738 "/>
<polyline clip-path="url(#clip790)" style="stroke:#009af9; stroke-linecap:round; stroke-linejoin:round; stroke-width:4; stroke-opacity:1; fill:none" points="237.35,147.058 384.937,147.058 "/>
<path clip-path="url(#clip790)" d="M426.039 128.319 L426.039 131.861 L421.965 131.861 Q419.673 131.861 418.771 132.787 Q417.891 133.713 417.891 136.12 L417.891 138.412 L424.905 138.412 L424.905 141.722 L417.891 141.722 L417.891 164.338 L413.609 164.338 L413.609 141.722 L409.535 141.722 L409.535 138.412 L413.609 138.412 L413.609 136.606 Q413.609 132.278 415.622 130.31 Q417.636 128.319 422.011 128.319 L426.039 128.319 Z" fill="#000000" fill-rule="nonzero" fill-opacity="1" /><path clip-path="url(#clip790)" d="M439.835 128.366 Q436.733 133.69 435.229 138.898 Q433.724 144.106 433.724 149.453 Q433.724 154.801 435.229 160.055 Q436.757 165.287 439.835 170.588 L436.132 170.588 Q432.659 165.148 430.923 159.893 Q429.21 154.639 429.21 149.453 Q429.21 144.291 430.923 139.06 Q432.636 133.828 436.132 128.366 L439.835 128.366 Z" fill="#000000" fill-rule="nonzero" fill-opacity="1" /><path clip-path="url(#clip790)" d="M469.65 138.412 L460.275 151.027 L470.136 164.338 L465.113 164.338 L457.567 154.152 L450.02 164.338 L444.997 164.338 L455.067 150.773 L445.854 138.412 L450.877 138.412 L457.752 147.648 L464.627 138.412 L469.65 138.412 Z" fill="#000000" fill-rule="nonzero" fill-opacity="1" /><path clip-path="url(#clip790)" d="M475.483 128.366 L479.187 128.366 Q482.659 133.828 484.372 139.06 Q486.108 144.291 486.108 149.453 Q486.108 154.639 484.372 159.893 Q482.659 165.148 479.187 170.588 L475.483 170.588 Q478.562 165.287 480.067 160.055 Q481.594 154.801 481.594 149.453 Q481.594 144.106 480.067 138.898 Q478.562 133.69 475.483 128.366 Z" fill="#000000" fill-rule="nonzero" fill-opacity="1" /><path clip-path="url(#clip790)" d="M510.275 142.81 L539.951 142.81 L539.951 146.699 L510.275 146.699 L510.275 142.81 M510.275 152.254 L539.951 152.254 L539.951 156.189 L510.275 156.189 L510.275 152.254 Z" fill="#000000" fill-rule="nonzero" fill-opacity="1" /><path clip-path="url(#clip790)" d="M586.061 138.412 L576.686 151.027 L586.548 164.338 L581.524 164.338 L573.978 154.152 L566.432 164.338 L561.409 164.338 L571.478 150.773 L562.265 138.412 L567.288 138.412 L574.163 147.648 L581.038 138.412 L586.061 138.412 Z" fill="#000000" fill-rule="nonzero" fill-opacity="1" /><path clip-path="url(#clip790)" d="M610.228 129.778 L622.797 142.671 L618.145 142.671 L607.959 133.528 L597.774 142.671 L593.122 142.671 L605.691 129.778 L610.228 129.778 Z" fill="#000000" fill-rule="nonzero" fill-opacity="1" /><path clip-path="url(#clip790)" d="M636.918 160.402 L653.237 160.402 L653.237 164.338 L631.293 164.338 L631.293 160.402 Q633.955 157.648 638.538 153.018 Q643.144 148.365 644.325 147.023 Q646.57 144.5 647.45 142.764 Q648.353 141.004 648.353 139.315 Q648.353 136.56 646.408 134.824 Q644.487 133.088 641.385 133.088 Q639.186 133.088 636.732 133.852 Q634.302 134.615 631.524 136.166 L631.524 131.444 Q634.348 130.31 636.802 129.731 Q639.256 129.153 641.293 129.153 Q646.663 129.153 649.857 131.838 Q653.052 134.523 653.052 139.014 Q653.052 141.143 652.242 143.065 Q651.455 144.963 649.348 147.555 Q648.769 148.227 645.668 151.444 Q642.566 154.639 636.918 160.402 Z" fill="#000000" fill-rule="nonzero" fill-opacity="1" /><polyline clip-path="url(#clip790)" style="stroke:#e26f46; stroke-linecap:round; stroke-linejoin:round; stroke-width:4; stroke-opacity:1; fill:none" points="237.35,198.898 384.937,198.898 "/>
<path clip-path="url(#clip790)" d="M409.535 181.618 L438.771 181.618 L438.771 185.553 L426.502 185.553 L426.502 216.178 L421.803 216.178 L421.803 185.553 L409.535 185.553 L409.535 181.618 Z" fill="#000000" fill-rule="nonzero" fill-opacity="1" /><path clip-path="url(#clip790)" d="M447.034 203.145 Q441.872 203.145 439.882 204.326 Q437.891 205.506 437.891 208.354 Q437.891 210.622 439.372 211.965 Q440.877 213.284 443.446 213.284 Q446.988 213.284 449.118 210.784 Q451.27 208.261 451.27 204.094 L451.27 203.145 L447.034 203.145 M455.53 201.386 L455.53 216.178 L451.27 216.178 L451.27 212.242 Q449.812 214.603 447.636 215.738 Q445.46 216.849 442.312 216.849 Q438.331 216.849 435.97 214.627 Q433.632 212.381 433.632 208.631 Q433.632 204.256 436.548 202.034 Q439.488 199.812 445.298 199.812 L451.27 199.812 L451.27 199.395 Q451.27 196.455 449.326 194.858 Q447.405 193.238 443.909 193.238 Q441.687 193.238 439.581 193.77 Q437.474 194.303 435.53 195.367 L435.53 191.432 Q437.868 190.53 440.067 190.09 Q442.266 189.627 444.349 189.627 Q449.974 189.627 452.752 192.543 Q455.53 195.46 455.53 201.386 Z" fill="#000000" fill-rule="nonzero" fill-opacity="1" /><path clip-path="url(#clip790)" d="M485.854 200.529 L485.854 216.178 L481.594 216.178 L481.594 200.668 Q481.594 196.988 480.159 195.159 Q478.724 193.33 475.854 193.33 Q472.405 193.33 470.414 195.53 Q468.423 197.729 468.423 201.525 L468.423 216.178 L464.141 216.178 L464.141 190.252 L468.423 190.252 L468.423 194.28 Q469.951 191.942 472.011 190.784 Q474.094 189.627 476.803 189.627 Q481.27 189.627 483.562 192.405 Q485.854 195.159 485.854 200.529 Z" fill="#000000" fill-rule="nonzero" fill-opacity="1" /><path clip-path="url(#clip790)" d="M511.409 202.914 Q511.409 198.284 509.488 195.738 Q507.59 193.192 504.141 193.192 Q500.715 193.192 498.793 195.738 Q496.895 198.284 496.895 202.914 Q496.895 207.52 498.793 210.066 Q500.715 212.613 504.141 212.613 Q507.59 212.613 509.488 210.066 Q511.409 207.52 511.409 202.914 M515.668 212.96 Q515.668 219.58 512.728 222.798 Q509.789 226.039 503.724 226.039 Q501.479 226.039 499.488 225.691 Q497.497 225.367 495.622 224.673 L495.622 220.529 Q497.497 221.548 499.326 222.034 Q501.154 222.52 503.053 222.52 Q507.242 222.52 509.326 220.321 Q511.409 218.145 511.409 213.724 L511.409 211.617 Q510.09 213.909 508.029 215.043 Q505.969 216.178 503.099 216.178 Q498.33 216.178 495.414 212.543 Q492.497 208.909 492.497 202.914 Q492.497 196.895 495.414 193.261 Q498.33 189.627 503.099 189.627 Q505.969 189.627 508.029 190.761 Q510.09 191.895 511.409 194.187 L511.409 190.252 L515.668 190.252 L515.668 212.96 Z" fill="#000000" fill-rule="nonzero" fill-opacity="1" /><path clip-path="url(#clip790)" d="M546.617 202.15 L546.617 204.233 L527.034 204.233 Q527.312 208.631 529.673 210.946 Q532.057 213.238 536.293 213.238 Q538.747 213.238 541.038 212.636 Q543.353 212.034 545.622 210.83 L545.622 214.858 Q543.33 215.83 540.923 216.34 Q538.515 216.849 536.039 216.849 Q529.835 216.849 526.201 213.238 Q522.59 209.627 522.59 203.469 Q522.59 197.104 526.015 193.377 Q529.464 189.627 535.298 189.627 Q540.529 189.627 543.562 193.006 Q546.617 196.363 546.617 202.15 M542.358 200.9 Q542.312 197.405 540.39 195.321 Q538.492 193.238 535.344 193.238 Q531.779 193.238 529.627 195.252 Q527.497 197.266 527.173 200.923 L542.358 200.9 Z" fill="#000000" fill-rule="nonzero" fill-opacity="1" /><path clip-path="url(#clip790)" d="M575.159 200.529 L575.159 216.178 L570.899 216.178 L570.899 200.668 Q570.899 196.988 569.464 195.159 Q568.029 193.33 565.159 193.33 Q561.71 193.33 559.719 195.53 Q557.728 197.729 557.728 201.525 L557.728 216.178 L553.446 216.178 L553.446 190.252 L557.728 190.252 L557.728 194.28 Q559.256 191.942 561.316 190.784 Q563.399 189.627 566.108 189.627 Q570.575 189.627 572.867 192.405 Q575.159 195.159 575.159 200.529 Z" fill="#000000" fill-rule="nonzero" fill-opacity="1" /><path clip-path="url(#clip790)" d="M587.867 182.891 L587.867 190.252 L596.64 190.252 L596.64 193.562 L587.867 193.562 L587.867 207.636 Q587.867 210.807 588.723 211.71 Q589.603 212.613 592.265 212.613 L596.64 212.613 L596.64 216.178 L592.265 216.178 Q587.335 216.178 585.46 214.349 Q583.585 212.497 583.585 207.636 L583.585 193.562 L580.46 193.562 L580.46 190.252 L583.585 190.252 L583.585 182.891 L587.867 182.891 Z" fill="#000000" fill-rule="nonzero" fill-opacity="1" /><path clip-path="url(#clip790)" d="M629.094 203.145 Q623.932 203.145 621.941 204.326 Q619.95 205.506 619.95 208.354 Q619.95 210.622 621.432 211.965 Q622.936 213.284 625.506 213.284 Q629.047 213.284 631.177 210.784 Q633.33 208.261 633.33 204.094 L633.33 203.145 L629.094 203.145 M637.589 201.386 L637.589 216.178 L633.33 216.178 L633.33 212.242 Q631.871 214.603 629.695 215.738 Q627.52 216.849 624.371 216.849 Q620.39 216.849 618.029 214.627 Q615.691 212.381 615.691 208.631 Q615.691 204.256 618.608 202.034 Q621.547 199.812 627.357 199.812 L633.33 199.812 L633.33 199.395 Q633.33 196.455 631.385 194.858 Q629.464 193.238 625.969 193.238 Q623.746 193.238 621.64 193.77 Q619.533 194.303 617.589 195.367 L617.589 191.432 Q619.927 190.53 622.126 190.09 Q624.325 189.627 626.408 189.627 Q632.033 189.627 634.811 192.543 Q637.589 195.46 637.589 201.386 Z" fill="#000000" fill-rule="nonzero" fill-opacity="1" /><path clip-path="url(#clip790)" d="M650.575 182.891 L650.575 190.252 L659.348 190.252 L659.348 193.562 L650.575 193.562 L650.575 207.636 Q650.575 210.807 651.431 211.71 Q652.311 212.613 654.973 212.613 L659.348 212.613 L659.348 216.178 L654.973 216.178 Q650.043 216.178 648.168 214.349 Q646.293 212.497 646.293 207.636 L646.293 193.562 L643.168 193.562 L643.168 190.252 L646.293 190.252 L646.293 182.891 L650.575 182.891 Z" fill="#000000" fill-rule="nonzero" fill-opacity="1" /><path clip-path="url(#clip790)" d="M701.57 190.252 L692.195 202.867 L702.056 216.178 L697.033 216.178 L689.487 205.992 L681.941 216.178 L676.917 216.178 L686.987 202.613 L677.774 190.252 L682.797 190.252 L689.672 199.488 L696.547 190.252 L701.57 190.252 Z" fill="#000000" fill-rule="nonzero" fill-opacity="1" /><path clip-path="url(#clip790)" d="M723.7 194.65 L753.375 194.65 L753.375 198.539 L723.7 198.539 L723.7 194.65 M723.7 204.094 L753.375 204.094 L753.375 208.029 L723.7 208.029 L723.7 204.094 Z" fill="#000000" fill-rule="nonzero" fill-opacity="1" /><path clip-path="url(#clip790)" d="M782.565 212.242 L798.884 212.242 L798.884 216.178 L776.94 216.178 L776.94 212.242 Q779.602 209.488 784.185 204.858 Q788.792 200.205 789.972 198.863 Q792.218 196.34 793.097 194.604 Q794 192.844 794 191.155 Q794 188.4 792.056 186.664 Q790.134 184.928 787.033 184.928 Q784.833 184.928 782.38 185.692 Q779.949 186.455 777.171 188.006 L777.171 183.284 Q779.996 182.15 782.449 181.571 Q784.903 180.993 786.94 180.993 Q792.31 180.993 795.505 183.678 Q798.699 186.363 798.699 190.854 Q798.699 192.983 797.889 194.905 Q797.102 196.803 794.995 199.395 Q794.417 200.067 791.315 203.284 Q788.213 206.479 782.565 212.242 Z" fill="#000000" fill-rule="nonzero" fill-opacity="1" /></svg>